<?xml version="1.0" encoding="UTF-8" standalone="no"?>
<svg
   xmlns:dc="http://purl.org/dc/elements/1.1/"
   xmlns:cc="http://creativecommons.org/ns#"
   xmlns:rdf="http://www.w3.org/1999/02/22-rdf-syntax-ns#"
   xmlns:svg="http://www.w3.org/2000/svg"
   xmlns="http://www.w3.org/2000/svg"
   xmlns:sodipodi="http://sodipodi.sourceforge.net/DTD/sodipodi-0.dtd"
   xmlns:inkscape="http://www.inkscape.org/namespaces/inkscape"
   width="2279.3713"
   height="468.2771"
   viewBox="0 0 175.74501 36.105289"
   version="1.1"
   id="svg54"
   sodipodi:docname="cambridge.svg"
   inkscape:version="0.92.4 (5da689c313, 2019-01-14)">
  <metadata
     id="metadata60">
    <rdf:RDF>
      <cc:Work
         rdf:about="">
        <dc:format>image/svg+xml</dc:format>
        <dc:type
           rdf:resource="http://purl.org/dc/dcmitype/StillImage" />
        <dc:title />
      </cc:Work>
    </rdf:RDF>
  </metadata>
  <defs
     id="defs58" />
  <sodipodi:namedview
     pagecolor="#ffffff"
     bordercolor="#666666"
     borderopacity="1"
     objecttolerance="10"
     gridtolerance="10"
     guidetolerance="10"
     inkscape:pageopacity="0"
     inkscape:pageshadow="2"
     inkscape:window-width="1280"
     inkscape:window-height="800"
     id="namedview56"
     showgrid="false"
     fit-margin-top="-0.1"
     fit-margin-left="0"
     fit-margin-right="0"
     fit-margin-bottom="0"
     inkscape:zoom="0.0944"
     inkscape:cx="964.89106"
     inkscape:cy="191.79622"
     inkscape:window-x="0"
     inkscape:window-y="0"
     inkscape:window-maximized="0"
     inkscape:current-layer="svg54" />
  <g
     id="g52"
     style="clip-rule:evenodd;fill-rule:evenodd"
     transform="translate(-8.506,-78.32771)">
    <path
       d="m 15.743,78.482 h 16.811 l 0.724,-0.081 h 1.77 c 0.804,0 2.091,0 4.021,-0.081 h 0.724 c -0.081,1.448 -0.161,2.011 -0.161,2.815 v 16.328 c 0,7.48 -1.689,10.053 -9.813,14.076 -0.322,0.16 -4.504,2.252 -4.906,2.492 l -0.402,0.162 -0.402,0.24 -0.482,-0.24 -0.402,-0.162 c -1.689,-0.965 -3.378,-1.689 -4.746,-2.412 C 11.079,108 8.667,105.426 8.667,97.463 V 81.136 c 0,-1.367 -0.081,-1.85 -0.161,-2.815 H 9.23 c 1.85,0.081 3.217,0.081 4.021,0.081 h 1.689 z"
       id="path4"
       inkscape:connector-curvature="0" />
    <path
       d="m 24.108,113.711 3.137,-1.607 h 0.081 V 97.223 l 0.08,0.08 H 39.069 V 90.869 H 27.326 V 78.964 l -0.081,0.081 h -6.274 l -0.161,-0.081 0.081,0.161 V 90.869 H 9.228 v 6.434 H 20.81 l 0.081,-0.08 v 14.8 l -0.081,0.081 h 0.081 z"
       id="path6"
       inkscape:connector-curvature="0"
       style="fill:#ffffff" />
    <path
       d="M 9.389,79.045 9.228,78.964 V 90.869 H 20.891 V 78.964 l -0.081,0.081 z m 18.097,0 -0.16,-0.081 V 90.869 H 39.069 V 78.964 l -0.081,0.081 z M 20.81,97.303 H 9.309 l -0.081,-0.08 v 0.805 c 0,6.436 2.171,9.572 8.767,12.709 l 2.091,1.045 0.724,0.322 0.081,0.08 V 97.223 Z m 6.596,0 -0.08,-0.08 v 14.881 l 0.08,-0.08 0.644,-0.242 c 8.929,-4.264 11.02,-6.756 11.02,-13.674 v -0.885 l -0.081,0.08 z"
       id="path8"
       inkscape:connector-curvature="0"
       style="fill:#cf4037" />
    <path
       d="m 11.158,91.432 c 0,0.08 0,0.08 0.081,0.08 0,0.081 0,0.081 0.08,0.081 0,0 0,0.081 0.081,0.081 0,0.081 0,0.081 0.081,0.081 l -0.081,0.08 -0.081,0.081 -0.08,0.081 -0.081,0.081 v 0.08 c 0,0.804 0.241,1.368 0.724,1.689 l 0.08,0.081 -0.08,0.08 -0.161,-0.08 h -0.403 l -0.08,0.724 h -0.161 l -0.08,-0.724 h -0.483 l -0.081,0.08 c -0.08,0 -0.08,-0.08 -0.08,-0.08 v -0.081 l 0.161,-0.08 c 0.161,-0.08 0.241,-0.241 0.402,-0.482 0,-0.161 0.081,-0.241 0.081,-0.322 0,-0.241 0,-0.402 0.08,-0.402 v -0.563 l -0.08,-0.081 -0.161,-0.081 v -0.08 c 0,0 0.081,0 0.081,-0.081 0.161,-0.083 0.161,-0.083 0.241,-0.243 z m 3.78,0 c 0.081,0.161 0.081,0.161 0.242,0.241 0,0.081 0,0.081 0.08,0.081 l -0.08,0.08 -0.08,0.08 -0.081,0.081 -0.081,0.081 v 0.08 l 0.081,0.402 c 0,0.483 0.322,1.126 0.644,1.287 l 0.081,0.081 -0.081,0.08 -0.161,-0.08 H 15.1 l -0.161,0.724 h -0.081 l -0.08,-0.724 h -0.483 l -0.081,0.08 c -0.081,0 -0.081,-0.08 -0.081,-0.08 v -0.081 l 0.161,-0.08 c 0.161,-0.08 0.161,-0.161 0.321,-0.482 0.081,-0.161 0.161,-0.241 0.161,-0.322 0,-0.241 0,-0.402 0.08,-0.402 v -0.482 -0.081 c -0.08,0 -0.08,-0.081 -0.161,-0.081 l -0.081,-0.081 v -0.08 l 0.081,-0.081 0.081,-0.081 0.08,-0.081 c 0.002,0.001 0.002,0.001 0.082,-0.079 z m -1.93,2.252 0.081,0.08 0.081,0.08 0.08,0.081 0.081,0.08 -0.161,0.161 -0.081,0.08 v 0.081 c 0,0.885 0.161,1.368 0.643,1.77 h 0.081 l -0.081,0.081 H 13.491 L 13.33,96.097 h -0.161 l -0.081,0.724 h -0.161 l -0.08,-0.724 h -0.081 l -0.161,0.081 h -0.402 l 0.08,-0.081 0.161,-0.081 c 0.322,-0.241 0.482,-0.964 0.482,-1.688 v -0.081 l -0.08,-0.08 -0.081,-0.161 h -0.081 z m 3.781,0 c 0.161,0.08 0.161,0.16 0.322,0.321 l -0.081,0.161 -0.08,0.08 h -0.081 v 0.081 c 0,0.563 0.161,1.207 0.322,1.448 l 0.241,0.241 0.08,0.081 h 0.081 l -0.081,0.081 h -0.241 l -0.16,-0.081 H 16.95 l -0.081,0.724 h -0.081 l -0.161,-0.724 h -0.081 l -0.161,0.081 h -0.403 l 0.081,-0.081 0.161,-0.081 c 0.322,-0.321 0.563,-0.964 0.563,-1.688 v -0.081 h -0.08 l -0.081,-0.08 -0.081,-0.161 h -0.08 c 0.08,0 0.08,-0.08 0.161,-0.08 0,0 0,-0.081 0.081,-0.081 l 0.08,-0.08 v -0.081 z m 1.93,-2.252 c 0.08,0.161 0.08,0.161 0.241,0.241 0,0.081 0,0.081 0.081,0.081 l -0.081,0.08 -0.081,0.081 -0.081,0.081 v 0.563 c 0,0.483 0.322,1.126 0.644,1.287 l 0.081,0.081 c 0,0 0,0.08 -0.081,0.08 l -0.08,-0.08 H 19.12 18.88 l -0.081,0.724 h -0.161 l -0.081,-0.724 h -0.483 l -0.081,0.08 c -0.081,0 -0.081,-0.08 -0.081,-0.08 l 0.081,-0.081 0.081,-0.08 c 0.161,-0.08 0.241,-0.161 0.402,-0.482 0.081,-0.161 0.081,-0.241 0.081,-0.322 0,-0.241 0,-0.402 0.081,-0.402 v -0.563 l -0.081,-0.081 -0.081,-0.081 c 0,0 -0.08,0 -0.08,-0.08 0,0 0.08,0 0.08,-0.081 0.081,0 0.081,-0.081 0.081,-0.081 0,0 0.081,0 0.081,-0.081 10e-4,0 0.081,0 0.081,-0.08 z m 10.778,0 0.081,0.08 0.081,0.081 c 0,0.081 0.081,0.081 0.081,0.081 0,0.081 0,0.081 0.08,0.081 l -0.08,0.08 -0.081,0.081 -0.081,0.081 v 0.081 c 0,0.804 0.241,1.528 0.644,1.769 0.08,0 0.08,0.081 0.08,0.081 h -0.16 c -0.161,0 -0.322,0 -0.483,-0.081 l -0.081,0.724 h -0.161 l -0.081,-0.724 c -0.161,0.081 -0.402,0.081 -0.483,0.081 h -0.161 c 0,0 0,-0.081 0.081,-0.081 0.402,-0.241 0.644,-0.965 0.644,-1.769 v -0.081 l -0.081,-0.081 -0.081,-0.081 -0.081,-0.08 c 0,0 0.081,0 0.081,-0.081 0,0 0.081,0 0.081,-0.081 l 0.081,-0.081 z m 3.781,0 0.08,0.08 0.081,0.081 0.081,0.081 0.08,0.081 v 0.08 l -0.161,0.081 -0.081,0.081 v 0.081 c 0,0.804 0.241,1.528 0.644,1.769 0.081,0 0.081,0.081 0.081,0.081 h -0.161 c -0.081,0 -0.322,0 -0.483,-0.081 l -0.081,0.724 h -0.161 l -0.081,-0.724 c -0.161,0.081 -0.322,0.081 -0.482,0.081 h -0.161 c 0,-0.081 0.081,-0.081 0.081,-0.081 0.081,-0.08 0.241,-0.16 0.322,-0.321 0.161,-0.241 0.241,-0.482 0.241,-0.644 0,-0.162 0.081,-0.322 0.081,-0.322 v -0.402 l 0.081,-0.161 h -0.081 l -0.241,-0.241 0.081,-0.081 0.08,-0.081 0.081,-0.081 z m -1.85,2.252 v 0.08 c 0.081,0 0.081,0 0.081,0.08 0.08,0 0.08,0 0.08,0.081 0.081,0 0.081,0 0.161,0.08 h -0.081 l -0.081,0.081 -0.08,0.081 -0.081,0.08 v 0.161 l 0.081,0.322 c 0,0.563 0.321,1.126 0.643,1.286 0,0.081 0.081,0.081 0.081,0.162 H 31.99 c -0.081,0 -0.322,-0.081 -0.402,-0.081 l -0.161,0.724 h -0.081 l -0.161,-0.724 c -0.08,0.081 -0.321,0.081 -0.482,0.081 -0.08,0 -0.08,0 -0.08,-0.081 l 0.08,-0.081 c 0.081,0 0.241,-0.16 0.322,-0.321 0.161,-0.242 0.242,-0.483 0.242,-0.563 0,-0.241 0,-0.402 0.08,-0.402 v -0.483 l -0.08,-0.08 -0.081,-0.081 -0.08,-0.081 c 0,-0.08 0.08,-0.08 0.08,-0.08 0.081,-0.161 0.161,-0.161 0.242,-0.241 z m 3.78,0 c 0.081,0 0.081,0 0.081,0.08 0.08,0 0.08,0 0.08,0.08 0,0 0.081,0 0.081,0.081 0,0 0.081,0 0.081,0.08 -0.081,0.081 -0.081,0.081 -0.161,0.081 0,0.081 -0.08,0.081 -0.08,0.081 v 0.563 c 0.08,0.563 0.322,1.126 0.644,1.286 0.08,0.081 0.08,0.081 0.08,0.162 h -0.161 c -0.081,0 -0.322,-0.081 -0.483,-0.081 l -0.08,0.724 h -0.161 l -0.08,-0.724 c -0.161,0.081 -0.322,0.081 -0.483,0.081 -0.081,0 -0.161,0 -0.161,-0.081 0,0 0.08,0 0.08,-0.081 0.081,0 0.241,-0.16 0.322,-0.321 0.161,-0.242 0.241,-0.483 0.321,-0.563 v -0.724 l 0.081,-0.161 -0.081,-0.08 -0.08,-0.081 -0.081,-0.081 h -0.081 l 0.081,-0.08 z m 1.93,-2.252 0.081,0.08 0.08,0.081 0.08,0.081 0.081,0.081 -0.081,0.08 -0.08,0.081 -0.08,0.081 v 0.081 c 0,0.804 0.241,1.528 0.643,1.769 0.081,0 0.081,0.081 0.081,0.081 h -0.162 c -0.161,0 -0.321,0 -0.482,-0.081 l -0.08,0.724 h -0.161 l -0.08,-0.724 c -0.161,0.081 -0.402,0.081 -0.483,0.081 h -0.161 c 0,-0.081 0,-0.081 0.081,-0.081 0.081,-0.08 0.241,-0.16 0.322,-0.321 0.161,-0.241 0.242,-0.482 0.242,-0.644 0,-0.162 0,-0.322 0.08,-0.322 v -0.563 l -0.08,-0.081 -0.161,-0.081 v -0.08 l 0.08,-0.081 0.081,-0.081 0.08,-0.081 z m -14.8,10.295 c 0.081,0.082 0.081,0.162 0.242,0.242 0,0.08 0.081,0.08 0.081,0.08 l -0.081,0.08 -0.081,0.08 -0.081,0.082 v 0.562 c 0,0.322 0.161,0.723 0.322,0.965 0.081,0.16 0.241,0.322 0.322,0.322 0.081,0 0.081,0.08 0.081,0.08 0,0 0,0.08 -0.161,0.08 -0.161,0 -0.321,-0.08 -0.482,-0.08 l -0.081,0.643 h -0.161 l -0.081,-0.643 c -0.161,0 -0.322,0.08 -0.483,0.08 h -0.08 c -0.081,0 -0.081,-0.08 -0.081,-0.08 0,0 0,-0.08 0.081,-0.08 0.08,-0.08 0.241,-0.162 0.322,-0.322 0.161,-0.322 0.241,-0.482 0.241,-0.562 0,-0.242 0.081,-0.402 0.081,-0.402 v -0.562 l -0.081,-0.082 -0.081,-0.08 -0.081,-0.08 c 0.081,0 0.081,0 0.081,-0.08 0.081,0 0.081,-0.08 0.081,-0.08 0,0 0.081,0 0.081,-0.08 0,-0.001 0.08,-0.001 0.08,-0.083 z m 3.54,0 c 0.08,0.082 0.161,0.162 0.241,0.242 l 0.081,0.08 v 0.08 l -0.081,0.08 -0.081,0.082 -0.081,0.08 v 0.482 c 0.081,0.322 0.161,0.723 0.322,0.965 0.161,0.16 0.241,0.322 0.322,0.322 0.081,0 0.081,0.08 0.081,0.08 0,0 0,0.08 -0.081,0.08 -0.161,0 -0.402,-0.08 -0.482,-0.08 l -0.161,0.643 h -0.08 l -0.161,-0.643 c -0.081,0 -0.322,0.08 -0.402,0.08 h -0.08 c -0.081,0 -0.161,-0.08 -0.161,-0.08 0,0 0.081,-0.08 0.161,-0.08 0.08,-0.08 0.161,-0.162 0.241,-0.322 0.241,-0.322 0.322,-0.482 0.322,-0.562 v -0.402 l 0.081,-0.402 v -0.08 l -0.081,-0.08 -0.161,-0.162 -0.08,-0.08 c 0.08,0 0.08,0 0.08,-0.08 0.081,0 0.081,-0.08 0.161,-0.08 l 0.081,-0.08 z m -1.77,3.218 v 0.16 h 0.161 l 0.08,0.16 0.081,0.082 h -0.081 l -0.08,0.08 c 0,0 0,0.08 -0.08,0.08 0,0 0,0.08 -0.081,0.08 l 0.081,0.08 v 0.402 c 0,0.562 0.321,1.207 0.643,1.287 l 0.081,0.08 v 0.08 H 24.51 c 0,-0.08 -0.08,-0.08 -0.161,-0.08 h -0.08 l -0.08,0.725 h -0.161 l -0.081,-0.725 h -0.081 l -0.241,0.08 h -0.242 c -0.08,0 -0.08,0 -0.08,-0.08 l 0.08,-0.08 c 0.081,0 0.241,-0.16 0.322,-0.322 0.161,-0.24 0.241,-0.482 0.241,-0.562 0,-0.242 0,-0.402 0.081,-0.402 v -0.562 l -0.081,-0.08 -0.081,-0.08 h -0.08 l 0.08,-0.082 0.081,-0.16 0.081,-0.08 z m -1.77,3.297 0.081,0.08 0.081,0.082 0.081,0.16 0.081,0.08 H 22.58 l -0.081,0.08 -0.081,0.08 v 0.564 c 0,0.562 0.322,1.125 0.644,1.287 l 0.081,0.08 -0.081,0.08 h -0.081 c -0.08,0 -0.241,-0.08 -0.482,-0.08 l -0.081,0.723 h -0.161 l -0.081,-0.723 c -0.241,0 -0.402,0.08 -0.483,0.08 -0.161,0 -0.161,0 -0.161,-0.08 l 0.081,-0.08 c 0.08,0 0.241,-0.162 0.322,-0.322 0.161,-0.242 0.241,-0.482 0.241,-0.564 0,-0.24 0,-0.4 0.081,-0.4 v -0.564 c -0.081,0 -0.081,-0.08 -0.081,-0.08 l -0.081,-0.08 h -0.081 l 0.081,-0.08 0.081,-0.16 0.081,-0.082 z m 3.54,0 0.08,0.08 0.081,0.082 0.081,0.16 0.081,0.08 -0.081,0.08 c -0.081,0 -0.081,0.08 -0.081,0.08 -0.081,0 -0.081,0.082 -0.081,0.082 v 0.482 c 0.081,0.32 0.161,0.723 0.322,0.965 0.161,0.16 0.241,0.322 0.322,0.322 l 0.081,0.08 c 0,0.08 0,0.08 -0.081,0.08 -0.161,0 -0.322,-0.08 -0.482,-0.08 l -0.161,0.723 h -0.08 l -0.161,-0.723 c -0.241,0 -0.322,0.08 -0.402,0.08 h -0.08 c -0.081,0 -0.161,0 -0.161,-0.08 0,0 0.081,0 0.161,-0.08 0.08,0 0.161,-0.162 0.241,-0.322 0.241,-0.242 0.322,-0.482 0.322,-0.564 v -0.4 l 0.081,-0.402 v -0.08 l -0.081,-0.082 -0.081,-0.08 -0.081,-0.08 h -0.08 l 0.08,-0.08 0.161,-0.16 0.081,-0.082 v -0.081 z m -1.77,-9.732 0.081,0.08 0.08,0.08 0.08,0.082 0.081,0.08 -0.081,0.08 -0.08,0.08 -0.08,0.08 h -0.081 l 0.081,0.162 v 0.32 c 0,0.564 0.321,1.207 0.643,1.369 0,0 0.081,0 0.081,0.08 h -0.161 c -0.08,0 -0.241,0 -0.482,-0.08 l -0.08,0.723 h -0.161 l -0.081,-0.723 c -0.241,0.08 -0.402,0.08 -0.482,0.08 h -0.161 c 0,-0.08 0,-0.08 0.08,-0.08 l 0.322,-0.322 c 0.161,-0.322 0.241,-0.482 0.241,-0.645 0,-0.16 0,-0.402 0.081,-0.402 v -0.482 l -0.081,-0.08 -0.081,-0.08 -0.08,-0.08 0.08,-0.08 0.081,-0.082 0.081,-0.08 z m -1.77,-18.259 v 0.08 l 0.081,0.081 c 0.081,0 0.081,0.081 0.161,0.081 v 0.161 l -0.08,0.08 -0.081,0.08 c 0,0 -0.081,0 -0.081,0.081 v 0.081 l 0.081,0.402 c 0,0.322 0.161,0.804 0.322,0.965 l 0.161,0.241 0.08,0.081 0.161,0.08 -0.161,0.081 -0.08,-0.081 H 22.5 l -0.161,0.644 -0.08,0.08 -0.081,-0.724 h -0.483 l -0.08,0.081 c -0.081,0 -0.081,-0.081 -0.081,-0.081 v -0.08 c 0,0 0.081,0 0.161,-0.081 0.161,-0.081 0.161,-0.161 0.322,-0.483 0.081,-0.161 0.161,-0.241 0.161,-0.322 0,-0.241 0,-0.402 0.081,-0.402 v -0.483 l -0.081,-0.081 -0.081,-0.08 -0.081,-0.081 v -0.081 l 0.081,-0.08 c 0.081,-0.079 0.161,-0.079 0.241,-0.24 z m 3.54,0 c 0.08,0.161 0.161,0.161 0.241,0.241 l 0.081,0.08 v 0.081 l -0.081,0.081 -0.081,0.08 -0.081,0.081 v 0.483 c 0.081,0.482 0.402,1.126 0.644,1.287 0.081,0 0.081,0.08 0.081,0.08 v 0.081 l -0.161,-0.081 h -0.403 l -0.161,0.724 h -0.08 l -0.161,-0.724 -0.081,-0.08 -0.161,0.08 h -0.161 l -0.08,0.081 h -0.081 v -0.081 -0.08 l 0.161,-0.081 c 0.161,-0.081 0.161,-0.161 0.322,-0.483 0.081,-0.161 0.161,-0.241 0.161,-0.322 v -0.402 l 0.081,-0.402 v -0.081 l -0.081,-0.081 -0.081,-0.08 c 0,-0.081 -0.081,-0.081 -0.081,-0.081 l -0.08,-0.081 c 0.08,0 0.08,0 0.08,-0.08 0.081,0 0.081,-0.081 0.161,-0.081 l 0.081,-0.081 c 0.002,0.003 0.002,0.003 0.002,-0.078 z m -1.77,3.137 v 0.08 l 0.081,0.081 c 0.08,0.08 0.08,0.08 0.16,0.08 0,0.08 0,0.08 0.081,0.08 l -0.081,0.081 -0.08,0.08 -0.08,0.081 -0.081,0.081 v 0.08 l 0.081,0.322 c 0,0.563 0.321,1.207 0.643,1.368 l 0.081,0.081 h -0.242 c -0.081,0 -0.322,0 -0.402,-0.081 l -0.161,0.724 h -0.08 l -0.081,-0.724 c -0.161,0.081 -0.402,0.081 -0.563,0.081 h -0.08 c 0,0 0,-0.081 0.08,-0.081 0.081,0 0.241,-0.161 0.322,-0.322 0.161,-0.241 0.241,-0.483 0.241,-0.563 0,-0.241 0,-0.402 0.081,-0.402 v -0.482 c 0,-0.081 0,-0.081 -0.081,-0.081 v -0.081 l -0.161,-0.08 V 83.71 l 0.08,-0.08 0.081,-0.08 0.081,-0.081 z m -1.85,3.137 0.08,0.081 0.081,0.08 0.081,0.08 0.081,0.081 -0.081,0.16 -0.081,0.081 h -0.081 v 0.08 c 0,0.563 0.161,1.207 0.322,1.368 l 0.241,0.322 0.08,0.08 h 0.081 l -0.081,0.081 H 22.74 L 22.579,88.938 H 22.5 l -0.161,0.724 h -0.08 l -0.161,-0.724 h -0.081 l -0.161,0.081 h -0.403 l 0.081,-0.081 0.161,-0.08 c 0.322,-0.322 0.563,-0.965 0.563,-1.689 v -0.08 h -0.081 l -0.081,-0.081 c 0,-0.08 -0.081,-0.08 -0.081,-0.16 h -0.08 c 0.08,0 0.08,-0.081 0.161,-0.081 0,0 0,-0.08 0.081,-0.08 l 0.081,-0.08 z m 3.62,0 c 0.08,0 0.08,0.081 0.08,0.081 0.081,0 0.081,0.08 0.081,0.08 0,0 0.081,0 0.081,0.08 l 0.081,0.081 -0.161,0.16 -0.081,0.081 v 0.483 c 0.081,0.563 0.242,1.045 0.644,1.367 h 0.081 l -0.081,0.081 H 26.36 L 26.2,88.938 h -0.161 l -0.081,0.724 h -0.161 l -0.081,-0.724 c -0.161,0 -0.161,0.081 -0.241,0.081 h -0.403 l 0.081,-0.081 0.161,-0.08 c 0.081,-0.161 0.161,-0.161 0.322,-0.563 0.081,-0.161 0.081,-0.241 0.081,-0.322 0,-0.161 0.081,-0.402 0.081,-0.402 v -0.322 l 0.081,-0.161 h -0.081 l -0.081,-0.081 -0.081,-0.16 h -0.08 c 0.08,0 0.08,-0.081 0.08,-0.081 z m -7.481,-1.608 0.08,0.161 c 0,0.081 0.081,0.241 0.081,0.322 0.081,0.563 0.241,0.724 0.483,0.724 0.161,0 0.322,-0.161 0.322,-0.241 l 0.08,-0.242 0.081,-0.08 c 0.081,0 0.161,0.161 0.161,0.402 0,0.08 0,0.241 0.08,0.482 0,0.161 0.081,0.321 0.081,0.402 0,0.16 -0.081,0.241 -0.081,0.321 0,0.241 0.081,0.482 0.081,0.644 0,0.241 -0.081,0.482 -0.161,0.563 0.08,0.161 0.08,0.241 0.08,0.402 0,0.081 0,0.241 -0.08,0.322 v 0.643 L 19.443,89.661 19.282,89.58 c -0.081,-0.08 -0.161,-0.08 -0.241,-0.161 -0.242,0.161 -0.242,0.161 -0.805,0.322 -0.081,0 -0.161,0 -0.161,0.08 -0.081,0 -0.161,0.081 -0.161,0.081 -0.08,0 -0.161,-0.161 -0.161,-0.483 0,-0.161 0.081,-0.402 0.081,-0.482 -0.161,-0.08 -0.241,-0.161 -0.322,-0.161 0,0 -0.08,0.081 -0.16,0.081 h -0.081 v -0.081 -0.241 l 0.161,-0.242 c 0,-0.08 0.08,-0.161 0.241,-0.322 0.081,-0.08 0.161,-0.08 0.241,-0.161 h 0.322 c 0.241,-0.081 0.402,-0.161 0.402,-0.322 0,-0.161 -0.161,-0.241 -0.322,-0.322 l -0.482,-0.161 c -0.081,0 -0.241,-0.08 -0.322,-0.16 -0.241,-0.161 -0.321,-0.161 -0.401,-0.161 -0.081,0 -0.081,0 -0.081,0.161 0,0.16 0.081,0.321 0.241,0.321 0.081,0 0.081,0 0.081,-0.08 h 0.16 c 0,0 0.081,0 0.081,0.08 l -0.081,0.241 c 0,0.081 -0.08,0.322 -0.321,0.563 l -0.08,0.161 c -0.081,0.322 -0.242,0.563 -0.483,0.724 -0.081,0.08 -0.161,0.08 -0.161,0.08 0,0 0,0.081 -0.081,0.161 0,0.08 -0.081,0.161 -0.161,0.241 l -0.241,0.241 c -0.161,0.081 -0.241,0.161 -0.241,0.161 L 15.662,89.9 c 0,0.081 -0.081,0.081 -0.081,0.081 -0.081,0 -0.161,-0.081 -0.241,-0.241 0,-0.161 -0.081,-0.161 -0.161,-0.161 h -0.643 c -0.161,0 -0.402,0.081 -0.563,0.161 h -0.08 c 0,0 -0.08,0 -0.08,-0.081 v -0.081 c 0,-0.161 0.08,-0.482 0.321,-0.804 0.081,-0.161 0.081,-0.161 0.241,-0.322 A 0.63,0.63 0 0 0 14.054,88.13 h -0.161 v -0.081 c 0,-0.081 0.08,-0.081 0.241,-0.161 0.161,-0.161 0.402,-0.161 0.482,-0.161 0.241,0 0.402,0 0.563,0.161 0.241,0.241 0.321,0.241 0.482,0.241 0.161,0 0.402,-0.161 0.402,-0.402 0,-0.081 -0.081,-0.241 -0.241,-0.482 -0.322,-0.402 -0.402,-0.563 -0.402,-0.804 0,-0.161 0.08,-0.402 0.161,-0.482 l 0.081,-0.161 v -0.081 c 0,-0.081 -0.081,-0.161 -0.161,-0.161 -0.161,0 -0.482,0.161 -0.724,0.322 -0.081,0 -0.161,0.161 -0.161,0.161 v 0.081 l 0.161,0.081 v 0.08 l -0.081,0.081 -0.161,0.242 c -0.081,0.08 -0.241,0.321 -0.402,0.401 -0.08,0.081 -0.08,0.081 -0.161,0.081 0,0 0,0.08 -0.08,0.161 0,0.161 -0.241,0.322 -0.402,0.482 -0.08,0.081 -0.161,0.081 -0.161,0.081 0,0 0,0.081 -0.081,0.161 0,0.081 -0.08,0.161 -0.08,0.242 -0.161,0.08 -0.242,0.241 -0.242,0.241 l -0.322,0.322 c -0.08,0.081 -0.161,0.241 -0.241,0.643 l -0.161,0.322 c -0.081,0 -0.081,0 -0.081,-0.081 -0.241,-0.242 -0.402,-0.322 -0.482,-0.322 h -0.081 c -0.081,0.08 -0.242,0.08 -0.322,0.161 h -0.322 c -0.322,0.08 -0.402,0.161 -0.563,0.321 l -0.08,0.081 c -0.081,0 -0.081,-0.081 -0.081,-0.081 v -0.161 l 0.081,-0.242 c 0,-0.241 0.08,-0.482 0.16,-0.643 l 0.161,-0.322 c 0.081,-0.081 0.081,-0.081 0.081,-0.161 0,-0.241 -0.242,-0.402 -0.563,-0.482 h -0.081 c 0,-0.081 0.081,-0.161 0.161,-0.241 0.241,-0.161 0.483,-0.322 0.644,-0.322 0.161,0 0.322,0.081 0.482,0.161 l 0.242,0.081 c 0.081,0 0.161,0.081 0.161,0.081 0.241,0 0.483,-0.241 0.805,-0.724 0.08,-0.241 0.161,-0.322 0.161,-0.483 0,-0.241 -0.161,-0.402 -0.322,-0.402 -0.161,0 -0.322,0.08 -0.482,0.161 C 11.8,86.202 11.8,86.362 11.8,86.443 v 0.161 c 0,0.08 -0.081,0.08 -0.081,0.08 -0.161,0 -0.241,-0.08 -0.644,-0.563 -0.321,-0.402 -0.402,-0.483 -0.402,-0.885 -0.322,-0.402 -0.402,-0.644 -0.402,-0.885 V 84.11 c -0.242,-0.241 -0.322,-0.402 -0.322,-0.724 0,-0.08 0.081,-0.08 0.081,-0.241 C 9.949,82.984 9.869,82.904 9.869,82.743 L 9.788,82.582 A 0.615,0.615 0 0 0 9.627,82.18 C 9.55,82.101 9.55,82.021 9.55,82.021 9.55,81.86 9.631,81.86 9.952,81.779 v -0.241 c 0,-0.08 0,-0.081 0.081,-0.241 v -0.402 c 0.081,-0.081 0.081,-0.241 0.081,-0.322 0,0 0,-0.08 -0.081,-0.321 0,-0.081 -0.081,-0.161 -0.081,-0.161 -0.08,-0.08 -0.08,-0.161 -0.08,-0.161 0,-0.08 0,-0.08 0.08,-0.08 0.081,0 0.322,0.161 0.644,0.402 0.563,0.482 0.644,0.643 0.724,1.206 0,0.081 0.081,0.161 0.081,0.242 a 0.843,0.843 0 0 1 0.402,0.724 c 0,0.161 -0.081,0.402 -0.241,0.644 l -0.161,0.242 c -0.081,0.16 -0.081,0.241 -0.081,0.401 0,0.161 0.081,0.322 0.161,0.563 0.161,0.241 0.322,0.402 0.482,0.402 0.242,0 0.483,-0.483 0.483,-0.966 v -0.321 -0.322 c 0,-0.161 0.081,-0.241 0.081,-0.241 v -0.402 c 0,-0.08 -0.081,-0.161 -0.161,-0.241 l -0.161,-0.241 c -0.322,-0.322 -0.483,-0.644 -0.483,-0.885 0,-0.322 0.161,-0.563 0.483,-0.563 0.08,0 0.08,0.08 0.241,0.08 v -0.08 c 0,-0.402 0.081,-0.724 0.161,-0.724 h 0.081 l 0.161,0.16 0.241,0.081 v 0.08 c 0,-0.08 0.081,-0.08 0.161,-0.241 0,-0.08 0.081,-0.08 0.161,-0.241 0,-0.081 0.08,-0.081 0.08,-0.081 0,-0.081 0,-0.081 0.081,-0.161 0,0 0,-0.081 0.081,-0.081 0,0 0,0.081 0.08,0.161 0,0.081 0,0.081 0.161,0.241 0.08,0.081 0.161,0.081 0.161,0.161 0,0 0,0.08 0.08,0.161 v 0.08 c 0.081,-0.08 0.161,-0.08 0.241,-0.161 l 0.161,-0.08 0.08,-0.08 c 0,0 0,0.08 0.081,0.08 0,0.08 0,0.08 0.081,0.161 0.08,0.16 0.08,0.241 0.08,0.321 v 0.241 c 0.322,0.081 0.483,0.322 0.483,0.644 0,0.241 -0.161,0.563 -0.402,0.885 -0.161,0.161 -0.161,0.242 -0.161,0.322 0,0.804 0.482,1.207 1.368,1.207 h 0.724 c 0.402,0 0.643,0.08 1.045,0.161 0.483,0.161 0.644,0.241 0.724,0.241 0.08,0 0.161,0 0.161,-0.081 0.081,0 0.081,0 0.081,-0.081 0,-0.161 -0.241,-0.241 -1.045,-0.482 -1.689,-0.482 -2.333,-1.126 -2.333,-2.172 0,-0.885 0.644,-1.528 1.609,-1.528 0.241,0 0.724,0.081 0.965,0.161 l 0.402,0.161 c 0.081,0 0.161,0.08 0.242,0.08 0.161,0 0.161,-0.161 0.161,-0.402 0,-0.08 0.081,-0.161 0.161,-0.161 0.08,0 0.322,0.161 0.482,0.402 0.161,0.161 0.241,0.483 0.241,0.644 0,0.241 -0.08,0.402 -0.322,0.483 -0.241,0.402 -0.563,0.482 -0.885,0.482 -0.322,0 -0.724,-0.161 -1.367,-0.482 -0.241,-0.161 -0.402,-0.242 -0.482,-0.242 -0.241,0 -0.322,0.161 -0.322,0.322 0,0.08 0.081,0.241 0.402,0.321 0.402,0.161 0.563,0.161 0.724,0.402 0.483,0.081 0.724,0.161 1.046,0.402 0.885,0.241 1.448,0.885 1.448,1.528 0,0.724 -0.483,1.206 -1.126,1.206 -0.165,0.002 -0.245,-0.078 -0.487,-0.078 z m 18.661,0 v 0.161 c 0.08,0.081 0.08,0.241 0.08,0.322 0.161,0.563 0.241,0.724 0.563,0.724 0.161,0 0.241,-0.161 0.321,-0.241 V 85.64 c 0.081,0 0.081,-0.08 0.161,-0.08 0.08,0 0.161,0.161 0.161,0.402 0,0.08 0,0.241 0.081,0.482 v 0.482 c 0,0.08 0,0.161 -0.081,0.241 l 0.081,0.161 v 0.321 c 0,0.483 0,0.563 -0.081,0.724 v 0.724 l -0.08,0.321 v 0.161 c 0.08,0.081 0.08,0.081 0.08,0.161 h -0.08 l -0.161,-0.081 -0.241,-0.081 c -0.081,-0.08 -0.081,-0.08 -0.241,-0.161 -0.161,0.161 -0.161,0.161 -0.402,0.242 -0.322,0.081 -0.483,0.081 -0.563,0.161 l -0.08,0.081 c -0.081,0 -0.161,-0.161 -0.161,-0.402 0,-0.322 0,-0.483 0.081,-0.563 -0.241,-0.08 -0.322,-0.161 -0.402,-0.161 l -0.081,0.081 h -0.08 l -0.081,-0.081 c 0,-0.161 0.081,-0.322 0.161,-0.483 0.161,-0.241 0.402,-0.402 0.483,-0.482 h 0.402 c 0.241,-0.081 0.322,-0.161 0.322,-0.322 0,-0.161 -0.081,-0.241 -0.322,-0.322 l -0.402,-0.161 c -0.161,-0.08 -0.241,-0.08 -0.402,-0.16 -0.081,-0.081 -0.161,-0.161 -0.241,-0.161 h -0.081 c -0.081,0 -0.161,0 -0.161,0.161 0,0.16 0.161,0.321 0.322,0.321 0,0 0.08,0 0.08,-0.08 h 0.081 c 0.081,0 0.081,0.08 0.081,0.08 0,0.161 -0.081,0.482 -0.241,0.644 l -0.081,0.161 -0.081,0.161 a 1.63,1.63 0 0 1 -0.563,0.724 l -0.081,0.08 c 0,0 -0.08,0.081 -0.08,0.161 0,0.08 -0.081,0.161 -0.241,0.241 l -0.242,0.241 -0.161,0.161 -0.161,0.161 c 0,0.081 0,0.081 -0.08,0.081 -0.081,0 -0.161,-0.081 -0.161,-0.241 -0.08,-0.161 -0.08,-0.161 -0.161,-0.161 h -0.643 c -0.241,0 -0.482,0.081 -0.563,0.161 h -0.161 c 0,0 -0.08,-0.081 -0.08,-0.161 0,-0.322 0.241,-0.804 0.563,-1.126 0,-0.161 -0.081,-0.241 -0.241,-0.322 h -0.161 l -0.081,-0.081 c 0,-0.081 0.081,-0.161 0.242,-0.161 0.322,-0.161 0.402,-0.161 0.563,-0.161 0.161,0 0.321,0 0.482,0.161 0.322,0.241 0.402,0.241 0.482,0.241 0.241,0 0.402,-0.161 0.402,-0.402 0,-0.081 0,-0.241 -0.241,-0.482 -0.241,-0.402 -0.322,-0.563 -0.322,-0.885 0,-0.161 0,-0.322 0.161,-0.563 l 0.081,-0.081 c 0,-0.081 -0.081,-0.161 -0.241,-0.161 -0.081,0 -0.242,0.08 -0.402,0.161 -0.242,0.161 -0.483,0.242 -0.483,0.322 0,0.081 0.081,0.081 0.081,0.081 l 0.08,0.081 v 0.161 l -0.241,0.242 a 0.965,0.965 0 0 1 -0.402,0.401 c 0,0.081 -0.081,0.081 -0.081,0.081 l -0.081,0.161 c -0.081,0.161 -0.241,0.322 -0.402,0.482 -0.08,0.081 -0.161,0.081 -0.161,0.081 0,0.081 -0.081,0.081 -0.081,0.161 -0.081,0.161 -0.241,0.402 -0.402,0.483 l -0.241,0.322 c -0.081,0.081 -0.161,0.322 -0.322,0.643 -0.08,0.242 -0.08,0.322 -0.161,0.322 l -0.081,-0.081 c -0.161,-0.242 -0.321,-0.322 -0.402,-0.322 h -0.16 c -0.081,0.08 -0.161,0.08 -0.242,0.161 h -0.402 c -0.241,0.08 -0.402,0.161 -0.563,0.321 0,0.081 0,0.081 -0.081,0.081 V 89.66 89.418 c 0.081,-0.241 0.161,-0.482 0.242,-0.643 l 0.161,-0.322 c 0,0 0.081,-0.081 0.081,-0.161 0,-0.241 -0.241,-0.402 -0.563,-0.482 -0.081,0 -0.081,0 -0.081,-0.081 l 0.161,-0.161 c 0.242,-0.161 0.483,-0.322 0.644,-0.322 0.081,0 0.242,0.081 0.402,0.161 l 0.242,0.081 c 0.08,0 0.16,0.081 0.241,0.081 0.241,0 0.482,-0.241 0.724,-0.724 0.161,-0.241 0.161,-0.322 0.161,-0.483 0,-0.241 -0.081,-0.402 -0.322,-0.402 -0.08,0 -0.241,0.08 -0.402,0.161 -0.081,0.081 -0.161,0.241 -0.161,0.322 v 0.161 c 0,0.08 0,0.08 -0.081,0.08 -0.08,0 -0.16,-0.08 -0.321,-0.241 C 29.9,86.362 29.82,86.202 29.659,86.121 29.418,85.719 29.337,85.638 29.337,85.236 29.015,84.834 28.935,84.592 28.935,84.351 V 84.11 c -0.241,-0.321 -0.322,-0.402 -0.322,-0.644 0,-0.16 0,-0.241 0.081,-0.321 -0.161,-0.161 -0.161,-0.241 -0.241,-0.402 v -0.161 c -0.081,-0.161 -0.081,-0.322 -0.161,-0.402 -0.08,-0.081 -0.08,-0.161 -0.08,-0.161 0,-0.081 0.08,-0.161 0.321,-0.242 h 0.081 v -0.241 -0.241 l 0.081,-0.402 V 80.571 80.25 c -0.081,-0.081 -0.081,-0.161 -0.161,-0.161 v -0.161 c 0,0 0,-0.08 0.081,-0.08 0,0 0.081,0 0.081,0.08 0.322,0.161 0.724,0.483 0.965,0.724 0.241,0.241 0.322,0.483 0.322,1.046 0.321,0.241 0.482,0.402 0.482,0.724 0,0.242 -0.08,0.402 -0.241,0.644 -0.08,0.161 -0.161,0.242 -0.161,0.242 -0.08,0.16 -0.161,0.241 -0.161,0.401 0,0.161 0.081,0.322 0.242,0.563 0.16,0.241 0.241,0.402 0.402,0.402 0.322,0 0.563,-0.483 0.563,-0.966 l -0.081,-0.08 v -0.321 l 0.081,-0.242 v -0.643 c 0,-0.08 0,-0.08 -0.322,-0.482 -0.322,-0.322 -0.483,-0.644 -0.483,-0.885 0,-0.322 0.242,-0.563 0.483,-0.563 0.081,0 0.161,0.08 0.241,0.08 V 80.25 l 0.081,-0.241 c 0.08,-0.241 0.08,-0.241 0.161,-0.241 l 0.241,0.16 0.161,0.081 0.081,0.08 c 0,-0.08 0,-0.161 0.161,-0.241 0,-0.08 0.081,-0.161 0.081,-0.241 l 0.161,-0.081 v -0.161 c 0.081,0 0.081,-0.081 0.081,-0.081 0.081,0 0.081,0.081 0.081,0.161 0.081,0.081 0.081,0.081 0.081,0.161 l 0.161,0.08 c 0.081,0.081 0.161,0.241 0.241,0.402 l 0.161,-0.161 0.161,-0.08 c 0.081,0 0.081,-0.08 0.161,-0.08 v 0.08 c 0,0.08 0.08,0.08 0.08,0.161 0.161,0.241 0.161,0.241 0.161,0.402 v 0.161 c 0.321,0.081 0.402,0.241 0.402,0.644 0,0.241 -0.081,0.563 -0.322,0.885 -0.161,0.161 -0.241,0.242 -0.241,0.402 0,0.724 0.563,1.126 1.448,1.126 h 0.643 c 0.483,0 0.724,0.08 1.126,0.161 0.402,0.161 0.562,0.241 0.724,0.241 0.08,0 0.161,-0.081 0.161,-0.161 0,-0.161 -0.241,-0.241 -1.046,-0.482 -1.608,-0.482 -2.333,-1.126 -2.333,-2.172 0,-0.885 0.724,-1.528 1.608,-1.528 0.322,0 0.724,0.081 1.046,0.161 l 0.402,0.161 c 0.081,0 0.161,0.08 0.161,0.08 0.161,0 0.241,-0.161 0.241,-0.402 0,-0.08 0.081,-0.161 0.161,-0.161 0.08,0 0.241,0.161 0.402,0.402 0.161,0.161 0.241,0.483 0.241,0.644 0,0.241 -0.08,0.402 -0.322,0.483 -0.241,0.402 -0.482,0.482 -0.885,0.482 -0.241,0 -0.724,-0.161 -1.367,-0.482 -0.241,-0.161 -0.322,-0.242 -0.482,-0.242 -0.161,0 -0.241,0.161 -0.241,0.322 0,0.08 0.08,0.241 0.402,0.321 0.402,0.161 0.563,0.242 0.644,0.402 0.563,0.081 0.724,0.161 1.045,0.402 0.965,0.322 1.448,0.885 1.448,1.528 0,0.724 -0.402,1.206 -1.046,1.206 -0.166,0.003 -0.246,-0.077 -0.487,-0.077 z m -18.419,18.821 c 0.081,0.24 0.081,0.322 0.081,0.482 v 0.402 c 0.08,0.402 0.161,0.643 0.482,0.643 0.081,0 0.161,0 0.161,-0.08 l 0.161,-0.08 c 0.081,0 0.161,0 0.161,0.08 v 0.162 c -0.081,0.08 0,0.24 0,0.482 v 0.4 c 0,0.242 0,0.322 -0.081,0.484 0.081,0.16 0.161,0.4 0.161,0.562 0,0.24 -0.08,0.402 -0.161,0.482 0.081,0.242 0.081,0.242 0.081,0.402 0,0.08 0,0.242 -0.081,0.322 v 0.562 c 0,0 0,0.08 -0.081,0.08 l -0.081,-0.08 c -0.08,-0.08 -0.161,-0.08 -0.161,-0.08 -0.081,0 -0.081,0 -0.241,0.32 0,0.082 -0.081,0.162 -0.242,0.322 -0.08,0.16 -0.161,0.242 -0.161,0.322 0,0.08 -0.081,0.16 -0.081,0.24 h -0.081 c -0.161,0 -0.322,-0.32 -0.482,-1.045 -0.081,-0.16 -0.161,-0.24 -0.241,-0.24 -0.08,0 -0.161,0.08 -0.161,0.16 l -0.081,0.08 c 0,0.08 0,0.08 -0.08,0.08 -0.08,0 -0.161,-0.16 -0.241,-0.32 -0.08,-0.162 -0.08,-0.322 -0.08,-0.482 0,-0.322 0.241,-0.564 0.884,-0.967 0.322,-0.16 0.402,-0.402 0.402,-0.723 0,-0.322 -0.081,-0.484 -0.322,-0.725 -0.241,-0.16 -0.322,-0.242 -0.482,-0.242 -0.081,0 -0.161,0.082 -0.161,0.162 0,0.08 0.08,0.16 0.241,0.24 0.081,0 0.161,0.08 0.161,0.162 0,0 0,0.16 -0.161,0.32 a 0.623,0.623 0 0 1 -0.321,0.322 c 0,0.322 -0.161,0.482 -0.483,0.645 0,0.24 -0.081,0.24 -0.161,0.402 l -0.241,0.24 c -0.081,0.08 -0.161,0.242 -0.161,0.322 0,0.16 0,0.16 -0.081,0.16 -0.08,0 -0.241,-0.08 -0.402,-0.32 -0.081,-0.082 -0.081,-0.162 -0.161,-0.322 -0.081,0.08 -0.081,0.08 -0.322,0.08 -0.081,0.08 -0.161,0.08 -0.241,0.08 -0.161,0.08 -0.242,0.162 -0.242,0.162 0,0 -0.08,-0.082 -0.08,-0.162 v -0.16 c 0,-0.322 0.161,-0.645 0.322,-0.885 -0.161,-0.162 -0.322,-0.242 -0.483,-0.322 h -0.08 c 0,0 0,-0.08 0.08,-0.16 0.081,-0.082 0.161,-0.162 0.161,-0.242 0.161,-0.08 0.402,-0.16 0.644,-0.16 0.08,0 0.322,0 0.563,0.08 0.081,0.08 0.161,0.08 0.241,0.08 0.081,0 0.161,-0.08 0.161,-0.16 0,-0.242 -0.081,-0.482 -0.322,-0.965 -0.161,-0.322 -0.161,-0.484 -0.161,-0.645 0,-0.322 0.161,-0.725 0.322,-0.805 -0.08,-0.08 -0.161,-0.08 -0.241,-0.08 -0.08,0 -0.161,0 -0.241,0.08 -0.161,0.08 -0.242,0.162 -0.242,0.242 0,0 0,0.08 0.081,0.08 0.081,0.08 0.081,0.08 0.081,0.16 0,0.242 -0.241,0.564 -0.482,0.805 -0.081,0.322 -0.242,0.562 -0.563,0.725 0,0.16 -0.08,0.24 -0.241,0.402 -0.241,0.402 -0.321,0.482 -0.321,0.723 -0.081,0.08 -0.081,0.162 -0.081,0.162 -0.08,0 -0.16,-0.082 -0.241,-0.162 -0.08,-0.16 -0.161,-0.16 -0.161,-0.24 -0.081,-0.08 -0.081,-0.08 -0.081,-0.322 -0.08,0 -0.161,0.08 -0.161,0.08 l -0.161,-0.08 h -0.081 c -0.241,0 -0.483,0.08 -0.563,0.16 h -0.081 c -0.081,0 -0.161,-0.08 -0.161,-0.24 0,-0.402 0.081,-0.645 0.322,-1.045 -0.08,0 -0.08,-0.082 -0.161,-0.162 l -0.081,-0.08 h -0.081 l -0.08,-0.08 c 0,-0.08 0.161,-0.242 0.322,-0.322 0.161,-0.16 0.322,-0.16 0.482,-0.16 0.161,0 0.241,0 0.402,0.24 0.161,0.08 0.241,0.162 0.321,0.162 0.081,0 0.161,-0.082 0.161,-0.082 0,-0.08 0.08,-0.16 0.08,-0.16 0,-0.24 -0.241,-0.562 -0.482,-0.725 -0.241,-0.08 -0.402,-0.16 -0.643,-0.16 -0.242,0 -0.483,0.16 -0.563,0.322 l -0.161,0.24 c 0,0.082 -0.081,0.082 -0.081,0.082 -0.081,0 -0.081,0 -0.322,-0.242 l -0.241,-0.322 c -0.081,-0.08 -0.161,-0.16 -0.161,-0.24 -0.08,-0.082 -0.08,-0.162 -0.08,-0.162 l -0.081,-0.08 c -0.241,-0.16 -0.322,-0.402 -0.402,-0.805 -0.081,-0.08 -0.081,-0.08 -0.081,-0.16 -0.242,-0.322 -0.402,-0.643 -0.402,-0.965 0,-0.08 0,-0.08 0.08,-0.162 -0.161,-0.16 -0.161,-0.16 -0.322,-0.562 -0.081,-0.24 -0.081,-0.402 -0.241,-0.482 v -0.08 c 0,-0.08 0.081,-0.08 0.241,-0.162 h 0.402 v -0.24 -0.482 c 0,-0.08 0.081,-0.162 0.081,-0.162 0,-0.08 0,-0.08 -0.081,-0.24 v -0.08 -0.162 h 0.161 c 0.161,0.082 0.322,0.242 0.402,0.322 0.402,0.242 0.644,0.643 0.644,0.885 v 0.242 c 0,0.08 0,0.08 0.08,0.16 l 0.081,0.16 c 0.081,0.162 0.161,0.322 0.161,0.402 0,0.082 0,0.162 -0.161,0.322 -0.161,0.242 -0.161,0.322 -0.161,0.482 0,0.162 0.08,0.402 0.161,0.645 0.161,0.16 0.241,0.32 0.402,0.32 0.241,0 0.322,-0.24 0.322,-0.723 0.08,-0.322 0.08,-0.564 0.08,-0.805 v -0.08 c 0,-0.08 0,-0.162 -0.08,-0.242 l -0.322,-0.322 c -0.242,-0.32 -0.322,-0.482 -0.322,-0.723 0,-0.322 0.161,-0.482 0.402,-0.482 h 0.161 v -0.082 -0.24 c 0.081,-0.242 0.161,-0.402 0.241,-0.402 l 0.081,0.08 h 0.161 c 0.081,0.08 0.081,0.08 0.242,0.162 0,-0.162 0.08,-0.242 0.161,-0.402 0.081,-0.162 0.241,-0.242 0.322,-0.242 0,0 0.08,0 0.161,0.08 l 0.16,0.242 c 0,0 0.081,0.08 0.081,0.16 l 0.08,0.08 c 0.081,0 0.081,-0.08 0.081,-0.08 0.081,0 0.161,-0.08 0.161,-0.08 0.161,-0.08 0.241,-0.08 0.241,-0.08 l 0.081,-0.08 c 0,0 0.081,0.08 0.161,0.402 v 0.482 c 0.322,0 0.483,0.16 0.483,0.562 0,0.322 -0.161,0.643 -0.483,0.965 -0.08,0.08 -0.08,0.162 -0.08,0.242 0,0.885 0.241,1.205 1.368,1.287 0.724,0.08 0.884,0.16 1.689,0.4 0.482,0.082 0.724,0.162 0.885,0.162 0.161,0 0.241,-0.08 0.241,-0.242 0,-0.16 -0.081,-0.24 -0.885,-0.402 -1.85,-0.32 -2.574,-0.965 -2.574,-2.252 0,-0.805 0.644,-1.447 1.528,-1.447 0.322,0 0.724,0.08 1.207,0.402 0.563,0.322 0.644,0.322 0.724,0.322 0.161,0 0.241,-0.082 0.241,-0.322 0,-0.08 0,-0.16 0.081,-0.16 0.081,0 0.241,0.08 0.322,0.16 0.161,0.24 0.241,0.322 0.241,0.562 0,0.402 -0.161,0.645 -0.563,0.725 l -0.081,0.08 c -0.241,0.242 -0.402,0.322 -0.724,0.322 -0.322,0 -0.643,-0.08 -0.884,-0.242 l -0.482,-0.402 c -0.242,-0.08 -0.322,-0.16 -0.483,-0.16 -0.241,0 -0.322,0.08 -0.322,0.322 0,0.16 0.081,0.32 0.322,0.402 l 0.483,0.16 c 0.16,0.08 0.241,0.08 0.401,0.16 h 0.242 c 0.241,0 0.563,0.082 0.804,0.242 0.081,0 0.161,0 0.161,0.08 h 0.322 c 0.563,0.16 0.965,0.805 0.965,1.447 0,0.725 -0.402,1.127 -1.207,1.127 h -0.158 z m 17.373,-0.162 c 0.161,0.242 0.402,0.402 0.563,0.402 0.08,0 0.161,0 0.321,-0.08 h 0.081 c 0.08,0 0.08,0 0.08,0.08 0,0 0,0.082 -0.08,0.162 v 0.24 l -0.081,0.162 -0.08,0.16 -0.161,0.16 v 0.162 c 0,0.24 -0.08,0.402 -0.322,0.562 l -0.08,0.08 c 0,0.162 -0.081,0.322 -0.081,0.402 0,0 -0.081,0.08 -0.161,0.242 -0.161,0.16 -0.241,0.32 -0.241,0.402 -0.081,0.08 -0.081,0.16 -0.161,0.16 -0.081,0 -0.242,-0.16 -0.242,-0.322 v 0.08 l -0.161,0.082 -0.161,0.16 c -0.081,0 -0.161,0.08 -0.161,0.08 l -0.161,0.16 c -0.08,0 -0.161,-0.08 -0.161,-0.24 l -0.081,-0.322 c -0.08,-0.08 -0.08,-0.24 -0.08,-0.322 0,-0.16 0,-0.24 0.08,-0.4 -0.241,0.08 -0.241,0.08 -0.402,0.08 h -0.081 v -0.162 l 0.161,-0.32 c 0.08,-0.322 0.402,-0.564 0.644,-0.564 0.08,0 0.161,0.082 0.321,0.082 h 0.081 c 0.161,0 0.241,-0.082 0.241,-0.162 0,-0.08 0,-0.08 -0.081,-0.16 0,0 -0.161,0 -0.321,-0.08 -0.241,-0.08 -0.322,-0.08 -0.483,-0.322 -0.161,-0.16 -0.161,-0.242 -0.241,-0.242 l -0.081,0.082 v 0.24 c 0,0.242 -0.08,0.482 -0.241,0.885 l -0.321,0.482 c -0.081,0.242 -0.161,0.482 -0.161,0.645 0,0.16 0.08,0.402 0.241,0.402 h 0.08 l 0.081,0.08 v 0.16 c 0,0 -0.081,0.08 -0.161,0.242 -0.241,0.16 -0.322,0.24 -0.482,0.32 -0.161,0.322 -0.322,0.484 -0.724,0.564 v 0.08 c -0.161,0.242 -0.402,0.402 -0.563,0.402 H 31.91 c 0,0.16 -0.081,0.402 -0.322,0.482 -0.161,0.16 -0.241,0.16 -0.241,0.24 v 0.082 c -0.08,0.08 -0.08,0.08 -0.161,0.08 -0.161,0 -0.241,-0.08 -0.241,-0.242 -0.08,0 -0.08,0 -0.08,0.08 -0.161,0.082 -0.241,0.082 -0.241,0.082 0,0 -0.161,0.08 -0.322,0.08 -0.241,0.08 -0.482,0.16 -0.562,0.32 l -0.081,0.082 v 0.08 c -0.081,0 -0.081,-0.08 -0.161,-0.162 0,-0.24 -0.08,-0.482 -0.08,-0.562 0,-0.402 0.161,-0.643 0.482,-0.965 v -0.08 c 0,-0.562 0.402,-0.965 1.045,-0.965 h 0.081 l 0.322,0.08 h 0.081 c 0.161,0 0.322,-0.08 0.563,-0.242 0.241,-0.24 0.241,-0.32 0.241,-0.562 0,-0.08 0,-0.16 -0.081,-0.402 0,-0.16 -0.08,-0.322 -0.08,-0.482 0,-0.402 0.322,-0.885 0.724,-1.207 0.161,-0.08 0.161,-0.16 0.161,-0.24 0,0 -0.081,0 -0.081,0.08 -0.081,0 -0.161,0.08 -0.241,0.16 l -0.161,0.082 -0.241,0.08 c 0,0 -0.081,0 -0.081,0.08 l 0.081,0.08 v 0.08 c 0,0 0,0.08 -0.081,0.08 l -0.08,0.242 c -0.161,0.242 -0.242,0.322 -0.483,0.402 -0.08,0.322 -0.241,0.482 -0.482,0.562 -0.161,0.322 -0.322,0.482 -0.644,0.482 a 1.66,1.66 0 0 1 -0.321,0.482 c -0.081,0.08 -0.161,0.162 -0.161,0.162 l -0.081,0.16 c -0.081,0 -0.161,-0.08 -0.241,-0.16 -0.081,0 -0.081,-0.082 -0.081,-0.082 l -0.081,-0.16 c -0.08,-0.08 -0.08,-0.08 -0.161,-0.08 h -0.241 c -0.161,0 -0.322,0.16 -0.402,0.24 l -0.161,0.162 v 0.08 c -0.08,0 -0.161,-0.242 -0.161,-0.562 0,-0.242 0.081,-0.482 0.161,-0.564 l 0.242,-0.4 c 0.08,-0.082 0.08,-0.162 0.08,-0.162 0,-0.08 0,-0.08 -0.08,-0.16 0,-0.08 -0.081,-0.08 -0.161,-0.08 l -0.161,-0.08 h -0.081 c 0,0 0,-0.082 0.081,-0.082 0,-0.08 0.161,-0.16 0.241,-0.24 0.241,-0.162 0.402,-0.162 0.563,-0.162 0.161,0 0.322,0 0.483,0.162 l 0.321,0.16 c 0,0.08 0.081,0.08 0.161,0.08 0.08,0 0.241,-0.08 0.322,-0.32 0.081,-0.162 0.081,-0.242 0.081,-0.402 0,-0.402 -0.241,-0.645 -0.644,-0.645 -0.161,0 -0.322,0.08 -0.483,0.162 -0.08,0.08 -0.08,0.08 -0.08,0.16 l -0.081,0.16 -0.081,0.082 c -0.081,0 -0.161,-0.162 -0.241,-0.322 -0.081,-0.162 -0.161,-0.242 -0.161,-0.402 -0.08,-0.162 -0.08,-0.322 -0.08,-0.482 v -0.242 c -0.161,-0.24 -0.161,-0.402 -0.161,-0.643 0,-0.08 0,-0.162 0.081,-0.322 -0.081,-0.16 -0.161,-0.322 -0.161,-0.482 v -0.16 l 0.081,-0.082 v -0.16 c -0.081,-0.08 -0.081,-0.16 -0.241,-0.643 0,-0.242 -0.081,-0.322 -0.081,-0.402 -0.08,0 -0.08,-0.082 -0.08,-0.082 0,-0.08 0.161,-0.08 0.321,-0.08 h 0.161 c -0.081,-0.08 -0.081,-0.16 -0.081,-0.24 0,-0.082 0.081,-0.242 0.081,-0.402 0.081,-0.08 0.081,-0.162 0.081,-0.242 0,-0.08 0,-0.24 -0.081,-0.24 L 28.612,98.59 v -0.08 h 0.081 c 0.161,0 0.563,0.16 0.804,0.482 0.322,0.242 0.402,0.482 0.402,0.885 v 0.242 c 0.242,0.24 0.402,0.402 0.402,0.643 0,0.162 -0.08,0.242 -0.241,0.402 -0.241,0.242 -0.321,0.402 -0.321,0.725 0,0.562 0.161,0.803 0.482,0.803 0.241,0 0.482,-0.24 0.482,-0.643 v -0.402 c 0,-0.08 0.081,-0.24 0.081,-0.322 v -0.32 c 0,-0.08 -0.081,-0.242 -0.322,-0.564 -0.241,-0.32 -0.402,-0.482 -0.402,-0.805 0,-0.24 0.241,-0.482 0.563,-0.482 h 0.161 c 0,-0.16 0,-0.16 0.081,-0.4 0.08,-0.242 0.161,-0.322 0.241,-0.322 h 0.08 c 0,0.08 0.081,0.08 0.081,0.16 h 0.08 c 0.081,0.08 0.081,0.08 0.161,0.162 0,-0.242 0.08,-0.402 0.241,-0.564 0.161,-0.08 0.241,-0.16 0.241,-0.16 0,0 0.081,0 0.081,0.08 l 0.161,0.162 0.161,0.16 c 0,0.08 0.08,0.16 0.08,0.322 l 0.081,-0.082 0.161,-0.08 c 0.08,0 0.08,-0.08 0.161,-0.08 h 0.081 l 0.081,0.242 0.161,0.32 v 0.242 h 0.081 c 0.161,0 0.402,0.24 0.402,0.562 0,0.322 -0.322,0.805 -0.724,1.047 v 0.24 c 0,0.805 0.241,0.965 1.448,1.127 0.241,0.08 0.563,0.16 0.804,0.16 0,0.08 0.322,0.16 0.804,0.322 0.242,0.08 0.402,0.08 0.563,0.08 0.161,0 0.241,0 0.241,-0.08 0,-0.162 -0.241,-0.242 -0.805,-0.482 l -0.885,-0.402 c -0.885,-0.322 -1.287,-0.885 -1.287,-1.609 0,-0.965 0.644,-1.689 1.609,-1.689 0.322,0 0.724,0.08 1.207,0.322 0.563,0.16 0.644,0.24 0.724,0.24 0.081,0 0.161,-0.16 0.161,-0.32 0,-0.162 0.081,-0.162 0.161,-0.162 0.161,0 0.241,0.082 0.321,0.242 0.081,0.16 0.161,0.402 0.161,0.562 0,0.322 -0.161,0.562 -0.482,0.562 -0.241,0.322 -0.482,0.484 -0.805,0.484 -0.402,0 -0.563,-0.082 -1.287,-0.564 -0.242,-0.16 -0.322,-0.16 -0.483,-0.16 -0.241,0 -0.482,0.16 -0.482,0.322 0,0.24 0.161,0.32 0.482,0.402 0.241,0.08 0.241,0.08 0.322,0.16 h 0.241 c 0.322,0 0.724,0.16 1.046,0.482 0.563,0.16 1.126,0.805 1.126,1.367 0,0.645 -0.483,1.207 -1.126,1.207 -0.161,0 -0.483,-0.08 -0.725,-0.162 z"
       id="path10"
       inkscape:connector-curvature="0" />
    <path
       d="m 19.443,89.26 c -0.08,-0.081 -0.08,-0.161 -0.08,-0.241 v -0.081 l 0.08,-0.161 v -0.081 c 0,-0.161 -0.08,-0.241 -0.08,-0.322 l -0.161,-0.161 c 0,-0.081 -0.081,-0.161 -0.081,-0.161 v -0.161 h 0.162 c 0.081,0.08 0.081,0.08 0.161,0.08 0,0 0.081,-0.161 0.081,-0.322 0,-0.161 -0.081,-0.241 -0.081,-0.321 l -0.161,-0.161 -0.161,-0.08 v -0.081 c 0,-0.08 0,-0.08 0.081,-0.08 h 0.241 c 0.081,0 0.081,0 0.081,-0.08 l -0.081,-0.241 v -0.161 l -0.08,-0.081 h -0.322 c -0.322,0 -0.724,-0.241 -0.805,-0.644 l -0.161,-0.644 c -0.081,-0.161 -0.241,-0.322 -0.482,-0.563 -0.081,-0.081 -0.161,-0.081 -0.241,-0.161 h -0.241 c 0,-0.08 0.08,-0.08 0.16,-0.08 h 0.322 c 0.08,0 0.321,0.08 0.562,0.161 0.242,0.081 0.483,0.161 0.644,0.161 0.483,0 0.805,-0.322 0.805,-0.724 0,-0.321 -0.161,-0.644 -0.402,-0.885 -0.161,-0.161 -0.322,-0.241 -0.322,-0.241 -0.081,0 -0.081,0 -0.081,0.081 v 0.081 c 0,0.08 0,0.161 -0.08,0.161 0,0 -0.081,-0.081 -0.161,-0.241 -0.161,-0.402 -0.482,-0.644 -0.804,-0.644 l -0.081,0.081 c 0,0 0,0.081 0.081,0.161 l 0.081,0.161 v 0.081 c -0.081,0 -0.161,0 -0.161,-0.081 l -0.161,-0.161 -0.16,-0.161 c -0.081,-0.161 -0.161,-0.241 -0.402,-0.402 -0.161,0 -0.241,-0.081 -0.241,-0.081 -0.081,0 -0.081,-0.08 -0.161,-0.08 v 0.161 c 0.081,0.161 0.161,0.161 0.161,0.241 l -0.081,0.081 c -0.081,0 -0.241,-0.161 -0.402,-0.402 -0.08,-0.161 -0.161,-0.402 -0.161,-0.563 0,-0.402 0.322,-0.724 0.724,-0.724 0.241,0 0.482,0.08 0.724,0.241 l 0.483,0.241 a 0.868,0.868 0 0 0 0.563,0.241 c 0.081,0 0.161,-0.08 0.322,-0.08 0,0 0.081,0 0.081,-0.081 h 0.081 c 0,-0.081 0,-0.081 -0.081,-0.081 l -0.241,-0.081 c -0.081,0 -0.161,0 -0.242,-0.081 -0.322,-0.08 -0.482,-0.161 -0.563,-0.241 -0.161,-0.08 -0.241,-0.161 -0.321,-0.161 l -0.081,-0.081 v -0.08 h 0.161 c 0.081,0.161 0.241,0.161 0.322,0.161 l 0.402,0.161 c 0.241,0.081 0.563,0.161 0.724,0.161 0.161,0 0.322,-0.161 0.322,-0.322 0,-0.161 -0.08,-0.322 -0.161,-0.483 h -0.081 c -0.081,0 -0.081,0 -0.081,0.081 v 0.16 c 0,0.161 -0.08,0.242 -0.161,0.242 h -0.161 l -0.644,-0.242 c -0.562,-0.16 -0.804,-0.241 -1.045,-0.241 -0.805,0 -1.368,0.563 -1.368,1.207 0,0.804 0.563,1.367 1.93,1.85 1.368,0.402 1.528,0.563 1.528,0.885 0,0.241 -0.241,0.402 -0.402,0.402 H 18.56 C 18.479,84.19 18.238,84.19 17.836,84.11 c -0.402,-0.161 -0.805,-0.161 -1.207,-0.161 -0.965,0 -1.528,0.161 -2.011,0.644 -0.08,0.081 -0.161,0.081 -0.321,0.081 h -0.161 c -0.161,0 -0.241,0.08 -0.321,0.161 -0.081,0.241 -0.161,0.322 -0.161,0.322 l -0.081,0.081 c -0.161,0 -0.161,-0.081 -0.322,-0.322 0,-0.161 -0.08,-0.241 -0.161,-0.322 l -0.241,-0.161 v -0.081 -0.08 c 0.08,-0.161 0.161,-0.241 0.161,-0.322 0,-0.081 0,-0.081 0.081,-0.081 0.081,0 0.081,0 0.081,0.241 0,0.081 0,0.161 0.08,0.322 l 0.081,0.242 h 0.161 c 0.081,0 0.161,-0.242 0.241,-0.483 0,-0.241 0.081,-0.241 0.081,-0.241 h 0.08 c 0,0 0,0.081 0.08,0.161 0,0.081 0.081,0.081 0.081,0.161 0.08,0 0.161,0.08 0.161,0.08 0.081,0 0.081,-0.08 0.161,-0.241 v -0.08 l -0.08,-0.161 v -0.08 c 0,-0.081 0.08,-0.161 0.08,-0.161 0,0 0.081,0 0.081,0.08 l 0.081,0.081 c 0.08,0.08 0.161,0.08 0.241,0.08 0.08,0 0.08,0 0.08,-0.08 0,0 0,-0.081 -0.08,-0.241 L 14.701,83.468 C 14.62,83.308 14.62,83.227 14.54,83.227 h -0.161 l -0.08,0.081 h -0.081 c 0,-0.161 0,-0.242 0.161,-0.402 0.081,-0.161 0.081,-0.402 0.161,-0.805 0,-0.563 0.08,-0.885 0.161,-0.885 0,0 0.081,0.081 0.081,0.161 v 0.403 c 0.08,0 0.161,-0.161 0.241,-0.322 0.081,-0.08 0.081,-0.161 0.081,-0.241 l -0.242,-0.402 -0.161,-0.08 H 14.62 v -0.402 l -0.08,-0.08 V 80.17 c -0.241,0.081 -0.322,0.161 -0.402,0.242 -0.08,0.161 -0.161,0.161 -0.161,0.161 h -0.08 c 0,-0.08 0,-0.08 0.08,-0.161 v -0.081 c 0,-0.241 -0.16,-0.402 -0.402,-0.562 v 0.08 l -0.081,0.08 -0.164,0.161 c 0,0 -0.081,0.08 -0.081,0.161 v 0.161 c 0,0.081 0,0.161 -0.08,0.161 L 13.088,80.412 13.007,80.331 12.846,80.17 h -0.161 v 0.081 c 0,0.08 -0.081,0.08 -0.081,0.161 v 0.322 c 0,0.08 0,0.161 -0.08,0.161 l -0.081,-0.081 h -0.161 c -0.161,0 -0.241,0.081 -0.241,0.242 0,0.161 0,0.402 0.161,0.482 l 0.08,0.241 c 0.081,0 0.161,0.081 0.161,0 v -0.322 l -0.081,-0.08 c 0,-0.081 0.081,-0.161 0.081,-0.161 0.081,0 0.081,0.081 0.161,0.241 l 0.081,0.402 0.081,0.483 c 0,0.08 0.081,0.241 0.081,0.402 0.08,0.161 0.161,0.241 0.161,0.322 l 0.161,0.161 c 0,0.081 0,0.081 -0.081,0.081 h -0.081 c 0,-0.081 -0.081,-0.081 -0.081,-0.081 h -0.08 c -0.161,0 -0.242,0.161 -0.242,0.805 0,0.402 0.081,0.965 0.242,1.207 l 0.161,0.563 c 0.081,0.081 0.081,0.161 0.081,0.241 0,0.724 -0.965,1.85 -2.011,2.413 -0.402,0.161 -0.562,0.322 -0.562,0.804 v 0.081 c 0.161,-0.081 0.241,-0.081 0.321,-0.081 0.322,-0.081 0.322,-0.161 0.402,-0.322 l 0.08,-0.08 c 0,-0.081 0,-0.081 0.242,-0.242 0.081,0 0.161,-0.08 0.161,-0.08 0,-0.081 0.081,-0.161 0.081,-0.161 0.081,0 0.081,0 0.081,0.081 l -0.161,0.322 v 0.081 c 0,0.161 0.161,0.321 0.322,0.482 0.081,-0.241 0.081,-0.322 0.161,-0.482 l 0.161,-0.242 c 0.081,-0.08 0.081,-0.241 0.081,-0.402 v -0.403 c 0,-0.081 0,-0.081 0.081,-0.081 h 0.08 v 0.241 h 0.081 c 0.161,0 0.241,-0.08 0.402,-0.322 0,-0.08 0.081,-0.161 0.081,-0.241 v -0.161 l -0.081,-0.161 c 0,-0.081 0.081,-0.161 0.081,-0.161 0.08,0 0.08,0.08 0.08,0.08 l 0.081,0.242 c 0,0.081 0,0.081 0.081,0.081 0.08,0 0.161,-0.081 0.241,-0.241 0.08,-0.081 0.08,-0.241 0.08,-0.402 0,-0.241 0.081,-0.241 0.161,-0.241 l 0.08,0.161 c 0,0 0,0.08 0.081,0.08 0,0 0.161,-0.161 0.241,-0.322 v -0.081 c 0,0 0,-0.08 -0.081,-0.08 -0.161,-0.161 -0.161,-0.161 -0.161,-0.241 0,-0.161 0.08,-0.242 0.161,-0.402 0,-0.081 0.081,-0.161 0.081,-0.242 0.161,-0.241 0.161,-0.241 0.241,-0.241 0.08,0 0.08,0 0.08,0.081 v 0.081 c -0.08,0 -0.08,0.08 -0.08,0.08 0,0.081 0.08,0.081 0.08,0.081 0.081,0 0.081,0 0.161,-0.081 0.08,0 0.161,0 0.322,-0.08 l 0.322,-0.161 h 0.403 c 0.08,0.081 0.161,0.081 0.161,0.081 0.161,0 0.241,-0.081 0.241,-0.161 0,-0.08 -0.08,-0.241 -0.161,-0.321 l -0.081,-0.081 v -0.081 h 0.081 c 0.081,0 0.241,0.161 0.322,0.402 0.884,1.287 1.207,1.689 1.769,1.85 0.563,0.161 0.724,0.322 0.724,0.644 0,0.161 -0.081,0.402 -0.322,0.724 -0.402,0.563 -0.482,0.804 -0.482,1.207 v 0.08 h 0.08 c 0.081,-0.08 0.161,-0.08 0.161,-0.08 l 0.241,-0.081 c 0.081,0 0.161,-0.081 0.161,-0.161 v -0.081 l -0.081,-0.161 v -0.081 c 0,-0.081 0.081,-0.161 0.161,-0.161 v -0.08 c 0.081,0 0.081,0.08 0.081,0.08 l 0.161,0.322 c 0.077,0.161 0.158,0.241 0.399,0.322 z m -8.124,-7.239 c 0,0 -0.08,0.08 -0.08,0.241 v 0.161 c -0.081,0.161 -0.081,0.161 -0.081,0.242 0,0.161 0.081,0.241 0.161,0.241 0.081,0 0.161,-0.081 0.161,-0.241 0.081,-0.081 0.081,-0.161 0.081,-0.242 0,-0.08 0,-0.161 -0.081,-0.241 0,-0.081 -0.081,-0.161 -0.161,-0.161 z"
       id="path12"
       inkscape:connector-curvature="0"
       style="fill:#fadf3c" />
    <path
       d="m 10.434,80.493 v 0.08 c 0,0.081 0,0.241 -0.16,0.644 v 0.161 c 0,0.08 0,0.161 0.08,0.241 l 0.08,0.081 0.161,0.08 v 0.402 c 0.081,0.081 0.081,0.161 0.081,0.241 v 0.161 c -0.081,0 -0.161,-0.161 -0.242,-0.241 -0.08,-0.242 -0.16,-0.402 -0.241,-0.402 -0.161,0 -0.241,0.081 -0.321,0.081 v 0.08 c 0,0.081 0.08,0.081 0.161,0.242 l 0.081,0.241 0.161,0.322 0.16,0.161 c 0,0 0.081,0 0.161,0.081 0.081,0 0.081,0.08 0.081,0.08 0,0 0,0.081 -0.081,0.081 h -0.161 l -0.08,-0.081 v 0.161 c 0,0.241 0.161,0.563 0.563,0.804 0.081,0.081 0.081,0.081 0.081,0.161 0,0 0,0.081 -0.081,0.081 l -0.081,-0.081 h -0.08 c -0.081,0 -0.081,0 -0.081,0.081 0,0.081 0,0.242 0.161,0.483 a 0.632,0.632 0 0 0 0.322,0.322 l 0.483,0.161 v 0.081 c 0,0 0,0.081 -0.081,0.081 h -0.404 c 0,0.08 0.081,0.241 0.161,0.322 0.161,0.241 0.242,0.322 0.242,0.322 0.081,0 0.081,0 0.081,-0.081 l 0.161,-0.241 c 0,0 0.081,-0.081 0.241,-0.161 0.081,-0.081 0.161,-0.081 0.241,-0.081 l 0.242,-0.08 V 84.84 l -0.081,-0.161 v -0.081 c -0.081,0 -0.081,0 -0.081,0.081 C 12.203,84.92 12.042,85 11.882,85 11.399,85 10.997,84.035 10.997,82.829 v -0.482 -0.483 c 0,-0.563 -0.081,-0.885 -0.322,-1.126 l -0.161,-0.161 z m 1.287,7.319 C 11.56,87.731 11.56,87.731 11.48,87.731 c -0.08,0 -0.161,-0.081 -0.241,-0.081 -0.161,-0.08 -0.241,-0.161 -0.402,-0.161 -0.08,0 -0.241,0.081 -0.402,0.241 h 0.081 l 0.241,0.161 0.161,0.161 c 0.081,0 0.161,0.081 0.161,0.081 0.24,0.001 0.401,-0.08 0.642,-0.321 z m 3.861,1.77 c 0.081,-0.08 0.081,-0.161 0.161,-0.241 0.322,-0.241 0.402,-0.402 0.402,-0.563 v -0.241 c 0,-0.081 0.08,-0.161 0.161,-0.161 l 0.081,0.161 c 0,0 0,0.08 0.081,0.08 l 0.161,-0.161 0.081,-0.161 c 0.08,-0.08 0.08,-0.08 0.08,-0.161 v -0.081 c 0,-0.081 -0.08,-0.081 -0.08,-0.161 -0.081,-0.081 -0.081,-0.161 -0.081,-0.161 0,-0.081 0.081,-0.161 0.081,-0.161 0.08,0 0.08,0 0.08,0.08 l 0.081,0.081 h 0.081 c 0.08,0 0.08,0 0.08,-0.081 l 0.081,-0.161 c 0.08,0 0.08,-0.081 0.08,-0.081 l -0.08,-0.08 -0.161,-0.081 c -0.161,-0.081 -0.322,-0.322 -0.322,-0.643 0,0 0,-0.081 0.081,-0.081 l 0.08,-0.161 v -0.161 c 0,-0.081 -0.08,-0.241 -0.08,-0.322 -0.081,-0.081 -0.161,-0.161 -0.161,-0.242 -0.08,-0.08 -0.08,-0.161 -0.161,-0.161 l -0.081,0.081 h -0.161 l -0.081,0.161 -0.161,0.081 a 0.617,0.617 0 0 0 -0.161,0.402 c 0,0.241 0,0.321 0.402,0.885 0.08,0.241 0.161,0.482 0.161,0.562 0,0.402 -0.322,0.724 -1.046,0.885 l -0.482,0.161 c -0.322,0.081 -0.563,0.241 -0.644,0.644 0.161,-0.081 0.241,-0.081 0.482,-0.081 h 0.161 c 0.161,0 0.161,0 0.241,-0.081 a 0.627,0.627 0 0 1 0.322,-0.321 l 0.161,-0.081 h 0.161 v -0.081 l 0.081,0.081 c 0,0 -0.081,0.081 -0.081,0.161 -0.161,0.161 -0.161,0.241 -0.161,0.402 -0.001,0.083 -0.001,0.164 0.08,0.245 z"
       id="path14"
       inkscape:connector-curvature="0"
       style="fill:#fadf3c" />
    <path
       d="m 14.295,88.053 c 0.161,0.081 0.241,0.161 0.321,0.241 0.081,0.161 0.081,0.161 0.161,0.161 h 0.161 l 0.081,-0.081 c 0.161,0 0.241,0 0.241,-0.081 v -0.08 L 15.1,88.134 15.019,88.053 c -0.081,-0.081 -0.241,-0.161 -0.322,-0.161 -0.16,0.001 -0.241,0.081 -0.402,0.161 z m 3.217,0.563 0.081,-0.08 h 0.242 c 0.241,0 0.402,-0.161 0.402,-0.322 0,-0.081 0,-0.161 -0.161,-0.161 -0.242,0 -0.403,0.161 -0.564,0.563 z m 20.511,0.644 v -0.322 -0.402 c 0,-0.081 0,-0.081 -0.08,-0.161 l -0.081,-0.161 c -0.081,-0.081 -0.081,-0.161 -0.081,-0.322 h 0.162 c 0,0.08 0.08,0.08 0.08,0.08 0.081,0 0.081,-0.08 0.081,-0.322 0,-0.241 0,-0.402 -0.161,-0.482 l -0.161,-0.08 c 0,-0.081 -0.08,-0.081 -0.08,-0.081 0,-0.08 0.08,-0.08 0.08,-0.08 h 0.322 v -0.321 c 0,-0.161 -0.081,-0.242 -0.161,-0.242 h -0.322 c -0.322,0 -0.643,-0.241 -0.724,-0.644 l -0.241,-0.644 c 0,-0.161 -0.161,-0.402 -0.482,-0.563 -0.081,-0.081 -0.161,-0.081 -0.161,-0.161 h -0.242 c 0,-0.08 0,-0.08 0.081,-0.08 0.241,0 0.563,0 0.885,0.161 0.322,0.081 0.563,0.161 0.724,0.161 0.482,0 0.724,-0.242 0.724,-0.724 0,-0.241 0,-0.482 -0.161,-0.644 -0.08,-0.161 -0.241,-0.321 -0.482,-0.482 h -0.08 v 0.162 c 0,0.08 -0.081,0.161 -0.081,0.161 -0.08,0 -0.08,-0.081 -0.16,-0.241 -0.161,-0.402 -0.483,-0.644 -0.805,-0.644 -0.081,0 -0.081,0.081 -0.081,0.081 v 0.161 c 0.081,0 0.081,0.081 0.081,0.161 0.081,0 0.081,0.081 0.081,0.081 h -0.081 c 0,0 -0.081,0 -0.161,-0.081 L 36.094,82.424 36.013,82.263 35.611,81.861 35.369,81.78 c -0.08,0 -0.161,-0.08 -0.161,-0.08 l -0.081,0.08 0.081,0.081 c 0.081,0.081 0.081,0.161 0.081,0.241 v 0.081 c -0.081,0 -0.241,-0.161 -0.402,-0.402 -0.161,-0.161 -0.161,-0.402 -0.161,-0.563 0,-0.402 0.322,-0.724 0.724,-0.724 0.161,0 0.483,0.08 0.724,0.241 l 0.482,0.241 a 0.868,0.868 0 0 0 0.563,0.241 c 0.08,0 0.08,0 0.241,-0.08 0.08,0 0.08,0 0.161,-0.081 0,-0.081 0,-0.081 -0.081,-0.081 -0.161,0 -0.644,-0.241 -0.965,-0.402 l -0.322,-0.161 c -0.081,-0.081 -0.161,-0.081 -0.161,-0.161 h 0.081 l 0.482,0.161 0.402,0.161 c 0.241,0.081 0.563,0.161 0.644,0.161 0.241,0 0.321,-0.161 0.321,-0.322 V 80.09 c -0.08,-0.08 -0.161,-0.161 -0.241,-0.161 v 0.241 c 0,0.161 -0.08,0.242 -0.161,0.242 H 37.459 L 36.735,80.17 c -0.563,-0.16 -0.724,-0.241 -1.046,-0.241 -0.724,0 -1.367,0.563 -1.367,1.207 0,0.804 0.563,1.367 1.931,1.85 1.367,0.402 1.528,0.563 1.528,0.885 0,0.241 -0.161,0.402 -0.402,0.402 h -0.241 c -0.08,-0.081 -0.241,-0.081 -0.643,-0.161 -0.402,-0.161 -0.805,-0.161 -1.287,-0.161 -0.965,0 -1.448,0.161 -1.93,0.644 -0.161,0.081 -0.161,0.081 -0.322,0.081 h -0.242 c -0.081,0 -0.161,0.08 -0.242,0.161 l -0.161,0.322 c -0.081,0 -0.081,0.081 -0.161,0.081 -0.08,0 -0.161,-0.081 -0.241,-0.322 -0.081,-0.161 -0.081,-0.241 -0.161,-0.322 l -0.241,-0.161 c 0,-0.081 -0.081,-0.081 -0.081,-0.081 l 0.081,-0.08 c 0,-0.081 0.08,-0.081 0.08,-0.161 0,-0.08 0.081,-0.08 0.081,-0.161 v -0.081 h 0.081 c 0.08,0 0.08,0 0.08,0.241 0,0.081 0,0.161 0.081,0.322 l 0.081,0.242 h 0.081 c 0.08,0 0.241,-0.242 0.241,-0.483 0.081,-0.241 0.081,-0.241 0.161,-0.241 l 0.081,0.161 0.161,0.161 c 0.08,0 0.08,0.08 0.08,0.08 h 0.081 c 0.081,0 0.081,-0.08 0.081,-0.241 v -0.321 c 0,-0.081 0,-0.161 0.081,-0.161 l 0.08,0.08 0.081,0.081 c 0.081,0.08 0.081,0.08 0.161,0.08 0.081,0 0.161,0 0.161,-0.08 0,-0.081 0,-0.081 -0.081,-0.241 0,0 -0.081,0 -0.081,-0.081 -0.08,-0.16 -0.161,-0.241 -0.241,-0.241 h -0.08 l -0.161,0.081 h -0.081 c 0,-0.161 0.081,-0.242 0.161,-0.402 0.081,-0.161 0.161,-0.402 0.161,-0.805 L 33.2,81.621 c 0,-0.322 0.081,-0.402 0.081,-0.402 h 0.08 v 0.322 c 0,0.161 0,0.241 0.081,0.241 l 0.161,-0.161 c 0,0 0.081,-0.081 0.081,-0.161 0,-0.08 0.08,-0.241 0.08,-0.241 0,-0.241 -0.161,-0.402 -0.402,-0.482 h -0.08 v -0.242 l -0.081,-0.161 v -0.08 L 33.12,80.173 h -0.08 c -0.161,0.161 -0.242,0.161 -0.322,0.242 -0.081,0.161 -0.081,0.161 -0.161,0.161 v -0.242 c 0,-0.241 -0.081,-0.402 -0.322,-0.562 l -0.081,0.08 -0.08,0.08 -0.081,0.161 c -0.081,0.08 -0.161,0.161 -0.161,0.322 v 0.161 l -0.08,-0.161 -0.161,-0.081 -0.161,-0.161 h -0.081 c -0.08,0.161 -0.08,0.161 -0.08,0.483 v 0.081 c 0,0.08 -0.081,0.161 -0.081,0.161 -0.08,0 -0.08,-0.081 -0.161,-0.081 h -0.161 c -0.081,0 -0.241,0.081 -0.241,0.242 0,0.161 0.08,0.322 0.161,0.482 0.081,0.161 0.241,0.241 0.241,0.241 V 81.38 c 0,-0.081 0,-0.161 0.081,-0.161 0,0 0.08,0.081 0.08,0.241 l 0.081,0.402 0.08,0.483 c 0.081,0.08 0.081,0.241 0.161,0.402 0.08,0.161 0.161,0.241 0.161,0.322 l 0.081,0.161 v 0.081 H 31.671 C 31.59,83.23 31.59,83.23 31.51,83.23 h -0.081 c -0.161,0 -0.161,0.161 -0.161,0.805 0,0.402 0.08,0.965 0.161,1.207 l 0.241,0.563 c 0,0.081 0.081,0.161 0.081,0.241 0,0.724 -1.046,1.85 -2.091,2.413 -0.402,0.161 -0.483,0.402 -0.563,0.885 0.241,-0.081 0.241,-0.081 0.402,-0.081 0.242,-0.081 0.322,-0.161 0.402,-0.322 v -0.08 c 0,-0.081 0.081,-0.081 0.242,-0.242 0.08,0 0.16,-0.08 0.16,-0.08 l 0.161,-0.161 v 0.081 l -0.08,0.322 v 0.081 c 0,0.161 0.08,0.321 0.321,0.482 v -0.161 c 0.081,-0.161 0.081,-0.241 0.161,-0.321 l 0.161,-0.242 c 0.081,-0.08 0.081,-0.161 0.081,-0.402 v -0.403 c 0,-0.081 0,-0.081 0.08,-0.081 l 0.081,0.241 h 0.08 c 0.081,0 0.241,-0.08 0.322,-0.322 0.081,-0.08 0.081,-0.161 0.081,-0.241 v -0.321 c 0,-0.081 0,-0.161 0.08,-0.161 v 0.08 l 0.081,0.242 c 0.081,0.081 0.081,0.081 0.161,0.081 0.161,0 0.322,-0.322 0.322,-0.644 0,-0.161 0,-0.241 0.08,-0.241 h 0.081 v 0.161 c 0.081,0 0.081,0.08 0.081,0.08 0.081,0 0.081,-0.08 0.161,-0.161 0,-0.08 0.081,-0.08 0.081,-0.161 v -0.081 c 0,-0.08 0,-0.08 -0.081,-0.08 -0.08,-0.081 -0.08,-0.161 -0.08,-0.241 0,-0.161 0.08,-0.322 0.241,-0.644 0.161,-0.241 0.161,-0.322 0.241,-0.322 0,0 0.081,0.081 0.081,0.161 0,0 -0.081,0 -0.081,0.081 v 0.08 c 0,0.081 0,0.081 0.081,0.081 0,0 0.08,0 0.161,-0.081 0.081,0 0.161,0 0.242,-0.08 0.241,-0.081 0.321,-0.081 0.402,-0.161 h 0.322 c 0.161,0.081 0.241,0.081 0.241,0.081 0.08,0 0.161,-0.081 0.161,-0.161 0,-0.08 0,-0.161 -0.081,-0.161 0,-0.081 -0.08,-0.161 -0.08,-0.161 v -0.162 c 0.08,0 0.241,0.161 0.402,0.402 0.804,1.287 1.126,1.689 1.77,1.85 0.562,0.161 0.724,0.322 0.724,0.644 0,0.161 -0.08,0.402 -0.321,0.724 -0.402,0.563 -0.563,0.885 -0.563,1.207 v 0.08 h 0.161 c 0.08,-0.08 0.08,-0.08 0.161,-0.08 l 0.241,-0.081 c 0.08,0 0.08,-0.081 0.08,-0.161 v -0.323 c 0,-0.081 0.08,-0.241 0.161,-0.241 l 0.08,0.08 0.161,0.322 c 0.075,0.16 0.155,0.24 0.316,0.321 z m -8.204,-6.837 v 0.242 a 0.35,0.35 0 0 0 0.081,0.241 c 0.081,0 0.161,-0.081 0.242,-0.241 0,-0.081 0.08,-0.242 0.08,-0.242 0,-0.08 -0.08,-0.161 -0.08,-0.241 -0.081,-0.081 -0.081,-0.161 -0.161,-0.161 -0.082,0 -0.082,0.161 -0.162,0.402 z"
       id="path16"
       inkscape:connector-curvature="0"
       style="fill:#fadf3c" />
    <path
       d="m 29.095,80.493 v 0.08 c 0,0.081 -0.081,0.241 -0.081,0.402 -0.081,0.161 -0.081,0.241 -0.081,0.241 v 0.161 c 0,0.161 0.081,0.322 0.161,0.322 l 0.08,0.08 0.081,0.161 c -0.081,0 0,0.081 0,0.241 v 0.402 c 0,0 -0.081,-0.161 -0.161,-0.241 -0.081,-0.242 -0.161,-0.402 -0.322,-0.402 -0.081,0 -0.161,0.081 -0.322,0.081 0.161,0.161 0.161,0.322 0.322,0.563 0.161,0.322 0.241,0.402 0.482,0.563 l 0.081,0.08 -0.081,0.081 h -0.161 l -0.081,-0.081 c 0,0 -0.081,0.081 -0.081,0.161 0,0.241 0.241,0.563 0.644,0.804 0,0.081 0.081,0.081 0.081,0.161 h -0.081 v 0.081 c -0.081,0 -0.081,-0.081 -0.161,-0.081 h -0.081 c 0,0 -0.081,0 -0.081,0.081 0,0.081 0.081,0.242 0.241,0.483 a 0.632,0.632 0 0 0 0.322,0.322 l 0.402,0.161 c 0.08,0 0.08,0.081 0.08,0.081 l -0.08,0.081 h -0.399 c 0,0.08 0.081,0.161 0.161,0.322 0.08,0.241 0.161,0.322 0.241,0.322 0,0 0.08,0 0.08,-0.081 l 0.081,-0.241 c 0,0 0.08,-0.081 0.241,-0.161 0.161,-0.081 0.241,-0.081 0.321,-0.081 0.241,-0.08 0.241,-0.08 0.241,-0.161 V 85.24 c 0,0 -0.08,-0.081 -0.08,-0.161 v -0.402 c 0,-0.081 0,-0.081 -0.081,-0.081 l -0.081,0.081 c -0.08,0.161 -0.241,0.321 -0.402,0.321 -0.563,0 -0.965,-0.965 -0.965,-2.252 v -0.402 l 0.081,-0.402 v -0.241 c 0,-0.322 -0.161,-0.805 -0.322,-0.965 l -0.161,-0.161 z m 1.287,7.319 -0.483,-0.161 c -0.161,-0.08 -0.322,-0.161 -0.402,-0.161 -0.161,0 -0.241,0.081 -0.402,0.241 h 0.08 l 0.161,0.161 0.241,0.161 c 0,0 0.081,0.081 0.161,0.081 0.161,0 0.322,-0.081 0.644,-0.322 z m 3.781,1.77 c 0.08,-0.08 0.08,-0.161 0.241,-0.241 0.241,-0.241 0.402,-0.402 0.402,-0.563 v -0.241 c 0,-0.081 0,-0.161 0.08,-0.161 h 0.081 l 0.081,0.161 c 0,0 0,0.08 0.08,0.08 0,0 0.081,-0.08 0.241,-0.322 0,-0.08 0.081,-0.08 0.081,-0.161 0,-0.081 -0.081,-0.081 -0.081,-0.081 0,-0.081 0,-0.081 -0.08,-0.161 v -0.161 c 0,-0.081 0,-0.161 0.08,-0.161 0,0 0.081,0 0.081,0.08 l 0.081,0.081 c 0.081,0 0.161,0 0.161,-0.081 l 0.081,-0.161 V 87.41 c 0,0 0,-0.08 -0.081,-0.08 l -0.08,-0.081 C 35.451,87.168 35.29,86.927 35.29,86.686 v -0.161 l 0.08,-0.161 v -0.161 c 0,-0.081 0,-0.241 -0.08,-0.322 -0.081,-0.081 -0.081,-0.161 -0.081,-0.242 -0.081,-0.08 -0.081,-0.161 -0.161,-0.161 0,0 -0.081,0 -0.161,0.081 h -0.08 l -0.161,0.161 -0.081,0.081 a 0.612,0.612 0 0 0 -0.161,0.402 c 0,0.241 0,0.321 0.321,0.885 0.161,0.241 0.242,0.482 0.242,0.562 0,0.402 -0.402,0.724 -1.126,0.885 -0.804,0.161 -0.965,0.322 -1.045,0.804 0.161,-0.081 0.161,-0.081 0.402,-0.081 h 0.161 c 0.161,0 0.161,0 0.241,-0.081 l 0.322,-0.321 0.161,-0.081 h 0.161 l 0.081,-0.081 v 0.081 c 0,0 0,0.081 -0.081,0.161 -0.08,0.161 -0.161,0.241 -0.161,0.322 -10e-4,0.162 -10e-4,0.243 0.08,0.324 z"
       id="path18"
       inkscape:connector-curvature="0"
       style="fill:#fadf3c" />
    <path
       d="m 32.956,88.053 c 0.081,0.081 0.241,0.161 0.322,0.241 0.08,0.161 0.08,0.161 0.161,0.161 H 33.6 l 0.081,-0.081 c 0.16,0 0.241,0 0.241,-0.081 l -0.081,-0.08 -0.08,-0.081 -0.161,-0.081 c 0,-0.081 -0.161,-0.161 -0.321,-0.161 -0.082,0.003 -0.162,0.083 -0.323,0.163 z m 3.217,0.563 0.081,-0.08 h 0.161 l 0.081,0.08 c 0.081,0 0.161,-0.08 0.161,-0.08 0.081,-0.081 0.161,-0.161 0.161,-0.242 0.08,0 0.08,-0.08 0.08,-0.08 a 0.172,0.172 0 0 0 -0.161,-0.161 c -0.322,0 -0.483,0.161 -0.564,0.563 z m -17.776,21.073 0.08,-0.16 0.161,-0.16 c 0.081,-0.082 0.161,-0.242 0.161,-0.482 v -0.322 c -0.08,-0.08 -0.08,-0.16 -0.08,-0.16 0,-0.082 0.08,-0.162 0.08,-0.162 0.081,0 0.081,0.08 0.081,0.08 l 0.161,0.162 c 0.08,0.08 0.161,0.16 0.241,0.16 v -0.322 c 0,-0.24 -0.081,-0.482 -0.161,-0.643 -0.08,-0.162 -0.161,-0.162 -0.161,-0.242 0,0 0,-0.08 0.081,-0.08 v 0.08 l 0.161,0.08 c 0.081,0 0.161,-0.16 0.161,-0.24 a 0.726,0.726 0 0 0 -0.242,-0.562 c -0.08,-0.082 -0.08,-0.162 -0.08,-0.162 -0.081,0 -0.081,-0.08 -0.081,-0.08 l 0.081,-0.08 c 0.08,0 0.08,0 0.161,0.08 h 0.081 c 0.081,0 0.081,-0.08 0.081,-0.402 v -0.24 c 0,-0.242 0,-0.322 -0.081,-0.322 h -0.081 c -0.482,0 -0.724,-0.242 -0.885,-1.127 -0.081,-0.562 -0.322,-0.965 -0.563,-1.125 -0.161,0 -0.242,-0.08 -0.242,-0.08 0,-0.082 0.081,-0.082 0.081,-0.082 0.08,0 0.161,0 0.241,0.082 0.402,0.16 0.724,0.24 0.965,0.24 0.483,0 0.885,-0.402 0.885,-0.805 0,-0.403 -0.161,-0.723 -0.483,-0.965 -0.081,-0.08 -0.161,-0.16 -0.241,-0.16 h -0.08 l 0.081,0.16 v 0.162 H 18.88 l -0.241,-0.322 c -0.081,-0.162 -0.402,-0.402 -0.644,-0.402 -0.081,0 -0.161,0.08 -0.161,0.08 0,0.08 0.08,0.08 0.08,0.16 a 0.253,0.253 0 0 1 0.081,0.162 v 0.08 h -0.081 l -0.241,-0.242 c -0.161,-0.24 -0.562,-0.4 -0.724,-0.4 h -0.081 v 0.16 c 0.081,0.08 0.161,0.08 0.161,0.16 h -0.08 c -0.081,0 -0.161,-0.08 -0.402,-0.24 -0.402,-0.322 -0.563,-0.564 -0.563,-0.885 0,-0.402 0.322,-0.725 0.644,-0.725 0.161,0 0.483,0.08 0.643,0.24 l 0.483,0.402 c 0.241,0.162 0.563,0.242 0.804,0.242 h 0.161 l 0.08,-0.08 c 0,0 0,-0.08 -0.08,-0.08 a 0.615,0.615 0 0 1 -0.402,-0.162 l -0.482,-0.402 c -0.241,-0.16 -0.322,-0.24 -0.402,-0.24 -0.321,-0.162 -0.321,-0.162 -0.321,-0.242 h 0.16 l 0.241,0.162 c 0.081,0 0.242,0.08 0.402,0.24 0.563,0.322 0.805,0.482 1.126,0.482 0.321,0 0.482,-0.24 0.482,-0.562 v -0.16 l -0.081,-0.082 v -0.08 l -0.08,0.08 v 0.162 c 0,0.08 0,0.08 -0.081,0.08 v 0.16 H 19.04 c -0.161,0 -0.322,-0.08 -0.805,-0.32 -0.402,-0.322 -0.884,-0.482 -1.207,-0.482 a 1.27,1.27 0 0 0 -1.287,1.285 c 0,1.047 0.563,1.449 2.493,1.852 0.724,0.16 1.046,0.402 1.046,0.723 0,0.322 -0.241,0.482 -0.563,0.482 h -0.322 c -0.081,0 -0.402,-0.16 -1.045,-0.32 -0.402,-0.082 -0.885,-0.162 -1.287,-0.162 -0.724,0 -1.287,0.242 -1.609,0.725 -0.081,0 -0.081,0.08 -0.081,0.08 -0.08,0 -0.08,0 -0.08,-0.08 l -0.161,-0.08 a 0.615,0.615 0 0 0 -0.402,-0.162 c -0.08,0 -0.08,0.082 -0.161,0.082 l -0.081,0.08 c -0.08,0 -0.161,-0.08 -0.241,-0.242 a 1.29,1.29 0 0 1 -0.241,-0.723 c 0,-0.082 0.081,-0.162 0.081,-0.162 0.081,0 0.081,0 0.081,0.08 l 0.08,0.322 c 0.081,0.16 0.161,0.242 0.241,0.242 0,0 0.081,0 0.161,-0.082 0,-0.08 0,-0.08 0.08,-0.16 0,-0.16 0.081,-0.24 0.081,-0.24 0.08,0 0.08,0.08 0.16,0.24 0,0.08 0,0.08 0.081,0.16 0,0.082 0.08,0.162 0.08,0.242 h 0.081 c 0.161,0 0.241,-0.16 0.241,-0.322 h -0.081 v -0.16 c 0,-0.08 0,-0.16 0.081,-0.16 l 0.081,0.08 c 0,0.08 0.08,0.08 0.161,0.16 h 0.242 v -0.08 c 0,-0.08 0,-0.08 -0.081,-0.242 -0.08,0 -0.161,-0.16 -0.241,-0.32 0,-0.08 -0.08,-0.162 -0.08,-0.162 h -0.081 l -0.081,0.082 h -0.242 c 0,-0.082 0.081,-0.162 0.241,-0.242 0.081,-0.08 0.081,-0.16 0.081,-0.322 0,-0.16 0.081,-0.32 0.081,-0.32 v -0.322 c 0.08,-0.162 0.161,-0.482 0.161,-0.645 0,-0.08 0.081,-0.08 0.081,-0.08 v 0.322 c 0,0.08 0.08,0.16 0.08,0.16 0.081,0 0.081,-0.08 0.161,-0.16 l 0.081,-0.242 v -0.16 c 0,-0.242 -0.081,-0.322 -0.242,-0.322 h -0.161 c 0,0 -0.081,-0.08 -0.081,-0.16 v -0.322 l -0.08,-0.16 V 98.67 l -0.081,0.082 -0.081,0.08 -0.161,0.16 -0.161,0.08 H 13.97 c -0.08,0 -0.08,0 -0.08,-0.16 0,-0.16 0,-0.242 -0.241,-0.482 l -0.081,-0.08 v 0.08 l -0.081,0.16 -0.161,0.322 v 0.16 c 0,0.08 0,0.08 -0.081,0.08 l -0.08,-0.08 c -0.161,-0.16 -0.161,-0.16 -0.402,-0.24 v 0.08 c -0.081,0.08 -0.081,0.16 -0.081,0.16 v 0.322 c 0,0.08 0,0.08 -0.081,0.08 h -0.08 c 0,-0.08 -0.081,-0.08 -0.081,-0.08 -0.241,0 -0.322,0.16 -0.322,0.322 0,0.08 0.081,0.16 0.241,0.482 l 0.161,0.16 c 0.08,0 0.08,0 0.08,-0.08 v -0.16 c 0,-0.082 -0.08,-0.082 -0.08,-0.162 l 0.08,-0.08 c 0.081,0 0.161,0.242 0.242,0.645 v 0.32 c 0,0.162 0.08,0.322 0.161,0.402 0.081,0.242 0.161,0.322 0.241,0.402 0.081,0.08 0.161,0.162 0.161,0.162 0,0.08 0,0.08 -0.081,0.08 0,0 -0.081,0 -0.161,-0.08 h -0.081 c -0.241,0 -0.322,0.08 -0.322,0.482 0,0.4 0.322,0.965 0.644,1.205 l 0.402,0.402 c 0.241,0.162 0.482,0.482 0.482,0.725 0,0.24 -0.322,0.562 -0.885,0.725 l -0.322,0.16 c -0.322,0.08 -0.402,0.24 -0.483,0.723 0.161,0 0.161,-0.08 0.242,-0.08 l 0.08,0.08 h 0.161 c 0.081,0 0.241,-0.08 0.241,-0.24 v -0.08 c 0,0 0,-0.08 0.081,-0.08 l 0.08,-0.082 0.161,-0.08 h 0.08 v 0.162 c 0,0.08 -0.08,0.16 -0.08,0.32 0,0.242 0.08,0.322 0.161,0.564 0,-0.082 0.08,-0.162 0.08,-0.162 0,-0.08 0.08,-0.16 0.161,-0.24 0.161,-0.242 0.241,-0.482 0.241,-0.645 v -0.24 -0.162 h 0.08 c 0.081,0 0.081,0 0.081,0.082 l 0.081,0.08 c 0.08,0 0.161,-0.08 0.161,-0.162 0,-0.08 0.081,-0.16 0.081,-0.24 0,0 0,-0.08 -0.081,-0.08 v -0.162 l 0.081,-0.08 c 0,0 0.08,0 0.08,0.08 h 0.081 c 0,0.08 0.081,0.08 0.081,0.08 l 0.161,-0.16 c 0.08,-0.08 0.08,-0.24 0.08,-0.24 v -0.082 c -0.241,-0.16 -0.402,-0.402 -0.402,-0.562 0,0 0.081,-0.08 0.081,-0.16 l 0.081,-0.242 c 0.081,-0.16 0.081,-0.24 0.081,-0.24 0.081,0 0.081,0 0.081,0.08 v 0.16 c -0.081,0 -0.081,0.08 -0.081,0.16 0,0.082 0.081,0.082 0.161,0.082 h 0.161 c 0.241,-0.162 0.482,-0.242 0.644,-0.242 0.161,0 0.241,0.08 0.402,0.16 h 0.161 v -0.08 c 0,0 0,-0.08 -0.081,-0.08 -0.08,-0.08 -0.08,-0.16 -0.08,-0.16 0,-0.08 0,-0.08 0.08,-0.08 0.161,0 0.402,0.482 0.644,1.287 0.161,0.643 0.241,0.723 0.804,1.045 0.482,0.24 0.724,0.562 0.724,0.965 0,0.482 -0.161,1.045 -0.402,1.85 -0.081,0.242 -0.161,0.402 -0.161,0.482 0,0.162 0.081,0.242 0.161,0.482 0,0.162 0,0.242 0.081,0.242 0.003,0 0.003,0.08 0.003,0.16 z"
       id="path20"
       inkscape:connector-curvature="0"
       style="fill:#fadf3c" />
    <path
       d="m 16.146,108.242 c 0,-0.08 0.08,-0.16 0.161,-0.322 0.161,-0.24 0.241,-0.32 0.241,-0.482 v -0.16 c 0,-0.162 0,-0.242 0.081,-0.242 0,0 0,0.08 0.081,0.08 v 0.082 h 0.08 c 0,0 0.081,0 0.081,-0.082 0.081,-0.08 0.161,-0.24 0.161,-0.32 v -0.242 c 0,-0.08 0,-0.08 0.081,-0.08 l 0.08,0.08 c 0,0.08 0,0.08 0.08,0.08 l 0.081,-0.08 0.08,-0.08 v -0.08 l 0.08,-0.08 -0.08,-0.082 c -0.241,-0.16 -0.321,-0.32 -0.321,-0.723 v -0.562 c 0,0 -0.081,-0.162 -0.242,-0.402 0,-0.08 -0.081,-0.242 -0.081,-0.322 0,-0.16 -0.08,-0.16 -0.161,-0.16 -0.241,0 -0.482,0.24 -0.482,0.562 0,0.16 0.08,0.482 0.241,0.805 0.161,0.482 0.241,0.643 0.241,0.803 0,0.402 -0.161,0.564 -0.644,0.725 -0.563,0.16 -0.804,0.482 -0.965,1.047 0.081,-0.082 0.081,-0.082 0.161,-0.082 h 0.08 l 0.161,-0.08 c 0.161,0 0.241,-0.08 0.322,-0.16 v -0.162 c 0,0 0,-0.08 0.081,-0.08 h 0.08 l 0.081,-0.08 v 0.402 c -0.002,0.239 -0.002,0.319 0.16,0.479 z m -5.39,-9.17 v 0.562 c 0,0.162 0,0.322 0.08,0.484 v 0.402 l -0.08,-0.082 c -0.161,-0.08 -0.241,-0.16 -0.402,-0.16 h -0.161 l 0.081,0.16 0.08,0.322 0.241,0.322 0.241,0.16 0.081,0.08 v 0.082 h -0.242 c 0,0 -0.081,0 -0.081,0.08 0,0 0.081,0.08 0.081,0.24 l 0.161,0.322 0.161,0.16 0.161,0.082 c 0.081,0.08 0.081,0.08 0.081,0.16 v 0.08 h -0.161 v 0.08 c 0,0.08 0.081,0.162 0.161,0.402 0.161,0.162 0.241,0.242 0.482,0.242 h 0.081 c 0.081,0 0.161,0 0.161,0.08 0,0.08 0,0.08 -0.08,0.08 -0.161,0.08 -0.241,0.08 -0.241,0.16 l 0.08,0.082 0.081,0.08 c 0.081,0.16 0.161,0.16 0.161,0.16 0.081,0 0.161,0 0.161,-0.08 0.081,-0.08 0.241,-0.16 0.322,-0.242 0.402,-0.08 0.402,-0.08 0.402,-0.16 v -0.08 c -0.081,-0.242 -0.161,-0.402 -0.161,-0.562 0,-0.082 0,-0.162 -0.081,-0.162 l -0.08,0.08 c -0.081,0.082 -0.242,0.162 -0.322,0.162 -0.322,0 -0.805,-0.482 -0.965,-1.207 -0.081,-0.16 -0.081,-0.402 -0.081,-0.562 0,-0.16 0,-0.402 0.081,-0.562 0.08,-0.322 0.08,-0.484 0.08,-0.564 v -0.08 c -10e-4,-0.24 -0.242,-0.561 -0.564,-0.803 z"
       id="path22"
       inkscape:connector-curvature="0"
       style="fill:#fadf3c" />
    <path
       d="m 11.48,100.439 a 1.894,1.894 0 0 0 -0.161,0.645 c 0,0.08 0.081,0.24 0.081,0.24 0.081,0 0.081,-0.08 0.081,-0.08 l 0.081,-0.24 c 0.081,0 0.081,0 0.081,-0.08 0.08,-0.082 0.08,-0.082 0.08,-0.162 0,-0.08 -0.082,-0.241 -0.243,-0.323 z m 1.126,4.506 0.081,0.08 c 0.241,0.24 0.241,0.24 0.322,0.24 0.081,0 0.322,0 0.402,-0.08 l 0.08,-0.08 c 0,0 -0.08,-0.08 -0.161,-0.08 l -0.081,-0.162 c -0.08,0 -0.161,-0.08 -0.241,-0.08 -0.16,0 -0.241,0 -0.402,0.162 z m 2.252,1.77 c 0.161,0.08 0.161,0.08 0.242,0.16 0.081,0 0.161,0.08 0.161,0.08 h 0.241 l 0.242,-0.08 0.161,-0.08 c 0.081,0 0.161,-0.08 0.161,-0.08 0,0 -0.081,0 -0.161,-0.082 h -0.161 c -0.242,-0.16 -0.242,-0.16 -0.322,-0.16 a 0.728,0.728 0 0 0 -0.564,0.242 z m 2.574,2.01 c 0.08,-0.16 0.08,-0.16 0.322,-0.16 0.241,0 0.482,-0.482 0.482,-0.805 v -0.08 l -0.081,0.08 c -0.08,0 -0.08,0.08 -0.161,0.08 l -0.241,0.08 c -0.242,0.162 -0.402,0.402 -0.402,0.564 0.001,0.08 0.001,0.161 0.081,0.241 z m 18.178,-2.332 0.08,-0.162 v -0.08 c 0,-0.08 0.081,-0.16 0.081,-0.24 0.161,-0.08 0.161,-0.242 0.161,-0.482 v -0.162 l -0.081,-0.08 c 0,0 0,-0.08 0.081,-0.08 0,0 0.08,0 0.08,0.08 0.081,0 0.081,0.08 0.161,0.08 0,0 0.081,-0.08 0.081,-0.24 v -0.08 c 0,-0.082 0,-0.162 -0.081,-0.242 v -0.16 c 0,0 0,-0.08 0.081,-0.08 0,0 0.08,0.08 0.08,0.16 h 0.081 c 0.081,0 0.161,-0.08 0.161,-0.242 0,-0.08 0.08,-0.08 0.08,-0.16 h -0.241 c -0.161,0 -0.402,-0.16 -0.563,-0.242 l -0.241,-0.402 c -0.161,-0.08 -0.242,-0.32 -0.242,-0.32 l -0.241,-0.162 c -0.08,0 -0.08,0 -0.08,-0.08 h 0.08 c 0.081,0 0.241,0 0.563,0.162 0.242,0.08 0.724,0.24 0.965,0.24 a 0.893,0.893 0 0 0 0.885,-0.885 c 0,-0.24 -0.08,-0.482 -0.402,-0.805 0,-0.08 -0.16,-0.16 -0.16,-0.16 -0.081,0 -0.081,0.08 -0.081,0.08 0,0 0,0.08 0.081,0.08 v 0.162 h -0.081 c -0.08,0 -0.08,-0.08 -0.161,-0.242 -0.081,-0.24 -0.161,-0.402 -0.482,-0.482 l -0.322,-0.16 c 0,0 -0.081,0 -0.081,0.08 l 0.081,0.08 c 0,0.08 0.08,0.16 0.08,0.242 h -0.08 c -0.081,0 -0.081,0 -0.242,-0.242 0,-0.08 -0.241,-0.24 -0.402,-0.322 h -0.241 v 0.082 l 0.08,0.08 -0.08,0.08 c -0.081,0 -0.241,-0.16 -0.402,-0.322 -0.161,-0.24 -0.241,-0.402 -0.241,-0.643 0,-0.322 0.321,-0.725 0.804,-0.725 0.081,0 0.161,0.08 0.241,0.08 l 0.322,0.16 0.402,0.322 c 0.241,0.08 0.563,0.242 0.805,0.242 0,0 0.08,0 0.241,-0.08 0.16,0 0.16,-0.082 0.16,-0.082 l -0.241,-0.08 c -0.08,0 -0.402,-0.08 -0.643,-0.24 l -0.402,-0.322 -0.402,-0.16 c -0.08,0 -0.08,0 -0.08,-0.082 h 0.161 l 0.402,0.082 c 0.081,0.08 0.241,0.16 0.402,0.24 0.482,0.242 0.724,0.322 0.965,0.322 0.161,0 0.322,-0.162 0.322,-0.402 v -0.242 c 0,-0.08 0,-0.08 -0.081,-0.16 -0.08,0 -0.08,0 -0.08,0.08 v 0.08 c 0,0.242 -0.081,0.242 -0.241,0.242 -0.161,0 -0.402,0 -0.885,-0.242 -0.483,-0.16 -0.805,-0.24 -1.126,-0.24 -0.724,0 -1.367,0.643 -1.367,1.287 0,0.643 0.402,1.045 1.207,1.447 l 0.885,0.322 c 0.644,0.322 0.885,0.482 0.885,0.805 0,0.16 -0.161,0.32 -0.482,0.32 -0.161,0 -0.322,0 -0.644,-0.16 -0.805,-0.242 -1.368,-0.322 -1.77,-0.322 -0.724,0 -1.287,0.162 -1.689,0.645 -0.08,0.08 -0.08,0.08 -0.161,0.08 0,0 -0.081,0 -0.161,-0.08 -0.08,0 -0.161,-0.08 -0.161,-0.08 -0.081,0 -0.241,0.08 -0.241,0.16 l -0.161,0.16 h -0.08 c -0.081,0 -0.161,-0.08 -0.241,-0.24 -0.081,-0.08 -0.081,-0.162 -0.161,-0.242 v -0.482 l 0.08,-0.16 v -0.242 h 0.081 c 0,0 0.08,0.08 0.08,0.162 v 0.08 c 0,0.32 0.081,0.562 0.241,0.562 0.081,0 0.161,-0.16 0.241,-0.482 0,-0.08 0,-0.16 0.081,-0.16 0,0 0,0.08 0.081,0.24 0,0.08 0.081,0.242 0.161,0.322 l 0.081,0.08 c 0.081,0 0.161,-0.16 0.161,-0.402 0,-0.16 0.08,-0.24 0.08,-0.24 0.081,0 0.081,0 0.081,0.08 l 0.081,0.08 0.081,0.08 c 0.08,0.08 0.08,0.08 0.161,0.08 l 0.081,-0.08 0.081,-0.08 c 0,0 -0.081,0 -0.081,-0.08 -0.081,-0.08 -0.161,-0.162 -0.161,-0.322 -0.08,-0.08 -0.08,-0.16 -0.161,-0.24 v -0.082 h -0.081 c 0,0 -0.081,0.082 -0.241,0.082 h -0.081 c 0,-0.082 0,-0.082 0.081,-0.162 0.241,-0.16 0.402,-0.562 0.402,-1.045 0.08,-0.242 0.08,-0.402 0.241,-0.564 l 0.081,-0.08 v 0.482 l 0.08,-0.08 0.161,-0.08 c 0.08,-0.08 0.161,-0.322 0.161,-0.402 0,-0.16 -0.081,-0.16 -0.081,-0.242 l -0.161,-0.16 h -0.081 l -0.08,0.08 c -0.081,0 -0.081,-0.08 -0.081,-0.08 v -0.24 l -0.081,-0.242 v -0.08 l -0.081,-0.08 h -0.08 l -0.081,0.08 -0.161,0.16 -0.161,0.162 h -0.081 v -0.082 -0.24 a 0.87,0.87 0 0 0 -0.241,-0.562 c -0.241,0.24 -0.322,0.402 -0.322,0.643 v 0.16 H 31.59 31.51 l -0.081,-0.16 -0.161,-0.16 c 0,0 -0.081,0 -0.081,-0.08 l -0.08,0.08 c -0.081,0.24 -0.081,0.32 -0.081,0.482 0,0.16 -0.081,0.16 -0.081,0.16 h -0.08 c -0.161,-0.08 -0.161,-0.08 -0.241,-0.08 -0.161,0 -0.241,0.16 -0.241,0.322 0,0.08 0,0.16 0.08,0.32 0.081,0.162 0.241,0.322 0.322,0.322 v -0.402 -0.08 c 0.081,0 0.161,0.322 0.241,0.805 0.08,0.483 0.161,0.805 0.402,0.965 0.081,0.08 0.081,0.08 0.081,0.162 h -0.081 l -0.081,-0.082 h -0.161 c -0.08,0 -0.161,0.082 -0.161,0.242 l -0.161,0.562 v 0.805 c -0.081,0.16 0,0.322 0,0.562 0.08,0.242 0.08,0.402 0.08,0.482 0,0.645 -0.321,1.127 -0.965,1.287 l -0.644,0.162 c -0.402,0.16 -0.563,0.4 -0.644,0.885 0.081,-0.082 0.161,-0.082 0.322,-0.162 h 0.161 c 0.081,0 0.161,0 0.161,-0.08 0,0 0.081,0 0.081,-0.08 l 0.161,-0.162 0.161,-0.16 c 0.08,0 0.08,0.08 0.08,0.08 0,0.08 0,0.08 -0.08,0.162 0,0.08 -0.081,0.16 -0.081,0.24 0,0.162 0.081,0.242 0.161,0.402 0,-0.08 0.081,-0.08 0.081,-0.08 0,-0.08 0.081,-0.16 0.161,-0.242 0.081,-0.16 0.241,-0.32 0.241,-0.402 v -0.24 c 0.081,0 0.081,0 0.081,0.08 v 0.08 h 0.161 c 0.081,-0.08 0.161,-0.08 0.161,-0.16 0.081,0 0.081,-0.08 0.081,-0.16 0.081,-0.082 0.081,-0.162 0.081,-0.162 v -0.24 c 0.08,0 0.08,0.08 0.161,0.16 h 0.161 c 0.081,-0.16 0.161,-0.322 0.161,-0.402 v -0.16 l -0.08,-0.162 c 0,-0.08 0.08,-0.08 0.08,-0.08 0.081,0 0.081,0.08 0.161,0.242 l 0.08,0.08 c 0.081,0 0.081,-0.08 0.161,-0.16 l 0.161,-0.162 v -0.08 -0.08 l -0.081,-0.16 c -0.08,0 -0.08,-0.082 -0.08,-0.082 0,-0.16 0.08,-0.32 0.161,-0.482 0.081,-0.16 0.161,-0.24 0.161,-0.24 v -0.082 c 0.08,0 0.08,0.082 0.08,0.082 v 0.24 c 0,0.08 0,0.08 0.081,0.08 h 0.081 l 0.241,-0.16 c 0.081,0 0.161,0 0.241,-0.08 0.402,-0.242 0.483,-0.242 0.724,-0.242 0.08,0 0.241,0 0.482,0.162 h 0.081 c 0,0 0.081,0 0.081,-0.082 v -0.16 c 0,-0.08 -0.081,-0.16 -0.081,-0.16 0,0 0,-0.08 0.081,-0.08 0,0 0,0.08 0.08,0.08 0,0.08 0.081,0.16 0.241,0.402 0.161,0.32 0.402,0.562 0.644,0.643 l 0.402,0.08 c 0.161,0 0.161,0.082 0.161,0.242 0,0.322 -0.161,0.562 -0.402,0.725 l -0.322,0.24 c -0.161,0.08 -0.242,0.322 -0.242,0.482 0,0.16 0,0.402 0.081,0.562 v -0.08 l 0.241,-0.08 0.08,-0.16 0.081,-0.242 0.081,-0.16 c 0.08,-0.162 0.08,-0.162 0.161,-0.162 v 0.162 c -0.003,0.152 0.078,0.232 0.158,0.475 z"
       id="path24"
       inkscape:connector-curvature="0"
       style="fill:#fadf3c" />
    <path
       d="m 29.739,109.369 c 0.08,-0.082 0.08,-0.082 0.482,-0.162 0.241,-0.08 0.402,-0.16 0.402,-0.482 0.08,-0.16 0.08,-0.24 0.241,-0.32 0.08,0 0.161,-0.082 0.161,-0.082 0,-0.08 0.081,-0.08 0.081,-0.08 v 0.08 c 0,0 0,0.082 -0.081,0.162 v 0.16 c 0,0.16 0,0.322 0.081,0.402 0.08,-0.08 0.161,-0.16 0.241,-0.242 0.241,-0.16 0.322,-0.32 0.322,-0.643 0,-0.16 0.081,-0.242 0.081,-0.242 h 0.08 l 0.081,0.162 h 0.081 c 0,0 0.081,0 0.081,-0.08 l 0.161,-0.082 c 0.081,-0.08 0.081,-0.24 0.081,-0.402 0,-0.08 0.081,-0.16 0.081,-0.16 0,0 0.08,0 0.08,0.08 l 0.081,0.162 v 0.08 c 0.081,0 0.081,0 0.081,-0.08 0.081,0 0.161,-0.082 0.161,-0.082 0.081,-0.08 0.081,-0.16 0.081,-0.24 v -0.162 c 0,-0.08 0,-0.08 0.081,-0.08 v -0.08 c 0,0 0.081,0 0.081,0.08 v 0.08 l 0.08,0.082 c 0.081,0 0.161,-0.082 0.241,-0.162 0,0 0,-0.08 0.081,-0.08 v -0.16 a 1.297,1.297 0 0 1 -0.241,-0.725 c 0,-0.322 0.161,-0.562 0.483,-1.125 0.241,-0.322 0.402,-0.564 0.402,-0.805 0,-0.08 0,-0.08 -0.081,-0.08 0,0 -0.08,0 -0.161,0.08 -0.08,0 -0.08,0 -0.08,-0.08 l -0.08,-0.082 -0.081,-0.08 h -0.08 -0.162 c -0.08,0 -0.161,0.08 -0.161,0.162 v 0.08 c 0,0.08 -0.081,0.24 -0.161,0.322 l -0.161,0.16 c -0.241,0.24 -0.402,0.562 -0.402,0.805 0,0.08 0,0.24 0.081,0.402 0.081,0.32 0.081,0.482 0.081,0.562 0,0.482 -0.724,1.125 -2.091,1.77 -0.644,0.402 -0.804,0.562 -0.804,1.045 v 0.162 z M 29.095,98.912 v 0.24 c 0,0.082 -0.081,0.082 -0.081,0.162 v 0.24 c 0,0.162 0,0.242 0.161,0.482 0,0.082 0.081,0.242 0.081,0.322 0,0.08 0,0.08 -0.081,0.08 l -0.08,-0.16 c -0.081,-0.08 -0.161,-0.08 -0.322,-0.08 h -0.161 a 0.6,0.6 0 0 1 0.081,0.322 c 0.081,0.32 0.161,0.402 0.322,0.562 0.161,0.16 0.161,0.16 0.161,0.24 0,0 0,0.082 -0.08,0.082 v -0.082 h -0.081 c -0.081,0 -0.081,0.162 -0.081,0.242 0,0.08 0,0.16 0.081,0.242 v 0.16 l 0.161,0.08 v 0.08 c 0,0.08 0,0.08 -0.08,0.08 h -0.081 -0.081 v 0.162 l 0.081,0.32 c 0,0 0,0.082 0.081,0.162 l 0.161,0.16 c 0.081,0 0.161,0.08 0.161,0.08 0,0 0.08,0 0.08,0.082 l -0.08,0.08 -0.081,-0.08 h -0.161 c -0.08,0 -0.08,0 -0.08,0.08 v 0.16 l 0.08,0.16 c 0,0.162 0.081,0.242 0.161,0.242 h 0.081 c 0.08,-0.16 0.402,-0.242 0.563,-0.242 0.241,0 0.402,0.082 0.482,0.082 h 0.081 c 0.081,0 0.081,0 0.081,-0.082 v -0.16 l 0.08,-0.322 v -0.402 l -0.08,0.082 c -0.161,0.16 -0.322,0.24 -0.482,0.24 -0.402,0 -0.724,-0.562 -0.724,-1.447 0,-0.402 0.08,-0.885 0.161,-1.529 0.081,-0.08 0.081,-0.16 0.081,-0.24 -0.003,-0.319 -0.244,-0.642 -0.566,-0.882 z"
       id="path26"
       inkscape:connector-curvature="0"
       style="fill:#fadf3c" />
    <path
       d="m 29.739,101.164 0.08,-0.08 0.081,-0.08 c 0.081,-0.08 0.161,-0.242 0.161,-0.322 0,-0.08 0,-0.08 -0.08,-0.16 0,-0.082 -0.081,-0.162 -0.081,-0.162 -0.081,0 -0.081,0.08 -0.081,0.242 l -0.08,0.16 z m -0.885,4.102 c 0.081,0 0.161,0 0.242,0.162 0.161,0.16 0.241,0.16 0.402,0.16 h 0.242 l 0.08,-0.08 h 0.081 c 0,-0.08 -0.081,-0.16 -0.161,-0.242 -0.081,0 -0.161,-0.08 -0.242,-0.08 -0.08,-0.08 -0.161,-0.08 -0.241,-0.08 -0.162,-10e-4 -0.242,-10e-4 -0.403,0.16 z m 1.367,2.896 c 0.161,-0.08 0.241,-0.08 0.402,-0.242 0.241,-0.08 0.321,-0.16 0.321,-0.16 0.161,-0.08 0.241,-0.16 0.241,-0.16 0,-0.082 -0.08,-0.162 -0.241,-0.162 -0.402,0 -0.724,0.322 -0.724,0.645 v 0.079 z m 4.022,-2.574 h 0.483 l 0.081,-0.08 0.161,-0.16 c 0.161,-0.082 0.241,-0.082 0.241,-0.162 0,-0.08 -0.081,-0.08 -0.241,-0.08 -0.323,-10e-4 -0.564,0.16 -0.725,0.482 z"
       id="path28"
       inkscape:connector-curvature="0"
       style="fill:#fadf3c" />
    <path
       d="m 13.813,81.538 -0.081,-0.081 v -0.08 c 0,-0.081 0.081,-0.161 0.161,-0.161 0.161,-0.08 0.241,-0.161 0.322,-0.241 l 0.161,-0.081 v 0.081 c 0,0.081 -0.08,0.322 -0.241,0.563 -0.08,0.241 -0.161,0.322 -0.161,0.322 -0.08,0 -0.16,-0.081 -0.16,-0.161 v -0.161 z m -0.563,-0.402 0.161,0.161 c 0,0 0.08,0 0.08,0.081 h -0.08 v 0.241 c 0,0.161 -0.081,0.161 -0.161,0.161 -0.08,0 0,0 -0.08,-0.08 l -0.242,-0.242 c -0.08,-0.08 -0.161,-0.241 -0.161,-0.482 0,-0.081 0,-0.081 0.081,-0.081 0,0 0.08,0 0.08,0.081 z m 0.563,1.046 0.16,-0.081 h 0.081 c 0.161,0 0.161,0.081 0.161,0.161 0,0.161 -0.081,0.241 -0.322,0.804 -0.08,0.161 -0.08,0.322 -0.241,0.322 -0.161,0 -0.241,-0.161 -0.402,-0.402 l -0.08,-0.321 c -0.081,-0.242 -0.161,-0.322 -0.161,-0.483 0,0 0.081,-0.081 0.161,-0.081 h 0.161 l 0.081,0.081 z m 18.66,-0.563 -0.08,-0.161 v -0.08 c 0,-0.081 0,-0.161 0.161,-0.161 0.081,-0.08 0.241,-0.161 0.322,-0.241 l 0.081,-0.081 c 0.081,0 0.081,0 0.081,0.081 0,0.081 -0.161,0.322 -0.242,0.563 -0.161,0.161 -0.161,0.322 -0.241,0.322 -0.08,0 -0.081,-0.081 -0.081,-0.161 v -0.081 z m -0.643,-0.483 0.161,0.161 c 0.081,0 0.081,0 0.081,0.081 v 0.241 l -0.081,0.161 c 0,0 0,0.081 -0.081,0.081 L 31.749,81.7 31.588,81.458 31.427,81.137 v -0.161 -0.081 c 0.081,0 0.081,0 0.161,0.081 z m 0.643,1.046 0.161,-0.081 c 0.161,0 0.241,0.081 0.241,0.242 0,0.08 -0.081,0.161 -0.161,0.241 l -0.081,0.482 c -0.081,0.242 -0.241,0.322 -0.322,0.322 -0.161,0 -0.322,-0.161 -0.402,-0.402 -0.081,-0.161 -0.081,-0.241 -0.161,-0.321 -0.081,-0.161 -0.081,-0.322 -0.081,-0.402 0,-0.08 0.081,-0.161 0.161,-0.161 h 0.081 a 0.25,0.25 0 0 0 0.161,0.081 h 0.403 z M 12.928,99.797 v -0.162 h 0.161 c 0,0.082 0.081,0.082 0.081,0.082 0.321,0.08 0.402,0.08 0.402,0.24 l -0.081,0.162 v 0.16 c 0,0.08 0,0.08 -0.08,0.08 0,0 -0.161,-0.08 -0.241,-0.16 l -0.081,-0.162 z m 1.287,0.24 -0.161,0.242 -0.081,0.08 c -0.08,0 -0.08,-0.16 -0.08,-0.24 v -0.242 c 0,-0.08 0,-0.08 0.161,-0.08 0.08,-0.08 0.161,-0.08 0.161,-0.08 l 0.161,-0.082 h 0.081 l -0.081,0.162 z m -0.322,0.725 0.161,-0.08 h 0.08 c 0.081,0 0.161,0 0.161,0.16 0,0.082 -0.081,0.242 -0.241,0.482 -0.081,0.242 -0.241,0.402 -0.322,0.402 -0.161,0 -0.321,-0.24 -0.562,-0.643 0,-0.08 -0.081,-0.16 -0.081,-0.242 0,-0.16 0.081,-0.24 0.161,-0.24 0.081,0 0.081,0 0.161,0.08 h 0.08 c 0.081,0.08 0.161,0.08 0.241,0.08 z m 17.374,-1.207 0.161,0.08 c 0.081,0.082 0.081,0.082 0.161,0.082 0.161,0.08 0.241,0.08 0.241,0.16 0,0 0,0.08 -0.08,0.16 v 0.082 c 0,0.16 -0.081,0.16 -0.161,0.16 -0.08,0 -0.161,-0.08 -0.241,-0.242 -0.08,-0.08 -0.08,-0.32 -0.161,-0.402 v -0.08 z m 1.367,0.322 -0.241,0.242 c -0.081,0.08 -0.081,0.24 -0.081,0.24 H 32.15 c 0,0 -0.08,0 -0.08,-0.08 v -0.322 c 0,-0.08 0,-0.16 0.08,-0.16 l 0.242,-0.08 0.161,-0.082 h 0.161 v 0.082 z m -1.046,0.725 0.161,0.08 h 0.402 l 0.081,-0.08 h 0.081 c 0.081,0 0.161,0.08 0.161,0.16 0,0.162 -0.08,0.322 -0.241,0.482 l -0.161,0.242 c -0.081,0.16 -0.161,0.16 -0.161,0.16 -0.161,0 -0.241,0 -0.402,-0.402 -0.081,-0.24 -0.161,-0.402 -0.161,-0.482 0,-0.16 0.081,-0.24 0.161,-0.24 -0.001,-0.001 0.079,-0.001 0.079,0.08 z"
       id="path30"
       inkscape:connector-curvature="0" />
    <path
       d="M 13.571,82.503 H 13.41 v 0.322 l 0.08,0.161 c 0,0.161 0.081,0.161 0.161,0.161 0.08,0 0.161,0 0.161,-0.161 v -0.241 -0.161 -0.081 z m 18.661,0 h -0.161 c 0,0.081 -0.081,0.081 -0.081,0.081 l 0.081,0.241 0.08,0.161 c 0,0.161 0,0.161 0.081,0.161 0.081,0 0.161,0 0.161,-0.161 l 0.08,-0.241 v -0.161 -0.081 z m -18.58,18.501 h -0.081 c -0.081,0 -0.081,0 -0.081,0.08 0,0.08 0.081,0.322 0.161,0.402 0,0.08 0.08,0.08 0.08,0.08 0.081,0 0.081,-0.16 0.161,-0.322 v -0.16 c 0,-0.08 0,-0.08 -0.08,-0.08 z m 18.098,0.08 v 0.24 c 0,0.082 0.08,0.162 0.161,0.162 0.081,0 0.161,-0.162 0.161,-0.322 v -0.16 c 0,-0.08 0,-0.08 -0.081,-0.08 H 31.83 c -0.08,0 -0.08,0 -0.08,0.16 z"
       id="path32"
       inkscape:connector-curvature="0"
       style="fill:#fadf3c" />
    <path
       d="m 20.489,91.432 h 1.045 c 0.161,-0.242 0.322,-0.322 0.563,-0.322 0.241,0 0.402,0.08 0.563,0.322 h 0.804 c 0.161,-0.242 0.322,-0.322 0.563,-0.322 0.241,0 0.482,0.161 0.563,0.322 h 0.804 c 0.161,-0.242 0.322,-0.322 0.563,-0.322 0.161,0 0.402,0.08 0.483,0.241 l 0.08,0.081 h 1.126 v 5.229 h -0.965 v 1.93 h -1.207 v -1.93 H 22.58 v 1.93 h -1.126 v -2.01 h -0.965 z"
       id="path34"
       inkscape:connector-curvature="0" />
    <path
       d="m 20.891,96.258 h 6.354 v -4.425 h -6.354 z"
       id="path36"
       inkscape:connector-curvature="0"
       style="fill:#cf4037" />
    <path
       d="m 21.534,92.879 c -0.161,0 -0.241,0.161 -0.241,0.322 0,0.161 0.081,0.241 0.241,0.241 0.16,0 0.322,-0.081 0.322,-0.241 0,-0.16 -0.161,-0.322 -0.322,-0.322 z m 4.987,0 c -0.161,0 -0.241,0.161 -0.241,0.322 0,0.161 0.081,0.241 0.241,0.241 0.161,0 0.322,-0.081 0.322,-0.241 0,-0.16 -0.161,-0.322 -0.322,-0.322 z m -4.987,2.333 c -0.161,0 -0.241,0.161 -0.241,0.322 0,0.161 0.081,0.322 0.241,0.322 0.16,0 0.322,-0.161 0.322,-0.322 a 0.346,0.346 0 0 0 -0.322,-0.322 z m 4.987,0 c -0.161,0 -0.241,0.161 -0.241,0.322 0,0.161 0.081,0.322 0.241,0.322 a 0.346,0.346 0 0 0 0.322,-0.322 0.346,0.346 0 0 0 -0.322,-0.322 z"
       stroke-miterlimit="2.613"
       id="path38"
       inkscape:connector-curvature="0"
       style="fill:#fadf3c;stroke:#000000;stroke-width:0.081;stroke-miterlimit:2.61299992" />
    <path
       d="m 22.5,94.327 c 0.402,0.482 0.965,0.724 1.608,0.724 0.563,0 0.965,-0.161 1.448,-0.724 -0.483,-0.483 -0.965,-0.724 -1.528,-0.724 -0.563,0 -1.126,0.241 -1.528,0.724 z"
       id="path40"
       inkscape:connector-curvature="0"
       style="fill:#fadf3c" />
    <path
       d="m 22.821,94.327 c 0.402,-0.322 0.804,-0.483 1.207,-0.483 0.482,0 0.804,0.161 1.207,0.483 -0.402,0.402 -0.724,0.482 -1.207,0.482 -0.483,0 -0.885,-0.16 -1.207,-0.482 z"
       id="path42"
       inkscape:connector-curvature="0" />
    <path
       d="m 23.304,94.247 c 0.241,0.161 0.482,0.161 0.724,0.161 0.242,0 0.482,0 0.724,-0.161 -0.241,-0.161 -0.482,-0.241 -0.724,-0.241 -0.242,0 -0.483,0.08 -0.724,0.241 z"
       id="path44"
       inkscape:connector-curvature="0"
       style="fill:#fadf3c" />
    <path
       d="m 20.81,92.316 h 6.516 V 92.075 H 20.81 Z"
       id="path46"
       inkscape:connector-curvature="0" />
    <path
       d="m 21.775,91.833 v 0.563 c 0,0.161 0.161,0.321 0.322,0.321 0.161,0 0.241,-0.08 0.241,-0.321 v -0.563 c 0,-0.241 -0.08,-0.402 -0.241,-0.402 h -0.081 l -0.08,0.08 c -0.081,0 -0.081,0.081 -0.081,0.081 0,0.081 -0.081,0.081 -0.081,0.081 v 0.16 z m 2.012,0.483 v 0.081 c 0,0.161 0.08,0.321 0.241,0.321 0.161,0 0.321,-0.08 0.321,-0.321 v -0.563 c 0,-0.241 -0.16,-0.402 -0.241,-0.402 -0.241,0 -0.321,0.161 -0.321,0.402 z m 1.93,-0.483 v 0.563 c 0,0.161 0.081,0.321 0.241,0.321 0.161,0 0.242,-0.08 0.242,-0.321 v -0.563 c 0,-0.241 -0.081,-0.402 -0.242,-0.402 h -0.08 l -0.081,0.08 c -0.081,0 -0.081,0.081 -0.081,0.081 v 0.241 z m -4.022,6.034 h 0.563 v -0.805 h -0.563 z m 0,0.403 h 0.563 v -0.243 h -0.563 z m 4.022,-0.403 h 0.563 v -0.805 h -0.563 z m 0,0.403 h 0.563 v -0.243 h -0.563 z"
       id="path48"
       inkscape:connector-curvature="0"
       style="fill:#fadf3c" />
    <path
       d="m 48.882,80.814 c 0,-1.287 -0.644,-1.287 -1.287,-1.287 h -0.241 v -0.482 c 0.724,0 1.689,0.081 2.735,0.081 1.045,0 1.85,-0.081 2.574,-0.081 v 0.482 h -0.241 c -0.644,0 -1.368,0 -1.368,1.287 v 5.872 c 0,2.091 0.805,3.619 3.218,3.619 2.252,0 3.298,-1.447 3.298,-3.699 v -5.792 c 0,-1.287 -0.644,-1.287 -1.287,-1.287 H 55.96 v -0.482 c 0.724,0 1.368,0.081 2.091,0.081 0.644,0 1.287,-0.081 1.931,-0.081 v 0.482 H 59.66 c -0.482,0 -1.126,0 -1.126,1.287 v 5.39 c 0,3.86 -2.011,4.986 -4.585,4.986 -3.217,0 -5.067,-1.206 -5.067,-4.263 z m 22.923,6.757 v -6.435 c 0,-1.367 -0.965,-1.609 -1.447,-1.609 h -0.402 v -0.482 c 0.804,0 1.608,0.081 2.413,0.081 0.644,0 1.367,-0.081 2.091,-0.081 v 0.482 h -0.241 c -0.724,0 -1.528,0.161 -1.528,2.172 v 7.721 c 0,0.644 0,1.207 0.081,1.77 H 72.128 L 63.36,81.378 v 6.998 c 0,1.528 0.322,2.011 1.608,2.011 h 0.322 v 0.482 h -4.504 v -0.482 h 0.242 c 1.126,0 1.528,-0.805 1.528,-2.172 v -7.159 c 0,-0.965 -0.805,-1.528 -1.609,-1.528 h -0.161 v -0.482 c 0.644,0 1.287,0.081 1.931,0.081 0.482,0 0.965,-0.081 1.528,-0.081 z m 3.459,2.815 h 0.241 c 0.563,0 1.207,-0.081 1.207,-0.966 v -8.928 c 0,-0.885 -0.644,-0.965 -1.207,-0.965 h -0.241 v -0.482 c 0.644,0 1.689,0.081 2.493,0.081 0.885,0 1.851,-0.081 2.654,-0.081 v 0.482 H 80.17 c -0.562,0 -1.207,0.081 -1.207,0.965 v 8.928 c 0,0.885 0.644,0.966 1.207,0.966 h 0.241 v 0.482 H 75.264 Z M 86.123,79.527 h -0.402 c -0.563,0 -0.885,0.242 -0.885,0.483 0,0.08 0.081,0.321 0.161,0.562 l 2.896,7.561 h 0.081 l 2.735,-7.078 c 0.161,-0.563 0.161,-0.804 0.161,-0.965 0,-0.482 -0.482,-0.563 -1.045,-0.563 h -0.322 v -0.482 c 0.643,0 1.287,0.081 2.011,0.081 0.482,0 1.046,-0.081 1.528,-0.081 v 0.482 h -0.161 c -0.322,0 -0.644,0.081 -0.885,0.643 -0.161,0.242 -2.654,6.516 -3.78,9.331 -0.161,0.562 -0.482,1.126 -0.644,1.688 H 86.929 L 82.585,80.492 c -0.322,-0.805 -0.644,-0.965 -1.367,-0.965 h -0.241 v -0.482 c 0.885,0 1.77,0.081 2.654,0.081 0.804,0 2.011,-0.081 2.493,-0.081 v 0.482 z m 7.56,10.859 h 0.242 c 0.644,0 1.287,-0.081 1.287,-0.966 v -8.928 c 0,-0.885 -0.644,-0.965 -1.287,-0.965 h -0.242 v -0.482 c 1.046,0 2.815,0.081 4.264,0.081 1.447,0 3.217,-0.081 4.342,-0.081 v 2.574 l -0.482,0.161 c -0.08,-1.126 -0.24,-2.01 -2.09,-2.01 h -2.334 v 4.504 h 2.012 c 1.045,0 1.287,-0.644 1.367,-1.528 h 0.482 c 0,0.644 -0.08,1.287 -0.08,2.011 0,0.644 0.08,1.287 0.08,1.931 l -0.482,0.08 c -0.08,-1.045 -0.16,-1.689 -1.367,-1.689 h -2.012 v 3.941 c 0,1.126 0.967,1.126 2.092,1.126 2.012,0 2.896,-0.161 3.459,-2.092 l 0.482,0.161 c -0.242,0.885 -0.482,1.77 -0.643,2.654 h -9.09 z m 12.065,-9.572 c 0,-1.206 -0.643,-1.287 -1.205,-1.287 h -0.322 v -0.482 c 0.562,0 1.607,0.081 2.654,0.081 1.045,0 1.85,-0.081 2.734,-0.081 2.172,0 4.021,0.563 4.021,2.976 0,1.528 -0.965,2.493 -2.332,2.976 l 2.895,4.344 c 0.484,0.724 0.805,0.965 1.689,1.046 v 0.482 h -3.296 c -1.287,-1.689 -2.414,-3.539 -3.539,-5.47 h -1.127 v 3.62 c 0,1.287 0.645,1.368 1.447,1.368 h 0.242 v 0.482 h -5.388 v -0.482 h 0.322 c 0.643,0 1.205,-0.241 1.205,-0.885 z m 2.172,3.941 h 0.885 c 1.689,0 2.574,-0.644 2.574,-2.654 0,-1.448 -0.965,-2.493 -2.494,-2.493 -0.482,0 -0.723,0.08 -0.965,0.08 z m 14.881,-3.217 c -0.16,-1.126 -0.885,-2.171 -2.012,-2.171 -1.367,0 -2.09,0.804 -2.09,2.171 0,2.815 5.066,1.93 5.066,6.033 0,2.333 -1.93,3.619 -4.102,3.619 -0.965,0 -1.85,-0.402 -2.734,-0.804 -0.082,-0.885 -0.162,-1.689 -0.242,-2.574 l 0.482,-0.081 c 0.162,1.448 0.965,2.655 2.654,2.655 1.127,0 2.092,-0.724 2.092,-1.931 0,-2.976 -5.068,-2.091 -5.068,-6.193 0,-2.172 1.609,-3.458 3.781,-3.458 0.482,0 1.93,0.161 2.494,0.241 0,0.804 0,1.608 0.16,2.413 z m 2.654,8.848 h 0.24 c 0.564,0 1.207,-0.081 1.207,-0.966 v -8.928 c 0,-0.885 -0.643,-0.965 -1.207,-0.965 h -0.24 v -0.482 c 0.643,0 1.689,0.081 2.494,0.081 0.885,0 1.85,-0.081 2.654,-0.081 v 0.482 h -0.242 c -0.562,0 -1.207,0.081 -1.207,0.965 v 8.928 c 0,0.885 0.645,0.966 1.207,0.966 h 0.242 v 0.482 h -5.148 z m 7.803,-10.537 c -1.287,0 -1.367,0.321 -1.609,1.608 h -0.482 c 0.08,-0.482 0.16,-0.965 0.16,-1.447 0.08,-0.483 0.162,-0.965 0.162,-1.448 h 0.402 c 0.16,0.483 0.562,0.483 1.045,0.483 h 8.768 c 0.402,0 0.885,0 0.885,-0.563 l 0.402,0.08 c -0.082,0.483 -0.162,0.965 -0.162,1.367 -0.08,0.483 -0.08,0.965 -0.08,1.368 l -0.482,0.241 c 0,-0.644 -0.08,-1.689 -1.287,-1.689 h -2.734 v 9.089 c 0,1.287 0.562,1.448 1.367,1.448 h 0.322 v 0.482 h -5.63 v -0.482 h 0.322 c 0.965,0 1.447,-0.081 1.447,-1.448 v -9.089 z m 15.361,5.55 -3.457,-4.665 c -0.482,-0.724 -0.805,-1.207 -1.609,-1.207 h -0.16 v -0.482 c 0.885,0 1.77,0.081 2.652,0.081 0.887,0 1.689,-0.081 2.494,-0.081 v 0.482 h -0.16 c -0.482,0 -0.885,0.161 -0.885,0.402 0,0.161 0.16,0.402 0.24,0.563 l 2.574,3.619 2.172,-3.056 c 0.242,-0.483 0.482,-0.804 0.482,-1.126 0,-0.321 -0.723,-0.402 -0.965,-0.402 h -0.322 v -0.482 c 0.645,0 1.287,0.081 1.932,0.081 0.562,0 1.125,-0.081 1.689,-0.081 v 0.482 c -0.645,0 -1.127,0.402 -1.369,0.804 l -3.137,4.504 v 4.022 c 0,1.447 0.482,1.528 1.367,1.528 h 0.322 v 0.482 h -5.63 v -0.482 h 0.322 c 1.047,0 1.447,-0.241 1.447,-1.368 v -3.618 z m 19.305,-6.595 c 3.619,0 6.516,2.252 6.516,5.872 0,3.861 -2.734,6.515 -6.436,6.515 -3.539,0 -6.354,-2.493 -6.354,-6.113 0,-3.54 2.735,-6.274 6.274,-6.274 z m 0.322,11.582 c 3.297,0 3.861,-2.896 3.861,-5.39 0,-2.493 -1.369,-5.469 -4.184,-5.469 -2.977,0 -3.861,2.654 -3.861,4.906 0,3.057 1.368,5.953 4.184,5.953 z m 11.02,-6.113 h 2.332 c 0.885,0 1.127,-0.563 1.127,-1.448 h 0.482 c 0,0.643 -0.082,1.207 -0.082,1.85 0,0.724 0.082,1.367 0.082,2.091 h -0.482 c 0,-0.965 -0.242,-1.689 -1.367,-1.689 h -2.092 v 4.343 c 0,0.966 0.805,0.966 1.607,0.966 h 0.242 v 0.482 h -5.55 v -0.482 h 0.242 c 0.643,0 1.287,-0.081 1.287,-0.966 v -8.928 c 0,-0.885 -0.645,-0.965 -1.287,-0.965 h -0.242 v -0.482 c 1.047,0 2.816,0.081 4.264,0.081 1.448,0 3.217,-0.081 4.344,-0.081 v 2.574 l -0.482,0.161 c -0.08,-1.207 -0.402,-2.01 -1.689,-2.01 h -2.734 v 4.503 z M 61.108,102.049 c -0.563,-2.092 -1.528,-3.861 -4.746,-3.861 -3.539,0 -5.389,2.816 -5.389,6.596 0,3.539 1.77,7.16 5.872,7.16 2.252,0 3.781,-1.449 4.343,-3.539 l 0.644,0.08 c -0.322,1.125 -0.482,2.332 -0.563,3.459 -1.207,0.562 -2.896,0.965 -4.906,0.965 -4.826,0 -8.446,-2.654 -8.446,-8.045 0,-4.826 3.941,-7.561 8.365,-7.561 2.494,0 3.298,0.725 5.309,1.047 0,1.205 0,2.412 0.161,3.619 z m 5.228,7.48 c -0.241,0.725 -0.482,1.287 -0.482,1.689 0,0.643 0.884,0.725 1.609,0.725 h 0.241 v 0.643 c -0.885,-0.08 -1.77,-0.08 -2.574,-0.08 -0.804,0 -1.528,0 -2.333,0.08 v -0.643 h 0.161 c 0.804,0 1.528,-0.484 1.85,-1.369 l 3.378,-9.893 c 0.322,-0.805 0.724,-1.85 0.804,-2.654 0.724,-0.242 1.528,-0.645 2.011,-0.885 0,-0.08 0.081,-0.08 0.161,-0.08 0,0 0.081,0 0.161,0.08 0,0.16 0.081,0.322 0.161,0.562 l 3.941,11.182 c 0.242,0.723 0.483,1.527 0.805,2.17 0.241,0.645 0.724,0.887 1.367,0.887 h 0.161 v 0.643 c -0.965,-0.08 -1.93,-0.08 -2.976,-0.08 -1.046,0 -2.091,0 -3.218,0.08 v -0.643 h 0.241 c 0.483,0 1.368,-0.082 1.368,-0.645 0,-0.242 -0.241,-0.805 -0.482,-1.529 l -0.805,-2.492 h -4.907 z m 3.137,-9.492 h -0.081 l -1.93,6.033 h 3.941 z m 19.706,8.768 5.067,-11.18 c 0.644,0 1.448,0.08 2.172,0.08 0.724,0 1.529,-0.08 2.251,-0.08 v 0.645 h -0.16 c -0.645,0 -1.931,0 -2.011,0.965 0,0.562 0.081,1.205 0.161,1.689 l 0.805,9.812 c 0.08,1.045 0.562,1.125 1.85,1.207 v 0.643 c -0.965,-0.08 -2.012,-0.08 -3.057,-0.08 -1.207,0 -2.333,0 -3.539,0.08 v -0.643 c 1.126,-0.082 1.85,-0.082 1.85,-1.047 v -1.045 l -0.644,-9.01 -5.47,12.066 h -0.563 l -5.147,-11.824 h -0.081 l -0.724,9.41 c 0,0.645 0.161,1.047 0.483,1.207 0.322,0.16 0.724,0.242 1.368,0.242 h 0.241 v 0.643 c -0.965,-0.08 -1.93,-0.08 -2.896,-0.08 -0.884,0 -1.689,0 -2.574,0.08 v -0.643 h 0.322 c 1.689,-0.082 1.769,-0.805 1.93,-2.334 l 0.644,-5.951 c 0.161,-1.529 0.241,-2.977 0.241,-3.781 0,-1.207 -0.885,-1.607 -1.85,-1.607 h -0.241 v -0.645 c 0.885,0 1.688,0.08 2.574,0.08 0.643,0 1.287,-0.08 1.93,-0.08 z m 11.503,3.138 h 0.322 c 0.723,0 1.607,-0.082 1.607,-1.207 V 99.475 c 0,-1.125 -0.885,-1.205 -1.607,-1.205 h -0.322 v -0.645 c 0.965,0 2.172,0.08 3.377,0.08 1.207,0 2.414,-0.08 3.379,-0.08 3.619,0 4.986,1.447 4.986,3.379 0,2.172 -2.01,3.137 -3.939,3.459 2.332,0 4.824,1.285 4.824,3.859 0,2.334 -2.252,4.264 -5.066,4.264 -1.045,0 -2.414,-0.08 -3.781,-0.08 -1.287,0 -2.814,0.08 -3.779,0.08 v -0.643 z m 4.664,-1.931 c 0,1.447 0.242,1.77 1.932,1.77 1.77,0 3.137,-1.447 3.137,-3.377 0,-2.334 -1.609,-3.459 -3.701,-3.459 h -1.367 v 5.066 z m 0,-5.871 h 1.047 c 1.77,0 3.137,-0.725 3.137,-2.734 0,-2.494 -1.447,-3.057 -2.896,-3.057 h -1.287 v 5.791 z m 11.502,-4.264 c 0,-1.527 -0.885,-1.607 -1.527,-1.607 h -0.402 v -0.645 c 0.725,0 2.012,0.08 3.299,0.08 1.285,0 2.332,-0.08 3.457,-0.08 2.736,0 5.148,0.725 5.148,3.781 0,1.93 -1.287,3.057 -2.977,3.779 l 3.619,5.471 c 0.645,0.885 1.047,1.125 2.092,1.287 v 0.643 c -0.723,0 -1.367,-0.08 -2.092,-0.08 -0.643,0 -1.367,0.08 -2.01,0.08 -1.689,-2.172 -3.057,-4.504 -4.424,-6.998 h -1.447 v 4.666 c 0,1.607 0.803,1.689 1.77,1.689 h 0.402 v 0.643 c -1.287,0 -2.494,-0.08 -3.701,-0.08 -1.045,0 -2.092,0.08 -3.137,0.08 v -0.643 h 0.402 c 0.805,0 1.527,-0.402 1.527,-1.127 V 99.877 Z m 2.736,4.986 h 1.045 c 2.172,0 3.297,-0.803 3.297,-3.377 0,-1.852 -1.205,-3.137 -3.137,-3.137 -0.643,0 -0.885,0.08 -1.205,0.08 z m 10.857,7.08 h 0.322 c 0.725,0 1.527,-0.082 1.527,-1.207 V 99.475 c 0,-1.125 -0.803,-1.205 -1.527,-1.205 h -0.322 v -0.645 c 0.805,0 2.092,0.08 3.137,0.08 1.127,0 2.414,-0.08 3.379,-0.08 v 0.645 h -0.242 c -0.803,0 -1.607,0.08 -1.607,1.205 v 11.262 c 0,1.125 0.805,1.207 1.607,1.207 h 0.242 v 0.643 c -1.045,0 -2.332,-0.08 -3.379,-0.08 -1.045,0 -2.332,0.08 -3.137,0.08 z m 8.043,0 h 0.322 c 0.805,0 1.609,-0.082 1.609,-1.207 V 99.475 c 0,-1.125 -0.805,-1.205 -1.609,-1.205 h -0.322 v -0.645 c 0.645,0 2.092,0.08 3.459,0.08 1.367,0 2.574,-0.08 3.459,-0.08 5.309,0 8.525,2.977 8.525,7.4 0,4.344 -3.619,7.801 -7.963,7.561 -0.965,-0.08 -2.412,-0.08 -3.941,-0.08 -1.447,0 -2.975,0.08 -3.539,0.08 z m 4.666,-1.851 c 0,1.529 0.643,1.689 2.252,1.689 3.619,0 5.551,-3.057 5.551,-6.354 0,-5.631 -2.896,-7.078 -6.355,-7.078 -0.482,0 -0.965,0.08 -1.447,0.16 v 11.583 z m 26.221,-8.283 c -0.643,-2.656 -2.492,-3.621 -4.986,-3.621 -3.861,0 -5.711,2.896 -5.711,6.436 0,3.54 1.689,7.32 5.791,7.32 0.965,0 2.092,-0.162 2.334,-0.402 v -3.459 c 0,-0.885 -0.805,-1.127 -1.609,-1.127 h -0.242 v -0.643 c 1.047,0.08 2.092,0.08 3.219,0.08 0.965,0 1.85,0 2.814,-0.08 v 0.643 h -0.242 c -0.803,0 -1.205,0.322 -1.205,1.127 v 3.217 l 0.562,0.322 v 0.322 c -1.93,0.562 -3.781,0.965 -6.033,0.965 -4.826,0 -8.445,-2.896 -8.445,-8.045 0,-4.986 4.264,-7.561 8.607,-7.561 1.367,0 2.252,0.162 3.057,0.402 0.885,0.162 1.607,0.322 2.492,0.402 0,0.725 0,2.414 0.242,3.619 z m 2.736,10.134 h 0.24 c 0.805,0 1.609,-0.082 1.609,-1.207 V 99.475 c 0,-1.125 -0.805,-1.205 -1.609,-1.205 h -0.24 v -0.645 c 1.285,0 3.539,0.08 5.309,0.08 1.77,0 4.021,-0.08 5.469,-0.08 0,0.885 0,2.332 0.08,3.299 l -0.643,0.16 C 182.16,99.635 181.92,98.51 179.668,98.51 h -2.977 v 5.631 h 2.574 c 1.287,0 1.527,-0.725 1.689,-1.85 h 0.643 c -0.08,0.803 -0.08,1.688 -0.08,2.492 0,0.804 0,1.609 0.08,2.494 l -0.643,0.08 c -0.162,-1.287 -0.162,-2.092 -1.689,-2.092 h -2.574 v 4.988 c 0,1.367 1.287,1.367 2.654,1.367 2.574,0 3.699,-0.162 4.344,-2.574 l 0.562,0.16 c -0.24,1.127 -0.482,2.252 -0.725,3.379 -1.367,0 -3.779,-0.08 -5.709,-0.08 -1.932,0 -4.506,0.08 -5.711,0.08 v -0.642 z"
       id="path50"
       inkscape:connector-curvature="0"
       style="fill:#ffffff" />
  </g>
</svg>
