<?xml version="1.0" encoding="UTF-8" standalone="no"?>
<svg
   xmlns:dc="http://purl.org/dc/elements/1.1/"
   xmlns:cc="http://creativecommons.org/ns#"
   xmlns:rdf="http://www.w3.org/1999/02/22-rdf-syntax-ns#"
   xmlns:svg="http://www.w3.org/2000/svg"
   xmlns="http://www.w3.org/2000/svg"
   xmlns:sodipodi="http://sodipodi.sourceforge.net/DTD/sodipodi-0.dtd"
   xmlns:inkscape="http://www.inkscape.org/namespaces/inkscape"
   version="1.1"
   id="svg2"
   xml:space="preserve"
   width="453.54666"
   height="453.54666"
   viewBox="0 0 453.54666 453.54666"
   sodipodi:docname="cnrs.svg"
   inkscape:version="1.0.1 (3bc2e813f5, 2020-09-07)"><metadata
     id="metadata8"><rdf:RDF><cc:Work
         rdf:about=""><dc:format>image/svg+xml</dc:format><dc:type
           rdf:resource="http://purl.org/dc/dcmitype/StillImage" /><dc:title></dc:title></cc:Work></rdf:RDF></metadata><defs
     id="defs6" /><sodipodi:namedview
     pagecolor="#ffffff"
     bordercolor="#666666"
     borderopacity="1"
     objecttolerance="10"
     gridtolerance="10"
     guidetolerance="10"
     inkscape:pageopacity="0"
     inkscape:pageshadow="2"
     inkscape:window-width="1918"
     inkscape:window-height="1045"
     id="namedview4"
     showgrid="false"
     inkscape:zoom="1.4177152"
     inkscape:cx="226.77333"
     inkscape:cy="226.77333"
     inkscape:window-x="0"
     inkscape:window-y="34"
     inkscape:window-maximized="0"
     inkscape:current-layer="g10" /><g
     id="g10"
     inkscape:groupmode="layer"
     inkscape:label="ink_ext_XXXXXX"
     transform="matrix(1.3333333,0,0,-1.3333333,0,453.54667)"><g
       id="g12"
       transform="scale(0.1)"><path
         d="m 1628.65,3398.7 c -29.96,1.86 -59.73,2.82 -89.31,2.89 -421.77,1.02 -803.766,-178.3 -1136.567,-534.02 C 101.453,2545.52 -0.359375,2286.18 0,1973.48 0.1875,1804.93 30.0586,1620.89 74.375,1403.18 157.305,995.809 399.141,602.512 737.852,324.059 997.102,111.012 1286.2,2.12109 1590.89,0.03125 1748.96,-1.05859 1911.23,26.6016 2075.68,83.3516 2606.25,266.5 3113.79,790.832 3309.98,1358.41 c 61.39,177.72 91.58,350.66 91.58,515.4 0.02,408.77 -185.76,767.17 -542.18,1023.09 -430.47,309.18 -844.52,477.97 -1230.73,501.8"
         style="fill:#063358;fill-opacity:1;fill-rule:nonzero;stroke:none"
         id="path14" /><path
         d="M 1066.19,1785.71 H 949.531 l -0.136,-3.3 C 948.457,1759.78 935,1561.3 757.422,1561.3 c -158.711,0 -239.258,142.23 -239.434,422.78 0.176,280.54 80.723,422.79 239.434,422.79 180.664,0 191.601,-212.09 191.973,-221.1 l 0.136,-3.29 h 116.659 c 10.78,0 21.25,4.42 28.75,12.11 7.21,7.41 10.9,16.96 10.41,26.91 -2.44,55.05 -30.66,329.62 -349.569,329.62 -257.734,0 -393.945,-195.86 -393.945,-566.45 0,-371.34 136.211,-567.63 393.945,-567.63 306.929,0 345.099,250.79 349.509,327.63 0.76,10.62 -2.87,20.8 -10.31,28.63 -7.44,7.89 -17.99,12.41 -28.79,12.41"
         style="fill:#ffffff;fill-opacity:1;fill-rule:nonzero;stroke:none"
         id="path16" /><path
         d="m 2758.98,2051.51 0.04,-0.04 -100.5,43.83 c -96.63,42.46 -130.88,83.75 -130.88,157.89 0,96.64 70.68,161.6 175.91,161.6 62.21,0 113.25,-12.75 175.55,-76.21 l 3.42,-3.48 53.61,49.05 c 31.06,28.83 22.07,54.8 9.1,71.49 -52.3,61.71 -136.28,95.59 -236.56,95.59 -193.38,0 -333.75,-126.15 -333.75,-299.97 0,-170.92 107.72,-242.38 224.06,-294.11 l 102.54,-45.77 c 103.05,-46.2 152.11,-85.61 152.11,-184.76 0,-135.2 -122.18,-171.26 -194.37,-171.26 -62.11,0 -131.25,13.29 -216.21,109.54 l -3.32,3.78 -55.86,-49.06 c -28.73,-25.27 -28.99,-46.95 -0.98,-82.97 76.91,-98.86 189.65,-119.61 270.7,-119.61 175.28,0 352.74,107.66 352.74,313.4 0,178.1 -98.87,257.15 -247.35,321.07"
         style="fill:#91d2e1;fill-opacity:1;fill-rule:nonzero;stroke:none"
         id="path18" /><path
         d="m 1848.24,2226.65 c 0,175.08 -141.87,323.41 -317.03,323.41 -82.36,0 -157.36,-31.4 -213.75,-82.92 v 60.19 h -105.47 c -31.76,0 -43.88,-20.74 -43.88,-44.57 V 1461.11 c 0,-28.75 17.53,-44.12 43.39,-44.12 h 105.49 c 0,0 0,803.42 0,803.46 0,105.55 85.63,191.13 191.15,191.13 105.53,0 191.14,-85.58 191.14,-191.13 0,-0.04 0,-803.6 0,-803.6 h 104.82 c 29.06,0 44.14,16.13 44.14,43.94 0,0 0,764.86 0,765.86"
         style="fill:#91d2e1;fill-opacity:1;fill-rule:nonzero;stroke:none"
         id="path20" /><path
         d="m 2393.01,2473.68 c 5.51,6.84 8.9,15.43 8.9,24.85 0,17.58 -11.46,32.34 -27.22,37.7 -30.51,10.23 -63.03,15.82 -96.82,15.82 -82.36,0 -157.36,-31.4 -213.75,-82.91 v 60.18 h -105.47 c -31.77,0 -43.92,-20.74 -43.92,-44.58 V 1463.1 c 0,-28.75 17.59,-44.12 43.45,-44.12 h 105.47 c 0,0 0,803.43 0,803.45 0,105.56 85.61,191.15 191.17,191.15 27.66,0 53.89,-6.01 77.6,-16.56 l 60.94,76.45 -0.35,0.21"
         style="fill:#ffffff;fill-opacity:1;fill-rule:nonzero;stroke:none"
         id="path22" /><path
         d="m 1536.88,311.73 c 0,-15.66 -12.7,-28.32 -28.36,-28.32 v 0 c -15.63,0 -28.32,12.66 -28.32,28.32 v 1927.59 c 0,15.65 12.69,28.35 28.32,28.35 v 0 c 15.66,0 28.36,-12.7 28.36,-28.35 V 311.73"
         style="fill:#ffffff;fill-opacity:1;fill-rule:nonzero;stroke:none"
         id="path24" /></g></g></svg>
