<?xml version="1.0" encoding="UTF-8" standalone="no"?>
<svg
   xmlns:dc="http://purl.org/dc/elements/1.1/"
   xmlns:cc="http://creativecommons.org/ns#"
   xmlns:rdf="http://www.w3.org/1999/02/22-rdf-syntax-ns#"
   xmlns:svg="http://www.w3.org/2000/svg"
   xmlns="http://www.w3.org/2000/svg"
   xmlns:sodipodi="http://sodipodi.sourceforge.net/DTD/sodipodi-0.dtd"
   xmlns:inkscape="http://www.inkscape.org/namespaces/inkscape"
   version="1.0"
   width="2503.000000pt"
   height="724.000000pt"
   viewBox="0 0 2503.000000 724.000000"
   preserveAspectRatio="xMidYMid meet"
   id="svg38"
   sodipodi:docname="simons.svg"
   inkscape:version="1.0.1 (3bc2e813f5, 2020-09-07)">
  <defs
     id="defs42" />
  <sodipodi:namedview
     pagecolor="#ffffff"
     bordercolor="#666666"
     borderopacity="1"
     objecttolerance="10"
     gridtolerance="10"
     guidetolerance="10"
     inkscape:pageopacity="0"
     inkscape:pageshadow="2"
     inkscape:window-width="1918"
     inkscape:window-height="1045"
     id="namedview40"
     showgrid="false"
     inkscape:zoom="0.36388287"
     inkscape:cx="1683.385"
     inkscape:cy="949.81707"
     inkscape:window-x="0"
     inkscape:window-y="34"
     inkscape:window-maximized="0"
     inkscape:current-layer="svg38" />
  <metadata
     id="metadata2">
Created by potrace 1.16, written by Peter Selinger 2001-2019
<rdf:RDF>
  <cc:Work
     rdf:about="">
    <dc:format>image/svg+xml</dc:format>
    <dc:type
       rdf:resource="http://purl.org/dc/dcmitype/StillImage" />
    <dc:title></dc:title>
  </cc:Work>
</rdf:RDF>
</metadata>
  <g
     transform="translate(0.000000,724.000000) scale(0.100000,-0.100000)"
     fill="#000000"
     stroke="none"
     id="g36">
    <path
       d="M1497 6765 c-399 -67 -709 -324 -809 -672 -19 -66 -23 -102 -23 -238 0 -188 17 -263 90 -404 121 -233 297 -367 821 -627 375 -186 507 -267 609 -375 115 -121 155 -220 155 -380 0 -223 -113 -430 -293 -538 -204 -121 -516 -146 -767 -61 -100 34 -225 103 -330 180 -114 85 -146 100 -204 100 -81 0 -134 -33 -167 -105 -38 -81 -15 -162 67 -234 76 -67 259 -185 364 -235 186 -88 308 -116 530 -123 348 -11 620 68 842 246 249 200 386 544 349 879 -26 240 -106 400 -283 568 -143 135 -283 219 -679 408 -329 157 -433 220 -545 331 -98 97 -141 169 -163 273 -34 163 20 332 145 456 239 238 637 261 988 59 33 -20 92 -59 130 -86 60 -44 76 -51 126 -55 128 -9 215 94 190 227 -11 60 -34 87 -131 154 -182 125 -411 221 -599 252 -113 18 -305 18 -413 0z"
       id="path4"
       style="fill:#3c4f9e;fill-opacity:1" />
    <path
       d="M4848 6740 c-44 -13 -87 -49 -108 -90 -20 -39 -20 -65 -20 -1735 0 -1668 0 -1696 20 -1734 36 -72 107 -108 193 -98 66 8 119 45 146 99 l21 44 0 1680 c0 1095 -4 1692 -10 1715 -12 43 -66 99 -112 115 -38 14 -91 16 -130 4z"
       id="path10"
       style="fill:#3c4f9e;fill-opacity:1" />
    <path
       d="M7687 6740 c-45 -14 -92 -55 -110 -97 -12 -28 -65 -481 -197 -1680 -99 -903 -180 -1671 -180 -1706 0 -70 20 -112 72 -150 33 -25 114 -33 163 -17 46 15 99 61 115 99 6 16 83 699 169 1518 123 1163 160 1484 168 1468 104 -190 552 -1539 878 -2645 73 -248 86 -273 168 -320 43 -25 63 -30 118 -30 37 0 83 7 103 15 39 17 111 77 127 107 5 10 35 105 65 211 196 685 573 1847 759 2342 110 289 132 343 138 325 3 -8 73 -679 157 -1490 166 -1620 155 -1542 228 -1583 52 -30 142 -34 194 -8 63 30 92 79 96 160 2 41 -65 683 -177 1706 -149 1343 -185 1648 -201 1682 -12 26 -35 53 -61 70 -40 26 -49 28 -148 28 -126 0 -175 -18 -244 -88 -114 -117 -308 -588 -582 -1412 -122 -365 -306 -946 -402 -1267 -21 -70 -40 -128 -43 -128 -3 0 -54 159 -114 353 -130 420 -426 1318 -521 1577 -104 288 -211 553 -278 690 -77 157 -150 239 -236 264 -58 17 -177 20 -224 6z"
       id="path12"
       style="fill:#3c4f9e;fill-opacity:1" />
    <path
       d="M14130 6765 c-391 -65 -750 -303 -985 -655 -164 -245 -261 -495 -318 -820 -18 -107 -21 -162 -21 -385 0 -227 3 -276 23 -390 124 -696 529 -1215 1095 -1400 158 -52 291 -69 486 -62 94 3 197 13 240 22 453 100 809 386 1032 830 211 418 277 950 183 1459 -106 574 -411 1027 -847 1256 -212 112 -366 150 -623 155 -125 3 -206 0 -265 -10z m472 -383 c192 -52 333 -134 479 -281 229 -229 370 -545 419 -941 15 -122 12 -417 -5 -538 -92 -649 -447 -1091 -953 -1188 -105 -20 -278 -18 -388 5 -719 148 -1136 1075 -894 1987 73 276 202 506 382 682 154 152 314 238 529 287 93 21 329 14 431 -13z"
       id="path6"
       style="fill:#3c4f9e;fill-opacity:1" />
    <path
       d="M18003 6731 c-24 -11 -55 -38 -72 -62 l-31 -42 0 -1709 c0 -1846 -3 -1734 52 -1785 92 -87 244 -61 306 52 16 27 17 157 22 1509 l5 1478 46 -78 c74 -125 169 -320 339 -698 580 -1292 936 -1980 1136 -2195 34 -37 77 -71 112 -88 52 -26 66 -28 173 -28 106 0 118 2 152 25 20 13 45 41 56 61 21 37 21 40 21 1743 0 1874 5 1735 -60 1790 -108 90 -279 35 -310 -100 -6 -22 -10 -657 -10 -1494 l0 -1455 -35 55 c-45 71 -255 485 -335 660 -34 74 -139 306 -232 515 -476 1064 -724 1536 -919 1749 -75 83 -134 107 -267 113 -91 3 -113 1 -149 -16z"
       id="path14"
       style="fill:#3c4f9e;fill-opacity:1" />
    <path
       d="M23239 6764 c-540 -97 -880 -508 -830 -1001 31 -301 187 -525 503 -722 57 -36 249 -138 428 -227 179 -89 368 -190 420 -224 237 -156 344 -339 327 -558 -14 -172 -66 -291 -177 -403 -62 -63 -92 -84 -170 -122 -148 -70 -206 -82 -405 -81 -156 0 -177 2 -260 28 -123 37 -252 103 -365 186 -130 96 -159 110 -221 110 -139 0 -223 -144 -159 -271 40 -77 318 -263 509 -339 150 -61 249 -80 441 -87 258 -9 446 25 635 116 128 61 178 95 272 184 129 123 219 281 265 464 30 116 32 388 5 498 -25 99 -106 257 -177 342 -135 163 -275 255 -735 483 -198 98 -394 201 -435 228 -216 145 -310 292 -310 487 0 203 115 377 315 476 284 140 625 93 934 -129 89 -64 108 -72 167 -72 52 0 88 16 126 57 53 56 64 144 27 220 -17 36 -40 56 -128 114 -195 130 -386 210 -580 243 -114 19 -316 20 -422 0z"
       id="path8"
       style="fill:#3c4f9e;fill-opacity:1" />
    <path
       d="M692 2620 c-18 -11 -37 -32 -42 -46 -6 -16 -10 -400 -10 -1026 l0 -1000 34 -34 c29 -29 41 -34 80 -34 36 0 52 6 78 29 l33 29 3 481 3 481 367 0 c344 0 369 1 398 19 63 38 66 134 7 181 -25 19 -40 20 -399 20 l-374 0 0 350 0 350 396 0 c271 0 402 3 417 11 39 20 57 51 57 100 0 49 -22 83 -67 100 -14 5 -222 9 -486 9 -444 0 -463 -1 -495 -20z"
       id="path20"
       style="fill:#929292;fill-opacity:1" />
    <path
       d="M3555 2649 c-231 -34 -447 -176 -594 -392 -55 -81 -130 -250 -156 -349 -134 -531 42 -1076 429 -1323 82 -52 155 -83 255 -107 124 -29 331 -22 446 15 123 41 237 110 330 202 216 212 325 498 325 855 0 293 -67 528 -210 735 -187 270 -505 410 -825 364z m286 -235 c273 -81 458 -338 508 -707 48 -350 -71 -719 -287 -892 -125 -100 -249 -140 -412 -132 -165 8 -282 59 -400 177 -384 385 -324 1199 110 1479 147 95 321 122 481 75z"
       id="path16"
       style="fill:#929292;fill-opacity:1" />
    <path
       d="M5813 2625 c-67 -29 -64 6 -61 -828 3 -741 4 -753 26 -832 75 -271 248 -440 501 -491 119 -23 347 -16 446 16 234 74 393 256 445 510 19 89 20 141 20 831 0 717 -1 737 -20 761 -56 72 -154 58 -199 -29 -8 -15 -11 -228 -11 -740 0 -601 -3 -728 -15 -781 -56 -238 -219 -362 -475 -362 -252 0 -418 129 -475 371 -12 54 -15 176 -15 777 0 792 2 764 -65 796 -40 19 -60 20 -102 1z"
       id="path22"
       style="fill:#929292;fill-opacity:1" />
    <path
       d="M8560 2633 c-8 -3 -27 -17 -42 -31 l-28 -26 0 -1019 0 -1019 29 -29 c25 -24 38 -29 78 -29 51 0 82 18 102 57 8 15 11 271 11 890 1 776 2 866 16 848 28 -37 121 -228 232 -475 309 -689 535 -1125 649 -1251 49 -54 86 -69 175 -69 64 0 75 3 100 27 l28 27 0 1023 0 1024 -24 24 c-32 32 -69 40 -117 26 -27 -8 -46 -23 -59 -44 -19 -31 -20 -58 -20 -902 l-1 -870 -35 60 c-55 94 -170 334 -309 645 -156 349 -333 715 -410 846 -105 179 -163 244 -233 264 -39 10 -116 12 -142 3z"
       id="path24"
       style="fill:#929292;fill-opacity:1" />
    <path
       d="M11280 2629 c-14 -5 -33 -20 -42 -32 -16 -21 -18 -91 -18 -1040 l0 -1019 30 -29 30 -30 407 3 c461 5 463 5 633 85 287 134 473 395 535 747 30 176 16 450 -32 616 -86 296 -299 541 -555 640 -153 59 -180 62 -588 66 -241 2 -384 0 -400 -7z m733 -220 c309 -48 523 -266 603 -614 15 -63 19 -117 18 -255 -1 -155 -4 -186 -27 -273 -78 -294 -254 -481 -515 -548 -66 -17 -111 -19 -364 -19 l-288 0 0 860 0 860 251 0 c137 0 283 -5 322 -11z"
       id="path26"
       style="fill:#929292;fill-opacity:1" />
    <path
       d="M14599 2631 c-54 -17 -71 -35 -113 -120 -104 -206 -244 -576 -426 -1121 -164 -493 -250 -774 -250 -819 0 -59 37 -91 105 -91 83 0 97 17 145 173 23 73 64 205 92 295 l52 162 470 -2 470 -3 97 -294 c107 -328 109 -331 189 -331 69 0 110 35 110 94 0 73 -397 1235 -575 1686 -127 319 -147 353 -222 371 -45 10 -108 10 -144 0z m210 -569 c79 -205 251 -694 251 -712 0 -6 -148 -10 -390 -10 l-389 0 83 243 c97 279 162 459 236 642 75 189 68 181 102 106 15 -34 64 -156 107 -269z"
       id="path28"
       style="fill:#929292;fill-opacity:1" />
    <path
       d="M16154 2621 c-63 -38 -66 -134 -7 -181 24 -19 40 -20 309 -20 l284 0 0 -925 c0 -1001 -2 -961 52 -999 13 -9 43 -16 68 -16 48 0 79 19 99 57 8 15 11 287 11 952 l0 931 296 0 296 0 29 29 c24 24 29 38 29 76 0 57 -12 80 -50 100 -25 13 -122 15 -707 15 -651 0 -679 -1 -709 -19z"
       id="path30"
       style="fill:#929292;fill-opacity:1" />
    <path
       d="M18724 2630 c-12 -4 -31 -21 -43 -36 l-21 -27 0 -1014 0 -1015 29 -29 c25 -25 37 -29 81 -29 45 0 56 4 81 31 l29 31 0 1012 c0 1112 4 1038 -60 1071 -32 17 -64 18 -96 5z"
       id="path32"
       style="fill:#929292;fill-opacity:1" />
    <path
       d="M20880 2654 c-14 -2 -52 -9 -85 -15 -198 -35 -413 -185 -545 -380 -95 -139 -164 -326 -191 -518 -15 -105 -6 -379 16 -474 87 -389 327 -675 650 -777 106 -34 320 -39 436 -12 454 109 742 567 716 1142 -13 293 -105 546 -271 744 -97 117 -286 233 -436 270 -66 16 -244 28 -290 20z m261 -244 c182 -56 344 -219 428 -432 51 -130 74 -262 74 -428 -1 -307 -91 -545 -271 -711 -119 -110 -245 -159 -408 -159 -245 0 -446 137 -574 390 -169 336 -138 797 74 1094 161 226 428 323 677 246z"
       id="path18"
       style="fill:#929292;fill-opacity:1" />
    <path
       d="M23103 2620 c-17 -10 -37 -28 -42 -39 -8 -13 -11 -335 -11 -1029 l0 -1010 29 -31 c25 -26 36 -31 78 -31 28 0 58 7 71 16 54 37 52 4 52 931 1 761 2 856 16 838 27 -36 111 -208 222 -455 294 -655 494 -1047 622 -1222 64 -87 103 -108 205 -108 71 0 79 2 106 29 l29 29 0 1015 c0 993 0 1015 -20 1039 -56 72 -154 58 -199 -29 -8 -16 -11 -264 -11 -880 l-1 -858 -25 40 c-43 69 -197 390 -324 675 -243 549 -450 940 -550 1040 -59 59 -183 79 -247 40z"
       id="path34"
       style="fill:#929292;fill-opacity:1" />
  </g>
</svg>
