<?xml version="1.0" encoding="utf-8" standalone="no"?>
<!DOCTYPE svg PUBLIC "-//W3C//DTD SVG 1.1//EN"
  "http://www.w3.org/Graphics/SVG/1.1/DTD/svg11.dtd">
<!-- Created with matplotlib (https://matplotlib.org/) -->
<svg height="360pt" version="1.1" viewBox="0 0 405 360" width="405pt" xmlns="http://www.w3.org/2000/svg" xmlns:xlink="http://www.w3.org/1999/xlink">
 <defs>
  <style type="text/css">
*{stroke-linecap:butt;stroke-linejoin:round;}
  </style>
 </defs>
 <g id="figure_1">
  <g id="patch_1">
   <path d="M 0 360 
L 405 360 
L 405 0 
L 0 0 
z
" style="fill:#ffffff;"/>
  </g>
  <g id="axes_1">
   <g id="patch_2">
    <path d="M 97.2 154.8 
L 400.95 154.8 
L 400.95 21.6 
L 97.2 21.6 
z
" style="fill:#ffffff;"/>
   </g>
   <g id="line2d_1">
    <path clip-path="url(#p14a9439f0a)" d="M 97.913042 154.8 
L 110.747799 154.8 
L 111.460841 154.466332 
L 112.173883 147.953308 
L 113.599967 129.478167 
L 115.739093 96.342006 
L 117.165178 73.874701 
L 117.87822 58.660411 
L 118.591262 47.92516 
L 119.304304 33.531451 
L 120.017346 36.809216 
L 120.730388 43.074873 
L 121.44343 51.077459 
L 122.156472 60.795208 
L 122.869514 68.20363 
L 123.582556 80.545912 
L 125.00864 100.277576 
L 127.147766 130.133612 
L 127.860808 131.46441 
L 128.573851 130.831982 
L 129.286893 129.764796 
L 129.999935 127.728499 
L 130.712977 126.303772 
L 131.426019 122.326361 
L 132.139061 119.464631 
L 132.852103 115.034875 
L 133.565145 111.78995 
L 134.278187 107.386491 
L 134.991229 103.68719 
L 135.704271 101.551696 
L 136.417313 97.574576 
L 137.843397 93.118446 
L 138.556439 92.421187 
L 139.269481 91.158032 
L 139.982523 89.552759 
L 140.695566 89.389157 
L 141.408608 90.215854 
L 142.12165 90.528404 
L 142.834692 91.617961 
L 143.547734 91.625544 
L 144.260776 92.892195 
L 144.973818 93.54455 
L 145.68686 96.07207 
L 148.539028 102.514128 
L 149.25207 104.526816 
L 149.965112 105.348286 
L 150.678154 106.754519 
L 151.391196 108.562782 
L 152.81728 108.615385 
L 153.530323 108.357831 
L 154.243365 108.31905 
L 154.956407 107.32254 
L 155.669449 106.79424 
L 156.382491 105.377193 
L 157.095533 104.752222 
L 158.521617 101.349647 
L 159.234659 100.397372 
L 159.947701 98.630272 
L 161.373785 97.611344 
L 162.086827 97.282009 
L 162.799869 97.252178 
L 163.512911 96.679379 
L 164.225953 96.533969 
L 164.938995 97.839111 
L 165.652038 97.345505 
L 166.36508 98.66332 
L 167.078122 98.427252 
L 169.217248 101.413136 
L 169.93029 101.434944 
L 170.643332 101.686039 
L 171.356374 102.379528 
L 172.069416 102.61877 
L 172.782458 103.099599 
L 173.4955 103.157545 
L 174.921584 104.296205 
L 175.634626 103.295648 
L 177.06071 102.799808 
L 177.773753 102.882384 
L 178.486795 102.828697 
L 179.912879 102.429481 
L 180.625921 101.637828 
L 181.338963 101.466262 
L 182.052005 101.452221 
L 182.765047 100.358206 
L 183.478089 99.838805 
L 184.191131 99.566608 
L 184.904173 100.102797 
L 185.617215 99.767628 
L 186.330257 99.652987 
L 187.043299 99.796957 
L 187.756341 100.134513 
L 188.469383 99.785873 
L 189.182425 100.19196 
L 189.895467 100.727133 
L 190.60851 101.476427 
L 192.034594 100.613367 
L 192.747636 101.583667 
L 193.460678 101.772643 
L 194.17372 102.082256 
L 194.886762 101.960762 
L 195.599804 102.692416 
L 196.312846 102.008166 
L 197.73893 101.906503 
L 198.451972 102.100979 
L 199.165014 102.158391 
L 199.878056 102.035252 
L 200.591098 101.654409 
L 202.017182 101.499803 
L 203.443267 101.637074 
L 204.869351 101.058241 
L 205.582393 101.021994 
L 206.295435 101.361589 
L 207.721519 100.197189 
L 208.434561 100.659985 
L 209.147603 100.61326 
L 209.860645 101.144358 
L 211.286729 100.728106 
L 211.999771 101.155647 
L 212.712813 101.366949 
L 213.425855 100.681163 
L 214.138897 101.711538 
L 214.85194 101.31754 
L 215.564982 101.980822 
L 216.278024 101.703756 
L 216.991066 101.160357 
L 217.704108 101.462196 
L 218.41715 102.329087 
L 219.130192 101.805756 
L 220.556276 101.48444 
L 221.269318 101.642089 
L 221.98236 101.494025 
L 222.695402 101.005243 
L 223.408444 101.823294 
L 224.121486 101.397231 
L 225.54757 100.900838 
L 226.260612 101.578489 
L 226.973654 101.32758 
L 228.399739 101.513148 
L 229.112781 101.271033 
L 229.825823 101.599051 
L 230.538865 101.075737 
L 231.251907 101.182946 
L 231.964949 101.071818 
L 233.391033 101.297731 
L 234.817117 101.213008 
L 235.530159 101.420433 
L 236.243201 101.311506 
L 236.956243 101.4802 
L 237.669285 101.371049 
L 238.382327 100.880003 
L 239.808412 101.454592 
L 240.521454 101.609322 
L 241.234496 101.341056 
L 241.947538 101.36532 
L 242.66058 101.650054 
L 244.799706 101.844936 
L 245.512748 101.408275 
L 246.22579 101.129637 
L 246.938832 101.737656 
L 247.651874 101.805123 
L 248.364916 101.250976 
L 249.077958 101.871698 
L 249.791 101.124921 
L 250.504042 100.971067 
L 251.217084 101.265213 
L 252.643169 101.519813 
L 253.356211 100.987452 
L 254.069253 101.387398 
L 254.782295 101.013265 
L 255.495337 101.137129 
L 256.208379 101.029547 
L 256.921421 101.389664 
L 257.634463 101.414035 
L 258.347505 101.146488 
L 259.060547 101.806892 
L 259.773589 101.491187 
L 261.199673 101.280372 
L 264.051841 101.575606 
L 264.764884 101.836513 
L 265.477926 101.858712 
L 266.90401 101.443724 
L 267.617052 101.743123 
L 268.330094 101.032283 
L 270.46922 101.386506 
L 271.182262 101.120576 
L 271.895304 101.571613 
L 272.608346 101.241329 
L 273.321388 101.402493 
L 274.03443 101.330779 
L 274.747472 101.046861 
L 275.460514 101.269153 
L 276.886599 101.283135 
L 277.599641 101.537827 
L 279.025725 101.530504 
L 279.738767 101.300175 
L 282.590935 101.606025 
L 283.303977 101.521608 
L 284.730061 101.586909 
L 285.443103 101.384794 
L 286.156145 101.520734 
L 286.869187 101.208632 
L 287.582229 101.681252 
L 288.295271 101.437282 
L 289.008314 101.728874 
L 289.721356 101.456576 
L 290.434398 101.484026 
L 291.860482 101.061283 
L 292.573524 101.514247 
L 293.286566 101.011631 
L 293.999608 101.074632 
L 294.71265 101.454749 
L 295.425692 101.303295 
L 296.851776 101.254246 
L 297.564818 101.785917 
L 298.27786 101.398077 
L 298.990902 101.41385 
L 299.703944 101.252924 
L 303.269155 101.658043 
L 303.982197 101.540048 
L 304.695239 101.644546 
L 306.121323 101.42832 
L 306.834365 101.705465 
L 307.547407 101.419991 
L 308.973491 101.452627 
L 309.686533 101.229235 
L 310.399575 101.344826 
L 311.112617 101.130698 
L 311.825659 101.541457 
L 312.538701 101.217609 
L 313.251743 101.498563 
L 313.964786 101.188961 
L 315.39087 101.171261 
L 316.103912 101.647635 
L 316.816954 101.510964 
L 317.529996 101.167065 
L 318.243038 101.694943 
L 318.95608 101.350063 
L 319.669122 101.535636 
L 321.808248 101.632692 
L 323.947374 101.051933 
L 324.660416 101.735171 
L 325.373458 101.033336 
L 326.0865 101.597719 
L 326.799543 101.416276 
L 327.512585 101.689862 
L 328.225627 101.364453 
L 328.938669 101.682559 
L 329.651711 101.49998 
L 331.790837 101.345523 
L 332.503879 101.208462 
L 333.216921 101.198083 
L 333.929963 101.569067 
L 334.643005 101.302004 
L 335.356047 101.786098 
L 336.069089 101.050945 
L 336.782131 101.558785 
L 338.208215 101.412538 
L 338.921258 101.63743 
L 339.6343 101.496999 
L 340.347342 101.693046 
L 341.060384 101.311433 
L 341.773426 101.355947 
L 342.486468 101.127437 
L 343.912552 101.51717 
L 345.338636 101.6479 
L 346.051678 101.252632 
L 346.76472 101.405625 
L 347.477762 101.278321 
L 348.190804 101.518269 
L 349.616888 101.600506 
L 350.32993 101.719603 
L 351.042973 101.013802 
L 351.756015 101.607995 
L 352.469057 101.327276 
L 353.182099 101.668872 
L 353.895141 101.40808 
L 354.608183 101.545337 
L 356.747309 101.34758 
L 357.460351 101.451918 
L 358.173393 101.413136 
L 358.886435 101.178954 
L 359.599477 101.493366 
L 360.312519 101.356141 
L 361.025561 101.461232 
L 361.738603 101.706386 
L 362.451645 101.634385 
L 363.164687 101.172962 
L 363.87773 101.090877 
L 364.590772 101.552265 
L 365.303814 101.186173 
L 366.016856 101.327848 
L 366.729898 101.595565 
L 368.155982 101.376949 
L 368.869024 101.066013 
L 369.582066 101.579361 
L 370.295108 101.436368 
L 371.00815 101.84128 
L 372.434234 101.376987 
L 373.147276 101.43665 
L 373.860318 101.686241 
L 375.286402 101.198987 
L 375.999445 101.52847 
L 376.712487 101.350199 
L 377.425529 101.573679 
L 378.138571 101.518353 
L 378.851613 101.185315 
L 379.564655 101.54744 
L 380.277697 101.654072 
L 380.990739 101.401958 
L 382.416823 101.263996 
L 383.129865 101.370271 
L 383.842907 101.350256 
L 385.268991 101.490721 
L 385.982033 101.2933 
L 386.695075 101.358844 
L 387.408117 101.596975 
L 388.834202 101.569871 
L 389.547244 101.203021 
L 390.260286 101.660625 
L 390.973328 101.200115 
L 391.68637 101.511065 
L 393.112454 101.42678 
L 393.825496 101.631887 
L 395.25158 101.417974 
L 395.964622 101.517867 
L 396.677664 101.34958 
L 397.390706 101.031266 
L 398.103748 101.682926 
L 399.529832 101.52474 
L 400.242874 101.763338 
L 400.955917 101.418832 
L 401.668959 101.405558 
L 402.382001 101.145238 
L 403.808085 101.40326 
L 405.234169 101.26615 
L 406 101.765868 
L 406 101.765868 
" style="fill:none;stroke:#0000ff;stroke-linecap:square;"/>
   </g>
   <g id="patch_3">
    <path d="M 97.2 154.8 
L 97.2 21.6 
" style="fill:none;stroke:#000000;stroke-linecap:square;stroke-linejoin:miter;"/>
   </g>
   <g id="patch_4">
    <path d="M 400.95 154.8 
L 400.95 21.6 
" style="fill:none;stroke:#000000;stroke-linecap:square;stroke-linejoin:miter;"/>
   </g>
   <g id="patch_5">
    <path d="M 97.2 154.8 
L 400.95 154.8 
" style="fill:none;stroke:#000000;stroke-linecap:square;stroke-linejoin:miter;"/>
   </g>
   <g id="patch_6">
    <path d="M 97.2 21.6 
L 400.95 21.6 
" style="fill:none;stroke:#000000;stroke-linecap:square;stroke-linejoin:miter;"/>
   </g>
   <g id="matplotlib.axis_1">
    <g id="xtick_1">
     <g id="line2d_2">
      <defs>
       <path d="M 0 0 
L 0 -10 
" id="ma6663ca9db" style="stroke:#000000;stroke-width:0.5;"/>
      </defs>
      <g>
       <use style="stroke:#000000;stroke-width:0.5;" x="97.2" xlink:href="#ma6663ca9db" y="154.8"/>
      </g>
     </g>
     <g id="line2d_3">
      <defs>
       <path d="M 0 0 
L 0 10 
" id="m057c957e1a" style="stroke:#000000;stroke-width:0.5;"/>
      </defs>
      <g>
       <use style="stroke:#000000;stroke-width:0.5;" x="97.2" xlink:href="#m057c957e1a" y="21.6"/>
      </g>
     </g>
    </g>
    <g id="xtick_2">
     <g id="line2d_4">
      <g>
       <use style="stroke:#000000;stroke-width:0.5;" x="137.7" xlink:href="#ma6663ca9db" y="154.8"/>
      </g>
     </g>
     <g id="line2d_5">
      <g>
       <use style="stroke:#000000;stroke-width:0.5;" x="137.7" xlink:href="#m057c957e1a" y="21.6"/>
      </g>
     </g>
    </g>
    <g id="xtick_3">
     <g id="line2d_6">
      <g>
       <use style="stroke:#000000;stroke-width:0.5;" x="178.2" xlink:href="#ma6663ca9db" y="154.8"/>
      </g>
     </g>
     <g id="line2d_7">
      <g>
       <use style="stroke:#000000;stroke-width:0.5;" x="178.2" xlink:href="#m057c957e1a" y="21.6"/>
      </g>
     </g>
    </g>
    <g id="xtick_4">
     <g id="line2d_8">
      <g>
       <use style="stroke:#000000;stroke-width:0.5;" x="218.7" xlink:href="#ma6663ca9db" y="154.8"/>
      </g>
     </g>
     <g id="line2d_9">
      <g>
       <use style="stroke:#000000;stroke-width:0.5;" x="218.7" xlink:href="#m057c957e1a" y="21.6"/>
      </g>
     </g>
    </g>
    <g id="xtick_5">
     <g id="line2d_10">
      <g>
       <use style="stroke:#000000;stroke-width:0.5;" x="259.2" xlink:href="#ma6663ca9db" y="154.8"/>
      </g>
     </g>
     <g id="line2d_11">
      <g>
       <use style="stroke:#000000;stroke-width:0.5;" x="259.2" xlink:href="#m057c957e1a" y="21.6"/>
      </g>
     </g>
    </g>
    <g id="xtick_6">
     <g id="line2d_12">
      <g>
       <use style="stroke:#000000;stroke-width:0.5;" x="299.7" xlink:href="#ma6663ca9db" y="154.8"/>
      </g>
     </g>
     <g id="line2d_13">
      <g>
       <use style="stroke:#000000;stroke-width:0.5;" x="299.7" xlink:href="#m057c957e1a" y="21.6"/>
      </g>
     </g>
    </g>
    <g id="xtick_7">
     <g id="line2d_14">
      <g>
       <use style="stroke:#000000;stroke-width:0.5;" x="340.2" xlink:href="#ma6663ca9db" y="154.8"/>
      </g>
     </g>
     <g id="line2d_15">
      <g>
       <use style="stroke:#000000;stroke-width:0.5;" x="340.2" xlink:href="#m057c957e1a" y="21.6"/>
      </g>
     </g>
    </g>
    <g id="xtick_8">
     <g id="line2d_16">
      <g>
       <use style="stroke:#000000;stroke-width:0.5;" x="380.7" xlink:href="#ma6663ca9db" y="154.8"/>
      </g>
     </g>
     <g id="line2d_17">
      <g>
       <use style="stroke:#000000;stroke-width:0.5;" x="380.7" xlink:href="#m057c957e1a" y="21.6"/>
      </g>
     </g>
    </g>
   </g>
   <g id="matplotlib.axis_2">
    <g id="ytick_1">
     <g id="line2d_18">
      <defs>
       <path d="M 0 0 
L 10 0 
" id="m677945df2d" style="stroke:#000000;stroke-width:0.5;"/>
      </defs>
      <g>
       <use style="stroke:#000000;stroke-width:0.5;" x="97.2" xlink:href="#m677945df2d" y="154.8"/>
      </g>
     </g>
     <g id="line2d_19">
      <defs>
       <path d="M 0 0 
L -10 0 
" id="m435ee1c038" style="stroke:#000000;stroke-width:0.5;"/>
      </defs>
      <g>
       <use style="stroke:#000000;stroke-width:0.5;" x="400.95" xlink:href="#m435ee1c038" y="154.8"/>
      </g>
     </g>
     <g id="text_1">
      <!-- $0.0$ -->
      <defs>
       <path d="M 42 31.640625 
C 42 37.75 41.90625 48.125 37.703125 56.109375 
C 34 63.109375 28.09375 65.59375 22.90625 65.59375 
C 18.09375 65.59375 12 63.40625 8.203125 56.203125 
C 4.203125 48.71875 3.796875 39.4375 3.796875 31.640625 
C 3.796875 25.953125 3.90625 17.28125 7 9.671875 
C 11.296875 -0.609375 19 -2 22.90625 -2 
C 27.5 -2 34.5 -0.109375 38.59375 9.375 
C 41.59375 16.28125 42 24.359375 42 31.640625 
z
M 22.90625 -0.40625 
C 16.5 -0.40625 12.703125 5.078125 11.296875 12.6875 
C 10.203125 18.5625 10.203125 27.15625 10.203125 32.75 
C 10.203125 40.4375 10.203125 46.828125 11.5 52.921875 
C 13.40625 61.390625 19 64 22.90625 64 
C 27 64 32.296875 61.296875 34.203125 53.125 
C 35.5 47.4375 35.59375 40.734375 35.59375 32.75 
C 35.59375 26.25 35.59375 18.265625 34.40625 12.375 
C 32.296875 1.484375 26.40625 -0.40625 22.90625 -0.40625 
z
" id="CMR17-48"/>
       <path d="M 18.40625 4.796875 
C 18.40625 7.6875 16 9.671875 13.59375 9.671875 
C 10.703125 9.671875 8.703125 7.28125 8.703125 4.890625 
C 8.703125 2 11.09375 0 13.5 0 
C 16.40625 0 18.40625 2.390625 18.40625 4.796875 
z
" id="CMMI12-58"/>
      </defs>
      <g transform="translate(51.732654 163.508584)scale(0.35 -0.35)">
       <use transform="scale(0.996264)" xlink:href="#CMR17-48"/>
       <use transform="translate(45.690477 0)scale(0.996264)" xlink:href="#CMMI12-58"/>
       <use transform="translate(72.787654 0)scale(0.996264)" xlink:href="#CMR17-48"/>
      </g>
     </g>
    </g>
    <g id="ytick_2">
     <g id="line2d_20">
      <g>
       <use style="stroke:#000000;stroke-width:0.5;" x="97.2" xlink:href="#m677945df2d" y="128.16"/>
      </g>
     </g>
     <g id="line2d_21">
      <g>
       <use style="stroke:#000000;stroke-width:0.5;" x="400.95" xlink:href="#m435ee1c038" y="128.16"/>
      </g>
     </g>
     <g id="text_2">
      <!-- $0.5$ -->
      <defs>
       <path d="M 11.40625 57.6875 
C 12.40625 57.28125 16.5 56 20.703125 56 
C 30 56 35.09375 61.109375 38 64.0625 
C 38 64.953125 38 65.5 37.40625 65.5 
C 37.296875 65.5 37.09375 65.5 36.296875 65.046875 
C 32.796875 63.40625 28.703125 62.078125 23.703125 62.078125 
C 20.703125 62.078125 16.203125 62.484375 11.296875 64.671875 
C 10.203125 65.171875 10 65.171875 9.90625 65.171875 
C 9.40625 65.171875 9.296875 65.0625 9.296875 63.078125 
L 9.296875 34.421875 
C 9.296875 32.640625 9.296875 32.140625 10.296875 32.140625 
C 10.796875 32.140625 11 32.34375 11.5 33.03125 
C 14.703125 37.515625 19.09375 39.40625 24.09375 39.40625 
C 27.59375 39.40625 35.09375 37.21875 35.09375 20.140625 
C 35.09375 16.953125 35.09375 11.171875 32.09375 6.578125 
C 29.59375 2.484375 25.703125 0.390625 21.40625 0.390625 
C 14.796875 0.390625 8.09375 5 6.296875 12.71875 
C 6.703125 12.609375 7.5 12.421875 7.90625 12.421875 
C 9.203125 12.421875 11.703125 13.125 11.703125 16.21875 
C 11.703125 18.90625 9.796875 20 7.90625 20 
C 5.59375 20 4.09375 18.59375 4.09375 15.796875 
C 4.09375 7.09375 11 -2 21.59375 -2 
C 31.90625 -2 41.703125 6.875 41.703125 19.75 
C 41.703125 31.71875 33.90625 41 24.203125 41 
C 19.09375 41 14.796875 39.109375 11.40625 35.53125 
z
" id="CMR17-53"/>
      </defs>
      <g transform="translate(51.732654 136.868584)scale(0.35 -0.35)">
       <use transform="scale(0.996264)" xlink:href="#CMR17-48"/>
       <use transform="translate(45.690477 0)scale(0.996264)" xlink:href="#CMMI12-58"/>
       <use transform="translate(72.787654 0)scale(0.996264)" xlink:href="#CMR17-53"/>
      </g>
     </g>
    </g>
    <g id="ytick_3">
     <g id="line2d_22">
      <g>
       <use style="stroke:#000000;stroke-width:0.5;" x="97.2" xlink:href="#m677945df2d" y="101.52"/>
      </g>
     </g>
     <g id="line2d_23">
      <g>
       <use style="stroke:#000000;stroke-width:0.5;" x="400.95" xlink:href="#m435ee1c038" y="101.52"/>
      </g>
     </g>
     <g id="text_3">
      <!-- $1.0$ -->
      <defs>
       <path d="M 26.59375 63.40625 
C 26.59375 65.5 26.5 65.5 25.09375 65.5 
C 21.203125 61.1875 15.296875 59.796875 9.703125 59.796875 
C 9.40625 59.796875 8.90625 59.796875 8.796875 59.5 
C 8.703125 59.296875 8.703125 59.09375 8.703125 57 
C 11.796875 57 17 57.59375 21 59.984375 
L 21 7.203125 
C 21 3.6875 20.796875 2.5 12.203125 2.5 
L 9.203125 2.5 
L 9.203125 0 
C 14 0 19 0 23.796875 0 
C 28.59375 0 33.59375 0 38.40625 0 
L 38.40625 2.5 
L 35.40625 2.5 
C 26.796875 2.5 26.59375 3.59375 26.59375 7.15625 
z
" id="CMR17-49"/>
      </defs>
      <g transform="translate(51.732654 110.228584)scale(0.35 -0.35)">
       <use transform="scale(0.996264)" xlink:href="#CMR17-49"/>
       <use transform="translate(45.690477 0)scale(0.996264)" xlink:href="#CMMI12-58"/>
       <use transform="translate(72.787654 0)scale(0.996264)" xlink:href="#CMR17-48"/>
      </g>
     </g>
    </g>
    <g id="ytick_4">
     <g id="line2d_24">
      <g>
       <use style="stroke:#000000;stroke-width:0.5;" x="97.2" xlink:href="#m677945df2d" y="74.88"/>
      </g>
     </g>
     <g id="line2d_25">
      <g>
       <use style="stroke:#000000;stroke-width:0.5;" x="400.95" xlink:href="#m435ee1c038" y="74.88"/>
      </g>
     </g>
     <g id="text_4">
      <!-- $1.5$ -->
      <g transform="translate(51.732654 83.588584)scale(0.35 -0.35)">
       <use transform="scale(0.996264)" xlink:href="#CMR17-49"/>
       <use transform="translate(45.690477 0)scale(0.996264)" xlink:href="#CMMI12-58"/>
       <use transform="translate(72.787654 0)scale(0.996264)" xlink:href="#CMR17-53"/>
      </g>
     </g>
    </g>
    <g id="ytick_5">
     <g id="line2d_26">
      <g>
       <use style="stroke:#000000;stroke-width:0.5;" x="97.2" xlink:href="#m677945df2d" y="48.24"/>
      </g>
     </g>
     <g id="line2d_27">
      <g>
       <use style="stroke:#000000;stroke-width:0.5;" x="400.95" xlink:href="#m435ee1c038" y="48.24"/>
      </g>
     </g>
     <g id="text_5">
      <!-- $2.0$ -->
      <defs>
       <path d="M 41.703125 15.453125 
L 39.90625 15.453125 
C 38.90625 8.375 38.09375 7.171875 37.703125 6.5625 
C 37.203125 5.765625 30 5.765625 28.59375 5.765625 
L 9.40625 5.765625 
C 13 9.671875 20 16.75 28.5 24.953125 
C 34.59375 30.734375 41.703125 37.53125 41.703125 47.421875 
C 41.703125 59.21875 32.296875 66 21.796875 66 
C 10.796875 66 4.09375 56.3125 4.09375 47.34375 
C 4.09375 43.4375 7 42.9375 8.203125 42.9375 
C 9.203125 42.9375 12.203125 43.546875 12.203125 47.03125 
C 12.203125 50.109375 9.59375 51 8.203125 51 
C 7.59375 51 7 50.90625 6.59375 50.703125 
C 8.5 59.21875 14.296875 63.40625 20.40625 63.40625 
C 29.09375 63.40625 34.796875 56.515625 34.796875 47.421875 
C 34.796875 38.734375 29.703125 31.25 24 24.75 
L 4.09375 2.28125 
L 4.09375 0 
L 39.296875 0 
z
" id="CMR17-50"/>
      </defs>
      <g transform="translate(51.732654 56.948584)scale(0.35 -0.35)">
       <use transform="scale(0.996264)" xlink:href="#CMR17-50"/>
       <use transform="translate(45.690477 0)scale(0.996264)" xlink:href="#CMMI12-58"/>
       <use transform="translate(72.787654 0)scale(0.996264)" xlink:href="#CMR17-48"/>
      </g>
     </g>
    </g>
    <g id="ytick_6">
     <g id="line2d_28">
      <g>
       <use style="stroke:#000000;stroke-width:0.5;" x="97.2" xlink:href="#m677945df2d" y="21.6"/>
      </g>
     </g>
     <g id="line2d_29">
      <g>
       <use style="stroke:#000000;stroke-width:0.5;" x="400.95" xlink:href="#m435ee1c038" y="21.6"/>
      </g>
     </g>
     <g id="text_6">
      <!-- $2.5$ -->
      <g transform="translate(51.732654 30.308584)scale(0.35 -0.35)">
       <use transform="scale(0.996264)" xlink:href="#CMR17-50"/>
       <use transform="translate(45.690477 0)scale(0.996264)" xlink:href="#CMMI12-58"/>
       <use transform="translate(72.787654 0)scale(0.996264)" xlink:href="#CMR17-53"/>
      </g>
     </g>
    </g>
    <g id="text_7">
     <!-- $g(r)$ -->
     <defs>
      <path d="M 33.796875 12.671875 
C 33.40625 11.078125 33.203125 10.671875 31.90625 9.1875 
C 27.796875 3.890625 23.59375 2 20.5 2 
C 17.203125 2 14.09375 4.59375 14.09375 11.46875 
C 14.09375 16.765625 17.09375 27.9375 19.296875 32.4375 
C 22.203125 38.015625 26.703125 42.015625 30.90625 42.015625 
C 37.5 42.015625 38.796875 33.828125 38.796875 33.234375 
L 38.5 31.828125 
z
M 40 37.421875 
C 38.703125 40.3125 35.90625 44 30.90625 44 
C 20 44 7.59375 30.328125 7.59375 15.46875 
C 7.59375 5.09375 13.90625 0 20.296875 0 
C 25.59375 0 30.296875 4.1875 32.09375 6.1875 
L 29.90625 -2.671875 
C 28.5 -8.0625 27.90625 -10.53125 24.296875 -13.96875 
C 20.203125 -18 16.40625 -18 14.203125 -18 
C 11.203125 -18 8.703125 -17.796875 6.203125 -17.015625 
C 9.40625 -16.140625 10.203125 -13.40625 10.203125 -12.328125 
C 10.203125 -10.765625 9 -9.1875 6.796875 -9.1875 
C 4.40625 -9.1875 1.796875 -11.15625 1.796875 -14.40625 
C 1.796875 -18.4375 5.90625 -20 14.40625 -20 
C 27.296875 -20 34 -11.765625 35.296875 -6.40625 
L 46.40625 38.046875 
C 46.703125 39.234375 46.703125 39.4375 46.703125 39.625 
C 46.703125 41.015625 45.59375 42.109375 44.09375 42.109375 
C 41.703125 42.109375 40.296875 40.109375 40 37.421875 
z
" id="CMMI12-103"/>
      <path d="M 30.59375 -24.390625 
C 30.59375 -24.296875 30.59375 -24.09375 30.296875 -23.796875 
C 25.703125 -19.125 13.40625 -6.359375 13.40625 24.703125 
C 13.40625 55.765625 25.5 68.421875 30.40625 73.390625 
C 30.40625 73.5 30.59375 73.703125 30.59375 74 
C 30.59375 74.296875 30.296875 74.5 29.90625 74.5 
C 28.796875 74.5 20.296875 67.125 15.40625 56.15625 
C 10.40625 45.109375 9 34.359375 9 24.8125 
C 9 17.625 9.703125 5.484375 15.703125 -7.359375 
C 20.5 -17.734375 28.703125 -25 29.90625 -25 
C 30.40625 -25 30.59375 -24.796875 30.59375 -24.390625 
z
" id="CMR17-40"/>
      <path d="M 38.90625 40.8125 
C 35.796875 40.21875 34.203125 38.015625 34.203125 35.828125 
C 34.203125 33.421875 36.09375 32.625 37.5 32.625 
C 40.296875 32.625 42.59375 35.03125 42.59375 38.015625 
C 42.59375 41.21875 39.5 44 34.5 44 
C 30.5 44 25.90625 42.203125 21.703125 36.125 
C 21 41.40625 17 44 13 44 
C 9.09375 44 7.09375 41.015625 5.90625 38.8125 
C 4.203125 35.21875 2.703125 29.234375 2.703125 28.734375 
C 2.703125 28.34375 3.09375 27.84375 3.796875 27.84375 
C 4.59375 27.84375 4.703125 27.9375 5.296875 30.234375 
C 6.796875 36.21875 8.703125 42.015625 12.703125 42.015625 
C 15.09375 42.015625 15.796875 40.3125 15.796875 37.421875 
C 15.796875 35.21875 14.796875 31.328125 14.09375 28.234375 
L 11.296875 17.46875 
C 10.90625 15.5625 9.796875 11.078125 9.296875 9.28125 
C 8.59375 6.6875 7.5 2 7.5 1.5 
C 7.5 0.09375 8.59375 -1 10.09375 -1 
C 11.203125 -1 13.09375 -0.296875 13.703125 1.703125 
C 14 2.5 17.703125 17.5625 18.296875 19.859375 
C 18.796875 22.046875 19.40625 24.15625 19.90625 26.34375 
C 20.296875 27.734375 20.703125 29.34375 21 30.640625 
C 21.296875 31.53125 24 36.421875 26.5 38.625 
C 27.703125 39.71875 30.296875 42.015625 34.40625 42.015625 
C 36 42.015625 37.59375 41.71875 38.90625 40.8125 
z
" id="CMMI12-114"/>
      <path d="M 26.296875 24.703125 
C 26.296875 31.875 25.59375 44.015625 19.59375 56.859375 
C 14.796875 67.234375 6.59375 74.5 5.40625 74.5 
C 5.09375 74.5 4.703125 74.390625 4.703125 73.890625 
C 4.703125 73.703125 4.796875 73.59375 4.90625 73.390625 
C 9.703125 68.40625 21.90625 55.75 21.90625 24.75 
C 21.90625 -6.359375 9.796875 -19.015625 4.90625 -24.015625 
C 4.796875 -24.203125 4.703125 -24.3125 4.703125 -24.5 
C 4.703125 -25 5.09375 -25 5.40625 -25 
C 6.5 -25 15 -17.625 19.90625 -6.65625 
C 24.90625 4.390625 26.296875 15.140625 26.296875 24.703125 
z
" id="CMR17-41"/>
     </defs>
     <g transform="translate(38.044516 117.515558)rotate(-90)scale(0.35 -0.35)">
      <use transform="scale(0.996264)" xlink:href="#CMMI12-103"/>
      <use transform="translate(50.285489 0)scale(0.996264)" xlink:href="#CMR17-40"/>
      <use transform="translate(85.566257 0)scale(0.996264)" xlink:href="#CMMI12-114"/>
      <use transform="translate(132.236869 0)scale(0.996264)" xlink:href="#CMR17-41"/>
     </g>
    </g>
   </g>
  </g>
  <g id="axes_2">
   <g id="patch_7">
    <path d="M 97.2 288 
L 400.95 288 
L 400.95 154.8 
L 97.2 154.8 
z
" style="fill:#ffffff;"/>
   </g>
   <g id="line2d_30">
    <path clip-path="url(#pfe616fcb3d)" d="M 97.2 154.8 
L 97.913042 288 
L 110.747799 288 
L 110.762549 -1 
M 112.869766 -1 
L 112.886925 10.466237 
L 113.599967 128.552055 
L 114.313009 173.240339 
L 115.739093 223.287 
L 117.165178 244.631133 
L 117.87822 251.303265 
L 119.304304 260.00593 
L 120.017346 259.732285 
L 120.730388 261.008161 
L 121.44343 257.99139 
L 122.156472 257.424716 
L 122.869514 255.615252 
L 123.582556 253.289085 
L 124.295598 247.687673 
L 125.721682 238.352443 
L 126.434724 231.244018 
L 127.147766 232.096749 
L 127.860808 222.321774 
L 128.573851 229.911056 
L 129.286893 223.512607 
L 129.999935 227.270132 
L 130.712977 222.756808 
L 131.426019 232.215093 
L 132.139061 237.422421 
L 132.852103 240.153457 
L 133.565145 241.597864 
L 134.278187 245.705191 
L 134.991229 247.626682 
L 135.704271 251.414751 
L 136.417313 254.151049 
L 137.843397 256.053506 
L 138.556439 257.179143 
L 139.269481 257.810959 
L 139.982523 258.635956 
L 140.695566 258.367891 
L 141.408608 257.777812 
L 142.12165 260.223845 
L 142.834692 261.678065 
L 143.547734 260.168928 
L 144.260776 261.137232 
L 144.973818 261.503446 
L 145.68686 258.373049 
L 147.112944 260.252477 
L 147.825986 259.437355 
L 148.539028 260.289905 
L 149.25207 259.838678 
L 149.965112 260.282291 
L 150.678154 259.208833 
L 151.391196 260.023465 
L 152.104238 260.400584 
L 152.81728 262.298415 
L 153.530323 261.006904 
L 154.243365 262.598246 
L 154.956407 262.243764 
L 155.669449 260.906258 
L 156.382491 262.366811 
L 157.095533 260.974389 
L 157.808575 265.176277 
L 158.521617 262.81351 
L 159.234659 265.920101 
L 159.947701 265.672421 
L 160.660743 266.179808 
L 161.373785 267.159264 
L 162.086827 266.584857 
L 162.799869 266.488429 
L 164.225953 267.234969 
L 164.938995 267.076659 
L 165.652038 267.851977 
L 166.36508 267.424077 
L 167.078122 268.36671 
L 168.504206 268.34689 
L 169.217248 269.312474 
L 169.93029 268.816884 
L 170.643332 268.09593 
L 171.356374 268.24194 
L 172.069416 270.217171 
L 172.782458 269.625038 
L 173.4955 269.990453 
L 174.208542 268.294648 
L 174.921584 269.273906 
L 175.634626 269.163803 
L 177.06071 269.969348 
L 177.773753 270.858936 
L 178.486795 270.361874 
L 179.199837 271.059827 
L 179.912879 270.800368 
L 180.625921 272.146077 
L 181.338963 272.268307 
L 182.052005 271.758975 
L 182.765047 273.567135 
L 184.191131 271.825116 
L 184.904173 272.496518 
L 185.617215 272.747557 
L 186.330257 273.519377 
L 187.043299 272.678514 
L 187.756341 273.298905 
L 188.469383 272.257459 
L 189.182425 273.778328 
L 189.895467 273.199879 
L 190.60851 273.827159 
L 191.321552 273.608927 
L 192.034594 273.885349 
L 192.747636 275.32113 
L 193.460678 273.868383 
L 194.17372 273.961626 
L 194.886762 274.716935 
L 195.599804 274.261924 
L 196.312846 275.670254 
L 197.025888 275.217688 
L 197.73893 275.555651 
L 198.451972 274.930786 
L 199.165014 275.752813 
L 199.878056 276.150251 
L 200.591098 275.448068 
L 201.30414 277.069848 
L 202.017182 276.252844 
L 202.730225 276.271085 
L 203.443267 275.884304 
L 204.156309 276.61101 
L 204.869351 276.394874 
L 205.582393 275.984252 
L 206.295435 275.737982 
L 207.008477 276.629577 
L 207.721519 277.918268 
L 208.434561 276.778099 
L 209.147603 277.28334 
L 209.860645 276.978389 
L 210.573687 275.460944 
L 211.286729 276.674722 
L 211.999771 276.743131 
L 212.712813 277.646121 
L 213.425855 278.354464 
L 214.138897 277.163039 
L 214.85194 277.629463 
L 215.564982 277.625082 
L 216.278024 277.48624 
L 216.991066 278.795467 
L 217.704108 277.844811 
L 218.41715 278.716529 
L 219.130192 278.402005 
L 219.843234 277.615014 
L 220.556276 279.149054 
L 221.269318 278.589136 
L 221.98236 278.977357 
L 222.695402 278.857265 
L 223.408444 279.215424 
L 224.121486 279.170281 
L 224.834528 280.019508 
L 225.54757 279.144667 
L 226.260612 279.823254 
L 226.973654 279.03046 
L 227.686697 279.077596 
L 228.399739 278.71428 
L 229.112781 278.86468 
L 229.825823 279.156297 
L 230.538865 279.276245 
L 231.251907 278.794252 
L 231.964949 280.007456 
L 232.677991 278.978935 
L 233.391033 280.180855 
L 234.104075 280.121996 
L 234.817117 279.759907 
L 235.530159 280.221731 
L 236.243201 279.837526 
L 236.956243 280.037786 
L 237.669285 279.998035 
L 238.382327 280.755221 
L 239.095369 280.150792 
L 239.808412 280.106351 
L 240.521454 280.571842 
L 241.234496 280.404915 
L 241.947538 280.953278 
L 242.66058 280.476163 
L 243.373622 280.819052 
L 244.086664 280.987275 
L 244.799706 280.548989 
L 245.512748 280.797883 
L 246.938832 280.906916 
L 247.651874 280.813452 
L 248.364916 280.189808 
L 249.077958 281.075452 
L 249.791 281.448999 
L 250.504042 281.431853 
L 251.217084 280.620732 
L 251.930127 280.573414 
L 252.643169 281.977439 
L 253.356211 281.267949 
L 254.069253 280.926254 
L 254.782295 282.354437 
L 255.495337 281.534598 
L 256.208379 280.518831 
L 256.921421 281.508673 
L 257.634463 281.007987 
L 258.347505 282.101635 
L 259.060547 281.147514 
L 259.773589 281.853315 
L 260.486631 281.740683 
L 261.199673 282.266155 
L 261.912715 282.494282 
L 262.625757 282.481103 
L 263.338799 281.951197 
L 264.051841 281.863152 
L 264.764884 281.56633 
L 265.477926 281.803595 
L 266.190968 282.37079 
L 266.90401 282.278083 
L 267.617052 281.728283 
L 268.330094 282.336753 
L 269.043136 282.634286 
L 269.756178 282.309275 
L 270.46922 282.956301 
L 271.182262 281.513418 
L 271.895304 282.172811 
L 272.608346 282.148853 
L 273.321388 282.29219 
L 274.03443 282.30706 
L 274.747472 282.518253 
L 275.460514 282.915736 
L 276.886599 282.044272 
L 277.599641 282.880905 
L 278.312683 282.897539 
L 279.025725 282.399333 
L 279.738767 282.326268 
L 281.164851 282.876906 
L 281.877893 283.815095 
L 282.590935 283.417921 
L 283.303977 283.366675 
L 284.017019 282.859171 
L 284.730061 283.355355 
L 285.443103 283.325531 
L 286.156145 283.818002 
L 287.582229 282.682286 
L 288.295271 283.54075 
L 289.008314 283.519753 
L 289.721356 283.750046 
L 290.434398 283.261872 
L 291.14744 283.168368 
L 291.860482 283.658218 
L 292.573524 283.269256 
L 293.286566 283.553471 
L 293.999608 283.14652 
L 294.71265 283.27487 
L 295.425692 283.519173 
L 296.138734 283.226618 
L 296.851776 283.78739 
L 297.564818 283.098684 
L 298.27786 283.146535 
L 298.990902 283.782231 
L 299.703944 283.771718 
L 300.416986 283.574589 
L 301.130028 283.953287 
L 301.843071 283.300308 
L 302.556113 283.856784 
L 303.269155 283.718403 
L 303.982197 284.566955 
L 304.695239 284.071838 
L 305.408281 283.740551 
L 306.121323 284.092589 
L 306.834365 283.263163 
L 307.547407 283.52729 
L 308.260449 283.958419 
L 308.973491 283.92847 
L 309.686533 283.738367 
L 310.399575 284.202458 
L 311.112617 283.760485 
L 311.825659 284.153715 
L 312.538701 283.060939 
L 313.251743 284.346103 
L 313.964786 283.635546 
L 314.677828 284.269613 
L 315.39087 284.021099 
L 316.103912 284.363003 
L 316.816954 284.51072 
L 318.243038 283.842402 
L 318.95608 284.450332 
L 321.095206 284.355882 
L 321.808248 283.833828 
L 322.52129 282.883604 
L 323.234332 284.44234 
L 323.947374 284.173744 
L 324.660416 284.72461 
L 325.373458 284.449615 
L 326.0865 284.581977 
L 326.799543 284.338499 
L 327.512585 284.556859 
L 328.938669 284.335827 
L 330.364753 284.636984 
L 331.077795 284.324102 
L 331.790837 284.661818 
L 332.503879 284.377642 
L 333.929963 284.301091 
L 334.643005 284.888102 
L 335.356047 284.597809 
L 336.782131 284.509919 
L 337.495173 284.961137 
L 338.208215 284.30723 
L 338.921258 284.642635 
L 342.486468 284.561193 
L 343.19951 285.188365 
L 343.912552 284.962013 
L 344.625594 284.876222 
L 345.338636 284.64419 
L 346.051678 285.292512 
L 346.76472 284.977188 
L 347.477762 284.89909 
L 348.903846 284.506305 
L 349.616888 284.685056 
L 350.32993 284.73511 
L 351.756015 285.180695 
L 352.469057 285.008742 
L 353.182099 285.368826 
L 353.895141 284.833142 
L 354.608183 285.541583 
L 355.321225 285.342842 
L 356.034267 284.838539 
L 356.747309 284.654891 
L 357.460351 285.122093 
L 358.886435 285.027713 
L 359.599477 284.86087 
L 360.312519 285.422634 
L 361.025561 285.781032 
L 361.738603 284.604347 
L 363.164687 285.801411 
L 363.87773 284.958613 
L 364.590772 285.621536 
L 365.303814 285.41939 
L 366.016856 285.396365 
L 366.729898 285.692331 
L 367.44294 285.094002 
L 368.869024 285.498899 
L 371.00815 285.191824 
L 371.721192 285.505854 
L 372.434234 285.569415 
L 373.147276 285.292596 
L 373.860318 285.757369 
L 375.286402 285.653845 
L 375.999445 285.487761 
L 376.712487 285.602243 
L 377.425529 285.151624 
L 378.138571 285.558766 
L 378.851613 285.707045 
L 379.564655 286.021361 
L 380.277697 285.162553 
L 380.990739 285.41223 
L 381.703781 285.315417 
L 382.416823 285.523634 
L 383.129865 285.317312 
L 383.842907 285.409606 
L 384.555949 285.801415 
L 385.268991 285.198776 
L 386.695075 285.77302 
L 387.408117 285.599874 
L 388.12116 285.888562 
L 388.834202 286.049524 
L 389.547244 285.656613 
L 390.260286 286.116602 
L 390.973328 285.893621 
L 391.68637 285.436394 
L 392.399412 285.914518 
L 393.112454 285.47267 
L 394.538538 285.989356 
L 395.25158 286.098484 
L 395.964622 285.81358 
L 396.677664 285.801974 
L 397.390706 285.415131 
L 398.103748 285.70139 
L 398.81679 285.563399 
L 399.529832 285.67689 
L 400.242874 286.388165 
L 400.955917 285.527434 
L 401.668959 285.853845 
L 402.382001 285.516527 
L 403.095043 286.26721 
L 403.808085 285.500046 
L 404.521127 285.613411 
L 405.234169 285.916767 
L 406 285.538128 
L 406 285.538128 
" style="fill:none;stroke:#0000ff;stroke-linecap:square;"/>
   </g>
   <g id="line2d_31">
    <path clip-path="url(#pfe616fcb3d)" d="M 97.2 154.8 
L 97.913042 288 
L 110.747799 288 
L 111.460841 184.974022 
L 112.173883 190.872698 
L 112.886925 205.635838 
L 113.599967 212.56357 
L 114.313009 210.873476 
L 115.026051 210.897284 
L 115.739093 217.346539 
L 116.452136 217.754429 
L 117.165178 222.158561 
L 117.87822 221.80314 
L 118.591262 223.911304 
L 119.304304 224.382034 
L 120.017346 225.483325 
L 120.730388 231.436377 
L 121.44343 229.708633 
L 122.156472 234.14944 
L 122.869514 235.461524 
L 123.582556 239.67394 
L 124.295598 239.056105 
L 125.00864 242.253292 
L 126.434724 251.714507 
L 127.147766 262.342228 
L 127.860808 259.2349 
L 128.573851 261.757967 
L 129.286893 257.732838 
L 129.999935 257.249321 
L 130.712977 253.561935 
L 131.426019 254.212201 
L 132.139061 254.563979 
L 132.852103 252.275562 
L 133.565145 250.451988 
L 134.278187 250.445895 
L 134.991229 249.376366 
L 135.704271 251.429877 
L 136.417313 251.573438 
L 137.130355 251.137842 
L 137.843397 251.028448 
L 138.556439 251.90564 
L 139.982523 252.045077 
L 140.695566 251.68143 
L 141.408608 251.445162 
L 142.12165 254.505873 
L 142.834692 256.858656 
L 143.547734 255.046969 
L 144.260776 256.896148 
L 144.973818 257.546764 
L 145.68686 255.354636 
L 147.112944 259.200573 
L 147.825986 259.095306 
L 148.539028 260.80001 
L 149.965112 262.270858 
L 150.678154 262.128169 
L 151.391196 263.658759 
L 152.104238 264.153045 
L 152.81728 265.742451 
L 153.530323 264.539098 
L 154.243365 265.820583 
L 154.956407 265.01742 
L 155.669449 263.538087 
L 156.382491 264.201968 
L 157.095533 262.581901 
L 157.808575 265.806497 
L 158.521617 262.770357 
L 159.234659 265.442278 
L 159.947701 264.483051 
L 160.660743 264.804491 
L 161.373785 265.611369 
L 162.086827 264.867425 
L 162.799869 264.737453 
L 164.225953 265.318649 
L 164.938995 265.632764 
L 165.652038 266.301684 
L 166.36508 266.368986 
L 167.078122 267.280288 
L 168.504206 267.959126 
L 169.217248 269.249452 
L 169.93029 268.807627 
L 170.643332 268.164126 
L 171.356374 268.591999 
L 172.069416 270.594988 
L 172.782458 270.176835 
L 173.4955 270.577334 
L 174.208542 269.098751 
L 174.921584 270.212718 
L 175.634626 269.74498 
L 176.347668 270.17749 
L 177.06071 270.394571 
L 177.773753 271.329618 
L 178.486795 270.79018 
L 179.199837 271.43118 
L 179.912879 271.108925 
L 180.625921 272.192553 
L 181.338963 272.247139 
L 182.052005 271.741466 
L 182.765047 273.295017 
L 184.191131 271.266821 
L 184.904173 272.10544 
L 185.617215 272.2569 
L 186.330257 273.029444 
L 187.043299 272.210649 
L 187.756341 272.922272 
L 188.469383 271.773519 
L 189.182425 273.43841 
L 189.895467 272.987766 
L 190.60851 273.857994 
L 191.321552 273.512221 
L 192.034594 273.626131 
L 192.747636 275.325313 
L 193.460678 273.952231 
L 194.17372 274.103142 
L 194.886762 274.792356 
L 195.599804 274.587871 
L 196.312846 275.764571 
L 197.025888 275.315507 
L 197.73893 275.671326 
L 198.451972 275.096753 
L 199.165014 275.898798 
L 199.878056 276.298742 
L 200.591098 275.481228 
L 201.30414 277.09689 
L 202.017182 276.272879 
L 202.730225 276.287694 
L 203.443267 275.921259 
L 204.156309 276.565967 
L 204.869351 276.322936 
L 205.582393 275.883399 
L 206.295435 275.736159 
L 207.008477 276.508914 
L 207.721519 277.651333 
L 208.434561 276.58588 
L 209.147603 277.110914 
L 209.860645 276.910516 
L 210.573687 275.337613 
L 211.286729 276.51418 
L 211.999771 276.693059 
L 212.712813 277.600521 
L 213.425855 278.190221 
L 214.138897 277.206956 
L 214.85194 277.576948 
L 215.564982 277.698182 
L 216.278024 277.56128 
L 216.991066 278.713296 
L 217.704108 277.824066 
L 218.41715 278.8807 
L 219.130192 278.414014 
L 219.843234 277.613762 
L 220.556276 279.159081 
L 221.269318 278.610886 
L 221.98236 278.976312 
L 222.695402 278.765735 
L 223.408444 279.26739 
L 224.121486 279.15901 
L 224.834528 279.973925 
L 225.54757 279.059771 
L 226.260612 279.832629 
L 226.973654 278.985645 
L 227.686697 279.054855 
L 228.399739 278.723061 
L 229.112781 278.811583 
L 229.825823 279.183649 
L 230.538865 279.208469 
L 231.251907 278.774009 
L 231.964949 279.953225 
L 232.677991 278.914083 
L 233.391033 280.148181 
L 234.104075 280.081728 
L 234.817117 279.693941 
L 235.530159 280.201803 
L 236.243201 279.811529 
L 236.956243 280.02383 
L 237.669285 279.992742 
L 238.382327 280.659061 
L 239.095369 280.135234 
L 239.808412 280.088929 
L 240.521454 280.560748 
L 241.234496 280.385467 
L 241.947538 280.913807 
L 242.66058 280.509812 
L 243.373622 280.833472 
L 244.086664 281.01346 
L 244.799706 280.582484 
L 245.512748 280.800403 
L 246.938832 280.954526 
L 247.651874 280.852413 
L 248.364916 280.171236 
L 249.077958 281.131965 
L 249.791 281.415755 
L 250.504042 281.365284 
L 251.217084 280.594071 
L 251.930127 280.552274 
L 252.643169 281.995718 
L 253.356211 281.201206 
L 254.069253 280.919938 
L 254.782295 282.307611 
L 256.208379 280.450586 
L 256.921421 281.480929 
L 257.634463 280.997053 
L 258.347505 282.056199 
L 259.060547 281.176512 
L 259.773589 281.805012 
L 260.486631 281.709103 
L 261.199673 282.237726 
L 261.912715 282.471316 
L 262.625757 282.483556 
L 263.338799 281.950083 
L 264.051841 281.901405 
L 264.764884 281.595334 
L 265.477926 281.866458 
L 266.190968 282.388901 
L 266.90401 282.276872 
L 267.617052 281.744626 
L 268.330094 282.284469 
L 269.043136 282.608993 
L 269.756178 282.289716 
L 270.46922 282.950941 
L 271.182262 281.478191 
L 271.895304 282.2084 
L 272.608346 282.107295 
L 273.321388 282.30211 
L 274.03443 282.276539 
L 274.747472 282.458144 
L 275.460514 282.888946 
L 276.886599 282.028505 
L 277.599641 282.88078 
L 278.312683 282.89291 
L 279.025725 282.41154 
L 279.738767 282.30703 
L 281.164851 282.866238 
L 281.877893 283.818477 
L 282.590935 283.412179 
L 283.303977 283.369695 
L 284.017019 282.87838 
L 284.730061 283.365727 
L 285.443103 283.29862 
L 286.156145 283.842985 
L 287.582229 282.693568 
L 288.295271 283.543937 
L 289.008314 283.53917 
L 289.721356 283.735491 
L 290.434398 283.269572 
L 291.14744 283.139931 
L 291.860482 283.622331 
L 292.573524 283.275657 
L 293.286566 283.498939 
L 293.999608 283.114078 
L 295.425692 283.5142 
L 296.138734 283.21575 
L 296.851776 283.76311 
L 297.564818 283.117423 
L 298.27786 283.118405 
L 298.990902 283.786742 
L 299.703944 283.756378 
L 300.416986 283.564245 
L 301.130028 283.952431 
L 301.843071 283.297428 
L 302.556113 283.855306 
L 303.269155 283.719025 
L 303.982197 284.568801 
L 304.695239 284.075334 
L 305.408281 283.74231 
L 306.121323 284.08279 
L 306.834365 283.285322 
L 307.547407 283.514754 
L 308.260449 283.939895 
L 308.973491 283.935539 
L 309.686533 283.696136 
L 310.399575 284.189512 
L 311.112617 283.734758 
L 311.825659 284.139744 
L 312.538701 283.046484 
L 313.251743 284.345437 
L 313.964786 283.619323 
L 314.677828 284.254284 
L 315.39087 284.007735 
L 316.103912 284.372737 
L 316.816954 284.52665 
L 318.243038 283.867138 
L 318.95608 284.446689 
L 321.095206 284.352036 
L 321.808248 283.825082 
L 322.52129 282.883506 
L 323.234332 284.432346 
L 323.947374 284.136553 
L 324.660416 284.734457 
L 325.373458 284.411061 
L 326.0865 284.569817 
L 326.799543 284.342767 
L 327.512585 284.562624 
L 328.938669 284.348657 
L 330.364753 284.638064 
L 331.077795 284.337905 
L 331.790837 284.651581 
L 332.503879 284.3642 
L 333.929963 284.313501 
L 334.643005 284.864713 
L 336.069089 284.484687 
L 336.782131 284.510977 
L 337.495173 284.949814 
L 338.208215 284.313303 
L 338.921258 284.644853 
L 340.347342 284.676806 
L 341.060384 284.43439 
L 342.486468 284.529934 
L 343.19951 285.187983 
L 343.912552 284.951884 
L 344.625594 284.876339 
L 345.338636 284.65864 
L 346.051678 285.28383 
L 346.76472 284.969232 
L 347.477762 284.884072 
L 348.903846 284.500697 
L 349.616888 284.694969 
L 350.32993 284.742891 
L 351.756015 285.188566 
L 352.469057 285.005982 
L 353.182099 285.386234 
L 353.895141 284.835196 
L 354.608183 285.544161 
L 355.321225 285.345326 
L 356.034267 284.853572 
L 356.747309 284.653672 
L 357.460351 285.11206 
L 358.886435 284.988507 
L 359.599477 284.847531 
L 360.312519 285.411974 
L 361.025561 285.773359 
L 361.738603 284.61435 
L 363.164687 285.784132 
L 363.87773 284.931641 
L 364.590772 285.623104 
L 365.303814 285.413296 
L 366.016856 285.399329 
L 366.729898 285.684313 
L 367.44294 285.100108 
L 368.869024 285.475425 
L 369.582066 285.413135 
L 370.295108 285.23808 
L 371.00815 285.207494 
L 371.721192 285.513753 
L 372.434234 285.574238 
L 373.147276 285.282104 
L 373.860318 285.763297 
L 375.286402 285.648282 
L 375.999445 285.486438 
L 376.712487 285.578394 
L 377.425529 285.15582 
L 378.138571 285.567704 
L 378.851613 285.690256 
L 379.564655 286.020877 
L 380.277697 285.172525 
L 380.990739 285.407666 
L 381.703781 285.30807 
L 382.416823 285.511711 
L 383.129865 285.293113 
L 383.842907 285.395183 
L 384.555949 285.804766 
L 385.268991 285.207481 
L 386.695075 285.763117 
L 387.408117 285.608633 
L 388.12116 285.893367 
L 388.834202 286.048661 
L 389.547244 285.639886 
L 390.260286 286.126164 
L 390.973328 285.89068 
L 391.68637 285.417597 
L 392.399412 285.926938 
L 393.112454 285.470914 
L 394.538538 285.989685 
L 395.25158 286.085779 
L 395.964622 285.802213 
L 396.677664 285.797855 
L 397.390706 285.387401 
L 398.103748 285.7076 
L 398.81679 285.568021 
L 399.529832 285.679361 
L 400.242874 286.401718 
L 400.955917 285.522278 
L 401.668959 285.848829 
L 402.382001 285.500942 
L 403.095043 286.262583 
L 403.808085 285.492586 
L 404.521127 285.608421 
L 405.234169 285.908635 
L 406 285.553487 
L 406 285.553487 
" style="fill:none;stroke:#008000;stroke-linecap:square;"/>
   </g>
   <g id="patch_8">
    <path d="M 97.2 288 
L 97.2 154.8 
" style="fill:none;stroke:#000000;stroke-linecap:square;stroke-linejoin:miter;"/>
   </g>
   <g id="patch_9">
    <path d="M 400.95 288 
L 400.95 154.8 
" style="fill:none;stroke:#000000;stroke-linecap:square;stroke-linejoin:miter;"/>
   </g>
   <g id="patch_10">
    <path d="M 97.2 288 
L 400.95 288 
" style="fill:none;stroke:#000000;stroke-linecap:square;stroke-linejoin:miter;"/>
   </g>
   <g id="patch_11">
    <path d="M 97.2 154.8 
L 400.95 154.8 
" style="fill:none;stroke:#000000;stroke-linecap:square;stroke-linejoin:miter;"/>
   </g>
   <g id="matplotlib.axis_3">
    <g id="xtick_9">
     <g id="line2d_32">
      <g>
       <use style="stroke:#000000;stroke-width:0.5;" x="97.2" xlink:href="#ma6663ca9db" y="288"/>
      </g>
     </g>
     <g id="line2d_33">
      <g>
       <use style="stroke:#000000;stroke-width:0.5;" x="97.2" xlink:href="#m057c957e1a" y="154.8"/>
      </g>
     </g>
     <g id="text_8">
      <!-- $0$ -->
      <g transform="translate(89.204167 316.844121)scale(0.35 -0.35)">
       <use transform="scale(0.996264)" xlink:href="#CMR17-48"/>
      </g>
     </g>
    </g>
    <g id="xtick_10">
     <g id="line2d_34">
      <g>
       <use style="stroke:#000000;stroke-width:0.5;" x="137.7" xlink:href="#ma6663ca9db" y="288"/>
      </g>
     </g>
     <g id="line2d_35">
      <g>
       <use style="stroke:#000000;stroke-width:0.5;" x="137.7" xlink:href="#m057c957e1a" y="154.8"/>
      </g>
     </g>
     <g id="text_9">
      <!-- $2$ -->
      <g transform="translate(129.704167 316.844121)scale(0.35 -0.35)">
       <use transform="scale(0.996264)" xlink:href="#CMR17-50"/>
      </g>
     </g>
    </g>
    <g id="xtick_11">
     <g id="line2d_36">
      <g>
       <use style="stroke:#000000;stroke-width:0.5;" x="178.2" xlink:href="#ma6663ca9db" y="288"/>
      </g>
     </g>
     <g id="line2d_37">
      <g>
       <use style="stroke:#000000;stroke-width:0.5;" x="178.2" xlink:href="#m057c957e1a" y="154.8"/>
      </g>
     </g>
     <g id="text_10">
      <!-- $4$ -->
      <defs>
       <path d="M 33.59375 64.40625 
C 33.59375 66.5 33.5 66.5 31.703125 66.5 
L 2 19.59375 
L 2 17 
L 27.796875 17 
L 27.796875 7.140625 
C 27.796875 3.5 27.59375 2.5 20.59375 2.5 
L 18.703125 2.5 
L 18.703125 0 
C 21.90625 0 27.296875 0 30.703125 0 
C 34.09375 0 39.5 0 42.703125 0 
L 42.703125 2.5 
L 40.796875 2.5 
C 33.796875 2.5 33.59375 3.5 33.59375 7.140625 
L 33.59375 17 
L 43.796875 17 
L 43.796875 19.59375 
L 33.59375 19.59375 
z
M 28.09375 57.859375 
L 28.09375 19.59375 
L 4 19.59375 
z
" id="CMR17-52"/>
      </defs>
      <g transform="translate(170.204167 316.844121)scale(0.35 -0.35)">
       <use transform="scale(0.996264)" xlink:href="#CMR17-52"/>
      </g>
     </g>
    </g>
    <g id="xtick_12">
     <g id="line2d_38">
      <g>
       <use style="stroke:#000000;stroke-width:0.5;" x="218.7" xlink:href="#ma6663ca9db" y="288"/>
      </g>
     </g>
     <g id="line2d_39">
      <g>
       <use style="stroke:#000000;stroke-width:0.5;" x="218.7" xlink:href="#m057c957e1a" y="154.8"/>
      </g>
     </g>
     <g id="text_11">
      <!-- $6$ -->
      <defs>
       <path d="M 10.59375 34 
C 10.59375 57.65625 21.796875 63 28.296875 63 
C 30.40625 63 35.5 62.640625 37.5 59 
C 35.90625 59 32.90625 59 32.90625 55.515625 
C 32.90625 52.828125 35.09375 51.921875 36.5 51.921875 
C 37.40625 51.921875 40.09375 52.3125 40.09375 55.625 
C 40.09375 61.78125 35.09375 65.296875 28.203125 65.296875 
C 16.296875 65.296875 3.796875 52.96875 3.796875 31 
C 3.796875 3.953125 15.09375 -2 23.09375 -2 
C 32.796875 -2 42 6.671875 42 20.046875 
C 42 32.515625 33.90625 41.59375 23.703125 41.59375 
C 17.59375 41.59375 13.09375 37.609375 10.59375 30.625 
z
M 23.09375 0.390625 
C 10.796875 0.390625 10.796875 18.75 10.796875 22.4375 
C 10.796875 29.625 14.203125 40 23.5 40 
C 25.203125 40 30.09375 40 33.40625 33.125 
C 35.203125 29.21875 35.203125 25.140625 35.203125 20.140625 
C 35.203125 14.75 35.203125 10.78125 33.09375 6.78125 
C 30.90625 2.671875 27.703125 0.390625 23.09375 0.390625 
z
" id="CMR17-54"/>
      </defs>
      <g transform="translate(210.704167 316.844121)scale(0.35 -0.35)">
       <use transform="scale(0.996264)" xlink:href="#CMR17-54"/>
      </g>
     </g>
    </g>
    <g id="xtick_13">
     <g id="line2d_40">
      <g>
       <use style="stroke:#000000;stroke-width:0.5;" x="259.2" xlink:href="#ma6663ca9db" y="288"/>
      </g>
     </g>
     <g id="line2d_41">
      <g>
       <use style="stroke:#000000;stroke-width:0.5;" x="259.2" xlink:href="#m057c957e1a" y="154.8"/>
      </g>
     </g>
     <g id="text_12">
      <!-- $8$ -->
      <defs>
       <path d="M 27.203125 35.375 
C 33.5 38.546875 39.90625 43.328125 39.90625 50.984375 
C 39.90625 60.015625 31.09375 65.296875 23 65.296875 
C 13.90625 65.296875 5.90625 58.734375 5.90625 49.6875 
C 5.90625 47.203125 6.5 42.921875 10.40625 39.140625 
C 11.40625 38.15625 15.59375 35.171875 18.296875 33.28125 
C 13.796875 30.984375 3.296875 25.53125 3.296875 14.59375 
C 3.296875 4.359375 13.09375 -2 22.796875 -2 
C 33.5 -2 42.5 5.65625 42.5 15.78125 
C 42.5 24.84375 36.40625 29.015625 32.40625 31.703125 
z
M 14.09375 44.09375 
C 13.296875 44.59375 9.296875 47.671875 9.296875 52.359375 
C 9.296875 58.421875 15.59375 63 22.796875 63 
C 30.703125 63 36.5 57.4375 36.5 50.96875 
C 36.5 41.703125 26.09375 36.421875 25.59375 36.421875 
C 25.5 36.421875 25.40625 36.421875 24.59375 37.03125 
z
M 32.5 23.734375 
C 34 22.640625 38.796875 19.375 38.796875 13.296875 
C 38.796875 5.953125 31.40625 0.390625 23 0.390625 
C 13.90625 0.390625 7 6.84375 7 14.6875 
C 7 22.546875 13.09375 29.09375 20 32.1875 
z
" id="CMR17-56"/>
      </defs>
      <g transform="translate(251.204167 316.844121)scale(0.35 -0.35)">
       <use transform="scale(0.996264)" xlink:href="#CMR17-56"/>
      </g>
     </g>
    </g>
    <g id="xtick_14">
     <g id="line2d_42">
      <g>
       <use style="stroke:#000000;stroke-width:0.5;" x="299.7" xlink:href="#ma6663ca9db" y="288"/>
      </g>
     </g>
     <g id="line2d_43">
      <g>
       <use style="stroke:#000000;stroke-width:0.5;" x="299.7" xlink:href="#m057c957e1a" y="154.8"/>
      </g>
     </g>
     <g id="text_13">
      <!-- $10$ -->
      <g transform="translate(283.708333 316.844121)scale(0.35 -0.35)">
       <use transform="scale(0.996264)" xlink:href="#CMR17-49"/>
       <use transform="translate(45.690477 0)scale(0.996264)" xlink:href="#CMR17-48"/>
      </g>
     </g>
    </g>
    <g id="xtick_15">
     <g id="line2d_44">
      <g>
       <use style="stroke:#000000;stroke-width:0.5;" x="340.2" xlink:href="#ma6663ca9db" y="288"/>
      </g>
     </g>
     <g id="line2d_45">
      <g>
       <use style="stroke:#000000;stroke-width:0.5;" x="340.2" xlink:href="#m057c957e1a" y="154.8"/>
      </g>
     </g>
     <g id="text_14">
      <!-- $12$ -->
      <g transform="translate(324.208333 316.844121)scale(0.35 -0.35)">
       <use transform="scale(0.996264)" xlink:href="#CMR17-49"/>
       <use transform="translate(45.690477 0)scale(0.996264)" xlink:href="#CMR17-50"/>
      </g>
     </g>
    </g>
    <g id="xtick_16">
     <g id="line2d_46">
      <g>
       <use style="stroke:#000000;stroke-width:0.5;" x="380.7" xlink:href="#ma6663ca9db" y="288"/>
      </g>
     </g>
     <g id="line2d_47">
      <g>
       <use style="stroke:#000000;stroke-width:0.5;" x="380.7" xlink:href="#m057c957e1a" y="154.8"/>
      </g>
     </g>
     <g id="text_15">
      <!-- $14$ -->
      <g transform="translate(364.708333 316.844121)scale(0.35 -0.35)">
       <use transform="scale(0.996264)" xlink:href="#CMR17-49"/>
       <use transform="translate(45.690477 0)scale(0.996264)" xlink:href="#CMR17-52"/>
      </g>
     </g>
    </g>
    <g id="text_16">
     <!-- $r$ -->
     <g transform="translate(241.381849 354.115194)scale(0.35 -0.35)">
      <use transform="scale(0.996264)" xlink:href="#CMMI12-114"/>
     </g>
    </g>
   </g>
   <g id="matplotlib.axis_4">
    <g id="ytick_7">
     <g id="line2d_48">
      <g>
       <use style="stroke:#000000;stroke-width:0.5;" x="97.2" xlink:href="#m677945df2d" y="288"/>
      </g>
     </g>
     <g id="line2d_49">
      <g>
       <use style="stroke:#000000;stroke-width:0.5;" x="400.95" xlink:href="#m435ee1c038" y="288"/>
      </g>
     </g>
     <g id="text_17">
      <!-- $0.0$ -->
      <g transform="translate(51.732654 296.708584)scale(0.35 -0.35)">
       <use transform="scale(0.996264)" xlink:href="#CMR17-48"/>
       <use transform="translate(45.690477 0)scale(0.996264)" xlink:href="#CMMI12-58"/>
       <use transform="translate(72.787654 0)scale(0.996264)" xlink:href="#CMR17-48"/>
      </g>
     </g>
    </g>
    <g id="ytick_8">
     <g id="line2d_50">
      <g>
       <use style="stroke:#000000;stroke-width:0.5;" x="97.2" xlink:href="#m677945df2d" y="261.36"/>
      </g>
     </g>
     <g id="line2d_51">
      <g>
       <use style="stroke:#000000;stroke-width:0.5;" x="400.95" xlink:href="#m435ee1c038" y="261.36"/>
      </g>
     </g>
     <g id="text_18">
      <!-- $0.2$ -->
      <g transform="translate(51.732654 270.068584)scale(0.35 -0.35)">
       <use transform="scale(0.996264)" xlink:href="#CMR17-48"/>
       <use transform="translate(45.690477 0)scale(0.996264)" xlink:href="#CMMI12-58"/>
       <use transform="translate(72.787654 0)scale(0.996264)" xlink:href="#CMR17-50"/>
      </g>
     </g>
    </g>
    <g id="ytick_9">
     <g id="line2d_52">
      <g>
       <use style="stroke:#000000;stroke-width:0.5;" x="97.2" xlink:href="#m677945df2d" y="234.72"/>
      </g>
     </g>
     <g id="line2d_53">
      <g>
       <use style="stroke:#000000;stroke-width:0.5;" x="400.95" xlink:href="#m435ee1c038" y="234.72"/>
      </g>
     </g>
     <g id="text_19">
      <!-- $0.4$ -->
      <g transform="translate(51.732654 243.428584)scale(0.35 -0.35)">
       <use transform="scale(0.996264)" xlink:href="#CMR17-48"/>
       <use transform="translate(45.690477 0)scale(0.996264)" xlink:href="#CMMI12-58"/>
       <use transform="translate(72.787654 0)scale(0.996264)" xlink:href="#CMR17-52"/>
      </g>
     </g>
    </g>
    <g id="ytick_10">
     <g id="line2d_54">
      <g>
       <use style="stroke:#000000;stroke-width:0.5;" x="97.2" xlink:href="#m677945df2d" y="208.08"/>
      </g>
     </g>
     <g id="line2d_55">
      <g>
       <use style="stroke:#000000;stroke-width:0.5;" x="400.95" xlink:href="#m435ee1c038" y="208.08"/>
      </g>
     </g>
     <g id="text_20">
      <!-- $0.6$ -->
      <g transform="translate(51.732654 216.788584)scale(0.35 -0.35)">
       <use transform="scale(0.996264)" xlink:href="#CMR17-48"/>
       <use transform="translate(45.690477 0)scale(0.996264)" xlink:href="#CMMI12-58"/>
       <use transform="translate(72.787654 0)scale(0.996264)" xlink:href="#CMR17-54"/>
      </g>
     </g>
    </g>
    <g id="ytick_11">
     <g id="line2d_56">
      <g>
       <use style="stroke:#000000;stroke-width:0.5;" x="97.2" xlink:href="#m677945df2d" y="181.44"/>
      </g>
     </g>
     <g id="line2d_57">
      <g>
       <use style="stroke:#000000;stroke-width:0.5;" x="400.95" xlink:href="#m435ee1c038" y="181.44"/>
      </g>
     </g>
     <g id="text_21">
      <!-- $0.8$ -->
      <g transform="translate(51.732654 190.148584)scale(0.35 -0.35)">
       <use transform="scale(0.996264)" xlink:href="#CMR17-48"/>
       <use transform="translate(45.690477 0)scale(0.996264)" xlink:href="#CMMI12-58"/>
       <use transform="translate(72.787654 0)scale(0.996264)" xlink:href="#CMR17-56"/>
      </g>
     </g>
    </g>
    <g id="ytick_12">
     <g id="line2d_58">
      <g>
       <use style="stroke:#000000;stroke-width:0.5;" x="97.2" xlink:href="#m677945df2d" y="154.8"/>
      </g>
     </g>
     <g id="line2d_59">
      <g>
       <use style="stroke:#000000;stroke-width:0.5;" x="400.95" xlink:href="#m435ee1c038" y="154.8"/>
      </g>
     </g>
     <g id="text_22">
      <!-- $1.0$ -->
      <g transform="translate(51.732654 163.508584)scale(0.35 -0.35)">
       <use transform="scale(0.996264)" xlink:href="#CMR17-49"/>
       <use transform="translate(45.690477 0)scale(0.996264)" xlink:href="#CMMI12-58"/>
       <use transform="translate(72.787654 0)scale(0.996264)" xlink:href="#CMR17-48"/>
      </g>
     </g>
    </g>
    <g id="text_23">
     <!-- $C_{\boldsymbol{v}\boldsymbol{v}}(r)$ -->
     <defs>
      <path d="M 74.703125 69.109375 
C 74.703125 70 74 70 73.796875 70 
C 73.59375 70 73.203125 70 72.40625 69 
L 65.5 60.65625 
C 62 66.625 56.5 70 49 70 
C 27.40625 70 5 48.25 5 24.921875 
C 5 8.328125 16.703125 -2 31.296875 -2 
C 39.296875 -2 46.296875 1.375 52.09375 6.25 
C 60.796875 13.484375 63.40625 23.140625 63.40625 23.921875 
C 63.40625 24.8125 62.59375 24.8125 62.296875 24.8125 
C 61.40625 24.8125 61.296875 24.21875 61.09375 23.8125 
C 56.5 8.34375 43 0.890625 33 0.890625 
C 22.40625 0.890625 13.203125 7.640625 13.203125 21.734375 
C 13.203125 24.921875 14.203125 42.1875 25.5 55.1875 
C 31 61.546875 40.40625 67.109375 49.90625 67.109375 
C 60.90625 67.109375 65.796875 58.078125 65.796875 47.9375 
C 65.796875 45.359375 65.5 43.1875 65.5 42.78125 
C 65.5 41.890625 66.5 41.890625 66.796875 41.890625 
C 67.90625 41.890625 68 41.984375 68.40625 43.765625 
z
" id="CMMI12-67"/>
      <path d="M 54.09375 35.921875 
C 54.09375 45 47.40625 45 47.296875 45 
C 43.296875 45 39.703125 40.8125 39.703125 37.421875 
C 39.703125 34.625 41.796875 33.421875 42.703125 32.921875 
C 46.90625 30.4375 47.703125 28.625 47.703125 26.640625 
C 47.703125 24.453125 41.90625 2.578125 30.203125 2.578125 
C 23 2.578125 23 8.59375 23 10.375 
C 23 16.1875 25.796875 23.484375 29 31.5 
C 29.796875 33.484375 30.09375 34.390625 30.09375 35.984375 
C 30.09375 41.796875 24.296875 45 18.796875 45 
C 8.203125 45 3.203125 31.359375 3.203125 29.359375 
C 3.203125 27.953125 4.703125 27.953125 5.59375 27.953125 
C 6.796875 27.953125 7.5 27.953125 7.90625 29.25 
C 11.09375 40.03125 16.40625 41.3125 18.203125 41.3125 
C 18.90625 41.3125 19.90625 41.3125 19.90625 39.234375 
C 19.90625 36.921875 18.703125 34.03125 18.40625 33.234375 
C 13.796875 21.65625 12.296875 17.171875 12.296875 12.375 
C 12.296875 1.78125 20.90625 -1 29.59375 -1 
C 46.796875 -1 54.09375 27.328125 54.09375 35.921875 
z
" id="CMMIB10-118"/>
     </defs>
     <g transform="translate(39.305702 269.113622)rotate(-90)scale(0.35 -0.35)">
      <use transform="translate(0 14.943915)scale(0.996264)" xlink:href="#CMMI12-67"/>
      <use transform="translate(69.792037 0)scale(0.697382)" xlink:href="#CMMIB10-118"/>
      <use transform="translate(111.893069 0)scale(0.697382)" xlink:href="#CMMIB10-118"/>
      <use transform="translate(154.492233 14.943915)scale(0.996264)" xlink:href="#CMR17-40"/>
      <use transform="translate(189.773001 14.943915)scale(0.996264)" xlink:href="#CMMI12-114"/>
      <use transform="translate(236.443613 14.943915)scale(0.996264)" xlink:href="#CMR17-41"/>
     </g>
    </g>
   </g>
   <g id="legend_1">
    <g id="line2d_60">
     <path d="M 206.072292 188.151634 
L 228.572292 188.151634 
" style="fill:none;stroke:#0000ff;stroke-linecap:square;"/>
    </g>
    <g id="line2d_61"/>
    <g id="text_24">
     <!-- $C_{\boldsymbol{v}\boldsymbol{v}}(r)/g(r)$ -->
     <defs>
      <path d="M 42.90625 71.28125 
C 42.90625 71.390625 43.5 72.90625 43.5 73.09375 
C 43.5 74.296875 42.5 75 41.703125 75 
C 41.203125 75 40.296875 75 39.5 72.796875 
L 6 -21.296875 
C 6 -21.40625 5.40625 -22.890625 5.40625 -23.09375 
C 5.40625 -24.296875 6.40625 -25 7.203125 -25 
C 7.796875 -25 8.703125 -24.890625 9.40625 -22.796875 
z
" id="CMMI12-61"/>
     </defs>
     <g transform="translate(256.072292 196.901634)scale(0.25 -0.25)">
      <use transform="translate(0 14.943915)scale(0.996264)" xlink:href="#CMMI12-67"/>
      <use transform="translate(69.792037 0)scale(0.697382)" xlink:href="#CMMIB10-118"/>
      <use transform="translate(111.893069 0)scale(0.697382)" xlink:href="#CMMIB10-118"/>
      <use transform="translate(154.492233 14.943915)scale(0.996264)" xlink:href="#CMR17-40"/>
      <use transform="translate(189.773001 14.943915)scale(0.996264)" xlink:href="#CMMI12-114"/>
      <use transform="translate(236.443613 14.943915)scale(0.996264)" xlink:href="#CMR17-41"/>
      <use transform="translate(271.724381 14.943915)scale(0.996264)" xlink:href="#CMMI12-61"/>
      <use transform="translate(320.4993 14.943915)scale(0.996264)" xlink:href="#CMMI12-103"/>
      <use transform="translate(370.784789 14.943915)scale(0.996264)" xlink:href="#CMR17-40"/>
      <use transform="translate(406.065557 14.943915)scale(0.996264)" xlink:href="#CMMI12-114"/>
      <use transform="translate(452.736169 14.943915)scale(0.996264)" xlink:href="#CMR17-41"/>
     </g>
    </g>
    <g id="line2d_62">
     <path d="M 206.072292 225.51497 
L 228.572292 225.51497 
" style="fill:none;stroke:#008000;stroke-linecap:square;"/>
    </g>
    <g id="line2d_63"/>
    <g id="text_25">
     <!-- $C_{\boldsymbol{v}\boldsymbol{v}}(r)$ -->
     <g transform="translate(256.072292 234.26497)scale(0.25 -0.25)">
      <use transform="translate(0 14.943915)scale(0.996264)" xlink:href="#CMMI12-67"/>
      <use transform="translate(69.792037 0)scale(0.697382)" xlink:href="#CMMIB10-118"/>
      <use transform="translate(111.893069 0)scale(0.697382)" xlink:href="#CMMIB10-118"/>
      <use transform="translate(154.492233 14.943915)scale(0.996264)" xlink:href="#CMR17-40"/>
      <use transform="translate(189.773001 14.943915)scale(0.996264)" xlink:href="#CMMI12-114"/>
      <use transform="translate(236.443613 14.943915)scale(0.996264)" xlink:href="#CMR17-41"/>
     </g>
    </g>
   </g>
  </g>
 </g>
 <defs>
  <clipPath id="p14a9439f0a">
   <rect height="133.2" width="303.75" x="97.2" y="21.6"/>
  </clipPath>
  <clipPath id="pfe616fcb3d">
   <rect height="133.2" width="303.75" x="97.2" y="154.8"/>
  </clipPath>
 </defs>
</svg>
