<?xml version="1.0" encoding="utf-8" standalone="no"?>
<!DOCTYPE svg PUBLIC "-//W3C//DTD SVG 1.1//EN"
  "http://www.w3.org/Graphics/SVG/1.1/DTD/svg11.dtd">
<!-- Created with matplotlib (https://matplotlib.org/) -->
<svg height="360pt" version="1.1" viewBox="0 0 405 360" width="405pt" xmlns="http://www.w3.org/2000/svg" xmlns:xlink="http://www.w3.org/1999/xlink">
 <defs>
  <style type="text/css">
*{stroke-linecap:butt;stroke-linejoin:round;}
  </style>
 </defs>
 <g id="figure_1">
  <g id="patch_1">
   <path d="M 0 360 
L 405 360 
L 405 0 
L 0 0 
z
" style="fill:#ffffff;"/>
  </g>
  <g id="axes_1">
   <g id="patch_2">
    <path d="M 97.2 284.4 
L 396.9 284.4 
L 396.9 18 
L 97.2 18 
z
" style="fill:#ffffff;"/>
   </g>
   <g id="line2d_1">
    <path clip-path="url(#p4b01c5ab13)" d="M 109.207089 284.36234 
L 119.552362 284.366234 
L 133.001217 284.4 
L 183.693055 284.351024 
L 187.831164 283.945042 
L 190.934746 283.425246 
L 193.0038 282.925164 
L 195.072855 282.251826 
L 197.141909 281.345466 
L 199.210964 280.130037 
L 201.280019 278.513116 
L 203.349073 276.387401 
L 205.418128 273.634034 
L 207.487182 270.127839 
L 209.556237 265.744413 
L 211.625291 260.368799 
L 213.694346 253.905295 
L 215.763401 246.28778 
L 217.832455 237.489814 
L 219.90151 227.533671 
L 221.970564 216.49748 
L 225.074146 198.237776 
L 229.212256 171.910335 
L 233.350365 145.615947 
L 235.419419 133.408141 
L 237.488474 122.345473 
L 239.557528 112.80026 
L 240.592056 108.703578 
L 241.626583 105.108338 
L 242.66111 102.047858 
L 243.695638 99.551051 
L 244.730165 97.642002 
L 245.764692 96.339623 
L 246.79922 95.657366 
L 247.833747 95.60302 
L 248.868274 96.178574 
L 249.902801 97.380174 
L 250.937329 99.198153 
L 251.971856 101.617148 
L 253.006383 104.616293 
L 254.040911 108.169493 
L 255.075438 112.245765 
L 257.144492 121.821709 
L 259.213547 133.015638 
L 261.282602 145.452724 
L 264.386184 165.558008 
L 269.55882 199.613194 
L 272.662402 218.452426 
L 274.731457 229.793384 
L 276.800511 239.961578 
L 278.869566 248.863835 
L 280.93862 256.471745 
L 283.007675 262.814834 
L 285.076729 267.970986 
L 287.145784 272.055018 
L 288.180311 273.737944 
L 289.214839 275.206387 
L 291.283893 277.57701 
L 293.352948 279.320039 
L 295.422002 280.580303 
L 297.491057 281.486915 
L 299.560112 282.148308 
L 302.663693 282.860682 
L 306.801803 283.557146 
L 313.008966 284.352464 
L 316.112548 284.4 
L 334.73404 284.290175 
L 339.906676 284.200829 
L 346.11384 284.318216 
L 351.286476 284.4 
L 374.046077 284.374995 
L 374.046077 284.374995 
" style="fill:none;stroke:#0173b2;stroke-linecap:square;stroke-width:4;"/>
   </g>
   <g id="line2d_2">
    <path clip-path="url(#p4b01c5ab13)" d="M 117.495489 283.988363 
L 121.555187 284.23582 
L 123.585036 284.4 
L 145.913374 284.379484 
L 150.987997 283.923091 
L 154.03277 283.838227 
L 157.077544 283.937558 
L 164.182015 284.4 
L 182.450656 284.4 
L 188.540203 283.066695 
L 194.629749 281.607782 
L 196.659598 280.978819 
L 198.689447 280.161272 
L 200.719296 279.047472 
L 202.749145 277.508104 
L 203.76407 276.533787 
L 204.778994 275.397613 
L 205.793919 274.080095 
L 206.808843 272.561783 
L 207.823768 270.823593 
L 208.838692 268.847158 
L 209.853617 266.615179 
L 211.883466 261.322926 
L 213.913315 254.843563 
L 215.943164 247.113448 
L 217.973013 238.118253 
L 220.002862 227.900556 
L 222.032711 216.564681 
L 225.077484 197.847834 
L 230.152106 164.272025 
L 233.19688 144.544095 
L 235.226729 132.351839 
L 237.256578 121.369659 
L 239.286427 111.950522 
L 240.301351 107.926336 
L 241.316276 104.405357 
L 242.3312 101.417372 
L 243.346125 98.987773 
L 244.361049 97.137232 
L 245.375974 95.881449 
L 246.390898 95.230952 
L 247.405823 95.190964 
L 248.420747 95.761346 
L 249.435672 96.936604 
L 250.450596 98.705958 
L 251.465521 101.053494 
L 252.480445 103.958368 
L 253.495369 107.395077 
L 254.510294 111.333789 
L 256.540143 120.578576 
L 258.569992 131.383063 
L 260.599841 143.396933 
L 263.644614 162.865051 
L 269.734161 202.449926 
L 272.778935 220.415239 
L 274.808784 231.174905 
L 276.838633 240.796666 
L 278.868482 249.208558 
L 280.898331 256.396213 
L 282.928179 262.396514 
L 284.958028 267.288979 
L 286.987877 271.185605 
L 289.017726 274.219957 
L 291.047575 276.536275 
L 293.077424 278.279325 
L 295.107273 279.585598 
L 297.137122 280.57633 
L 300.181896 281.685751 
L 304.241594 282.812194 
L 309.316216 283.984431 
L 311.346065 284.383841 
L 318.450536 284.4 
L 331.644555 284.32512 
L 335.704253 284.013773 
L 339.76395 283.963621 
L 343.823648 284.187071 
L 346.868422 284.4 
L 369.19676 284.350548 
L 374.271383 283.998354 
L 377.316156 283.965026 
L 377.316156 283.965026 
" style="fill:none;stroke:#de8f05;stroke-linecap:square;stroke-width:4;"/>
   </g>
   <g id="line2d_3">
    <path clip-path="url(#p4b01c5ab13)" d="M 111.551728 284.026814 
L 121.24623 284.4 
L 140.635236 284.395473 
L 146.021071 283.953669 
L 149.252572 283.874234 
L 152.484072 283.973443 
L 160.024241 284.4 
L 180.490414 284.29925 
L 193.416417 282.133167 
L 195.570751 281.555493 
L 197.725085 280.724624 
L 199.879419 279.514113 
L 200.956586 278.721741 
L 202.033753 277.779025 
L 203.11092 276.666129 
L 204.188087 275.36307 
L 205.265254 273.85004 
L 206.342421 272.107754 
L 207.419588 270.117808 
L 208.496755 267.863052 
L 209.573922 265.327957 
L 211.728256 259.364946 
L 213.88259 252.150652 
L 216.036924 243.654753 
L 218.191257 233.903191 
L 220.345591 222.983988 
L 222.499925 211.049815 
L 225.731426 191.734753 
L 233.271595 145.570534 
L 235.425929 133.769921 
L 237.580263 123.290516 
L 239.734597 114.481706 
L 240.811764 110.8004 
L 241.888931 107.645373 
L 242.966098 105.044445 
L 244.043265 103.020734 
L 245.120432 101.592349 
L 246.197599 100.772158 
L 247.274766 100.567623 
L 248.351933 100.980697 
L 249.4291 102.007801 
L 250.506267 103.639869 
L 251.583433 105.862461 
L 252.6606 108.655955 
L 253.737767 111.995792 
L 254.814934 115.852796 
L 256.969268 124.980784 
L 259.123602 135.729498 
L 261.277936 147.743201 
L 264.509437 167.293282 
L 270.972439 207.155513 
L 273.126773 219.418097 
L 275.281107 230.725088 
L 277.435441 240.900234 
L 279.589775 249.832346 
L 281.744109 257.474048 
L 283.898443 263.837088 
L 286.052776 268.984738 
L 287.129943 271.134271 
L 288.20711 273.021979 
L 289.284277 274.665655 
L 290.361444 276.084255 
L 291.438611 277.297526 
L 292.515778 278.325649 
L 293.592945 279.188892 
L 295.747279 280.500339 
L 297.901613 281.384159 
L 300.055947 281.976326 
L 303.287448 282.559876 
L 316.213452 284.4 
L 337.756791 284.348963 
L 342.065459 284.003226 
L 345.29696 283.919614 
L 349.605628 284.070869 
L 354.991462 284.4 
L 377.611969 284.374686 
L 382.997804 284.008812 
L 387.306471 283.988843 
L 387.306471 283.988843 
" style="fill:none;stroke:#029e73;stroke-linecap:square;stroke-width:4;"/>
   </g>
   <g id="line2d_4">
    <path clip-path="url(#p4b01c5ab13)" d="M 114.126291 284.4 
L 123.589357 284.29211 
L 129.898068 284.301553 
L 138.309683 284.4 
L 155.132912 284.304253 
L 161.441623 284.179429 
L 166.698882 284.327099 
L 169.853238 284.4 
L 183.522111 284.4 
L 186.676467 283.928747 
L 189.830822 283.234137 
L 192.985178 282.275778 
L 195.088081 281.444527 
L 197.190985 280.403378 
L 199.293889 279.081533 
L 201.396792 277.386522 
L 203.499696 275.205332 
L 205.6026 272.408123 
L 207.705503 268.854668 
L 209.808407 264.403325 
L 211.911311 258.922113 
L 214.014214 252.301187 
L 216.117118 244.465775 
L 218.220022 235.388519 
L 220.322925 225.100081 
L 222.425829 213.696926 
L 225.580184 194.884974 
L 235.043251 135.614996 
L 237.146154 124.32883 
L 239.249058 114.602862 
L 240.30051 110.437204 
L 241.351962 106.789187 
L 242.403414 103.692924 
L 243.454865 101.177569 
L 244.506317 99.266896 
L 245.557769 97.978962 
L 246.609221 97.325846 
L 247.660673 97.313481 
L 248.712124 97.941583 
L 249.763576 99.203661 
L 250.815028 101.087127 
L 251.86648 103.573498 
L 252.917932 106.638673 
L 253.969384 110.253306 
L 255.020835 114.383235 
L 257.123739 124.031355 
L 259.226643 135.233921 
L 261.329546 147.601843 
L 265.535354 174.204131 
L 269.741161 200.716039 
L 272.895516 218.984497 
L 274.99842 229.960609 
L 277.101324 239.809061 
L 279.204227 248.460429 
L 281.307131 255.903637 
L 283.410035 262.177375 
L 285.512938 267.359632 
L 287.615842 271.556324 
L 289.718746 274.890013 
L 291.821649 277.489543 
L 293.924553 279.481257 
L 296.027457 280.982244 
L 298.13036 282.095783 
L 300.233264 282.908979 
L 302.336168 283.492326 
L 305.490523 284.053015 
L 308.644878 284.349841 
L 311.799234 284.4 
L 322.313752 284.303492 
L 329.673915 284.254389 
L 345.445692 284.4 
L 361.21747 284.289331 
L 367.526181 284.343302 
L 373.834892 284.4 
L 383.297958 284.4 
L 383.297958 284.4 
" style="fill:none;stroke:#d55e00;stroke-linecap:square;stroke-width:4;"/>
   </g>
   <g id="line2d_5">
    <path clip-path="url(#p4b01c5ab13)" d="M 102.574313 284.4 
L 117.117939 284.294913 
L 122.711641 284.226216 
L 142.84897 284.4 
L 151.798894 284.2978 
L 157.392596 284.156819 
L 161.867558 284.257007 
L 166.34252 284.4 
L 182.004886 284.371904 
L 186.479848 283.74963 
L 190.95481 282.919174 
L 194.311032 282.085784 
L 196.548513 281.333311 
L 198.785994 280.315683 
L 201.023475 278.904994 
L 202.142215 278.004252 
L 203.260956 276.944556 
L 204.379696 275.702938 
L 205.498437 274.25569 
L 206.617177 272.578786 
L 207.735917 270.648336 
L 208.854658 268.441099 
L 209.973398 265.93501 
L 211.092139 263.109741 
L 212.210879 259.947262 
L 214.44836 252.553414 
L 216.685841 243.676121 
L 218.923322 233.308137 
L 221.160803 221.524711 
L 223.398284 208.491164 
L 226.754506 187.183164 
L 233.466948 143.142347 
L 235.704429 129.808711 
L 237.94191 117.997368 
L 239.060651 112.811842 
L 240.179391 108.17879 
L 241.298132 104.146481 
L 242.416872 100.757458 
L 243.535613 98.047866 
L 244.654353 96.046876 
L 245.773094 94.77622 
L 246.891834 94.249837 
L 248.010575 94.473654 
L 249.129315 95.445479 
L 250.248056 97.155042 
L 251.366796 99.58415 
L 252.485537 102.706981 
L 253.604277 106.49049 
L 254.723018 110.894935 
L 255.841758 115.874498 
L 258.079239 127.349705 
L 260.31672 140.457066 
L 263.672941 162.071158 
L 269.266644 199.072701 
L 271.504125 212.895871 
L 273.741606 225.632211 
L 275.979087 237.048087 
L 278.216568 247.002571 
L 280.454049 255.444193 
L 282.69153 262.401954 
L 283.81027 265.352196 
L 284.92901 267.971808 
L 286.047751 270.280525 
L 287.166491 272.300107 
L 288.285232 274.053769 
L 289.403972 275.565628 
L 290.522713 276.860179 
L 291.641453 277.961795 
L 292.760194 278.89429 
L 294.997675 280.342015 
L 297.235156 281.368958 
L 299.472637 282.112502 
L 302.828858 282.917686 
L 307.30382 283.718316 
L 311.778782 284.343993 
L 314.016263 284.4 
L 331.916111 284.291791 
L 336.391072 284.150728 
L 340.866034 284.209972 
L 348.697218 284.4 
L 368.834546 284.291874 
L 374.428249 284.225175 
L 388.971875 284.4 
L 388.971875 284.4 
" style="fill:none;stroke:#cc78bc;stroke-linecap:square;stroke-width:4;"/>
   </g>
   <g id="line2d_6">
    <path clip-path="url(#p4b01c5ab13)" d="M 96.929987 284.292185 
L 102.725083 284.323307 
L 109.679199 284.4 
L 128.223507 284.31258 
L 134.018603 284.249482 
L 151.403892 284.4 
L 160.676046 284.30752 
L 166.471142 284.102881 
L 171.107219 284.175347 
L 178.061335 284.4 
L 187.333489 284.4 
L 189.651528 284.062265 
L 191.969566 283.45865 
L 194.287605 282.596343 
L 196.605643 281.421544 
L 198.923682 279.864066 
L 201.24172 277.832741 
L 202.400739 276.6045 
L 203.559759 275.213003 
L 204.718778 273.640428 
L 205.877797 271.867842 
L 207.036817 269.875468 
L 208.195836 267.643042 
L 209.354855 265.150227 
L 210.513874 262.3771 
L 211.672894 259.304703 
L 213.990932 252.194656 
L 216.308971 243.710909 
L 218.627009 233.799776 
L 220.945048 222.482397 
L 223.263086 209.870555 
L 225.581125 196.176659 
L 230.217202 166.899764 
L 233.69426 145.099251 
L 236.012298 131.65481 
L 238.330337 119.7428 
L 239.489356 114.530564 
L 240.648375 109.896861 
L 241.807394 105.897004 
L 242.966414 102.579683 
L 244.125433 99.986029 
L 245.284452 98.14882 
L 246.443471 97.091832 
L 247.602491 96.829365 
L 248.76151 97.365938 
L 249.920529 98.696183 
L 251.079548 100.804922 
L 252.238568 103.667442 
L 253.397587 107.249941 
L 254.556606 111.510161 
L 255.715625 116.398165 
L 258.033664 127.825058 
L 260.351702 141.015395 
L 263.82876 162.85743 
L 269.623857 200.034157 
L 271.941895 213.754829 
L 274.259934 226.284877 
L 276.577972 237.414941 
L 278.896011 247.042811 
L 281.214049 255.163168 
L 283.532088 261.850799 
L 284.691107 264.697516 
L 285.850126 267.239692 
L 287.009145 269.499634 
L 288.168165 271.500575 
L 289.327184 273.266058 
L 290.486203 274.819377 
L 292.804242 277.378641 
L 295.12228 279.343368 
L 297.440319 280.852034 
L 299.758357 282.012827 
L 302.076396 282.904491 
L 304.394434 283.580688 
L 306.712473 284.076521 
L 309.030511 284.4 
L 324.097762 284.310617 
L 328.733839 284.175319 
L 333.369916 284.236325 
L 340.324031 284.4 
L 360.027359 284.304695 
L 365.822455 284.285179 
L 376.253628 284.4 
L 393.638917 284.311461 
L 393.638917 284.311461 
" style="fill:none;stroke:#ca9161;stroke-linecap:square;stroke-width:4;"/>
   </g>
   <g id="line2d_7">
    <path clip-path="url(#p4b01c5ab13)" d="M 102.299213 284.4 
L 114.488457 284.344944 
L 118.920909 284.107714 
L 123.353361 284.10562 
L 134.434491 284.4 
L 151.056187 284.30454 
L 155.488639 284.00982 
L 158.812978 283.971302 
L 162.137317 284.118367 
L 166.56977 284.4 
L 183.191465 284.4 
L 185.407691 284.032789 
L 189.840143 282.968493 
L 194.272595 281.680488 
L 196.488822 280.885982 
L 198.705048 279.893662 
L 200.921274 278.58526 
L 202.029387 277.76593 
L 203.1375 276.807765 
L 204.245613 275.687236 
L 205.353726 274.379663 
L 206.461839 272.859653 
L 207.569952 271.101585 
L 208.678065 269.080147 
L 209.786178 266.770915 
L 210.894291 264.15095 
L 212.002404 261.19942 
L 213.110517 257.898216 
L 215.326743 250.191588 
L 217.542969 240.96293 
L 219.759195 230.22243 
L 221.975421 218.070362 
L 224.191647 204.703065 
L 227.515987 183.035622 
L 233.056552 146.123252 
L 235.272778 132.532016 
L 237.489004 120.391585 
L 239.70523 110.184265 
L 240.813343 105.93891 
L 241.921456 102.326269 
L 243.029569 99.383797 
L 244.137682 97.141884 
L 245.245795 95.623377 
L 246.353908 94.84323 
L 247.462021 94.808286 
L 248.570134 95.517187 
L 249.678247 96.960422 
L 250.78636 99.120508 
L 251.894473 101.972305 
L 253.002586 105.483447 
L 254.110699 109.61489 
L 255.218813 114.321567 
L 257.435039 125.254729 
L 259.651265 137.831698 
L 262.975604 158.694093 
L 269.624282 201.543904 
L 271.840508 214.615721 
L 274.056734 226.571451 
L 276.27296 237.234198 
L 278.489186 246.514432 
L 280.705412 254.40266 
L 282.921638 260.957331 
L 285.137865 266.289461 
L 287.354091 270.545597 
L 289.570317 273.890757 
L 291.786543 276.492804 
L 294.002769 278.509426 
L 296.218995 280.078539 
L 298.435221 281.312476 
L 300.651447 282.295934 
L 302.867673 283.087263 
L 306.192012 283.987799 
L 308.408238 284.4 
L 326.138047 284.315367 
L 330.570499 284.076716 
L 335.002951 284.098345 
L 343.867856 284.4 
L 362.705777 284.341316 
L 367.138229 284.120498 
L 371.570682 284.131585 
L 381.543699 284.4 
L 385.976151 284.4 
L 385.976151 284.4 
" style="fill:none;stroke:#fbafe4;stroke-linecap:square;stroke-width:4;"/>
   </g>
   <g id="line2d_8">
    <path clip-path="url(#p4b01c5ab13)" d="M 119.060608 284.053418 
L 123.114803 284.291824 
L 125.141901 284.4 
L 147.439974 284.318557 
L 152.507718 283.994745 
L 156.561913 284.006913 
L 160.616108 284.276843 
L 162.643206 284.4 
L 180.887084 284.4 
L 182.914182 284.088016 
L 193.049669 282.043009 
L 196.090316 281.276134 
L 198.117413 280.580607 
L 200.144511 279.625204 
L 202.171608 278.288168 
L 203.185157 277.433438 
L 204.198706 276.429886 
L 205.212255 275.258364 
L 206.225804 273.899545 
L 207.239352 272.334236 
L 208.252901 270.543705 
L 209.26645 268.510016 
L 210.279999 266.216389 
L 212.307096 260.790084 
L 214.334194 254.166954 
L 216.361291 246.289511 
L 218.388389 237.149931 
L 220.415487 226.797278 
L 222.442584 215.341975 
L 225.483231 196.486618 
L 235.618718 130.996299 
L 237.645816 120.102452 
L 239.672913 110.795296 
L 240.686462 106.834753 
L 241.700011 103.381812 
L 242.71356 100.465712 
L 243.727109 98.111285 
L 244.740657 96.338647 
L 245.754206 95.162946 
L 246.767755 94.59417 
L 247.781304 94.637024 
L 248.794853 95.290872 
L 249.808401 96.549749 
L 250.82195 98.402439 
L 251.835499 100.832621 
L 252.849048 103.819078 
L 253.862596 107.335973 
L 254.876145 111.353169 
L 256.903243 120.748781 
L 258.93034 131.694473 
L 260.957438 143.838593 
L 263.998084 163.479455 
L 270.079377 203.320329 
L 273.120023 221.365396 
L 275.147121 232.159266 
L 277.174219 241.799589 
L 279.201316 250.214161 
L 281.228414 257.388606 
L 283.255511 263.360127 
L 285.282609 268.208971 
L 287.309706 272.048333 
L 289.336804 275.013478 
L 291.363902 277.250831 
L 293.390999 278.907781 
L 295.418097 280.123781 
L 297.445194 281.023235 
L 300.485841 282.000847 
L 304.540036 282.976348 
L 310.621328 284.213697 
L 311.634877 284.394667 
L 330.892304 284.4 
L 332.919402 284.280405 
L 336.973597 283.993874 
L 341.027792 283.966599 
L 345.081987 284.195777 
L 348.122633 284.4 
L 370.420707 284.324749 
L 375.488451 284.035106 
L 378.529097 284.026079 
L 378.529097 284.026079 
" style="fill:none;stroke:#949494;stroke-linecap:square;stroke-width:4;"/>
   </g>
   <g id="line2d_9">
    <path clip-path="url(#p4b01c5ab13)" d="M 104.336901 284.087984 
L 108.721174 284.116164 
L 118.585789 284.4 
L 138.31502 284.340803 
L 143.795362 284.011624 
L 148.179635 283.99947 
L 152.563908 284.243579 
L 154.756045 284.4 
L 176.677412 284.350633 
L 184.349891 283.335191 
L 193.118438 282.391915 
L 195.310574 281.911225 
L 197.502711 281.137658 
L 198.598779 280.598553 
L 199.694848 279.932999 
L 200.790916 279.121306 
L 201.886985 278.143286 
L 202.983053 276.97855 
L 204.079121 275.606835 
L 205.17519 274.008335 
L 206.271258 272.164068 
L 207.367326 270.056234 
L 208.463395 267.668589 
L 209.559463 264.98681 
L 211.7516 258.695284 
L 213.943736 251.118606 
L 216.135873 242.245122 
L 218.32801 232.122045 
L 220.520147 220.860066 
L 223.808352 202.232521 
L 229.288693 168.823974 
L 232.576899 149.25818 
L 234.769035 137.216676 
L 236.961172 126.426421 
L 239.153309 117.244214 
L 240.249377 113.355942 
L 241.345445 109.982507 
L 242.441514 107.153493 
L 243.537582 104.893921 
L 244.63365 103.223935 
L 245.729719 102.158535 
L 246.825787 101.707392 
L 247.921856 101.87472 
L 249.017924 102.659217 
L 250.113992 104.054088 
L 251.210061 106.047125 
L 252.306129 108.620865 
L 253.402197 111.752812 
L 254.498266 115.415723 
L 255.594334 119.577951 
L 257.786471 129.254192 
L 259.978607 140.456571 
L 262.170744 152.819487 
L 266.555018 179.467559 
L 270.939291 206.135901 
L 274.227496 224.548003 
L 276.419633 235.590616 
L 278.61177 245.449736 
L 280.803906 254.02882 
L 282.996043 261.294362 
L 285.18818 267.270614 
L 286.284248 269.796704 
L 287.380316 272.031581 
L 288.476385 273.99062 
L 289.572453 275.690973 
L 290.668521 277.151204 
L 291.76459 278.390916 
L 292.860658 279.430391 
L 293.956727 280.290234 
L 295.052795 280.991041 
L 297.244932 281.996039 
L 299.437068 282.598761 
L 301.629205 282.935435 
L 304.91741 283.183167 
L 311.49382 283.598412 
L 316.974162 284.210486 
L 319.166299 284.4 
L 341.087666 284.315643 
L 345.471939 284.076763 
L 349.856213 284.067093 
L 354.240486 284.277499 
L 357.528691 284.4 
L 380.546127 284.333835 
L 384.9304 284.114793 
L 384.9304 284.114793 
" style="fill:none;stroke:#ece133;stroke-linecap:square;stroke-width:4;"/>
   </g>
   <g id="line2d_10">
    <path clip-path="url(#p4b01c5ab13)" d="M 97.2 284.4 
L 100.227273 284.4 
L 103.254545 284.4 
L 106.281818 284.4 
L 109.309091 284.4 
L 112.336364 284.4 
L 115.363636 284.4 
L 118.390909 284.4 
L 121.418182 284.4 
L 124.445455 284.4 
L 127.472727 284.4 
L 130.5 284.4 
L 133.527273 284.4 
L 136.554545 284.399999 
L 139.581818 284.399998 
L 142.609091 284.399995 
L 145.636364 284.399987 
L 148.663636 284.399966 
L 151.690909 284.399912 
L 154.718182 284.399782 
L 157.745455 284.399474 
L 160.772727 284.398767 
L 163.8 284.397192 
L 166.827273 284.393792 
L 169.854545 284.386673 
L 172.881818 284.372217 
L 175.909091 284.343758 
L 178.936364 284.289445 
L 181.963636 284.188974 
L 184.990909 284.008862 
L 188.018182 283.696016 
L 191.045455 283.169635 
L 194.072727 282.311937 
L 197.1 280.958947 
L 200.127273 278.893476 
L 203.154545 275.843382 
L 206.181818 271.488846 
L 209.209091 265.482386 
L 212.236364 257.48428 
L 215.263636 247.21361 
L 218.290909 234.511506 
L 221.318182 219.408713 
L 224.345455 202.185534 
L 227.372727 183.409691 
L 230.4 163.93815 
L 233.427273 144.873174 
L 236.454545 127.470617 
L 239.481818 113.00854 
L 242.509091 102.634082 
L 245.536364 97.213686 
L 248.563636 97.213686 
L 251.590909 102.634082 
L 254.618182 113.00854 
L 257.645455 127.470617 
L 260.672727 144.873174 
L 263.7 163.93815 
L 266.727273 183.409691 
L 269.754545 202.185534 
L 272.781818 219.408713 
L 275.809091 234.511506 
L 278.836364 247.21361 
L 281.863636 257.48428 
L 284.890909 265.482386 
L 287.918182 271.488846 
L 290.945455 275.843382 
L 293.972727 278.893476 
L 297 280.958947 
L 300.027273 282.311937 
L 303.054545 283.169635 
L 306.081818 283.696016 
L 309.109091 284.008862 
L 312.136364 284.188974 
L 315.163636 284.289445 
L 318.190909 284.343758 
L 321.218182 284.372217 
L 324.245455 284.386673 
L 327.272727 284.393792 
L 330.3 284.397192 
L 333.327273 284.398767 
L 336.354545 284.399474 
L 339.381818 284.399782 
L 342.409091 284.399912 
L 345.436364 284.399966 
L 348.463636 284.399987 
L 351.490909 284.399995 
L 354.518182 284.399998 
L 357.545455 284.399999 
L 360.572727 284.4 
L 363.6 284.4 
L 366.627273 284.4 
L 369.654545 284.4 
L 372.681818 284.4 
L 375.709091 284.4 
L 378.736364 284.4 
L 381.763636 284.4 
L 384.790909 284.4 
L 387.818182 284.4 
L 390.845455 284.4 
L 393.872727 284.4 
L 396.9 284.4 
" style="fill:none;stroke:#000000;stroke-dasharray:6,6;stroke-dashoffset:0;stroke-width:4;"/>
   </g>
   <g id="patch_3">
    <path d="M 97.2 284.4 
L 97.2 18 
" style="fill:none;stroke:#000000;stroke-linecap:square;stroke-linejoin:miter;"/>
   </g>
   <g id="patch_4">
    <path d="M 396.9 284.4 
L 396.9 18 
" style="fill:none;stroke:#000000;stroke-linecap:square;stroke-linejoin:miter;"/>
   </g>
   <g id="patch_5">
    <path d="M 97.2 284.4 
L 396.9 284.4 
" style="fill:none;stroke:#000000;stroke-linecap:square;stroke-linejoin:miter;"/>
   </g>
   <g id="patch_6">
    <path d="M 97.2 18 
L 396.9 18 
" style="fill:none;stroke:#000000;stroke-linecap:square;stroke-linejoin:miter;"/>
   </g>
   <g id="matplotlib.axis_1">
    <g id="xtick_1">
     <g id="line2d_11">
      <defs>
       <path d="M 0 0 
L 0 -10 
" id="ma6594732b5" style="stroke:#000000;stroke-width:0.5;"/>
      </defs>
      <g>
       <use style="stroke:#000000;stroke-width:0.5;" x="97.2" xlink:href="#ma6594732b5" y="284.4"/>
      </g>
     </g>
     <g id="line2d_12">
      <defs>
       <path d="M 0 0 
L 0 10 
" id="mbce7302a3c" style="stroke:#000000;stroke-width:0.5;"/>
      </defs>
      <g>
       <use style="stroke:#000000;stroke-width:0.5;" x="97.2" xlink:href="#mbce7302a3c" y="18"/>
      </g>
     </g>
     <g id="text_1">
      <!-- $-6$ -->
      <defs>
       <path d="M 65.90625 23 
C 67.59375 23 69.40625 23 69.40625 25 
C 69.40625 27 67.59375 27 65.90625 27 
L 11.796875 27 
C 10.09375 27 8.296875 27 8.296875 25 
C 8.296875 23 10.09375 23 11.796875 23 
z
" id="CMSY10-0"/>
       <path d="M 10.59375 34 
C 10.59375 57.65625 21.796875 63 28.296875 63 
C 30.40625 63 35.5 62.640625 37.5 59 
C 35.90625 59 32.90625 59 32.90625 55.515625 
C 32.90625 52.828125 35.09375 51.921875 36.5 51.921875 
C 37.40625 51.921875 40.09375 52.3125 40.09375 55.625 
C 40.09375 61.78125 35.09375 65.296875 28.203125 65.296875 
C 16.296875 65.296875 3.796875 52.96875 3.796875 31 
C 3.796875 3.953125 15.09375 -2 23.09375 -2 
C 32.796875 -2 42 6.671875 42 20.046875 
C 42 32.515625 33.90625 41.59375 23.703125 41.59375 
C 17.59375 41.59375 13.09375 37.609375 10.59375 30.625 
z
M 23.09375 0.390625 
C 10.796875 0.390625 10.796875 18.75 10.796875 22.4375 
C 10.796875 29.625 14.203125 40 23.5 40 
C 25.203125 40 30.09375 40 33.40625 33.125 
C 35.203125 29.21875 35.203125 25.140625 35.203125 20.140625 
C 35.203125 14.75 35.203125 10.78125 33.09375 6.78125 
C 30.90625 2.671875 27.703125 0.390625 23.09375 0.390625 
z
" id="CMR17-54"/>
      </defs>
      <g transform="translate(75.643865 313.244121)scale(0.35 -0.35)">
       <use transform="scale(0.996264)" xlink:href="#CMSY10-0"/>
       <use transform="translate(77.487468 0)scale(0.996264)" xlink:href="#CMR17-54"/>
      </g>
     </g>
    </g>
    <g id="xtick_2">
     <g id="line2d_13">
      <g>
       <use style="stroke:#000000;stroke-width:0.5;" x="147.15" xlink:href="#ma6594732b5" y="284.4"/>
      </g>
     </g>
     <g id="line2d_14">
      <g>
       <use style="stroke:#000000;stroke-width:0.5;" x="147.15" xlink:href="#mbce7302a3c" y="18"/>
      </g>
     </g>
     <g id="text_2">
      <!-- $-4$ -->
      <defs>
       <path d="M 33.59375 64.40625 
C 33.59375 66.5 33.5 66.5 31.703125 66.5 
L 2 19.59375 
L 2 17 
L 27.796875 17 
L 27.796875 7.140625 
C 27.796875 3.5 27.59375 2.5 20.59375 2.5 
L 18.703125 2.5 
L 18.703125 0 
C 21.90625 0 27.296875 0 30.703125 0 
C 34.09375 0 39.5 0 42.703125 0 
L 42.703125 2.5 
L 40.796875 2.5 
C 33.796875 2.5 33.59375 3.5 33.59375 7.140625 
L 33.59375 17 
L 43.796875 17 
L 43.796875 19.59375 
L 33.59375 19.59375 
z
M 28.09375 57.859375 
L 28.09375 19.59375 
L 4 19.59375 
z
" id="CMR17-52"/>
      </defs>
      <g transform="translate(125.593865 313.244121)scale(0.35 -0.35)">
       <use transform="scale(0.996264)" xlink:href="#CMSY10-0"/>
       <use transform="translate(77.487468 0)scale(0.996264)" xlink:href="#CMR17-52"/>
      </g>
     </g>
    </g>
    <g id="xtick_3">
     <g id="line2d_15">
      <g>
       <use style="stroke:#000000;stroke-width:0.5;" x="197.1" xlink:href="#ma6594732b5" y="284.4"/>
      </g>
     </g>
     <g id="line2d_16">
      <g>
       <use style="stroke:#000000;stroke-width:0.5;" x="197.1" xlink:href="#mbce7302a3c" y="18"/>
      </g>
     </g>
     <g id="text_3">
      <!-- $-2$ -->
      <defs>
       <path d="M 41.703125 15.453125 
L 39.90625 15.453125 
C 38.90625 8.375 38.09375 7.171875 37.703125 6.5625 
C 37.203125 5.765625 30 5.765625 28.59375 5.765625 
L 9.40625 5.765625 
C 13 9.671875 20 16.75 28.5 24.953125 
C 34.59375 30.734375 41.703125 37.53125 41.703125 47.421875 
C 41.703125 59.21875 32.296875 66 21.796875 66 
C 10.796875 66 4.09375 56.3125 4.09375 47.34375 
C 4.09375 43.4375 7 42.9375 8.203125 42.9375 
C 9.203125 42.9375 12.203125 43.546875 12.203125 47.03125 
C 12.203125 50.109375 9.59375 51 8.203125 51 
C 7.59375 51 7 50.90625 6.59375 50.703125 
C 8.5 59.21875 14.296875 63.40625 20.40625 63.40625 
C 29.09375 63.40625 34.796875 56.515625 34.796875 47.421875 
C 34.796875 38.734375 29.703125 31.25 24 24.75 
L 4.09375 2.28125 
L 4.09375 0 
L 39.296875 0 
z
" id="CMR17-50"/>
      </defs>
      <g transform="translate(175.543865 313.244121)scale(0.35 -0.35)">
       <use transform="scale(0.996264)" xlink:href="#CMSY10-0"/>
       <use transform="translate(77.487468 0)scale(0.996264)" xlink:href="#CMR17-50"/>
      </g>
     </g>
    </g>
    <g id="xtick_4">
     <g id="line2d_17">
      <g>
       <use style="stroke:#000000;stroke-width:0.5;" x="247.05" xlink:href="#ma6594732b5" y="284.4"/>
      </g>
     </g>
     <g id="line2d_18">
      <g>
       <use style="stroke:#000000;stroke-width:0.5;" x="247.05" xlink:href="#mbce7302a3c" y="18"/>
      </g>
     </g>
     <g id="text_4">
      <!-- $0$ -->
      <defs>
       <path d="M 42 31.640625 
C 42 37.75 41.90625 48.125 37.703125 56.109375 
C 34 63.109375 28.09375 65.59375 22.90625 65.59375 
C 18.09375 65.59375 12 63.40625 8.203125 56.203125 
C 4.203125 48.71875 3.796875 39.4375 3.796875 31.640625 
C 3.796875 25.953125 3.90625 17.28125 7 9.671875 
C 11.296875 -0.609375 19 -2 22.90625 -2 
C 27.5 -2 34.5 -0.109375 38.59375 9.375 
C 41.59375 16.28125 42 24.359375 42 31.640625 
z
M 22.90625 -0.40625 
C 16.5 -0.40625 12.703125 5.078125 11.296875 12.6875 
C 10.203125 18.5625 10.203125 27.15625 10.203125 32.75 
C 10.203125 40.4375 10.203125 46.828125 11.5 52.921875 
C 13.40625 61.390625 19 64 22.90625 64 
C 27 64 32.296875 61.296875 34.203125 53.125 
C 35.5 47.4375 35.59375 40.734375 35.59375 32.75 
C 35.59375 26.25 35.59375 18.265625 34.40625 12.375 
C 32.296875 1.484375 26.40625 -0.40625 22.90625 -0.40625 
z
" id="CMR17-48"/>
      </defs>
      <g transform="translate(239.054167 313.244121)scale(0.35 -0.35)">
       <use transform="scale(0.996264)" xlink:href="#CMR17-48"/>
      </g>
     </g>
    </g>
    <g id="xtick_5">
     <g id="line2d_19">
      <g>
       <use style="stroke:#000000;stroke-width:0.5;" x="297" xlink:href="#ma6594732b5" y="284.4"/>
      </g>
     </g>
     <g id="line2d_20">
      <g>
       <use style="stroke:#000000;stroke-width:0.5;" x="297" xlink:href="#mbce7302a3c" y="18"/>
      </g>
     </g>
     <g id="text_5">
      <!-- $2$ -->
      <g transform="translate(289.004167 313.244121)scale(0.35 -0.35)">
       <use transform="scale(0.996264)" xlink:href="#CMR17-50"/>
      </g>
     </g>
    </g>
    <g id="xtick_6">
     <g id="line2d_21">
      <g>
       <use style="stroke:#000000;stroke-width:0.5;" x="346.95" xlink:href="#ma6594732b5" y="284.4"/>
      </g>
     </g>
     <g id="line2d_22">
      <g>
       <use style="stroke:#000000;stroke-width:0.5;" x="346.95" xlink:href="#mbce7302a3c" y="18"/>
      </g>
     </g>
     <g id="text_6">
      <!-- $4$ -->
      <g transform="translate(338.954167 313.244121)scale(0.35 -0.35)">
       <use transform="scale(0.996264)" xlink:href="#CMR17-52"/>
      </g>
     </g>
    </g>
    <g id="xtick_7">
     <g id="line2d_23">
      <g>
       <use style="stroke:#000000;stroke-width:0.5;" x="396.9" xlink:href="#ma6594732b5" y="284.4"/>
      </g>
     </g>
     <g id="line2d_24">
      <g>
       <use style="stroke:#000000;stroke-width:0.5;" x="396.9" xlink:href="#mbce7302a3c" y="18"/>
      </g>
     </g>
     <g id="text_7">
      <!-- $6$ -->
      <g transform="translate(388.904167 313.244121)scale(0.35 -0.35)">
       <use transform="scale(0.996264)" xlink:href="#CMR17-54"/>
      </g>
     </g>
    </g>
    <g id="text_8">
     <!-- $p_x/\sqrt{2 D D_r}$ -->
     <defs>
      <path d="M 4.296875 -12.328125 
C 3.59375 -15.3125 3.203125 -16.109375 -0.90625 -16.109375 
C -2.09375 -16.109375 -3.09375 -16.109375 -3.09375 -18 
C -3.09375 -18.203125 -3 -19 -1.90625 -19 
C -0.59375 -19 0.796875 -19 2.09375 -19 
L 6.40625 -19 
C 8.5 -19 13.59375 -19 15.703125 -19 
C 16.296875 -19 17.5 -19 17.5 -17.203125 
C 17.5 -16.109375 16.796875 -16.109375 15.09375 -16.109375 
C 10.5 -16.109375 10.203125 -15.421875 10.203125 -14.640625 
C 10.203125 -13.453125 14.703125 3.421875 15.296875 5.6875 
C 16.40625 2.890625 19.09375 -1 24.296875 -1 
C 35.59375 -1 47.796875 13.671875 47.796875 28.34375 
C 47.796875 37.515625 42.59375 44 35.09375 44 
C 28.703125 44 23.296875 37.8125 22.203125 36.421875 
C 21.40625 41.40625 17.5 44 13.5 44 
C 10.59375 44 8.296875 42.609375 6.40625 38.8125 
C 4.59375 35.21875 3.203125 29.140625 3.203125 28.734375 
C 3.203125 28.34375 3.59375 27.84375 4.296875 27.84375 
C 5.09375 27.84375 5.203125 27.9375 5.796875 30.234375 
C 7.296875 36.125 9.203125 42.015625 13.203125 42.015625 
C 15.5 42.015625 16.296875 40.421875 16.296875 37.453125 
C 16.296875 35.078125 16 34.078125 15.59375 32.296875 
z
M 21.59375 31.140625 
C 22.296875 33.921875 25.09375 36.828125 26.703125 38.21875 
C 27.796875 39.21875 31.09375 42.015625 34.90625 42.015625 
C 39.296875 42.015625 41.296875 37.625 41.296875 32.4375 
C 41.296875 27.640625 38.5 16.359375 36 11.171875 
C 33.5 5.78125 28.90625 1 24.296875 1 
C 17.5 1 16.40625 9.578125 16.40625 9.984375 
C 16.40625 10.28125 16.59375 11.078125 16.703125 11.578125 
z
" id="CMMI12-112"/>
      <path d="M 47.40625 40.71875 
C 44.203125 40.109375 43 37.71875 43 35.828125 
C 43 33.421875 44.90625 32.625 46.296875 32.625 
C 49.296875 32.625 51.40625 35.21875 51.40625 37.921875 
C 51.40625 42.109375 46.59375 44 42.40625 44 
C 36.296875 44 32.90625 38.015625 32 36.125 
C 29.703125 44 23.5 44 21.703125 44 
C 11.5 44 6.09375 30.9375 6.09375 28.734375 
C 6.09375 28.34375 6.5 27.84375 7.203125 27.84375 
C 8 27.84375 8.203125 28.4375 8.40625 28.84375 
C 11.796875 39.921875 18.5 42.015625 21.40625 42.015625 
C 25.90625 42.015625 26.796875 37.8125 26.796875 35.421875 
C 26.796875 33.234375 26.203125 30.9375 25 26.140625 
L 21.59375 12.46875 
C 20.09375 6.484375 17.203125 1 11.90625 1 
C 11.40625 1 8.90625 1 6.796875 2.296875 
C 10.40625 3 11.203125 5.984375 11.203125 7.1875 
C 11.203125 9.1875 9.703125 10.375 7.796875 10.375 
C 5.40625 10.375 2.796875 8.28125 2.796875 5.09375 
C 2.796875 0.890625 7.5 -1 11.796875 -1 
C 16.59375 -1 20 2.796875 22.09375 6.890625 
C 23.703125 1 28.703125 -1 32.40625 -1 
C 42.59375 -1 48 12.078125 48 14.265625 
C 48 14.765625 47.59375 15.171875 47 15.171875 
C 46.09375 15.171875 46 14.671875 45.703125 13.875 
C 43 5.09375 37.203125 1 32.703125 1 
C 29.203125 1 27.296875 3.59375 27.296875 7.6875 
C 27.296875 9.875 27.703125 11.46875 29.296875 18.0625 
L 32.796875 31.625 
C 34.296875 37.625 37.703125 42.015625 42.296875 42.015625 
C 42.5 42.015625 45.296875 42.015625 47.40625 40.71875 
z
" id="CMMI12-120"/>
      <path d="M 42.90625 71.28125 
C 42.90625 71.390625 43.5 72.90625 43.5 73.09375 
C 43.5 74.296875 42.5 75 41.703125 75 
C 41.203125 75 40.296875 75 39.5 72.796875 
L 6 -21.296875 
C 6 -21.40625 5.40625 -22.890625 5.40625 -23.09375 
C 5.40625 -24.296875 6.40625 -25 7.203125 -25 
C 7.796875 -25 8.703125 -24.890625 9.40625 -22.796875 
z
" id="CMMI12-61"/>
      <path d="M 38.90625 -85.5 
L 21.296875 -46.59375 
C 20.59375 -45 20.09375 -45 19.796875 -45 
C 19.703125 -45 19.203125 -45 18.09375 -45.796875 
L 8.59375 -53 
C 7.296875 -54 7.296875 -54.296875 7.296875 -54.59375 
C 7.296875 -55.09375 7.59375 -55.703125 8.296875 -55.703125 
C 8.90625 -55.703125 10.59375 -54.296875 11.703125 -53.5 
C 12.296875 -53.015625 13.796875 -51.921875 14.90625 -51.109375 
L 34.59375 -94.40625 
C 35.296875 -96 35.796875 -96 36.703125 -96 
C 38.203125 -96 38.5 -95.40625 39.203125 -94 
L 84.59375 0 
C 85.296875 1.40625 85.296875 1.796875 85.296875 2 
C 85.296875 3 84.5 4 83.296875 4 
C 82.5 4 81.796875 3.5 81 1.90625 
z
" id="CMSY10-112"/>
      <path d="M 15.703125 7.375 
C 14.796875 3.890625 14.59375 2.890625 7.59375 2.890625 
C 5.703125 2.890625 4.703125 2.890625 4.703125 1.09375 
C 4.703125 0 5.296875 0 7.296875 0 
L 39 0 
C 59.203125 0 78.90625 20.8125 78.90625 43.015625 
C 78.90625 57.359375 70.296875 68 56 68 
L 23.90625 68 
C 22 68 21.09375 68 21.09375 66.109375 
C 21.09375 65.109375 22 65.109375 23.5 65.109375 
C 29.59375 65.109375 29.59375 64.3125 29.59375 63.21875 
C 29.59375 63.03125 29.59375 62.421875 29.203125 60.921875 
z
M 36.796875 61.421875 
C 37.703125 65.109375 38.09375 65.109375 42 65.109375 
L 53 65.109375 
C 62.40625 65.109375 71 60.03125 71 46.296875 
C 71 41.3125 69 24 59.296875 13.046875 
C 56.5 9.765625 48.90625 2.890625 37.40625 2.890625 
L 26 2.890625 
C 24.59375 2.890625 24.40625 2.890625 23.796875 3 
C 22.703125 3.09375 22.59375 3.296875 22.59375 4.09375 
C 22.59375 4.796875 22.796875 5.390625 23 6.28125 
z
" id="CMMI12-68"/>
      <path d="M 38.90625 40.8125 
C 35.796875 40.21875 34.203125 38.015625 34.203125 35.828125 
C 34.203125 33.421875 36.09375 32.625 37.5 32.625 
C 40.296875 32.625 42.59375 35.03125 42.59375 38.015625 
C 42.59375 41.21875 39.5 44 34.5 44 
C 30.5 44 25.90625 42.203125 21.703125 36.125 
C 21 41.40625 17 44 13 44 
C 9.09375 44 7.09375 41.015625 5.90625 38.8125 
C 4.203125 35.21875 2.703125 29.234375 2.703125 28.734375 
C 2.703125 28.34375 3.09375 27.84375 3.796875 27.84375 
C 4.59375 27.84375 4.703125 27.9375 5.296875 30.234375 
C 6.796875 36.21875 8.703125 42.015625 12.703125 42.015625 
C 15.09375 42.015625 15.796875 40.3125 15.796875 37.421875 
C 15.796875 35.21875 14.796875 31.328125 14.09375 28.234375 
L 11.296875 17.46875 
C 10.90625 15.5625 9.796875 11.078125 9.296875 9.28125 
C 8.59375 6.6875 7.5 2 7.5 1.5 
C 7.5 0.09375 8.59375 -1 10.09375 -1 
C 11.203125 -1 13.09375 -0.296875 13.703125 1.703125 
C 14 2.5 17.703125 17.5625 18.296875 19.859375 
C 18.796875 22.046875 19.40625 24.15625 19.90625 26.34375 
C 20.296875 27.734375 20.703125 29.34375 21 30.640625 
C 21.296875 31.53125 24 36.421875 26.5 38.625 
C 27.703125 39.71875 30.296875 42.015625 34.40625 42.015625 
C 36 42.015625 37.59375 41.71875 38.90625 40.8125 
z
" id="CMMI12-114"/>
     </defs>
     <g transform="translate(165.593681 355.011532)scale(0.35 -0.35)">
      <use transform="translate(0 14.943915)scale(0.996264)" xlink:href="#CMMI12-112"/>
      <use transform="translate(48.959514 0)scale(0.697382)" xlink:href="#CMMI12-120"/>
      <use transform="translate(88.261305 14.943915)scale(0.996264)" xlink:href="#CMMI12-61"/>
      <use transform="translate(137.036224 89.951348)scale(0.996264)" xlink:href="#CMSY10-112"/>
      <use transform="translate(220.058478 14.943915)scale(0.996264)" xlink:href="#CMR17-50"/>
      <use transform="translate(265.748955 14.943915)scale(0.996264)" xlink:href="#CMMI12-68"/>
      <use transform="translate(349.452903 14.943915)scale(0.996264)" xlink:href="#CMMI12-68"/>
      <use transform="translate(430.447133 0)scale(0.697382)" xlink:href="#CMMI12-114"/>
      <path d="M 220.058478 89.951348 
L 463.614534 89.951348 
L 463.614534 93.936298 
L 220.058478 93.936298 
L 220.058478 89.951348 
z
"/>
     </g>
    </g>
   </g>
   <g id="matplotlib.axis_2">
    <g id="ytick_1">
     <g id="line2d_25">
      <defs>
       <path d="M 0 0 
L 10 0 
" id="m7c8fb11d52" style="stroke:#000000;stroke-width:0.5;"/>
      </defs>
      <g>
       <use style="stroke:#000000;stroke-width:0.5;" x="97.2" xlink:href="#m7c8fb11d52" y="284.4"/>
      </g>
     </g>
     <g id="line2d_26">
      <defs>
       <path d="M 0 0 
L -10 0 
" id="m9204746ab6" style="stroke:#000000;stroke-width:0.5;"/>
      </defs>
      <g>
       <use style="stroke:#000000;stroke-width:0.5;" x="396.9" xlink:href="#m9204746ab6" y="284.4"/>
      </g>
     </g>
     <g id="text_9">
      <!-- $0.0$ -->
      <defs>
       <path d="M 18.40625 4.796875 
C 18.40625 7.6875 16 9.671875 13.59375 9.671875 
C 10.703125 9.671875 8.703125 7.28125 8.703125 4.890625 
C 8.703125 2 11.09375 0 13.5 0 
C 16.40625 0 18.40625 2.390625 18.40625 4.796875 
z
" id="CMMI12-58"/>
      </defs>
      <g transform="translate(51.732654 293.108584)scale(0.35 -0.35)">
       <use transform="scale(0.996264)" xlink:href="#CMR17-48"/>
       <use transform="translate(45.690477 0)scale(0.996264)" xlink:href="#CMMI12-58"/>
       <use transform="translate(72.787654 0)scale(0.996264)" xlink:href="#CMR17-48"/>
      </g>
     </g>
    </g>
    <g id="ytick_2">
     <g id="line2d_27">
      <g>
       <use style="stroke:#000000;stroke-width:0.5;" x="97.2" xlink:href="#m7c8fb11d52" y="251.1"/>
      </g>
     </g>
     <g id="line2d_28">
      <g>
       <use style="stroke:#000000;stroke-width:0.5;" x="396.9" xlink:href="#m9204746ab6" y="251.1"/>
      </g>
     </g>
     <g id="text_10">
      <!-- $0.1$ -->
      <defs>
       <path d="M 26.59375 63.40625 
C 26.59375 65.5 26.5 65.5 25.09375 65.5 
C 21.203125 61.1875 15.296875 59.796875 9.703125 59.796875 
C 9.40625 59.796875 8.90625 59.796875 8.796875 59.5 
C 8.703125 59.296875 8.703125 59.09375 8.703125 57 
C 11.796875 57 17 57.59375 21 59.984375 
L 21 7.203125 
C 21 3.6875 20.796875 2.5 12.203125 2.5 
L 9.203125 2.5 
L 9.203125 0 
C 14 0 19 0 23.796875 0 
C 28.59375 0 33.59375 0 38.40625 0 
L 38.40625 2.5 
L 35.40625 2.5 
C 26.796875 2.5 26.59375 3.59375 26.59375 7.15625 
z
" id="CMR17-49"/>
      </defs>
      <g transform="translate(51.732654 259.808584)scale(0.35 -0.35)">
       <use transform="scale(0.996264)" xlink:href="#CMR17-48"/>
       <use transform="translate(45.690477 0)scale(0.996264)" xlink:href="#CMMI12-58"/>
       <use transform="translate(72.787654 0)scale(0.996264)" xlink:href="#CMR17-49"/>
      </g>
     </g>
    </g>
    <g id="ytick_3">
     <g id="line2d_29">
      <g>
       <use style="stroke:#000000;stroke-width:0.5;" x="97.2" xlink:href="#m7c8fb11d52" y="217.8"/>
      </g>
     </g>
     <g id="line2d_30">
      <g>
       <use style="stroke:#000000;stroke-width:0.5;" x="396.9" xlink:href="#m9204746ab6" y="217.8"/>
      </g>
     </g>
     <g id="text_11">
      <!-- $0.2$ -->
      <g transform="translate(51.732654 226.508584)scale(0.35 -0.35)">
       <use transform="scale(0.996264)" xlink:href="#CMR17-48"/>
       <use transform="translate(45.690477 0)scale(0.996264)" xlink:href="#CMMI12-58"/>
       <use transform="translate(72.787654 0)scale(0.996264)" xlink:href="#CMR17-50"/>
      </g>
     </g>
    </g>
    <g id="ytick_4">
     <g id="line2d_31">
      <g>
       <use style="stroke:#000000;stroke-width:0.5;" x="97.2" xlink:href="#m7c8fb11d52" y="184.5"/>
      </g>
     </g>
     <g id="line2d_32">
      <g>
       <use style="stroke:#000000;stroke-width:0.5;" x="396.9" xlink:href="#m9204746ab6" y="184.5"/>
      </g>
     </g>
     <g id="text_12">
      <!-- $0.3$ -->
      <defs>
       <path d="M 22.09375 33.703125 
C 31 33.703125 34.90625 25.96875 34.90625 17.03125 
C 34.90625 5 28.5 0.390625 22.703125 0.390625 
C 17.40625 0.390625 8.796875 3.03125 6.09375 10.828125 
C 6.59375 10.625 7.09375 10.625 7.59375 10.625 
C 10 10.625 11.796875 12.21875 11.796875 14.8125 
C 11.796875 17.703125 9.59375 19 7.59375 19 
C 5.90625 19 3.296875 18.203125 3.296875 14.46875 
C 3.296875 5.234375 12.296875 -2 22.90625 -2 
C 34 -2 42.5 6.71875 42.5 16.953125 
C 42.5 26.671875 34.5 33.703125 25 34.796875 
C 32.59375 36.375 39.90625 43.0625 39.90625 52.015625 
C 39.90625 59.6875 32 65.296875 23 65.296875 
C 13.90625 65.296875 5.90625 59.828125 5.90625 52.015625 
C 5.90625 48.59375 8.5 48 9.796875 48 
C 11.90625 48 13.703125 49.296875 13.703125 51.890625 
C 13.703125 54.46875 11.90625 55.765625 9.796875 55.765625 
C 9.40625 55.765625 8.90625 55.765625 8.5 55.578125 
C 11.40625 61.859375 19.296875 63 22.796875 63 
C 26.296875 63 32.90625 61.328125 32.90625 51.875 
C 32.90625 49.109375 32.5 44.1875 29.09375 39.84375 
C 26.09375 36 22.703125 36 19.40625 35.6875 
C 18.90625 35.6875 16.59375 35.453125 16.203125 35.453125 
C 15.5 35.359375 15.09375 35.265625 15.09375 34.5 
C 15.09375 33.796875 15.203125 33.703125 17.203125 33.703125 
z
" id="CMR17-51"/>
      </defs>
      <g transform="translate(51.732654 193.208584)scale(0.35 -0.35)">
       <use transform="scale(0.996264)" xlink:href="#CMR17-48"/>
       <use transform="translate(45.690477 0)scale(0.996264)" xlink:href="#CMMI12-58"/>
       <use transform="translate(72.787654 0)scale(0.996264)" xlink:href="#CMR17-51"/>
      </g>
     </g>
    </g>
    <g id="ytick_5">
     <g id="line2d_33">
      <g>
       <use style="stroke:#000000;stroke-width:0.5;" x="97.2" xlink:href="#m7c8fb11d52" y="151.2"/>
      </g>
     </g>
     <g id="line2d_34">
      <g>
       <use style="stroke:#000000;stroke-width:0.5;" x="396.9" xlink:href="#m9204746ab6" y="151.2"/>
      </g>
     </g>
     <g id="text_13">
      <!-- $0.4$ -->
      <g transform="translate(51.732654 159.908584)scale(0.35 -0.35)">
       <use transform="scale(0.996264)" xlink:href="#CMR17-48"/>
       <use transform="translate(45.690477 0)scale(0.996264)" xlink:href="#CMMI12-58"/>
       <use transform="translate(72.787654 0)scale(0.996264)" xlink:href="#CMR17-52"/>
      </g>
     </g>
    </g>
    <g id="ytick_6">
     <g id="line2d_35">
      <g>
       <use style="stroke:#000000;stroke-width:0.5;" x="97.2" xlink:href="#m7c8fb11d52" y="117.9"/>
      </g>
     </g>
     <g id="line2d_36">
      <g>
       <use style="stroke:#000000;stroke-width:0.5;" x="396.9" xlink:href="#m9204746ab6" y="117.9"/>
      </g>
     </g>
     <g id="text_14">
      <!-- $0.5$ -->
      <defs>
       <path d="M 11.40625 57.6875 
C 12.40625 57.28125 16.5 56 20.703125 56 
C 30 56 35.09375 61.109375 38 64.0625 
C 38 64.953125 38 65.5 37.40625 65.5 
C 37.296875 65.5 37.09375 65.5 36.296875 65.046875 
C 32.796875 63.40625 28.703125 62.078125 23.703125 62.078125 
C 20.703125 62.078125 16.203125 62.484375 11.296875 64.671875 
C 10.203125 65.171875 10 65.171875 9.90625 65.171875 
C 9.40625 65.171875 9.296875 65.0625 9.296875 63.078125 
L 9.296875 34.421875 
C 9.296875 32.640625 9.296875 32.140625 10.296875 32.140625 
C 10.796875 32.140625 11 32.34375 11.5 33.03125 
C 14.703125 37.515625 19.09375 39.40625 24.09375 39.40625 
C 27.59375 39.40625 35.09375 37.21875 35.09375 20.140625 
C 35.09375 16.953125 35.09375 11.171875 32.09375 6.578125 
C 29.59375 2.484375 25.703125 0.390625 21.40625 0.390625 
C 14.796875 0.390625 8.09375 5 6.296875 12.71875 
C 6.703125 12.609375 7.5 12.421875 7.90625 12.421875 
C 9.203125 12.421875 11.703125 13.125 11.703125 16.21875 
C 11.703125 18.90625 9.796875 20 7.90625 20 
C 5.59375 20 4.09375 18.59375 4.09375 15.796875 
C 4.09375 7.09375 11 -2 21.59375 -2 
C 31.90625 -2 41.703125 6.875 41.703125 19.75 
C 41.703125 31.71875 33.90625 41 24.203125 41 
C 19.09375 41 14.796875 39.109375 11.40625 35.53125 
z
" id="CMR17-53"/>
      </defs>
      <g transform="translate(51.732654 126.608584)scale(0.35 -0.35)">
       <use transform="scale(0.996264)" xlink:href="#CMR17-48"/>
       <use transform="translate(45.690477 0)scale(0.996264)" xlink:href="#CMMI12-58"/>
       <use transform="translate(72.787654 0)scale(0.996264)" xlink:href="#CMR17-53"/>
      </g>
     </g>
    </g>
    <g id="ytick_7">
     <g id="line2d_37">
      <g>
       <use style="stroke:#000000;stroke-width:0.5;" x="97.2" xlink:href="#m7c8fb11d52" y="84.6"/>
      </g>
     </g>
     <g id="line2d_38">
      <g>
       <use style="stroke:#000000;stroke-width:0.5;" x="396.9" xlink:href="#m9204746ab6" y="84.6"/>
      </g>
     </g>
     <g id="text_15">
      <!-- $0.6$ -->
      <g transform="translate(51.732654 93.308584)scale(0.35 -0.35)">
       <use transform="scale(0.996264)" xlink:href="#CMR17-48"/>
       <use transform="translate(45.690477 0)scale(0.996264)" xlink:href="#CMMI12-58"/>
       <use transform="translate(72.787654 0)scale(0.996264)" xlink:href="#CMR17-54"/>
      </g>
     </g>
    </g>
    <g id="ytick_8">
     <g id="line2d_39">
      <g>
       <use style="stroke:#000000;stroke-width:0.5;" x="97.2" xlink:href="#m7c8fb11d52" y="51.3"/>
      </g>
     </g>
     <g id="line2d_40">
      <g>
       <use style="stroke:#000000;stroke-width:0.5;" x="396.9" xlink:href="#m9204746ab6" y="51.3"/>
      </g>
     </g>
     <g id="text_16">
      <!-- $0.7$ -->
      <defs>
       <path d="M 45.09375 61.578125 
L 45.09375 63.765625 
L 21.59375 63.765625 
C 9.90625 63.765625 9.703125 65.078125 9.296875 67 
L 7.5 67 
L 4.59375 48.34375 
L 6.40625 48.34375 
C 6.703125 50.234375 7.40625 55.3125 8.59375 57.203125 
C 9.203125 58 16.59375 58 18.296875 58 
L 40.296875 58 
L 29.203125 41.578125 
C 21.796875 30.53125 16.703125 15.609375 16.703125 2.578125 
C 16.703125 1.390625 16.703125 -2 20.296875 -2 
C 23.90625 -2 23.90625 1.390625 23.90625 2.671875 
L 23.90625 7.265625 
C 23.90625 23.5625 26.703125 34.3125 31.296875 41.1875 
z
" id="CMR17-55"/>
      </defs>
      <g transform="translate(51.732654 60.008584)scale(0.35 -0.35)">
       <use transform="scale(0.996264)" xlink:href="#CMR17-48"/>
       <use transform="translate(45.690477 0)scale(0.996264)" xlink:href="#CMMI12-58"/>
       <use transform="translate(72.787654 0)scale(0.996264)" xlink:href="#CMR17-55"/>
      </g>
     </g>
    </g>
    <g id="ytick_9">
     <g id="line2d_41">
      <g>
       <use style="stroke:#000000;stroke-width:0.5;" x="97.2" xlink:href="#m7c8fb11d52" y="18"/>
      </g>
     </g>
     <g id="line2d_42">
      <g>
       <use style="stroke:#000000;stroke-width:0.5;" x="396.9" xlink:href="#m9204746ab6" y="18"/>
      </g>
     </g>
     <g id="text_17">
      <!-- $0.8$ -->
      <defs>
       <path d="M 27.203125 35.375 
C 33.5 38.546875 39.90625 43.328125 39.90625 50.984375 
C 39.90625 60.015625 31.09375 65.296875 23 65.296875 
C 13.90625 65.296875 5.90625 58.734375 5.90625 49.6875 
C 5.90625 47.203125 6.5 42.921875 10.40625 39.140625 
C 11.40625 38.15625 15.59375 35.171875 18.296875 33.28125 
C 13.796875 30.984375 3.296875 25.53125 3.296875 14.59375 
C 3.296875 4.359375 13.09375 -2 22.796875 -2 
C 33.5 -2 42.5 5.65625 42.5 15.78125 
C 42.5 24.84375 36.40625 29.015625 32.40625 31.703125 
z
M 14.09375 44.09375 
C 13.296875 44.59375 9.296875 47.671875 9.296875 52.359375 
C 9.296875 58.421875 15.59375 63 22.796875 63 
C 30.703125 63 36.5 57.4375 36.5 50.96875 
C 36.5 41.703125 26.09375 36.421875 25.59375 36.421875 
C 25.5 36.421875 25.40625 36.421875 24.59375 37.03125 
z
M 32.5 23.734375 
C 34 22.640625 38.796875 19.375 38.796875 13.296875 
C 38.796875 5.953125 31.40625 0.390625 23 0.390625 
C 13.90625 0.390625 7 6.84375 7 14.6875 
C 7 22.546875 13.09375 29.09375 20 32.1875 
z
" id="CMR17-56"/>
      </defs>
      <g transform="translate(51.732654 26.708584)scale(0.35 -0.35)">
       <use transform="scale(0.996264)" xlink:href="#CMR17-48"/>
       <use transform="translate(45.690477 0)scale(0.996264)" xlink:href="#CMMI12-58"/>
       <use transform="translate(72.787654 0)scale(0.996264)" xlink:href="#CMR17-56"/>
      </g>
     </g>
    </g>
    <g id="text_18">
     <!-- $P(p_x) \sqrt{2 D D_r}$ -->
     <defs>
      <path d="M 29.59375 31.609375 
L 46.40625 31.609375 
C 60.203125 31.609375 74 41.765625 74 53.140625 
C 74 60.90625 67.40625 68 54.796875 68 
L 23.90625 68 
C 22 68 21.09375 68 21.09375 66.109375 
C 21.09375 65.109375 22 65.109375 23.5 65.109375 
C 29.59375 65.109375 29.59375 64.3125 29.59375 63.21875 
C 29.59375 63.03125 29.59375 62.421875 29.203125 60.921875 
L 15.703125 7.375 
C 14.796875 3.890625 14.59375 2.890625 7.59375 2.890625 
C 5.703125 2.890625 4.703125 2.890625 4.703125 1.09375 
C 4.703125 0 5.59375 0 6.203125 0 
C 8.09375 0 10.09375 0 12 0 
L 23.703125 0 
C 25.59375 0 27.703125 0 29.59375 0 
C 30.40625 0 31.5 0 31.5 1.890625 
C 31.5 2.890625 30.59375 2.890625 29.09375 2.890625 
C 23.09375 2.890625 23 3.59375 23 4.578125 
C 23 5.078125 23.09375 5.765625 23.203125 6.265625 
z
M 36.796875 61.40625 
C 37.703125 65.109375 38.09375 65.109375 42 65.109375 
L 51.90625 65.109375 
C 59.40625 65.109375 65.59375 62.703125 65.59375 55.234375 
C 65.59375 52.640625 64.296875 44.171875 59.703125 39.59375 
C 58 37.796875 53.203125 34 44.09375 34 
L 30 34 
z
" id="CMMI12-80"/>
      <path d="M 30.59375 -24.390625 
C 30.59375 -24.296875 30.59375 -24.09375 30.296875 -23.796875 
C 25.703125 -19.125 13.40625 -6.359375 13.40625 24.703125 
C 13.40625 55.765625 25.5 68.421875 30.40625 73.390625 
C 30.40625 73.5 30.59375 73.703125 30.59375 74 
C 30.59375 74.296875 30.296875 74.5 29.90625 74.5 
C 28.796875 74.5 20.296875 67.125 15.40625 56.15625 
C 10.40625 45.109375 9 34.359375 9 24.8125 
C 9 17.625 9.703125 5.484375 15.703125 -7.359375 
C 20.5 -17.734375 28.703125 -25 29.90625 -25 
C 30.40625 -25 30.59375 -24.796875 30.59375 -24.390625 
z
" id="CMR17-40"/>
      <path d="M 26.296875 24.703125 
C 26.296875 31.875 25.59375 44.015625 19.59375 56.859375 
C 14.796875 67.234375 6.59375 74.5 5.40625 74.5 
C 5.09375 74.5 4.703125 74.390625 4.703125 73.890625 
C 4.703125 73.703125 4.796875 73.59375 4.90625 73.390625 
C 9.703125 68.40625 21.90625 55.75 21.90625 24.75 
C 21.90625 -6.359375 9.796875 -19.015625 4.90625 -24.015625 
C 4.796875 -24.203125 4.703125 -24.3125 4.703125 -24.5 
C 4.703125 -25 5.09375 -25 5.40625 -25 
C 6.5 -25 15 -17.625 19.90625 -6.65625 
C 24.90625 4.390625 26.296875 15.140625 26.296875 24.703125 
z
" id="CMR17-41"/>
     </defs>
     <g transform="translate(39.305702 249.843477)rotate(-90)scale(0.35 -0.35)">
      <use transform="translate(0 14.943915)scale(0.996264)" xlink:href="#CMMI12-80"/>
      <use transform="translate(76.425821 14.943915)scale(0.996264)" xlink:href="#CMR17-40"/>
      <use transform="translate(111.706589 14.943915)scale(0.996264)" xlink:href="#CMMI12-112"/>
      <use transform="translate(160.666103 0)scale(0.697382)" xlink:href="#CMMI12-120"/>
      <use transform="translate(199.967894 14.943915)scale(0.996264)" xlink:href="#CMR17-41"/>
      <use transform="translate(235.248662 89.951348)scale(0.996264)" xlink:href="#CMSY10-112"/>
      <use transform="translate(318.270916 14.943915)scale(0.996264)" xlink:href="#CMR17-50"/>
      <use transform="translate(363.961393 14.943915)scale(0.996264)" xlink:href="#CMMI12-68"/>
      <use transform="translate(447.665341 14.943915)scale(0.996264)" xlink:href="#CMMI12-68"/>
      <use transform="translate(528.659571 0)scale(0.697382)" xlink:href="#CMMI12-114"/>
      <path d="M 318.270916 89.951348 
L 561.826971 89.951348 
L 561.826971 93.936298 
L 318.270916 93.936298 
L 318.270916 89.951348 
z
"/>
     </g>
    </g>
   </g>
   <g id="legend_1">
    <g id="line2d_43">
     <path d="M 127.2 60.882437 
L 149.7 60.882437 
" style="fill:none;stroke:#000000;stroke-dasharray:6,6;stroke-dashoffset:0;stroke-width:4;"/>
    </g>
    <g id="line2d_44"/>
    <g id="text_19">
     <!-- $x \mapsto \frac{1}{\sqrt{\pi}} \exp(-x^2)$ -->
     <defs>
      <path d="M 9.5 22.78125 
C 10.09375 22.78125 12.296875 22.78125 12.296875 24.78125 
C 12.296875 26.78125 10.09375 26.78125 9.5 26.78125 
L 9.5 39.875 
C 9.5 41.484375 9.5 43.375 7.5 43.375 
C 5.5 43.375 5.5 41.484375 5.5 39.875 
L 5.5 9.6875 
C 5.5 8.078125 5.5 6.1875 7.5 6.1875 
C 9.5 6.1875 9.5 8.078125 9.5 9.6875 
z
" id="CMSY10-55"/>
      <path d="M 83.40625 23 
C 77.90625 18.796875 75.203125 14.703125 74.40625 13.40625 
C 69.90625 6.5 69.09375 0.203125 69.09375 0.09375 
C 69.09375 -1.09375 70.296875 -1.09375 71.09375 -1.09375 
C 72.796875 -1.09375 72.90625 -0.90625 73.296875 0.90625 
C 75.59375 10.703125 81.5 19.09375 92.796875 23.703125 
C 94 24.09375 94.296875 24.296875 94.296875 25 
C 94.296875 25.703125 93.703125 26 93.5 26.09375 
C 89.09375 27.796875 77 32.796875 73.203125 49.59375 
C 72.90625 50.796875 72.796875 51.09375 71.09375 51.09375 
C 70.296875 51.09375 69.09375 51.09375 69.09375 49.890625 
C 69.09375 49.6875 70 43.390625 74.203125 36.703125 
C 76.203125 33.703125 79.09375 30.203125 83.40625 27 
L 9.09375 27 
C 7.296875 27 5.5 27 5.5 25 
C 5.5 23 7.296875 23 9.09375 23 
z
" id="CMSY10-33"/>
      <path d="M 25.90625 37.625 
L 37.203125 37.625 
C 34.5 26.4375 32.796875 19.15625 32.796875 11.1875 
C 32.796875 9.78125 32.796875 -1 36.90625 -1 
C 39 -1 40.796875 0.890625 40.796875 2.59375 
C 40.796875 3.078125 40.796875 3.28125 40.09375 4.78125 
C 37.40625 11.671875 37.40625 20.25 37.40625 20.953125 
C 37.40625 21.546875 37.40625 28.625 39.5 37.625 
L 50.703125 37.625 
C 52 37.625 55.296875 37.625 55.296875 40.8125 
C 55.296875 43 53.40625 43 51.59375 43 
L 18.703125 43 
C 16.40625 43 13 43 8.40625 38.125 
C 5.796875 35.21875 2.59375 29.9375 2.59375 29.34375 
C 2.59375 28.75 3.09375 28.546875 3.703125 28.546875 
C 4.40625 28.546875 4.5 28.84375 5 29.4375 
C 10.203125 37.625 15.40625 37.625 17.90625 37.625 
L 23.59375 37.625 
C 21.40625 30.140625 18.90625 21.453125 10.703125 4 
C 9.90625 2.40625 9.90625 2.1875 9.90625 1.59375 
C 9.90625 -0.5 11.703125 -1 12.59375 -1 
C 15.5 -1 16.296875 1.59375 17.5 5.78125 
C 19.09375 10.875 19.09375 11.078125 20.09375 15.0625 
z
" id="CMMI12-25"/>
      <path d="M 38.09375 23 
C 38.5 23.40625 38.5 23.609375 38.5 24.625 
C 38.5 34.96875 33.09375 44 21.703125 44 
C 11.09375 44 2.703125 33.890625 2.703125 21.609375 
C 2.703125 8.609375 12.203125 -1 22.796875 -1 
C 34 -1 38.40625 9.484375 38.40625 11.5625 
C 38.40625 12.25 37.796875 12.25 37.59375 12.25 
C 36.90625 12.25 36.796875 12.046875 36.40625 10.875 
C 34.203125 4.140625 28.703125 0.796875 23.5 0.796875 
C 19.203125 0.796875 14.90625 3.171875 12.203125 7.5 
C 9.09375 12.546875 9.09375 18.375 9.09375 23 
z
M 9.203125 24.5 
C 9.90625 39.140625 17.59375 42.40625 21.59375 42.40625 
C 28.40625 42.40625 33 35.890625 33.09375 24.5 
z
" id="CMR17-101"/>
      <path d="M 26 23.078125 
C 29 26.96875 32.40625 31.34375 35.203125 34.625 
C 38.5 38.40625 42.296875 40 46.703125 40 
L 46.703125 42.59375 
C 45 42.59375 41.5 42.59375 39.703125 42.59375 
C 37 42.59375 33.90625 42.59375 31.59375 42.6875 
L 31.59375 40.09375 
C 33 39.890625 33.796875 38.890625 33.796875 37.5 
C 33.796875 35.703125 32.796875 34.609375 32.296875 33.921875 
L 24.90625 24.578125 
L 16.09375 36.03125 
C 15.203125 37.125 15.203125 37.3125 15.203125 37.8125 
C 15.203125 39.015625 16.203125 40 17.90625 40 
L 17.90625 42.6875 
C 15.5 42.59375 11.203125 42.59375 8.703125 42.59375 
C 6 42.59375 2.796875 42.59375 0.59375 42.6875 
L 0.59375 40 
C 6 40 7.203125 39.59375 9.59375 36.609375 
L 21.09375 21.796875 
C 21.296875 21.59375 21.796875 21 21.796875 20.703125 
C 21.796875 20.296875 13.09375 9.671875 12 8.28125 
C 7.5 2.890625 2.796875 2.5 0.09375 2.5 
L 0.09375 0 
C 1.796875 0 5.296875 0 7.09375 0 
C 9.09375 0 13.5 0 15.296875 -0.09375 
L 15.296875 2.5 
C 14.703125 2.59375 13.09375 2.796875 13.09375 5.078125 
C 13.09375 6.875 13.90625 7.96875 14.796875 9.15625 
L 23.09375 19.3125 
L 31.796875 8 
C 32.59375 6.90625 33.796875 5.40625 33.796875 4.703125 
C 33.796875 3.296875 32.59375 2.5 31 2.5 
L 31 -0.09375 
C 33.40625 0 37.703125 0 40.203125 0 
C 42.90625 0 46.09375 0 48.296875 -0.09375 
L 48.296875 2.5 
C 43.296875 2.5 41.796875 2.6875 39.40625 5.78125 
z
" id="CMR17-120"/>
      <path d="M 22 -16.609375 
C 15.59375 -16.609375 15.203125 -16.203125 15.203125 -12.328125 
L 15.203125 6.28125 
C 18.09375 2.09375 22.296875 -0.59375 27.59375 -0.59375 
C 37.59375 -0.59375 47.703125 8.171875 47.703125 21.6875 
C 47.703125 34.234375 39 43.78125 28.703125 43.78125 
C 22.703125 43.78125 17.796875 40.5 15 36.53125 
L 15 43.78125 
L 3.09375 42.6875 
L 3.09375 40.109375 
C 9 40.109375 9.90625 39.5 9.90625 34.734375 
L 9.90625 -12.328125 
C 9.90625 -16.109375 9.5 -16.609375 3.09375 -16.609375 
L 3.09375 -19.1875 
C 5.5 -19 9.90625 -19 12.5 -19 
C 15.09375 -19 19.59375 -19 22 -19.1875 
z
M 15.203125 31.4375 
C 15.203125 32.84375 15.203125 34.921875 19.09375 38.609375 
C 19.59375 39.015625 23 42 28 42 
C 35.296875 42 41.296875 32.9375 41.296875 21.59375 
C 41.296875 10.25 34.90625 1 27 1 
C 23.40625 1 19.5 2.6875 16.5 7.375 
C 15.203125 9.5625 15.203125 10.15625 15.203125 11.75 
z
" id="CMR17-112"/>
     </defs>
     <g transform="translate(177.2 69.632437)scale(0.25 -0.25)">
      <use transform="translate(0 34.355253)scale(0.996264)" xlink:href="#CMMI12-120"/>
      <use transform="translate(83.108068 34.355253)scale(0.996264)" xlink:href="#CMSY10-55"/>
      <use transform="translate(83.108068 34.355253)scale(0.996264)" xlink:href="#CMSY10-33"/>
      <use transform="translate(245.288952 73.581354)scale(0.697382)" xlink:href="#CMR17-49"/>
      <use transform="translate(211.604265 49.107108)scale(0.697382)" xlink:href="#CMSY10-112"/>
      <use transform="translate(269.719585 0)scale(0.697382)" xlink:href="#CMMI12-25"/>
      <use transform="translate(328.756725 34.355253)scale(0.996264)" xlink:href="#CMR17-101"/>
      <use transform="translate(369.242386 34.355253)scale(0.996264)" xlink:href="#CMR17-120"/>
      <use transform="translate(417.535302 34.355253)scale(0.996264)" xlink:href="#CMR17-112"/>
      <use transform="translate(468.430671 34.355253)scale(0.996264)" xlink:href="#CMR17-40"/>
      <use transform="translate(503.711439 34.355253)scale(0.996264)" xlink:href="#CMSY10-0"/>
      <use transform="translate(581.198907 34.355253)scale(0.996264)" xlink:href="#CMMI12-120"/>
      <use transform="translate(636.632966 70.508892)scale(0.697382)" xlink:href="#CMR17-50"/>
      <use transform="translate(669.11428 34.355253)scale(0.996264)" xlink:href="#CMR17-41"/>
      <path d="M 211.604265 58.766138 
L 310.956806 58.766138 
L 310.956806 59.757583 
L 211.604265 59.757583 
L 211.604265 58.766138 
z
"/>
      <path d="M 269.719585 49.107108 
L 310.956806 49.107108 
L 310.956806 51.896559 
L 269.719585 51.896559 
L 269.719585 49.107108 
z
"/>
     </g>
    </g>
   </g>
   <g id="legend_2">
    <g id="line2d_45">
     <path d="M 127.2 60.882437 
L 149.7 60.882437 
" style="fill:none;stroke:#000000;stroke-dasharray:6,6;stroke-dashoffset:0;stroke-width:4;"/>
    </g>
    <g id="line2d_46"/>
    <g id="text_20">
     <!-- $x \mapsto \frac{1}{\sqrt{\pi}} \exp(-x^2)$ -->
     <g transform="translate(177.2 69.632437)scale(0.25 -0.25)">
      <use transform="translate(0 34.355253)scale(0.996264)" xlink:href="#CMMI12-120"/>
      <use transform="translate(83.108068 34.355253)scale(0.996264)" xlink:href="#CMSY10-55"/>
      <use transform="translate(83.108068 34.355253)scale(0.996264)" xlink:href="#CMSY10-33"/>
      <use transform="translate(245.288952 73.581354)scale(0.697382)" xlink:href="#CMR17-49"/>
      <use transform="translate(211.604265 49.107108)scale(0.697382)" xlink:href="#CMSY10-112"/>
      <use transform="translate(269.719585 0)scale(0.697382)" xlink:href="#CMMI12-25"/>
      <use transform="translate(328.756725 34.355253)scale(0.996264)" xlink:href="#CMR17-101"/>
      <use transform="translate(369.242386 34.355253)scale(0.996264)" xlink:href="#CMR17-120"/>
      <use transform="translate(417.535302 34.355253)scale(0.996264)" xlink:href="#CMR17-112"/>
      <use transform="translate(468.430671 34.355253)scale(0.996264)" xlink:href="#CMR17-40"/>
      <use transform="translate(503.711439 34.355253)scale(0.996264)" xlink:href="#CMSY10-0"/>
      <use transform="translate(581.198907 34.355253)scale(0.996264)" xlink:href="#CMMI12-120"/>
      <use transform="translate(636.632966 70.508892)scale(0.697382)" xlink:href="#CMR17-50"/>
      <use transform="translate(669.11428 34.355253)scale(0.996264)" xlink:href="#CMR17-41"/>
      <path d="M 211.604265 58.766138 
L 310.956806 58.766138 
L 310.956806 59.757583 
L 211.604265 59.757583 
L 211.604265 58.766138 
z
"/>
      <path d="M 269.719585 49.107108 
L 310.956806 49.107108 
L 310.956806 51.896559 
L 269.719585 51.896559 
L 269.719585 49.107108 
z
"/>
     </g>
    </g>
   </g>
  </g>
 </g>
 <defs>
  <clipPath id="p4b01c5ab13">
   <rect height="266.4" width="299.7" x="97.2" y="18"/>
  </clipPath>
 </defs>
</svg>
