<?xml version="1.0" encoding="utf-8" standalone="no"?>
<!DOCTYPE svg PUBLIC "-//W3C//DTD SVG 1.1//EN"
  "http://www.w3.org/Graphics/SVG/1.1/DTD/svg11.dtd">
<!-- Created with matplotlib (http://matplotlib.org/) -->
<svg height="272.033625pt" version="1.1" viewBox="0 0 423.313012 272.033625" width="423.313012pt" xmlns="http://www.w3.org/2000/svg" xmlns:xlink="http://www.w3.org/1999/xlink">
 <defs>
  <style type="text/css">
*{stroke-linecap:butt;stroke-linejoin:round;}
  </style>
 </defs>
 <g id="figure_1">
  <g id="patch_1">
   <path d="M 0 272.033625 
L 423.313012 272.033625 
L 423.313012 0 
L 0 0 
z
" style="fill:#ffffff;"/>
  </g>
  <g id="axes_1">
   <g id="patch_2">
    <path d="M 112.48 238.1555 
L 369.553012 238.1555 
L 369.553012 32.8 
L 112.48 32.8 
z
" style="fill:#ffffff;"/>
   </g>
   <g id="matplotlib.axis_1">
    <g id="xtick_1">
     <g id="line2d_1">
      <defs>
       <path d="M 0 0 
L 0 3.5 
" id="m181eeb0db5" style="stroke:#000000;stroke-width:0.8;"/>
      </defs>
      <g>
       <use style="stroke:#000000;stroke-width:0.8;" x="157.036465" xlink:href="#m181eeb0db5" y="248.1555"/>
      </g>
     </g>
     <g id="text_1">
      <!-- $\mathdefault{10^{-3}}$ -->
      <defs>
       <path d="M 12.40625 8.296875 
L 28.515625 8.296875 
L 28.515625 63.921875 
L 10.984375 60.40625 
L 10.984375 69.390625 
L 28.421875 72.90625 
L 38.28125 72.90625 
L 38.28125 8.296875 
L 54.390625 8.296875 
L 54.390625 0 
L 12.40625 0 
z
" id="DejaVuSans-31"/>
       <path d="M 31.78125 66.40625 
Q 24.171875 66.40625 20.328125 58.90625 
Q 16.5 51.421875 16.5 36.375 
Q 16.5 21.390625 20.328125 13.890625 
Q 24.171875 6.390625 31.78125 6.390625 
Q 39.453125 6.390625 43.28125 13.890625 
Q 47.125 21.390625 47.125 36.375 
Q 47.125 51.421875 43.28125 58.90625 
Q 39.453125 66.40625 31.78125 66.40625 
z
M 31.78125 74.21875 
Q 44.046875 74.21875 50.515625 64.515625 
Q 56.984375 54.828125 56.984375 36.375 
Q 56.984375 17.96875 50.515625 8.265625 
Q 44.046875 -1.421875 31.78125 -1.421875 
Q 19.53125 -1.421875 13.0625 8.265625 
Q 6.59375 17.96875 6.59375 36.375 
Q 6.59375 54.828125 13.0625 64.515625 
Q 19.53125 74.21875 31.78125 74.21875 
z
" id="DejaVuSans-30"/>
       <path d="M 4.890625 31.390625 
L 31.203125 31.390625 
L 31.203125 23.390625 
L 4.890625 23.390625 
z
" id="DejaVuSans-2d"/>
       <path d="M 40.578125 39.3125 
Q 47.65625 37.796875 51.625 33 
Q 55.609375 28.21875 55.609375 21.1875 
Q 55.609375 10.40625 48.1875 4.484375 
Q 40.765625 -1.421875 27.09375 -1.421875 
Q 22.515625 -1.421875 17.65625 -0.515625 
Q 12.796875 0.390625 7.625 2.203125 
L 7.625 11.71875 
Q 11.71875 9.328125 16.59375 8.109375 
Q 21.484375 6.890625 26.8125 6.890625 
Q 36.078125 6.890625 40.9375 10.546875 
Q 45.796875 14.203125 45.796875 21.1875 
Q 45.796875 27.640625 41.28125 31.265625 
Q 36.765625 34.90625 28.71875 34.90625 
L 20.21875 34.90625 
L 20.21875 43.015625 
L 29.109375 43.015625 
Q 36.375 43.015625 40.234375 45.921875 
Q 44.09375 48.828125 44.09375 54.296875 
Q 44.09375 59.90625 40.109375 62.90625 
Q 36.140625 65.921875 28.71875 65.921875 
Q 24.65625 65.921875 20.015625 65.03125 
Q 15.375 64.15625 9.8125 62.3125 
L 9.8125 71.09375 
Q 15.4375 72.65625 20.34375 73.4375 
Q 25.25 74.21875 29.59375 74.21875 
Q 40.828125 74.21875 47.359375 69.109375 
Q 53.90625 64.015625 53.90625 55.328125 
Q 53.90625 49.265625 50.4375 45.09375 
Q 46.96875 40.921875 40.578125 39.3125 
z
" id="DejaVuSans-33"/>
      </defs>
      <g transform="translate(146.986465 262.753938)scale(0.1 -0.1)">
       <use transform="translate(0 0.765625)" xlink:href="#DejaVuSans-31"/>
       <use transform="translate(63.623047 0.765625)" xlink:href="#DejaVuSans-30"/>
       <use transform="translate(128.203125 39.046875)scale(0.7)" xlink:href="#DejaVuSans-2d"/>
       <use transform="translate(153.461914 39.046875)scale(0.7)" xlink:href="#DejaVuSans-33"/>
      </g>
     </g>
    </g>
    <g id="xtick_2">
     <g id="line2d_2">
      <g>
       <use style="stroke:#000000;stroke-width:0.8;" x="221.248034" xlink:href="#m181eeb0db5" y="248.1555"/>
      </g>
     </g>
     <g id="text_2">
      <!-- $\mathdefault{10^{-2}}$ -->
      <defs>
       <path d="M 19.1875 8.296875 
L 53.609375 8.296875 
L 53.609375 0 
L 7.328125 0 
L 7.328125 8.296875 
Q 12.9375 14.109375 22.625 23.890625 
Q 32.328125 33.6875 34.8125 36.53125 
Q 39.546875 41.84375 41.421875 45.53125 
Q 43.3125 49.21875 43.3125 52.78125 
Q 43.3125 58.59375 39.234375 62.25 
Q 35.15625 65.921875 28.609375 65.921875 
Q 23.96875 65.921875 18.8125 64.3125 
Q 13.671875 62.703125 7.8125 59.421875 
L 7.8125 69.390625 
Q 13.765625 71.78125 18.9375 73 
Q 24.125 74.21875 28.421875 74.21875 
Q 39.75 74.21875 46.484375 68.546875 
Q 53.21875 62.890625 53.21875 53.421875 
Q 53.21875 48.921875 51.53125 44.890625 
Q 49.859375 40.875 45.40625 35.40625 
Q 44.1875 33.984375 37.640625 27.21875 
Q 31.109375 20.453125 19.1875 8.296875 
z
" id="DejaVuSans-32"/>
      </defs>
      <g transform="translate(211.198034 262.753938)scale(0.1 -0.1)">
       <use transform="translate(0 0.765625)" xlink:href="#DejaVuSans-31"/>
       <use transform="translate(63.623047 0.765625)" xlink:href="#DejaVuSans-30"/>
       <use transform="translate(128.203125 39.046875)scale(0.7)" xlink:href="#DejaVuSans-2d"/>
       <use transform="translate(153.461914 39.046875)scale(0.7)" xlink:href="#DejaVuSans-32"/>
      </g>
     </g>
    </g>
    <g id="xtick_3">
     <g id="line2d_3">
      <g>
       <use style="stroke:#000000;stroke-width:0.8;" x="285.459603" xlink:href="#m181eeb0db5" y="248.1555"/>
      </g>
     </g>
     <g id="text_3">
      <!-- $\mathdefault{10^{-1}}$ -->
      <g transform="translate(275.409603 262.753938)scale(0.1 -0.1)">
       <use transform="translate(0 0.684375)" xlink:href="#DejaVuSans-31"/>
       <use transform="translate(63.623047 0.684375)" xlink:href="#DejaVuSans-30"/>
       <use transform="translate(128.203125 38.965625)scale(0.7)" xlink:href="#DejaVuSans-2d"/>
       <use transform="translate(153.461914 38.965625)scale(0.7)" xlink:href="#DejaVuSans-31"/>
      </g>
     </g>
    </g>
    <g id="xtick_4">
     <g id="line2d_4">
      <g>
       <use style="stroke:#000000;stroke-width:0.8;" x="349.671173" xlink:href="#m181eeb0db5" y="248.1555"/>
      </g>
     </g>
     <g id="text_4">
      <!-- $\mathdefault{10^{0}}$ -->
      <g transform="translate(340.871173 262.753938)scale(0.1 -0.1)">
       <use transform="translate(0 0.765625)" xlink:href="#DejaVuSans-31"/>
       <use transform="translate(63.623047 0.765625)" xlink:href="#DejaVuSans-30"/>
       <use transform="translate(128.203125 39.046875)scale(0.7)" xlink:href="#DejaVuSans-30"/>
      </g>
     </g>
    </g>
    <g id="xtick_5">
     <g id="line2d_5">
      <defs>
       <path d="M 0 0 
L 0 2 
" id="mb64ccf925d" style="stroke:#000000;stroke-width:0.6;"/>
      </defs>
      <g>
       <use style="stroke:#000000;stroke-width:0.6;" x="112.154504" xlink:href="#mb64ccf925d" y="248.1555"/>
      </g>
     </g>
    </g>
    <g id="xtick_6">
     <g id="line2d_6">
      <g>
       <use style="stroke:#000000;stroke-width:0.6;" x="123.4616" xlink:href="#mb64ccf925d" y="248.1555"/>
      </g>
     </g>
    </g>
    <g id="xtick_7">
     <g id="line2d_7">
      <g>
       <use style="stroke:#000000;stroke-width:0.6;" x="131.484112" xlink:href="#mb64ccf925d" y="248.1555"/>
      </g>
     </g>
    </g>
    <g id="xtick_8">
     <g id="line2d_8">
      <g>
       <use style="stroke:#000000;stroke-width:0.6;" x="137.706856" xlink:href="#mb64ccf925d" y="248.1555"/>
      </g>
     </g>
    </g>
    <g id="xtick_9">
     <g id="line2d_9">
      <g>
       <use style="stroke:#000000;stroke-width:0.6;" x="142.791208" xlink:href="#mb64ccf925d" y="248.1555"/>
      </g>
     </g>
    </g>
    <g id="xtick_10">
     <g id="line2d_10">
      <g>
       <use style="stroke:#000000;stroke-width:0.6;" x="147.089967" xlink:href="#mb64ccf925d" y="248.1555"/>
      </g>
     </g>
    </g>
    <g id="xtick_11">
     <g id="line2d_11">
      <g>
       <use style="stroke:#000000;stroke-width:0.6;" x="150.813721" xlink:href="#mb64ccf925d" y="248.1555"/>
      </g>
     </g>
    </g>
    <g id="xtick_12">
     <g id="line2d_12">
      <g>
       <use style="stroke:#000000;stroke-width:0.6;" x="154.098305" xlink:href="#mb64ccf925d" y="248.1555"/>
      </g>
     </g>
    </g>
    <g id="xtick_13">
     <g id="line2d_13">
      <g>
       <use style="stroke:#000000;stroke-width:0.6;" x="176.366073" xlink:href="#mb64ccf925d" y="248.1555"/>
      </g>
     </g>
    </g>
    <g id="xtick_14">
     <g id="line2d_14">
      <g>
       <use style="stroke:#000000;stroke-width:0.6;" x="187.673169" xlink:href="#mb64ccf925d" y="248.1555"/>
      </g>
     </g>
    </g>
    <g id="xtick_15">
     <g id="line2d_15">
      <g>
       <use style="stroke:#000000;stroke-width:0.6;" x="195.695682" xlink:href="#mb64ccf925d" y="248.1555"/>
      </g>
     </g>
    </g>
    <g id="xtick_16">
     <g id="line2d_16">
      <g>
       <use style="stroke:#000000;stroke-width:0.6;" x="201.918426" xlink:href="#mb64ccf925d" y="248.1555"/>
      </g>
     </g>
    </g>
    <g id="xtick_17">
     <g id="line2d_17">
      <g>
       <use style="stroke:#000000;stroke-width:0.6;" x="207.002778" xlink:href="#mb64ccf925d" y="248.1555"/>
      </g>
     </g>
    </g>
    <g id="xtick_18">
     <g id="line2d_18">
      <g>
       <use style="stroke:#000000;stroke-width:0.6;" x="211.301536" xlink:href="#mb64ccf925d" y="248.1555"/>
      </g>
     </g>
    </g>
    <g id="xtick_19">
     <g id="line2d_19">
      <g>
       <use style="stroke:#000000;stroke-width:0.6;" x="215.02529" xlink:href="#mb64ccf925d" y="248.1555"/>
      </g>
     </g>
    </g>
    <g id="xtick_20">
     <g id="line2d_20">
      <g>
       <use style="stroke:#000000;stroke-width:0.6;" x="218.309874" xlink:href="#mb64ccf925d" y="248.1555"/>
      </g>
     </g>
    </g>
    <g id="xtick_21">
     <g id="line2d_21">
      <g>
       <use style="stroke:#000000;stroke-width:0.6;" x="240.577643" xlink:href="#mb64ccf925d" y="248.1555"/>
      </g>
     </g>
    </g>
    <g id="xtick_22">
     <g id="line2d_22">
      <g>
       <use style="stroke:#000000;stroke-width:0.6;" x="251.884739" xlink:href="#mb64ccf925d" y="248.1555"/>
      </g>
     </g>
    </g>
    <g id="xtick_23">
     <g id="line2d_23">
      <g>
       <use style="stroke:#000000;stroke-width:0.6;" x="259.907251" xlink:href="#mb64ccf925d" y="248.1555"/>
      </g>
     </g>
    </g>
    <g id="xtick_24">
     <g id="line2d_24">
      <g>
       <use style="stroke:#000000;stroke-width:0.6;" x="266.129995" xlink:href="#mb64ccf925d" y="248.1555"/>
      </g>
     </g>
    </g>
    <g id="xtick_25">
     <g id="line2d_25">
      <g>
       <use style="stroke:#000000;stroke-width:0.6;" x="271.214347" xlink:href="#mb64ccf925d" y="248.1555"/>
      </g>
     </g>
    </g>
    <g id="xtick_26">
     <g id="line2d_26">
      <g>
       <use style="stroke:#000000;stroke-width:0.6;" x="275.513106" xlink:href="#mb64ccf925d" y="248.1555"/>
      </g>
     </g>
    </g>
    <g id="xtick_27">
     <g id="line2d_27">
      <g>
       <use style="stroke:#000000;stroke-width:0.6;" x="279.236859" xlink:href="#mb64ccf925d" y="248.1555"/>
      </g>
     </g>
    </g>
    <g id="xtick_28">
     <g id="line2d_28">
      <g>
       <use style="stroke:#000000;stroke-width:0.6;" x="282.521443" xlink:href="#mb64ccf925d" y="248.1555"/>
      </g>
     </g>
    </g>
    <g id="xtick_29">
     <g id="line2d_29">
      <g>
       <use style="stroke:#000000;stroke-width:0.6;" x="304.789212" xlink:href="#mb64ccf925d" y="248.1555"/>
      </g>
     </g>
    </g>
    <g id="xtick_30">
     <g id="line2d_30">
      <g>
       <use style="stroke:#000000;stroke-width:0.6;" x="316.096308" xlink:href="#mb64ccf925d" y="248.1555"/>
      </g>
     </g>
    </g>
    <g id="xtick_31">
     <g id="line2d_31">
      <g>
       <use style="stroke:#000000;stroke-width:0.6;" x="324.11882" xlink:href="#mb64ccf925d" y="248.1555"/>
      </g>
     </g>
    </g>
    <g id="xtick_32">
     <g id="line2d_32">
      <g>
       <use style="stroke:#000000;stroke-width:0.6;" x="330.341564" xlink:href="#mb64ccf925d" y="248.1555"/>
      </g>
     </g>
    </g>
    <g id="xtick_33">
     <g id="line2d_33">
      <g>
       <use style="stroke:#000000;stroke-width:0.6;" x="335.425916" xlink:href="#mb64ccf925d" y="248.1555"/>
      </g>
     </g>
    </g>
    <g id="xtick_34">
     <g id="line2d_34">
      <g>
       <use style="stroke:#000000;stroke-width:0.6;" x="339.724675" xlink:href="#mb64ccf925d" y="248.1555"/>
      </g>
     </g>
    </g>
    <g id="xtick_35">
     <g id="line2d_35">
      <g>
       <use style="stroke:#000000;stroke-width:0.6;" x="343.448429" xlink:href="#mb64ccf925d" y="248.1555"/>
      </g>
     </g>
    </g>
    <g id="xtick_36">
     <g id="line2d_36">
      <g>
       <use style="stroke:#000000;stroke-width:0.6;" x="346.733013" xlink:href="#mb64ccf925d" y="248.1555"/>
      </g>
     </g>
    </g>
    <g id="xtick_37">
     <g id="line2d_37">
      <g>
       <use style="stroke:#000000;stroke-width:0.6;" x="369.000781" xlink:href="#mb64ccf925d" y="248.1555"/>
      </g>
     </g>
    </g>
    <g id="text_5">
     <!-- $D_r \Delta t$ -->
     <defs>
      <path d="M 4.890625 0 
Q 3.90625 0 3.90625 1.3125 
Q 3.953125 1.5625 4.09375 2.171875 
Q 4.25 2.78125 4.515625 3.140625 
Q 4.78125 3.515625 5.171875 3.515625 
Q 11.28125 3.515625 13.71875 4.203125 
Q 14.984375 4.640625 15.578125 6.890625 
L 29.296875 61.8125 
Q 29.5 62.796875 29.5 63.1875 
Q 29.5 64.265625 28.328125 64.40625 
Q 26.421875 64.796875 21.09375 64.796875 
Q 20.125 64.796875 20.125 66.109375 
Q 20.171875 66.359375 20.3125 66.96875 
Q 20.453125 67.578125 20.71875 67.9375 
Q 21 68.3125 21.390625 68.3125 
L 57.328125 68.3125 
Q 64.3125 68.3125 69.53125 64.921875 
Q 74.75 61.53125 77.53125 55.78125 
Q 80.328125 50.046875 80.328125 43.109375 
Q 80.328125 35.453125 77.140625 27.78125 
Q 73.96875 20.125 68.25 13.765625 
Q 62.546875 7.421875 55.21875 3.703125 
Q 47.90625 0 40.1875 0 
z
M 23.578125 4.296875 
Q 23.578125 3.515625 27 3.515625 
L 38.625 3.515625 
Q 44.1875 3.515625 49.359375 5.8125 
Q 54.546875 8.109375 58.59375 12.109375 
Q 62.359375 15.875 65.234375 21.96875 
Q 68.109375 28.078125 69.703125 34.71875 
Q 71.296875 41.359375 71.296875 46.921875 
Q 71.296875 50.984375 70.09375 54.25 
Q 68.890625 57.515625 66.71875 59.859375 
Q 64.546875 62.203125 61.28125 63.5 
Q 58.015625 64.796875 53.90625 64.796875 
L 42.921875 64.796875 
Q 40.1875 64.796875 39.296875 64.328125 
Q 38.421875 63.875 37.703125 61.375 
L 24.03125 6.5 
Q 23.578125 5.28125 23.578125 4.296875 
z
" id="Cmmi10-44"/>
      <path d="M 7.71875 1.703125 
Q 7.71875 2.296875 7.8125 2.59375 
L 15.28125 32.421875 
Q 16.015625 35.203125 16.015625 37.3125 
Q 16.015625 41.609375 13.09375 41.609375 
Q 9.96875 41.609375 8.453125 37.859375 
Q 6.9375 34.125 5.515625 28.421875 
Q 5.515625 28.125 5.21875 27.953125 
Q 4.9375 27.78125 4.6875 27.78125 
L 3.515625 27.78125 
Q 3.171875 27.78125 2.921875 28.140625 
Q 2.6875 28.515625 2.6875 28.8125 
Q 3.765625 33.15625 4.765625 36.171875 
Q 5.765625 39.203125 7.890625 41.6875 
Q 10.015625 44.1875 13.1875 44.1875 
Q 16.65625 44.1875 19.265625 42.1875 
Q 21.875 40.1875 22.515625 36.921875 
Q 25.046875 40.234375 28.296875 42.203125 
Q 31.546875 44.1875 35.40625 44.1875 
Q 38.578125 44.1875 40.984375 42.328125 
Q 43.40625 40.484375 43.40625 37.3125 
Q 43.40625 34.765625 41.8125 32.875 
Q 40.234375 31 37.59375 31 
Q 35.984375 31 34.890625 32 
Q 33.796875 33.015625 33.796875 34.625 
Q 33.796875 36.8125 35.40625 38.546875 
Q 37.015625 40.28125 39.109375 40.28125 
Q 37.5 41.609375 35.203125 41.609375 
Q 30.90625 41.609375 27.734375 38.546875 
Q 24.5625 35.5 22.015625 30.8125 
L 14.890625 2.203125 
Q 14.546875 0.828125 13.34375 -0.140625 
Q 12.15625 -1.125 10.6875 -1.125 
Q 9.46875 -1.125 8.59375 -0.34375 
Q 7.71875 0.4375 7.71875 1.703125 
z
" id="Cmmi10-72"/>
      <path d="M 5.421875 0 
Q 4.59375 0 4.59375 0.78125 
Q 4.640625 0.875 4.65625 0.921875 
Q 4.6875 0.984375 4.6875 1.125 
L 39.109375 70.515625 
Q 39.546875 71.578125 40.921875 71.578125 
L 42.28125 71.578125 
Q 43.65625 71.578125 44.09375 70.515625 
L 78.515625 1.125 
Q 78.5625 1.03125 78.578125 0.953125 
Q 78.609375 0.875 78.609375 0.78125 
Q 78.609375 0 77.78125 0 
z
M 12.015625 8.015625 
L 64.703125 8.015625 
L 38.375 61.078125 
z
" id="Cmr10-a2"/>
      <path d="M 6.203125 8.109375 
Q 6.203125 9.578125 6.5 10.890625 
L 13.71875 39.59375 
L 3.21875 39.59375 
Q 2.203125 39.59375 2.203125 40.921875 
Q 2.59375 43.109375 3.515625 43.109375 
L 14.59375 43.109375 
L 18.609375 59.421875 
Q 19 60.75 20.171875 61.671875 
Q 21.34375 62.59375 22.796875 62.59375 
Q 24.078125 62.59375 24.921875 61.828125 
Q 25.78125 61.078125 25.78125 59.8125 
Q 25.78125 59.515625 25.75 59.34375 
Q 25.734375 59.1875 25.6875 58.984375 
L 21.6875 43.109375 
L 31.984375 43.109375 
Q 33.015625 43.109375 33.015625 41.796875 
Q 32.953125 41.546875 32.8125 40.953125 
Q 32.671875 40.375 32.421875 39.984375 
Q 32.171875 39.59375 31.6875 39.59375 
L 20.796875 39.59375 
L 13.625 10.6875 
Q 12.890625 7.859375 12.890625 5.8125 
Q 12.890625 1.515625 15.828125 1.515625 
Q 20.21875 1.515625 23.609375 5.640625 
Q 27 9.765625 28.8125 14.703125 
Q 29.203125 15.28125 29.59375 15.28125 
L 30.8125 15.28125 
Q 31.203125 15.28125 31.4375 15.015625 
Q 31.6875 14.75 31.6875 14.40625 
Q 31.6875 14.203125 31.59375 14.109375 
Q 29.390625 8.0625 25.1875 3.46875 
Q 21 -1.125 15.578125 -1.125 
Q 11.625 -1.125 8.90625 1.453125 
Q 6.203125 4.046875 6.203125 8.109375 
z
" id="Cmmi10-74"/>
     </defs>
     <g transform="translate(377.553012 248.1555)scale(0.16 -0.16)">
      <use transform="translate(0 0.421875)" xlink:href="#Cmmi10-44"/>
      <use transform="translate(82.714844 -16.584375)scale(0.7)" xlink:href="#Cmmi10-72"/>
      <use transform="translate(120.674219 0.421875)" xlink:href="#Cmr10-a2"/>
      <use transform="translate(203.975 0.421875)" xlink:href="#Cmmi10-74"/>
     </g>
    </g>
   </g>
   <g id="matplotlib.axis_2">
    <g id="ytick_1">
     <g id="line2d_38">
      <defs>
       <path d="M 0 0 
L -3.5 0 
" id="m24e0c5af56" style="stroke:#000000;stroke-width:0.8;"/>
      </defs>
      <g>
       <use style="stroke:#000000;stroke-width:0.8;" x="102.48" xlink:href="#m24e0c5af56" y="233.653403"/>
      </g>
     </g>
     <g id="text_6">
      <!-- $\mathdefault{10^{-2}}$ -->
      <g transform="translate(75.38 237.452622)scale(0.1 -0.1)">
       <use transform="translate(0 0.765625)" xlink:href="#DejaVuSans-31"/>
       <use transform="translate(63.623047 0.765625)" xlink:href="#DejaVuSans-30"/>
       <use transform="translate(128.203125 39.046875)scale(0.7)" xlink:href="#DejaVuSans-2d"/>
       <use transform="translate(153.461914 39.046875)scale(0.7)" xlink:href="#DejaVuSans-32"/>
      </g>
     </g>
    </g>
    <g id="ytick_2">
     <g id="line2d_39">
      <g>
       <use style="stroke:#000000;stroke-width:0.8;" x="102.48" xlink:href="#m24e0c5af56" y="135.263023"/>
      </g>
     </g>
     <g id="text_7">
      <!-- $\mathdefault{10^{-1}}$ -->
      <g transform="translate(75.38 139.062241)scale(0.1 -0.1)">
       <use transform="translate(0 0.684375)" xlink:href="#DejaVuSans-31"/>
       <use transform="translate(63.623047 0.684375)" xlink:href="#DejaVuSans-30"/>
       <use transform="translate(128.203125 38.965625)scale(0.7)" xlink:href="#DejaVuSans-2d"/>
       <use transform="translate(153.461914 38.965625)scale(0.7)" xlink:href="#DejaVuSans-31"/>
      </g>
     </g>
    </g>
    <g id="ytick_3">
     <g id="line2d_40">
      <g>
       <use style="stroke:#000000;stroke-width:0.8;" x="102.48" xlink:href="#m24e0c5af56" y="36.872642"/>
      </g>
     </g>
     <g id="text_8">
      <!-- $\mathdefault{10^{0}}$ -->
      <g transform="translate(77.88 40.671861)scale(0.1 -0.1)">
       <use transform="translate(0 0.765625)" xlink:href="#DejaVuSans-31"/>
       <use transform="translate(63.623047 0.765625)" xlink:href="#DejaVuSans-30"/>
       <use transform="translate(128.203125 39.046875)scale(0.7)" xlink:href="#DejaVuSans-30"/>
      </g>
     </g>
    </g>
    <g id="ytick_4">
     <g id="line2d_41">
      <defs>
       <path d="M 0 0 
L -2 0 
" id="md457ec0faa" style="stroke:#000000;stroke-width:0.6;"/>
      </defs>
      <g>
       <use style="stroke:#000000;stroke-width:0.6;" x="102.48" xlink:href="#md457ec0faa" y="238.1555"/>
      </g>
     </g>
    </g>
    <g id="ytick_5">
     <g id="line2d_42">
      <g>
       <use style="stroke:#000000;stroke-width:0.6;" x="102.48" xlink:href="#md457ec0faa" y="204.034947"/>
      </g>
     </g>
    </g>
    <g id="ytick_6">
     <g id="line2d_43">
      <g>
       <use style="stroke:#000000;stroke-width:0.6;" x="102.48" xlink:href="#md457ec0faa" y="186.709261"/>
      </g>
     </g>
    </g>
    <g id="ytick_7">
     <g id="line2d_44">
      <g>
       <use style="stroke:#000000;stroke-width:0.6;" x="102.48" xlink:href="#md457ec0faa" y="174.416491"/>
      </g>
     </g>
    </g>
    <g id="ytick_8">
     <g id="line2d_45">
      <g>
       <use style="stroke:#000000;stroke-width:0.6;" x="102.48" xlink:href="#md457ec0faa" y="164.881478"/>
      </g>
     </g>
    </g>
    <g id="ytick_9">
     <g id="line2d_46">
      <g>
       <use style="stroke:#000000;stroke-width:0.6;" x="102.48" xlink:href="#md457ec0faa" y="157.090805"/>
      </g>
     </g>
    </g>
    <g id="ytick_10">
     <g id="line2d_47">
      <g>
       <use style="stroke:#000000;stroke-width:0.6;" x="102.48" xlink:href="#md457ec0faa" y="150.503885"/>
      </g>
     </g>
    </g>
    <g id="ytick_11">
     <g id="line2d_48">
      <g>
       <use style="stroke:#000000;stroke-width:0.6;" x="102.48" xlink:href="#md457ec0faa" y="144.798036"/>
      </g>
     </g>
    </g>
    <g id="ytick_12">
     <g id="line2d_49">
      <g>
       <use style="stroke:#000000;stroke-width:0.6;" x="102.48" xlink:href="#md457ec0faa" y="139.765119"/>
      </g>
     </g>
    </g>
    <g id="ytick_13">
     <g id="line2d_50">
      <g>
       <use style="stroke:#000000;stroke-width:0.6;" x="102.48" xlink:href="#md457ec0faa" y="105.644567"/>
      </g>
     </g>
    </g>
    <g id="ytick_14">
     <g id="line2d_51">
      <g>
       <use style="stroke:#000000;stroke-width:0.6;" x="102.48" xlink:href="#md457ec0faa" y="88.318881"/>
      </g>
     </g>
    </g>
    <g id="ytick_15">
     <g id="line2d_52">
      <g>
       <use style="stroke:#000000;stroke-width:0.6;" x="102.48" xlink:href="#md457ec0faa" y="76.026111"/>
      </g>
     </g>
    </g>
    <g id="ytick_16">
     <g id="line2d_53">
      <g>
       <use style="stroke:#000000;stroke-width:0.6;" x="102.48" xlink:href="#md457ec0faa" y="66.491098"/>
      </g>
     </g>
    </g>
    <g id="ytick_17">
     <g id="line2d_54">
      <g>
       <use style="stroke:#000000;stroke-width:0.6;" x="102.48" xlink:href="#md457ec0faa" y="58.700425"/>
      </g>
     </g>
    </g>
    <g id="ytick_18">
     <g id="line2d_55">
      <g>
       <use style="stroke:#000000;stroke-width:0.6;" x="102.48" xlink:href="#md457ec0faa" y="52.113505"/>
      </g>
     </g>
    </g>
    <g id="ytick_19">
     <g id="line2d_56">
      <g>
       <use style="stroke:#000000;stroke-width:0.6;" x="102.48" xlink:href="#md457ec0faa" y="46.407655"/>
      </g>
     </g>
    </g>
    <g id="ytick_20">
     <g id="line2d_57">
      <g>
       <use style="stroke:#000000;stroke-width:0.6;" x="102.48" xlink:href="#md457ec0faa" y="41.374739"/>
      </g>
     </g>
    </g>
    <g id="text_9">
     <!-- $\left&lt;\dot{r}_i(t) \cdot \dot{r}_i(t + \Delta t)\right&gt;$$/\left&lt;|\dot{r}_i(t)|^2\right&gt;$ -->
     <defs>
      <path d="M 29.390625 -23.78125 
L 11.1875 24.3125 
Q 10.984375 24.703125 10.984375 25 
Q 10.984375 25.203125 11.1875 25.78125 
L 29.390625 73.78125 
Q 29.734375 75 31.203125 75 
Q 32.078125 75 32.640625 74.453125 
Q 33.203125 73.921875 33.203125 73 
Q 33.203125 72.75 33.171875 72.609375 
Q 33.15625 72.46875 33.109375 72.3125 
L 15.09375 25 
L 33.109375 -22.3125 
Q 33.15625 -22.46875 33.171875 -22.578125 
Q 33.203125 -22.703125 33.203125 -23 
Q 33.203125 -23.875 32.609375 -24.4375 
Q 32.03125 -25 31.203125 -25 
Q 29.734375 -25 29.390625 -23.78125 
z
" id="Cmsy10-68"/>
      <path d="M 8.40625 61.375 
Q 8.40625 63.578125 10.0625 65.234375 
Q 11.71875 66.890625 13.921875 66.890625 
Q 15.28125 66.890625 16.59375 66.15625 
Q 17.921875 65.4375 18.65625 64.109375 
Q 19.390625 62.796875 19.390625 61.375 
Q 19.390625 59.234375 17.765625 57.5625 
Q 16.15625 55.90625 13.921875 55.90625 
Q 11.71875 55.90625 10.0625 57.5625 
Q 8.40625 59.234375 8.40625 61.375 
z
" id="Cmr10-5f"/>
      <path d="M 7.8125 7.171875 
Q 7.8125 9.03125 8.59375 11.078125 
L 16.703125 32.625 
Q 18.015625 36.28125 18.015625 38.625 
Q 18.015625 41.609375 15.828125 41.609375 
Q 11.859375 41.609375 9.296875 37.53125 
Q 6.734375 33.453125 5.515625 28.421875 
Q 5.328125 27.78125 4.6875 27.78125 
L 3.515625 27.78125 
Q 2.6875 27.78125 2.6875 28.71875 
L 2.6875 29 
Q 4.296875 34.96875 7.609375 39.578125 
Q 10.9375 44.1875 16.015625 44.1875 
Q 19.578125 44.1875 22.046875 41.84375 
Q 24.515625 39.5 24.515625 35.890625 
Q 24.515625 34.03125 23.6875 31.984375 
L 15.578125 10.5 
Q 14.203125 7.171875 14.203125 4.5 
Q 14.203125 1.515625 16.5 1.515625 
Q 20.40625 1.515625 23.015625 5.6875 
Q 25.640625 9.859375 26.703125 14.703125 
Q 26.90625 15.28125 27.484375 15.28125 
L 28.71875 15.28125 
Q 29.109375 15.28125 29.34375 15.015625 
Q 29.59375 14.75 29.59375 14.40625 
Q 29.59375 14.3125 29.5 14.109375 
Q 28.125 8.453125 24.734375 3.65625 
Q 21.34375 -1.125 16.3125 -1.125 
Q 12.796875 -1.125 10.296875 1.296875 
Q 7.8125 3.71875 7.8125 7.171875 
z
M 19.09375 60.59375 
Q 19.09375 62.703125 20.84375 64.40625 
Q 22.609375 66.109375 24.703125 66.109375 
Q 26.421875 66.109375 27.515625 65.0625 
Q 28.609375 64.015625 28.609375 62.40625 
Q 28.609375 60.15625 26.828125 58.46875 
Q 25.046875 56.78125 22.90625 56.78125 
Q 21.296875 56.78125 20.1875 57.875 
Q 19.09375 58.984375 19.09375 60.59375 
z
" id="Cmmi10-69"/>
      <path d="M 31 -24.8125 
Q 25.4375 -20.40625 21.40625 -14.71875 
Q 17.390625 -9.03125 14.8125 -2.578125 
Q 12.25 3.859375 10.984375 10.890625 
Q 9.71875 17.921875 9.71875 25 
Q 9.71875 32.171875 10.984375 39.203125 
Q 12.25 46.234375 14.859375 52.734375 
Q 17.484375 59.234375 21.53125 64.890625 
Q 25.59375 70.5625 31 74.8125 
Q 31 75 31.5 75 
L 32.421875 75 
Q 32.71875 75 32.953125 74.734375 
Q 33.203125 74.46875 33.203125 74.125 
Q 33.203125 73.6875 33.015625 73.484375 
Q 28.125 68.703125 24.875 63.234375 
Q 21.625 57.765625 19.640625 51.578125 
Q 17.671875 45.40625 16.796875 38.78125 
Q 15.921875 32.171875 15.921875 25 
Q 15.921875 -6.78125 32.90625 -23.296875 
Q 33.203125 -23.578125 33.203125 -24.125 
Q 33.203125 -24.359375 32.9375 -24.671875 
Q 32.671875 -25 32.421875 -25 
L 31.5 -25 
Q 31 -25 31 -24.8125 
z
" id="Cmr10-28"/>
      <path d="M 6.5 -25 
Q 5.609375 -25 5.609375 -24.125 
Q 5.609375 -23.6875 5.8125 -23.484375 
Q 22.90625 -6.78125 22.90625 25 
Q 22.90625 56.78125 6 73.296875 
Q 5.609375 73.53125 5.609375 74.125 
Q 5.609375 74.46875 5.875 74.734375 
Q 6.15625 75 6.5 75 
L 7.421875 75 
Q 7.71875 75 7.90625 74.8125 
Q 15.09375 69.140625 19.875 61.03125 
Q 24.65625 52.9375 26.875 43.75 
Q 29.109375 34.578125 29.109375 25 
Q 29.109375 17.921875 27.90625 11.0625 
Q 26.703125 4.203125 24.09375 -2.453125 
Q 21.484375 -9.125 17.484375 -14.765625 
Q 13.484375 -20.40625 7.90625 -24.8125 
Q 7.71875 -25 7.421875 -25 
z
" id="Cmr10-29"/>
      <path d="M 8.40625 25 
Q 8.40625 26.421875 9.125 27.6875 
Q 9.859375 28.953125 11.15625 29.734375 
Q 12.453125 30.515625 13.921875 30.515625 
Q 15.328125 30.515625 16.625 29.734375 
Q 17.921875 28.953125 18.65625 27.6875 
Q 19.390625 26.421875 19.390625 25 
Q 19.390625 22.75 17.796875 21.109375 
Q 16.21875 19.484375 13.921875 19.484375 
Q 11.671875 19.484375 10.03125 21.109375 
Q 8.40625 22.75 8.40625 25 
z
" id="Cmsy10-a2"/>
      <path d="M 7.515625 23 
Q 6.6875 23 6.140625 23.625 
Q 5.609375 24.265625 5.609375 25 
Q 5.609375 25.734375 6.140625 26.359375 
Q 6.6875 27 7.515625 27 
L 36.921875 27 
L 36.921875 56.5 
Q 36.921875 57.28125 37.5 57.78125 
Q 38.09375 58.296875 38.921875 58.296875 
Q 39.65625 58.296875 40.28125 57.78125 
Q 40.921875 57.28125 40.921875 56.5 
L 40.921875 27 
L 70.3125 27 
Q 71.046875 27 71.578125 26.359375 
Q 72.125 25.734375 72.125 25 
Q 72.125 24.265625 71.578125 23.625 
Q 71.046875 23 70.3125 23 
L 40.921875 23 
L 40.921875 -6.5 
Q 40.921875 -7.28125 40.28125 -7.78125 
Q 39.65625 -8.296875 38.921875 -8.296875 
Q 38.09375 -8.296875 37.5 -7.78125 
Q 36.921875 -7.28125 36.921875 -6.5 
L 36.921875 23 
z
" id="Cmr10-2b"/>
      <path d="M 5.609375 -23 
Q 5.609375 -22.703125 5.8125 -22.3125 
L 23.6875 25 
L 5.8125 72.3125 
Q 5.609375 72.703125 5.609375 73 
Q 5.609375 73.828125 6.140625 74.40625 
Q 6.6875 75 7.625 75 
Q 8.9375 75 9.515625 73.78125 
L 27.6875 25.78125 
Q 27.734375 25.59375 27.75 25.4375 
Q 27.78125 25.296875 27.78125 25 
Q 27.78125 24.75 27.75 24.609375 
Q 27.734375 24.46875 27.6875 24.3125 
L 9.515625 -23.78125 
Q 8.9375 -25 7.625 -25 
Q 6.78125 -25 6.1875 -24.40625 
Q 5.609375 -23.828125 5.609375 -23 
z
" id="Cmsy10-69"/>
      <path d="M 5.609375 -23 
Q 5.609375 -22.703125 5.71875 -22.609375 
L 40.484375 73.78125 
Q 40.671875 74.359375 41.15625 74.671875 
Q 41.65625 75 42.28125 75 
Q 43.171875 75 43.71875 74.453125 
Q 44.28125 73.921875 44.28125 73 
L 44.28125 72.609375 
L 9.515625 -23.78125 
Q 8.9375 -25 7.625 -25 
Q 6.78125 -25 6.1875 -24.40625 
Q 5.609375 -23.828125 5.609375 -23 
z
" id="Cmmi10-3d"/>
      <path d="M 11.921875 -23.1875 
L 11.921875 73.1875 
Q 11.921875 73.96875 12.5 74.484375 
Q 13.09375 75 13.921875 75 
Q 14.65625 75 15.28125 74.484375 
Q 15.921875 73.96875 15.921875 73.1875 
L 15.921875 -23.1875 
Q 15.921875 -23.96875 15.28125 -24.484375 
Q 14.65625 -25 13.921875 -25 
Q 13.09375 -25 12.5 -24.484375 
Q 11.921875 -23.96875 11.921875 -23.1875 
z
" id="Cmsy10-6a"/>
      <path d="M 4.984375 0 
L 4.984375 2.6875 
Q 4.984375 2.9375 5.171875 3.21875 
L 20.703125 20.40625 
Q 24.21875 24.21875 26.40625 26.796875 
Q 28.609375 29.390625 30.75 32.765625 
Q 32.90625 36.140625 34.15625 39.625 
Q 35.40625 43.109375 35.40625 47.015625 
Q 35.40625 51.125 33.890625 54.859375 
Q 32.375 58.59375 29.375 60.84375 
Q 26.375 63.09375 22.125 63.09375 
Q 17.78125 63.09375 14.3125 60.46875 
Q 10.84375 57.859375 9.421875 53.71875 
Q 9.8125 53.8125 10.5 53.8125 
Q 12.75 53.8125 14.328125 52.296875 
Q 15.921875 50.78125 15.921875 48.390625 
Q 15.921875 46.09375 14.328125 44.5 
Q 12.75 42.921875 10.5 42.921875 
Q 8.15625 42.921875 6.5625 44.546875 
Q 4.984375 46.1875 4.984375 48.390625 
Q 4.984375 52.15625 6.390625 55.4375 
Q 7.8125 58.734375 10.46875 61.296875 
Q 13.140625 63.875 16.484375 65.234375 
Q 19.828125 66.609375 23.578125 66.609375 
Q 29.296875 66.609375 34.21875 64.1875 
Q 39.15625 61.765625 42.03125 57.34375 
Q 44.921875 52.9375 44.921875 47.015625 
Q 44.921875 42.671875 43.015625 38.765625 
Q 41.109375 34.859375 38.125 31.65625 
Q 35.15625 28.46875 30.515625 24.40625 
Q 25.875 20.359375 24.421875 19 
L 13.09375 8.109375 
L 22.703125 8.109375 
Q 29.78125 8.109375 34.546875 8.21875 
Q 39.3125 8.34375 39.59375 8.59375 
Q 40.765625 9.859375 42 17.828125 
L 44.921875 17.828125 
L 42.09375 0 
z
" id="Cmr10-32"/>
     </defs>
     <g transform="translate(7.2 20.8)scale(0.16 -0.16)">
      <use transform="translate(0 0.109375)" xlink:href="#Cmsy10-68"/>
      <use transform="translate(52.691406 0.890625)" xlink:href="#Cmr10-5f"/>
      <use transform="translate(38.818359 0.109375)" xlink:href="#Cmmi10-72"/>
      <use transform="translate(88.399687 -16.896875)scale(0.7)" xlink:href="#Cmmi10-69"/>
      <use transform="translate(118.873711 0.109375)" xlink:href="#Cmr10-28"/>
      <use transform="translate(157.69207 0.109375)" xlink:href="#Cmmi10-74"/>
      <use transform="translate(193.776055 0.109375)" xlink:href="#Cmr10-29"/>
      <use transform="translate(250.153008 0.109375)" xlink:href="#Cmsy10-a2"/>
      <use transform="translate(309.270195 0.890625)" xlink:href="#Cmr10-5f"/>
      <use transform="translate(295.397148 0.109375)" xlink:href="#Cmmi10-72"/>
      <use transform="translate(344.978477 -16.896875)scale(0.7)" xlink:href="#Cmmi10-69"/>
      <use transform="translate(375.4525 0.109375)" xlink:href="#Cmr10-28"/>
      <use transform="translate(414.270859 0.109375)" xlink:href="#Cmmi10-74"/>
      <use transform="translate(467.913437 0.109375)" xlink:href="#Cmr10-2b"/>
      <use transform="translate(563.157578 0.109375)" xlink:href="#Cmr10-a2"/>
      <use transform="translate(646.458359 0.109375)" xlink:href="#Cmmi10-74"/>
      <use transform="translate(682.542344 0.109375)" xlink:href="#Cmr10-29"/>
      <use transform="translate(721.360703 0.109375)" xlink:href="#Cmsy10-69"/>
      <use transform="translate(760.179062 0.109375)" xlink:href="#Cmmi10-3d"/>
      <use transform="translate(810.179062 2.578125)scale(1.098906)" xlink:href="#Cmsy10-68"/>
      <use transform="translate(852.836793 0.109375)" xlink:href="#Cmsy10-6a"/>
      <use transform="translate(894.395386 0.890625)" xlink:href="#Cmr10-5f"/>
      <use transform="translate(880.522339 0.109375)" xlink:href="#Cmmi10-72"/>
      <use transform="translate(930.103668 -16.896875)scale(0.7)" xlink:href="#Cmmi10-69"/>
      <use transform="translate(960.577691 0.109375)" xlink:href="#Cmr10-28"/>
      <use transform="translate(999.39605 0.109375)" xlink:href="#Cmmi10-74"/>
      <use transform="translate(1035.480035 0.109375)" xlink:href="#Cmr10-29"/>
      <use transform="translate(1074.298394 0.109375)" xlink:href="#Cmsy10-6a"/>
      <use transform="translate(1106.448082 38.373438)scale(0.7)" xlink:href="#Cmr10-32"/>
      <use transform="translate(1147.825425 2.578125)scale(1.098906)" xlink:href="#Cmsy10-69"/>
     </g>
    </g>
   </g>
   <g id="line2d_58">
    <path clip-path="url(#p52d52e04cf)" d="M -1 37.630678 
L 191.36843 37.632961 
L 210.698039 38.379854 
L 222.005135 39.11407 
L 234.635863 40.348399 
L 238.589477 40.854878 
L 243.965907 41.658418 
L 251.006377 42.946682 
L 257.4663 44.412116 
L 261.381211 45.456012 
L 267.044326 47.208157 
L 271.032741 48.63742 
L 275.551961 50.479905 
L 278.125696 51.646964 
L 282.21036 53.694876 
L 285.906007 55.777436 
L 290.059959 58.412974 
L 294.135427 61.343225 
L 297.483232 64.040501 
L 300.237686 66.480298 
L 303.847917 70.016781 
L 306.964397 73.417277 
L 310.168659 77.295769 
L 312.78009 80.780705 
L 315.681685 85.040578 
L 318.266106 89.225153 
L 321.008024 94.127439 
L 323.909644 99.921147 
L 326.582981 105.915823 
L 327.968312 109.313556 
L 330.535789 116.237082 
L 332.688788 122.796965 
L 334.72608 129.801251 
L 336.544327 136.88239 
L 338.296201 144.664035 
L 339.874348 152.739243 
L 341.447531 162.168265 
L 342.656707 170.72579 
L 343.942213 181.65592 
L 345.007075 192.881534 
L 345.975057 205.873987 
L 346.839706 221.435713 
L 347.594001 241.147353 
L 347.936794 253.990047 
L 348.25261 273.033625 
L 348.25261 273.033625 
" style="fill:none;stroke:#0000f1;stroke-linecap:square;"/>
   </g>
   <g id="line2d_59">
    <path clip-path="url(#p52d52e04cf)" d="M -1 37.546732 
L 175.360247 37.548593 
L 194.689855 38.208762 
L 205.996951 38.854119 
L 214.019463 39.48557 
L 224.461947 40.59992 
L 232.041888 41.67566 
L 237.995678 42.716776 
L 244.932768 44.190704 
L 250.270976 45.548268 
L 255.201613 47.001371 
L 261.105687 49.029202 
L 265.69774 50.853002 
L 269.628861 52.607772 
L 274.582497 55.104119 
L 278.239112 57.174144 
L 281.932322 59.48296 
L 284.870311 61.490919 
L 288.738963 64.388939 
L 291.875621 66.9703 
L 295.768043 70.492347 
L 299.392381 74.123061 
L 302.844991 77.933524 
L 306.413138 82.276582 
L 309.175351 85.95644 
L 311.58823 89.42537 
L 314.957215 94.718683 
L 317.883806 99.807127 
L 320.858076 105.531001 
L 322.822915 109.670524 
L 325.496036 115.846449 
L 328.022336 122.376298 
L 330.616417 129.960133 
L 332.451459 136.001566 
L 333.919469 141.338248 
L 336.188872 150.714701 
L 337.909212 159.028489 
L 339.241322 166.445026 
L 340.588942 175.13801 
L 341.941686 185.570776 
L 342.786038 193.330026 
L 343.854226 205.227837 
L 344.728536 217.684117 
L 345.521687 232.711811 
L 345.938961 243.106954 
L 346.577133 265.745014 
L 346.708736 273.033625 
L 346.708736 273.033625 
" style="fill:none;stroke:#004cff;stroke-linecap:square;"/>
   </g>
   <g id="line2d_60">
    <path clip-path="url(#p52d52e04cf)" d="M -1 37.256185 
L 141.04116 37.257038 
L 160.370769 37.633867 
L 179.700377 38.366194 
L 191.007473 39.072173 
L 199.029986 39.754087 
L 210.337082 41.053671 
L 218.359594 42.278824 
L 225.0848 43.543465 
L 230.499167 44.744212 
L 237.048066 46.444917 
L 242.980446 48.250871 
L 248.130786 50.048812 
L 252.476583 51.749639 
L 258.164578 54.254869 
L 263.32174 56.824994 
L 267.730823 59.266837 
L 272.556994 62.21765 
L 277.261275 65.393839 
L 281.642893 68.63899 
L 285.861639 72.04696 
L 289.914445 75.607823 
L 293.640222 79.156282 
L 297.164096 82.783738 
L 300.827148 86.870969 
L 304.435066 91.258332 
L 307.915683 95.885935 
L 310.702752 99.916072 
L 313.489268 104.279957 
L 315.972994 108.494566 
L 319.044044 114.202373 
L 321.301415 118.80951 
L 324.215432 125.379142 
L 326.025483 129.880785 
L 328.785275 137.511024 
L 331.044414 144.615435 
L 332.612546 150.122391 
L 334.512869 157.59854 
L 336.219549 165.275909 
L 337.360461 171.067983 
L 338.490301 177.474852 
L 339.820064 186.135982 
L 340.922682 194.571968 
L 342.220235 206.660957 
L 343.172518 217.841141 
L 344.141154 232.652856 
L 345.054773 252.788756 
L 345.467837 265.90974 
L 345.62686 273.033625 
L 345.62686 273.033625 
" style="fill:none;stroke:#00b0ff;stroke-linecap:square;"/>
   </g>
   <g id="line2d_61">
    <path clip-path="url(#p52d52e04cf)" d="M -1 37.403246 
L 135.386301 37.404379 
L 154.71591 37.91834 
L 166.023006 38.415833 
L 180.268262 39.366082 
L 189.651372 40.263444 
L 199.59787 41.525116 
L 206.914352 42.701695 
L 212.704735 43.807386 
L 218.927479 45.189886 
L 226.24396 47.104253 
L 232.034343 48.865751 
L 237.254922 50.658641 
L 242.974239 52.862557 
L 247.642535 54.858106 
L 253.412278 57.58049 
L 258.489765 60.21946 
L 263.061534 62.798007 
L 268.156103 65.908192 
L 272.929996 69.06412 
L 277.581743 72.384807 
L 282.812373 76.44348 
L 286.832538 79.828818 
L 290.820962 83.449674 
L 294.779412 87.339315 
L 298.066198 90.825737 
L 301.665658 94.9512 
L 305.291788 99.482676 
L 309.242 104.924706 
L 312.360113 109.66129 
L 314.951904 113.947329 
L 317.779846 119.047409 
L 320.179091 123.780099 
L 322.799555 129.455093 
L 325.461868 135.87352 
L 327.30289 140.77821 
L 329.880565 148.44072 
L 331.928235 155.35626 
L 333.781048 162.430692 
L 335.395311 169.409717 
L 336.762881 176.090224 
L 338.596308 186.545342 
L 339.93976 195.740567 
L 341.217872 206.292079 
L 342.126699 215.3838 
L 343.217224 229.070109 
L 343.984958 241.717391 
L 344.623768 255.656639 
L 345.16568 273.033625 
L 345.16568 273.033625 
" style="fill:none;stroke:#29ffce;stroke-linecap:square;"/>
   </g>
   <g id="line2d_62">
    <path clip-path="url(#p52d52e04cf)" d="M -1 37.279992 
L 112.48 37.280716 
L 131.809608 37.676154 
L 151.139217 38.43238 
L 162.446313 39.147207 
L 173.753409 40.152508 
L 181.775921 41.089419 
L 189.798434 42.250485 
L 198.679067 43.840461 
L 205.404288 45.287279 
L 211.135202 46.703624 
L 217.971023 48.632533 
L 224.674705 50.793678 
L 231.040184 53.103369 
L 237.751927 55.815387 
L 244.414904 58.789974 
L 250.959565 61.989136 
L 257.15744 65.283915 
L 262.387004 68.28186 
L 267.803689 71.622387 
L 273.397239 75.358901 
L 277.807684 78.541454 
L 282.828739 82.458366 
L 287.776784 86.67376 
L 291.578286 90.191188 
L 295.157279 93.75829 
L 298.720396 97.591407 
L 302.685611 102.239588 
L 306.549078 107.223075 
L 309.74354 111.743227 
L 313.375977 117.405913 
L 316.264266 122.379765 
L 318.831613 127.217942 
L 321.406929 132.538071 
L 323.310547 136.823962 
L 326.200016 144.022374 
L 328.093034 149.285916 
L 330.411829 156.473606 
L 332.618138 164.270861 
L 334.083717 170.11287 
L 335.52384 176.511504 
L 337.164956 184.830122 
L 338.46303 192.439763 
L 340.088834 203.802237 
L 341.174781 213.048118 
L 342.312197 224.957502 
L 343.01923 234.119903 
L 343.692103 244.818012 
L 344.392305 259.320969 
L 344.871634 273.033625 
L 344.871634 273.033625 
" style="fill:none;stroke:#7dff7a;stroke-linecap:square;"/>
   </g>
   <g id="line2d_63">
    <path clip-path="url(#p52d52e04cf)" d="M -1 37.723662 
L 112.57258 37.725175 
L 131.902188 38.513721 
L 143.209284 39.24807 
L 151.231797 39.936144 
L 162.538893 41.197974 
L 170.561405 42.337708 
L 179.442038 43.873107 
L 186.16726 45.247887 
L 193.175597 46.890361 
L 198.771647 48.362005 
L 205.496868 50.320952 
L 212.913768 52.717655 
L 220.002465 55.230003 
L 227.758593 58.217322 
L 234.889153 61.184878 
L 242.540789 64.623325 
L 248.538617 67.525469 
L 255.156001 70.970219 
L 260.738232 74.103693 
L 266.499474 77.590343 
L 271.769001 81.038805 
L 276.758235 84.5682 
L 281.79363 88.432586 
L 285.265024 91.299629 
L 290.276494 95.776816 
L 294.289139 99.694161 
L 298.676247 104.375329 
L 302.50812 108.86307 
L 305.759953 113.013543 
L 309.625338 118.428275 
L 312.773085 123.293243 
L 315.622221 128.115148 
L 317.870534 132.248123 
L 320.860885 138.274982 
L 322.657312 142.236184 
L 324.831023 147.43478 
L 327.240425 153.81511 
L 329.610692 160.876081 
L 331.740874 168.065081 
L 333.760249 175.836977 
L 335.522812 183.62363 
L 336.773294 189.892216 
L 338.269818 198.477332 
L 339.422649 206.170009 
L 340.816276 217.274955 
L 341.886429 227.803246 
L 342.71832 237.859785 
L 343.472176 249.204164 
L 344.242856 264.528118 
L 344.559885 273.033625 
L 344.559885 273.033625 
" style="fill:none;stroke:#ceff29;stroke-linecap:square;"/>
   </g>
   <g id="line2d_64">
    <path clip-path="url(#p52d52e04cf)" d="M -1 39.272241 
L 127.642892 39.277075 
L 146.972501 41.198601 
L 158.279597 42.819326 
L 166.302109 44.233434 
L 177.609205 46.633755 
L 185.631718 48.633338 
L 194.512351 51.122328 
L 203.161558 53.801591 
L 212.544668 56.97041 
L 220.567181 59.89582 
L 229.707961 63.495862 
L 236.259457 66.275623 
L 243.523145 69.582896 
L 250.22788 72.877823 
L 256.852426 76.398749 
L 263.190048 80.055038 
L 268.38521 83.296219 
L 273.968752 87.064689 
L 277.752662 89.810728 
L 282.632521 93.61583 
L 287.229925 97.512812 
L 291.700209 101.640576 
L 295.611922 105.571169 
L 299.923553 110.307089 
L 303.315404 114.379514 
L 306.724759 118.833042 
L 310.072349 123.615797 
L 311.910416 126.440292 
L 315.421573 132.291009 
L 318.275089 137.560428 
L 320.568952 142.195566 
L 323.315371 148.304907 
L 325.608748 153.968302 
L 328.012203 160.57933 
L 330.325982 167.760434 
L 332.230284 174.434261 
L 334.128675 181.973254 
L 335.409043 187.6951 
L 337.175475 196.701267 
L 338.695344 205.849711 
L 339.689165 212.805414 
L 341.123282 224.820882 
L 342.118421 235.212973 
L 342.748887 243.134591 
L 343.436228 253.555757 
L 344.373766 273.033625 
L 344.373766 273.033625 
" style="fill:none;stroke:#ffc400;stroke-linecap:square;"/>
   </g>
   <g id="line2d_65">
    <path clip-path="url(#p52d52e04cf)" d="M -1 39.723043 
L 117.007519 39.728311 
L 136.337127 41.8753 
L 147.644223 43.626783 
L 155.666736 45.119143 
L 166.973832 47.581146 
L 178.280928 50.433424 
L 188.53557 53.310663 
L 199.118294 56.539381 
L 207.865178 59.412187 
L 217.644772 62.871227 
L 225.196424 65.747424 
L 233.335089 69.079419 
L 240.731701 72.349062 
L 247.533204 75.59113 
L 254.640402 79.259571 
L 260.342467 82.443414 
L 266.563918 86.202396 
L 271.030677 89.112405 
L 276.94891 93.284372 
L 282.03133 97.20151 
L 286.414416 100.870026 
L 291.212609 105.246225 
L 294.870504 108.875832 
L 299.364562 113.74277 
L 302.973766 118.031301 
L 306.381535 122.445381 
L 308.454613 125.329174 
L 311.721474 130.224219 
L 314.53315 134.832439 
L 317.387926 139.952327 
L 319.506837 144.088134 
L 322.298246 150.054025 
L 324.754815 155.885946 
L 327.234239 162.451472 
L 329.845908 170.296953 
L 331.690636 176.569856 
L 333.434254 183.211285 
L 335.027669 190.049659 
L 336.805103 198.818942 
L 338.46853 208.52859 
L 339.776751 217.628334 
L 340.820484 226.223568 
L 341.938532 237.382848 
L 342.828009 248.481818 
L 343.597702 260.686992 
L 344.19734 273.033625 
L 344.19734 273.033625 
" style="fill:none;stroke:#ff6800;stroke-linecap:square;"/>
   </g>
   <g id="line2d_66">
    <path clip-path="url(#p52d52e04cf)" d="M -1 43.2955 
L 125.031801 43.308176 
L 144.361409 46.909123 
L 155.668506 49.443061 
L 169.913762 52.983175 
L 183.020626 56.54829 
L 194.327722 59.884001 
L 204.040857 62.973157 
L 213.657331 66.26835 
L 223.328562 69.859516 
L 231.5826 73.181728 
L 238.8755 76.347132 
L 245.652133 79.512397 
L 252.121733 82.766664 
L 258.243608 86.087522 
L 263.260512 89.01014 
L 269.415968 92.882264 
L 274.767801 96.54585 
L 279.523737 100.071626 
L 284.101793 103.743553 
L 287.115741 106.330421 
L 290.775808 109.676734 
L 295.42126 114.293616 
L 299.538377 118.788583 
L 302.7938 122.656746 
L 305.734284 126.425998 
L 309.778533 132.108325 
L 312.174985 135.791968 
L 315.179157 140.801493 
L 317.986076 145.942022 
L 320.661479 151.333825 
L 323.074049 156.687916 
L 325.392373 162.361471 
L 327.869377 169.123424 
L 329.71323 174.734541 
L 331.936607 182.327912 
L 333.677662 189.074345 
L 335.400234 196.652188 
L 337.220103 205.966933 
L 338.534243 213.84075 
L 339.942109 223.800591 
L 341.048447 233.223274 
L 342.315196 246.721655 
L 343.23003 259.440595 
L 343.965886 273.033625 
L 343.965886 273.033625 
" style="fill:none;stroke:#f10800;stroke-linecap:square;"/>
   </g>
   <g id="patch_3">
    <path d="M 102.48 238.1555 
L 102.48 32.8 
" style="fill:none;stroke:#000000;stroke-linecap:square;stroke-linejoin:miter;stroke-width:0.8;"/>
   </g>
   <g id="patch_4">
    <path d="M 112.48 248.1555 
L 369.553012 248.1555 
" style="fill:none;stroke:#000000;stroke-linecap:square;stroke-linejoin:miter;stroke-width:0.8;"/>
   </g>
   <g id="text_10">
    <!-- $D=1e+00, D_r=5e-02$ -->
    <defs>
     <path d="M 7.515625 13.28125 
Q 6.6875 13.28125 6.140625 13.90625 
Q 5.609375 14.546875 5.609375 15.28125 
Q 5.609375 16.109375 6.140625 16.6875 
Q 6.6875 17.28125 7.515625 17.28125 
L 70.3125 17.28125 
Q 71.046875 17.28125 71.578125 16.6875 
Q 72.125 16.109375 72.125 15.28125 
Q 72.125 14.546875 71.578125 13.90625 
Q 71.046875 13.28125 70.3125 13.28125 
z
M 7.515625 32.71875 
Q 6.6875 32.71875 6.140625 33.296875 
Q 5.609375 33.890625 5.609375 34.71875 
Q 5.609375 35.453125 6.140625 36.078125 
Q 6.6875 36.71875 7.515625 36.71875 
L 70.3125 36.71875 
Q 71.046875 36.71875 71.578125 36.078125 
Q 72.125 35.453125 72.125 34.71875 
Q 72.125 33.890625 71.578125 33.296875 
Q 71.046875 32.71875 70.3125 32.71875 
z
" id="Cmr10-3d"/>
     <path d="M 9.28125 0 
L 9.28125 3.515625 
Q 21.78125 3.515625 21.78125 6.6875 
L 21.78125 59.1875 
Q 16.609375 56.6875 8.6875 56.6875 
L 8.6875 60.203125 
Q 20.953125 60.203125 27.203125 66.609375 
L 28.609375 66.609375 
Q 28.953125 66.609375 29.265625 66.328125 
Q 29.59375 66.0625 29.59375 65.71875 
L 29.59375 6.6875 
Q 29.59375 3.515625 42.09375 3.515625 
L 42.09375 0 
z
" id="Cmr10-31"/>
     <path d="M 20.125 -1.125 
Q 15.328125 -1.125 11.734375 1.359375 
Q 8.15625 3.859375 6.265625 8.078125 
Q 4.390625 12.3125 4.390625 17 
Q 4.390625 24.125 7.984375 30.390625 
Q 11.578125 36.671875 17.71875 40.421875 
Q 23.875 44.1875 30.90625 44.1875 
Q 35.203125 44.1875 38.40625 41.96875 
Q 41.609375 39.75 41.609375 35.59375 
Q 41.609375 29.828125 37.015625 27.015625 
Q 32.421875 24.21875 26.65625 23.5625 
Q 20.90625 22.90625 13.921875 22.90625 
L 13.625 22.90625 
Q 12.015625 16.9375 12.015625 12.703125 
Q 12.015625 8.25 14.0625 4.875 
Q 16.109375 1.515625 20.3125 1.515625 
Q 26.265625 1.515625 31.75 4.25 
Q 37.25 6.984375 40.71875 11.8125 
Q 41.015625 12.109375 41.5 12.109375 
Q 42 12.109375 42.5 11.546875 
Q 43.015625 10.984375 43.015625 10.5 
Q 43.015625 10.109375 42.828125 9.90625 
Q 39.15625 4.78125 32.953125 1.828125 
Q 26.765625 -1.125 20.125 -1.125 
z
M 14.203125 25.484375 
Q 20.015625 25.484375 24.953125 26.015625 
Q 29.890625 26.5625 33.890625 28.734375 
Q 37.890625 30.90625 37.890625 35.5 
Q 37.890625 37.359375 36.859375 38.75 
Q 35.84375 40.140625 34.203125 40.875 
Q 32.5625 41.609375 30.8125 41.609375 
Q 26.5625 41.609375 23.171875 39.3125 
Q 19.78125 37.015625 17.578125 33.328125 
Q 15.375 29.640625 14.203125 25.484375 
z
" id="Cmmi10-65"/>
     <path d="M 25 -2.203125 
Q 12.75 -2.203125 8.328125 7.875 
Q 3.90625 17.96875 3.90625 31.890625 
Q 3.90625 40.578125 5.484375 48.234375 
Q 7.078125 55.90625 11.78125 61.25 
Q 16.5 66.609375 25 66.609375 
Q 31.59375 66.609375 35.78125 63.375 
Q 39.984375 60.15625 42.1875 55.046875 
Q 44.390625 49.953125 45.1875 44.109375 
Q 46 38.28125 46 31.890625 
Q 46 23.296875 44.40625 15.796875 
Q 42.828125 8.296875 38.1875 3.046875 
Q 33.546875 -2.203125 25 -2.203125 
z
M 25 0.390625 
Q 30.5625 0.390625 33.296875 6.09375 
Q 36.03125 11.8125 36.671875 18.75 
Q 37.3125 25.6875 37.3125 33.5 
Q 37.3125 41.015625 36.671875 47.359375 
Q 36.03125 53.71875 33.3125 58.859375 
Q 30.609375 64.015625 25 64.015625 
Q 19.34375 64.015625 16.609375 58.828125 
Q 13.875 53.65625 13.234375 47.328125 
Q 12.59375 41.015625 12.59375 33.5 
Q 12.59375 27.9375 12.859375 23 
Q 13.140625 18.0625 14.3125 12.8125 
Q 15.484375 7.5625 18.09375 3.96875 
Q 20.703125 0.390625 25 0.390625 
z
" id="Cmr10-30"/>
     <path d="M 9.90625 -18.015625 
Q 9.90625 -17.578125 10.296875 -17.1875 
Q 13.921875 -13.71875 15.921875 -9.171875 
Q 17.921875 -4.640625 17.921875 0.390625 
L 17.921875 1.609375 
Q 16.3125 0 13.921875 0 
Q 11.625 0 10.015625 1.609375 
Q 8.40625 3.21875 8.40625 5.515625 
Q 8.40625 7.859375 10.015625 9.421875 
Q 11.625 10.984375 13.921875 10.984375 
Q 17.484375 10.984375 19 7.6875 
Q 20.515625 4.390625 20.515625 0.390625 
Q 20.515625 -5.171875 18.28125 -10.171875 
Q 16.0625 -15.1875 12.015625 -19.1875 
Q 11.625 -19.390625 11.375 -19.390625 
Q 10.890625 -19.390625 10.390625 -18.9375 
Q 9.90625 -18.5 9.90625 -18.015625 
z
" id="Cmmi10-3b"/>
     <path d="M 8.6875 11.375 
Q 9.71875 8.453125 11.84375 6.046875 
Q 13.96875 3.65625 16.875 2.3125 
Q 19.78125 0.984375 22.90625 0.984375 
Q 30.125 0.984375 32.859375 6.59375 
Q 35.59375 12.203125 35.59375 20.21875 
Q 35.59375 23.6875 35.46875 26.046875 
Q 35.359375 28.421875 34.8125 30.609375 
Q 33.890625 34.125 31.5625 36.765625 
Q 29.25 39.40625 25.875 39.40625 
Q 22.515625 39.40625 20.09375 38.375 
Q 17.671875 37.359375 16.15625 35.984375 
Q 14.65625 34.625 13.484375 33.109375 
Q 12.3125 31.59375 12.015625 31.5 
L 10.890625 31.5 
Q 10.640625 31.5 10.265625 31.8125 
Q 9.90625 32.125 9.90625 32.421875 
L 9.90625 65.828125 
Q 9.90625 66.0625 10.21875 66.328125 
Q 10.546875 66.609375 10.890625 66.609375 
L 11.1875 66.609375 
Q 17.921875 63.375 25.484375 63.375 
Q 32.90625 63.375 39.796875 66.609375 
L 40.09375 66.609375 
Q 40.4375 66.609375 40.71875 66.359375 
Q 41.015625 66.109375 41.015625 65.828125 
L 41.015625 64.890625 
Q 41.015625 64.40625 40.828125 64.40625 
Q 37.40625 59.859375 32.25 57.3125 
Q 27.09375 54.78125 21.578125 54.78125 
Q 17.578125 54.78125 13.375 55.90625 
L 13.375 37.015625 
Q 16.703125 39.703125 19.3125 40.84375 
Q 21.921875 42 25.984375 42 
Q 31.5 42 35.859375 38.8125 
Q 40.234375 35.640625 42.578125 30.53125 
Q 44.921875 25.4375 44.921875 20.125 
Q 44.921875 14.109375 41.96875 8.984375 
Q 39.015625 3.859375 33.9375 0.828125 
Q 28.859375 -2.203125 22.90625 -2.203125 
Q 17.96875 -2.203125 13.84375 0.328125 
Q 9.71875 2.875 7.34375 7.171875 
Q 4.984375 11.46875 4.984375 16.3125 
Q 4.984375 18.5625 6.4375 19.96875 
Q 7.90625 21.390625 10.109375 21.390625 
Q 12.3125 21.390625 13.796875 19.9375 
Q 15.28125 18.5 15.28125 16.3125 
Q 15.28125 14.15625 13.796875 12.671875 
Q 12.3125 11.1875 10.109375 11.1875 
Q 9.765625 11.1875 9.328125 11.25 
Q 8.890625 11.328125 8.6875 11.375 
z
" id="Cmr10-35"/>
     <path d="M 10.203125 23 
Q 9.375 23 8.828125 23.625 
Q 8.296875 24.265625 8.296875 25 
Q 8.296875 25.734375 8.828125 26.359375 
Q 9.375 27 10.203125 27 
L 67.578125 27 
Q 68.359375 27 68.875 26.359375 
Q 69.390625 25.734375 69.390625 25 
Q 69.390625 24.265625 68.875 23.625 
Q 68.359375 23 67.578125 23 
z
" id="Cmsy10-a1"/>
    </defs>
    <g transform="translate(263.488409 26.8)scale(0.1 -0.1)">
     <use transform="translate(0 0.6875)" xlink:href="#Cmmi10-44"/>
     <use transform="translate(100.273438 0.6875)" xlink:href="#Cmr10-3d"/>
     <use transform="translate(195.517578 0.6875)" xlink:href="#Cmr10-31"/>
     <use transform="translate(245.517578 0.6875)" xlink:href="#Cmmi10-65"/>
     <use transform="translate(309.560547 0.6875)" xlink:href="#Cmr10-2b"/>
     <use transform="translate(404.804688 0.6875)" xlink:href="#Cmr10-30"/>
     <use transform="translate(454.804688 0.6875)" xlink:href="#Cmr10-30"/>
     <use transform="translate(504.804688 0.6875)" xlink:href="#Cmmi10-3b"/>
     <use transform="translate(550.048828 0.6875)" xlink:href="#Cmmi10-44"/>
     <use transform="translate(632.763672 -16.31875)scale(0.7)" xlink:href="#Cmmi10-72"/>
     <use transform="translate(688.281641 0.6875)" xlink:href="#Cmr10-3d"/>
     <use transform="translate(783.525781 0.6875)" xlink:href="#Cmr10-35"/>
     <use transform="translate(833.525781 0.6875)" xlink:href="#Cmmi10-65"/>
     <use transform="translate(897.56875 0.6875)" xlink:href="#Cmsy10-a1"/>
     <use transform="translate(992.812891 0.6875)" xlink:href="#Cmr10-30"/>
     <use transform="translate(1042.812891 0.6875)" xlink:href="#Cmr10-32"/>
    </g>
   </g>
   <g id="legend_1">
    <g id="patch_5">
     <path d="M 119.48 235.1555 
L 172.08 235.1555 
L 172.08 133.369563 
L 119.48 133.369563 
z
" style="fill:#4c4c4c;opacity:0.5;stroke:#4c4c4c;stroke-linejoin:miter;"/>
    </g>
    <g id="patch_6">
     <path d="M 117.48 233.1555 
L 170.08 233.1555 
L 170.08 131.369563 
L 117.48 131.369563 
z
" style="fill:#ffffff;stroke:#cccccc;stroke-linejoin:miter;"/>
    </g>
    <g id="line2d_67">
     <path d="M 126.48 141.468 
L 120.98 141.468 
" style="fill:none;stroke:#0000f1;stroke-linecap:square;"/>
    </g>
    <g id="line2d_68"/>
    <g id="text_11">
     <!-- $\mu=0.01$ -->
     <defs>
      <path d="M 2.78125 -18.796875 
Q 2.78125 -18.21875 2.875 -18.015625 
L 17.578125 41.015625 
Q 18.015625 42.4375 19.15625 43.3125 
Q 20.3125 44.1875 21.78125 44.1875 
Q 23.046875 44.1875 23.921875 43.421875 
Q 24.8125 42.671875 24.8125 41.40625 
Q 24.8125 41.109375 24.78125 40.9375 
Q 24.75 40.765625 24.703125 40.578125 
L 18.796875 17.1875 
Q 17.828125 13.03125 17.828125 10.015625 
Q 17.828125 6.296875 19.578125 3.90625 
Q 21.34375 1.515625 24.90625 1.515625 
Q 32.171875 1.515625 37.703125 10.59375 
Q 37.75 10.6875 37.765625 10.734375 
Q 37.796875 10.796875 37.796875 10.890625 
L 45.015625 39.890625 
Q 45.359375 41.21875 46.578125 42.15625 
Q 47.796875 43.109375 49.21875 43.109375 
Q 50.390625 43.109375 51.296875 42.328125 
Q 52.203125 41.546875 52.203125 40.28125 
Q 52.203125 39.703125 52.09375 39.5 
L 44.921875 10.6875 
Q 44.1875 7.859375 44.1875 5.8125 
Q 44.1875 1.515625 47.125 1.515625 
Q 50.25 1.515625 51.828125 5.375 
Q 53.421875 9.234375 54.59375 14.703125 
Q 54.78125 15.28125 55.421875 15.28125 
L 56.59375 15.28125 
Q 56.984375 15.28125 57.25 14.96875 
Q 57.515625 14.65625 57.515625 14.3125 
Q 55.765625 7.328125 53.6875 3.09375 
Q 51.609375 -1.125 46.921875 -1.125 
Q 43.609375 -1.125 41.046875 0.78125 
Q 38.484375 2.6875 37.703125 5.90625 
Q 35.203125 2.78125 31.859375 0.828125 
Q 28.515625 -1.125 24.8125 -1.125 
Q 18.5625 -1.125 14.984375 1.8125 
L 9.90625 -18.40625 
Q 9.625 -19.828125 8.453125 -20.703125 
Q 7.28125 -21.578125 5.8125 -21.578125 
Q 4.59375 -21.578125 3.6875 -20.8125 
Q 2.78125 -20.0625 2.78125 -18.796875 
z
" id="Cmmi10-b9"/>
      <path d="M 8.40625 5.515625 
Q 8.40625 7.765625 10.0625 9.375 
Q 11.71875 10.984375 13.921875 10.984375 
Q 15.28125 10.984375 16.59375 10.25 
Q 17.921875 9.515625 18.65625 8.203125 
Q 19.390625 6.890625 19.390625 5.515625 
Q 19.390625 3.328125 17.765625 1.65625 
Q 16.15625 0 13.921875 0 
Q 11.71875 0 10.0625 1.65625 
Q 8.40625 3.328125 8.40625 5.515625 
z
" id="Cmmi10-3a"/>
     </defs>
     <g transform="translate(128.98 144.968)scale(0.1 -0.1)">
      <use transform="translate(0 0.390625)" xlink:href="#Cmmi10-b9"/>
      <use transform="translate(77.763672 0.390625)" xlink:href="#Cmr10-3d"/>
      <use transform="translate(173.007812 0.390625)" xlink:href="#Cmr10-30"/>
      <use transform="translate(223.007812 0.390625)" xlink:href="#Cmmi10-3a"/>
      <use transform="translate(250.693359 0.390625)" xlink:href="#Cmr10-30"/>
      <use transform="translate(300.693359 0.390625)" xlink:href="#Cmr10-31"/>
     </g>
    </g>
    <g id="line2d_69">
     <path d="M 126.48 151.466438 
L 120.98 151.466438 
" style="fill:none;stroke:#004cff;stroke-linecap:square;"/>
    </g>
    <g id="line2d_70"/>
    <g id="text_12">
     <!-- $\mu=0.02$ -->
     <g transform="translate(128.98 154.966438)scale(0.1 -0.1)">
      <use transform="translate(0 0.390625)" xlink:href="#Cmmi10-b9"/>
      <use transform="translate(77.763672 0.390625)" xlink:href="#Cmr10-3d"/>
      <use transform="translate(173.007812 0.390625)" xlink:href="#Cmr10-30"/>
      <use transform="translate(223.007812 0.390625)" xlink:href="#Cmmi10-3a"/>
      <use transform="translate(250.693359 0.390625)" xlink:href="#Cmr10-30"/>
      <use transform="translate(300.693359 0.390625)" xlink:href="#Cmr10-32"/>
     </g>
    </g>
    <g id="line2d_71">
     <path d="M 126.48 161.464875 
L 120.98 161.464875 
" style="fill:none;stroke:#00b0ff;stroke-linecap:square;"/>
    </g>
    <g id="line2d_72"/>
    <g id="text_13">
     <!-- $\mu=0.05$ -->
     <g transform="translate(128.98 164.964875)scale(0.1 -0.1)">
      <use transform="translate(0 0.390625)" xlink:href="#Cmmi10-b9"/>
      <use transform="translate(77.763672 0.390625)" xlink:href="#Cmr10-3d"/>
      <use transform="translate(173.007812 0.390625)" xlink:href="#Cmr10-30"/>
      <use transform="translate(223.007812 0.390625)" xlink:href="#Cmmi10-3a"/>
      <use transform="translate(250.693359 0.390625)" xlink:href="#Cmr10-30"/>
      <use transform="translate(300.693359 0.390625)" xlink:href="#Cmr10-35"/>
     </g>
    </g>
    <g id="line2d_73">
     <path d="M 126.48 171.463313 
L 120.98 171.463313 
" style="fill:none;stroke:#29ffce;stroke-linecap:square;"/>
    </g>
    <g id="line2d_74"/>
    <g id="text_14">
     <!-- $\mu=0.10$ -->
     <g transform="translate(128.98 174.963313)scale(0.1 -0.1)">
      <use transform="translate(0 0.390625)" xlink:href="#Cmmi10-b9"/>
      <use transform="translate(77.763672 0.390625)" xlink:href="#Cmr10-3d"/>
      <use transform="translate(173.007812 0.390625)" xlink:href="#Cmr10-30"/>
      <use transform="translate(223.007812 0.390625)" xlink:href="#Cmmi10-3a"/>
      <use transform="translate(250.693359 0.390625)" xlink:href="#Cmr10-31"/>
      <use transform="translate(300.693359 0.390625)" xlink:href="#Cmr10-30"/>
     </g>
    </g>
    <g id="line2d_75">
     <path d="M 126.48 181.46175 
L 120.98 181.46175 
" style="fill:none;stroke:#7dff7a;stroke-linecap:square;"/>
    </g>
    <g id="line2d_76"/>
    <g id="text_15">
     <!-- $\mu=0.20$ -->
     <g transform="translate(128.98 184.96175)scale(0.1 -0.1)">
      <use transform="translate(0 0.390625)" xlink:href="#Cmmi10-b9"/>
      <use transform="translate(77.763672 0.390625)" xlink:href="#Cmr10-3d"/>
      <use transform="translate(173.007812 0.390625)" xlink:href="#Cmr10-30"/>
      <use transform="translate(223.007812 0.390625)" xlink:href="#Cmmi10-3a"/>
      <use transform="translate(250.693359 0.390625)" xlink:href="#Cmr10-32"/>
      <use transform="translate(300.693359 0.390625)" xlink:href="#Cmr10-30"/>
     </g>
    </g>
    <g id="line2d_77">
     <path d="M 126.48 191.460188 
L 120.98 191.460188 
" style="fill:none;stroke:#ceff29;stroke-linecap:square;"/>
    </g>
    <g id="line2d_78"/>
    <g id="text_16">
     <!-- $\mu=0.50$ -->
     <g transform="translate(128.98 194.960188)scale(0.1 -0.1)">
      <use transform="translate(0 0.390625)" xlink:href="#Cmmi10-b9"/>
      <use transform="translate(77.763672 0.390625)" xlink:href="#Cmr10-3d"/>
      <use transform="translate(173.007812 0.390625)" xlink:href="#Cmr10-30"/>
      <use transform="translate(223.007812 0.390625)" xlink:href="#Cmmi10-3a"/>
      <use transform="translate(250.693359 0.390625)" xlink:href="#Cmr10-35"/>
      <use transform="translate(300.693359 0.390625)" xlink:href="#Cmr10-30"/>
     </g>
    </g>
    <g id="line2d_79">
     <path d="M 126.48 201.458625 
L 120.98 201.458625 
" style="fill:none;stroke:#ffc400;stroke-linecap:square;"/>
    </g>
    <g id="line2d_80"/>
    <g id="text_17">
     <!-- $\mu=1.00$ -->
     <g transform="translate(128.98 204.958625)scale(0.1 -0.1)">
      <use transform="translate(0 0.390625)" xlink:href="#Cmmi10-b9"/>
      <use transform="translate(77.763672 0.390625)" xlink:href="#Cmr10-3d"/>
      <use transform="translate(173.007812 0.390625)" xlink:href="#Cmr10-31"/>
      <use transform="translate(223.007812 0.390625)" xlink:href="#Cmmi10-3a"/>
      <use transform="translate(250.693359 0.390625)" xlink:href="#Cmr10-30"/>
      <use transform="translate(300.693359 0.390625)" xlink:href="#Cmr10-30"/>
     </g>
    </g>
    <g id="line2d_81">
     <path d="M 126.48 211.457063 
L 120.98 211.457063 
" style="fill:none;stroke:#ff6800;stroke-linecap:square;"/>
    </g>
    <g id="line2d_82"/>
    <g id="text_18">
     <!-- $\mu=2.00$ -->
     <g transform="translate(128.98 214.957063)scale(0.1 -0.1)">
      <use transform="translate(0 0.390625)" xlink:href="#Cmmi10-b9"/>
      <use transform="translate(77.763672 0.390625)" xlink:href="#Cmr10-3d"/>
      <use transform="translate(173.007812 0.390625)" xlink:href="#Cmr10-32"/>
      <use transform="translate(223.007812 0.390625)" xlink:href="#Cmmi10-3a"/>
      <use transform="translate(250.693359 0.390625)" xlink:href="#Cmr10-30"/>
      <use transform="translate(300.693359 0.390625)" xlink:href="#Cmr10-30"/>
     </g>
    </g>
    <g id="line2d_83">
     <path d="M 126.48 221.4555 
L 120.98 221.4555 
" style="fill:none;stroke:#f10800;stroke-linecap:square;"/>
    </g>
    <g id="line2d_84"/>
    <g id="text_19">
     <!-- $\mu=5.00$ -->
     <g transform="translate(128.98 224.9555)scale(0.1 -0.1)">
      <use transform="translate(0 0.390625)" xlink:href="#Cmmi10-b9"/>
      <use transform="translate(77.763672 0.390625)" xlink:href="#Cmr10-3d"/>
      <use transform="translate(173.007812 0.390625)" xlink:href="#Cmr10-35"/>
      <use transform="translate(223.007812 0.390625)" xlink:href="#Cmmi10-3a"/>
      <use transform="translate(250.693359 0.390625)" xlink:href="#Cmr10-30"/>
      <use transform="translate(300.693359 0.390625)" xlink:href="#Cmr10-30"/>
     </g>
    </g>
   </g>
  </g>
 </g>
 <defs>
  <clipPath id="p52d52e04cf">
   <rect height="205.3555" width="257.073012" x="112.48" y="32.8"/>
  </clipPath>
 </defs>
</svg>
