<?xml version="1.0" encoding="utf-8" standalone="no"?>
<!DOCTYPE svg PUBLIC "-//W3C//DTD SVG 1.1//EN"
  "http://www.w3.org/Graphics/SVG/1.1/DTD/svg11.dtd">
<!-- Created with matplotlib (http://matplotlib.org/) -->
<svg height="272.678125pt" version="1.1" viewBox="0 0 421.507709 272.678125" width="421.507709pt" xmlns="http://www.w3.org/2000/svg" xmlns:xlink="http://www.w3.org/1999/xlink">
 <defs>
  <style type="text/css">
*{stroke-linecap:butt;stroke-linejoin:round;}
  </style>
 </defs>
 <g id="figure_1">
  <g id="patch_1">
   <path d="M -0 272.678125 
L 421.507709 272.678125 
L 421.507709 0 
L -0 0 
z
" style="fill:#ffffff;"/>
  </g>
  <g id="axes_1">
   <g id="patch_2">
    <path d="M 94.96 238.8 
L 385.507709 238.8 
L 385.507709 35.2 
L 94.96 35.2 
z
" style="fill:#ffffff;"/>
   </g>
   <g id="matplotlib.axis_1">
    <g id="xtick_1">
     <g id="line2d_1">
      <defs>
       <path d="M 0 0 
L 0 3.5 
" id="m1f9e361a86" style="stroke:#000000;stroke-width:0.8;"/>
      </defs>
      <g>
       <use style="stroke:#000000;stroke-width:0.8;" x="149.293654" xlink:href="#m1f9e361a86" y="248.8"/>
      </g>
     </g>
     <g id="text_1">
      <!-- $\mathdefault{10^{-3}}$ -->
      <defs>
       <path d="M 12.40625 8.296875 
L 28.515625 8.296875 
L 28.515625 63.921875 
L 10.984375 60.40625 
L 10.984375 69.390625 
L 28.421875 72.90625 
L 38.28125 72.90625 
L 38.28125 8.296875 
L 54.390625 8.296875 
L 54.390625 0 
L 12.40625 0 
z
" id="DejaVuSans-31"/>
       <path d="M 31.78125 66.40625 
Q 24.171875 66.40625 20.328125 58.90625 
Q 16.5 51.421875 16.5 36.375 
Q 16.5 21.390625 20.328125 13.890625 
Q 24.171875 6.390625 31.78125 6.390625 
Q 39.453125 6.390625 43.28125 13.890625 
Q 47.125 21.390625 47.125 36.375 
Q 47.125 51.421875 43.28125 58.90625 
Q 39.453125 66.40625 31.78125 66.40625 
z
M 31.78125 74.21875 
Q 44.046875 74.21875 50.515625 64.515625 
Q 56.984375 54.828125 56.984375 36.375 
Q 56.984375 17.96875 50.515625 8.265625 
Q 44.046875 -1.421875 31.78125 -1.421875 
Q 19.53125 -1.421875 13.0625 8.265625 
Q 6.59375 17.96875 6.59375 36.375 
Q 6.59375 54.828125 13.0625 64.515625 
Q 19.53125 74.21875 31.78125 74.21875 
z
" id="DejaVuSans-30"/>
       <path d="M 4.890625 31.390625 
L 31.203125 31.390625 
L 31.203125 23.390625 
L 4.890625 23.390625 
z
" id="DejaVuSans-2d"/>
       <path d="M 40.578125 39.3125 
Q 47.65625 37.796875 51.625 33 
Q 55.609375 28.21875 55.609375 21.1875 
Q 55.609375 10.40625 48.1875 4.484375 
Q 40.765625 -1.421875 27.09375 -1.421875 
Q 22.515625 -1.421875 17.65625 -0.515625 
Q 12.796875 0.390625 7.625 2.203125 
L 7.625 11.71875 
Q 11.71875 9.328125 16.59375 8.109375 
Q 21.484375 6.890625 26.8125 6.890625 
Q 36.078125 6.890625 40.9375 10.546875 
Q 45.796875 14.203125 45.796875 21.1875 
Q 45.796875 27.640625 41.28125 31.265625 
Q 36.765625 34.90625 28.71875 34.90625 
L 20.21875 34.90625 
L 20.21875 43.015625 
L 29.109375 43.015625 
Q 36.375 43.015625 40.234375 45.921875 
Q 44.09375 48.828125 44.09375 54.296875 
Q 44.09375 59.90625 40.109375 62.90625 
Q 36.140625 65.921875 28.71875 65.921875 
Q 24.65625 65.921875 20.015625 65.03125 
Q 15.375 64.15625 9.8125 62.3125 
L 9.8125 71.09375 
Q 15.4375 72.65625 20.34375 73.4375 
Q 25.25 74.21875 29.59375 74.21875 
Q 40.828125 74.21875 47.359375 69.109375 
Q 53.90625 64.015625 53.90625 55.328125 
Q 53.90625 49.265625 50.4375 45.09375 
Q 46.96875 40.921875 40.578125 39.3125 
z
" id="DejaVuSans-33"/>
      </defs>
      <g transform="translate(139.243654 263.398438)scale(0.1 -0.1)">
       <use transform="translate(0 0.765625)" xlink:href="#DejaVuSans-31"/>
       <use transform="translate(63.623047 0.765625)" xlink:href="#DejaVuSans-30"/>
       <use transform="translate(128.203125 39.046875)scale(0.7)" xlink:href="#DejaVuSans-2d"/>
       <use transform="translate(153.461914 39.046875)scale(0.7)" xlink:href="#DejaVuSans-33"/>
      </g>
     </g>
    </g>
    <g id="xtick_2">
     <g id="line2d_2">
      <g>
       <use style="stroke:#000000;stroke-width:0.8;" x="220.665392" xlink:href="#m1f9e361a86" y="248.8"/>
      </g>
     </g>
     <g id="text_2">
      <!-- $\mathdefault{10^{-2}}$ -->
      <defs>
       <path d="M 19.1875 8.296875 
L 53.609375 8.296875 
L 53.609375 0 
L 7.328125 0 
L 7.328125 8.296875 
Q 12.9375 14.109375 22.625 23.890625 
Q 32.328125 33.6875 34.8125 36.53125 
Q 39.546875 41.84375 41.421875 45.53125 
Q 43.3125 49.21875 43.3125 52.78125 
Q 43.3125 58.59375 39.234375 62.25 
Q 35.15625 65.921875 28.609375 65.921875 
Q 23.96875 65.921875 18.8125 64.3125 
Q 13.671875 62.703125 7.8125 59.421875 
L 7.8125 69.390625 
Q 13.765625 71.78125 18.9375 73 
Q 24.125 74.21875 28.421875 74.21875 
Q 39.75 74.21875 46.484375 68.546875 
Q 53.21875 62.890625 53.21875 53.421875 
Q 53.21875 48.921875 51.53125 44.890625 
Q 49.859375 40.875 45.40625 35.40625 
Q 44.1875 33.984375 37.640625 27.21875 
Q 31.109375 20.453125 19.1875 8.296875 
z
" id="DejaVuSans-32"/>
      </defs>
      <g transform="translate(210.615392 263.398438)scale(0.1 -0.1)">
       <use transform="translate(0 0.765625)" xlink:href="#DejaVuSans-31"/>
       <use transform="translate(63.623047 0.765625)" xlink:href="#DejaVuSans-30"/>
       <use transform="translate(128.203125 39.046875)scale(0.7)" xlink:href="#DejaVuSans-2d"/>
       <use transform="translate(153.461914 39.046875)scale(0.7)" xlink:href="#DejaVuSans-32"/>
      </g>
     </g>
    </g>
    <g id="xtick_3">
     <g id="line2d_3">
      <g>
       <use style="stroke:#000000;stroke-width:0.8;" x="292.037129" xlink:href="#m1f9e361a86" y="248.8"/>
      </g>
     </g>
     <g id="text_3">
      <!-- $\mathdefault{10^{-1}}$ -->
      <g transform="translate(281.987129 263.398438)scale(0.1 -0.1)">
       <use transform="translate(0 0.684375)" xlink:href="#DejaVuSans-31"/>
       <use transform="translate(63.623047 0.684375)" xlink:href="#DejaVuSans-30"/>
       <use transform="translate(128.203125 38.965625)scale(0.7)" xlink:href="#DejaVuSans-2d"/>
       <use transform="translate(153.461914 38.965625)scale(0.7)" xlink:href="#DejaVuSans-31"/>
      </g>
     </g>
    </g>
    <g id="xtick_4">
     <g id="line2d_4">
      <g>
       <use style="stroke:#000000;stroke-width:0.8;" x="363.408866" xlink:href="#m1f9e361a86" y="248.8"/>
      </g>
     </g>
     <g id="text_4">
      <!-- $\mathdefault{10^{0}}$ -->
      <g transform="translate(354.608866 263.398438)scale(0.1 -0.1)">
       <use transform="translate(0 0.765625)" xlink:href="#DejaVuSans-31"/>
       <use transform="translate(63.623047 0.765625)" xlink:href="#DejaVuSans-30"/>
       <use transform="translate(128.203125 39.046875)scale(0.7)" xlink:href="#DejaVuSans-30"/>
      </g>
     </g>
    </g>
    <g id="xtick_5">
     <g id="line2d_5">
      <defs>
       <path d="M 0 0 
L 0 2 
" id="m1b600876fa" style="stroke:#000000;stroke-width:0.6;"/>
      </defs>
      <g>
       <use style="stroke:#000000;stroke-width:0.6;" x="99.406951" xlink:href="#m1b600876fa" y="248.8"/>
      </g>
     </g>
    </g>
    <g id="xtick_6">
     <g id="line2d_6">
      <g>
       <use style="stroke:#000000;stroke-width:0.6;" x="111.97489" xlink:href="#m1b600876fa" y="248.8"/>
      </g>
     </g>
    </g>
    <g id="xtick_7">
     <g id="line2d_7">
      <g>
       <use style="stroke:#000000;stroke-width:0.6;" x="120.891984" xlink:href="#m1b600876fa" y="248.8"/>
      </g>
     </g>
    </g>
    <g id="xtick_8">
     <g id="line2d_8">
      <g>
       <use style="stroke:#000000;stroke-width:0.6;" x="127.80862" xlink:href="#m1b600876fa" y="248.8"/>
      </g>
     </g>
    </g>
    <g id="xtick_9">
     <g id="line2d_9">
      <g>
       <use style="stroke:#000000;stroke-width:0.6;" x="133.459923" xlink:href="#m1b600876fa" y="248.8"/>
      </g>
     </g>
    </g>
    <g id="xtick_10">
     <g id="line2d_10">
      <g>
       <use style="stroke:#000000;stroke-width:0.6;" x="138.238032" xlink:href="#m1b600876fa" y="248.8"/>
      </g>
     </g>
    </g>
    <g id="xtick_11">
     <g id="line2d_11">
      <g>
       <use style="stroke:#000000;stroke-width:0.6;" x="142.377018" xlink:href="#m1b600876fa" y="248.8"/>
      </g>
     </g>
    </g>
    <g id="xtick_12">
     <g id="line2d_12">
      <g>
       <use style="stroke:#000000;stroke-width:0.6;" x="146.027863" xlink:href="#m1b600876fa" y="248.8"/>
      </g>
     </g>
    </g>
    <g id="xtick_13">
     <g id="line2d_13">
      <g>
       <use style="stroke:#000000;stroke-width:0.6;" x="170.778688" xlink:href="#m1b600876fa" y="248.8"/>
      </g>
     </g>
    </g>
    <g id="xtick_14">
     <g id="line2d_14">
      <g>
       <use style="stroke:#000000;stroke-width:0.6;" x="183.346627" xlink:href="#m1b600876fa" y="248.8"/>
      </g>
     </g>
    </g>
    <g id="xtick_15">
     <g id="line2d_15">
      <g>
       <use style="stroke:#000000;stroke-width:0.6;" x="192.263722" xlink:href="#m1b600876fa" y="248.8"/>
      </g>
     </g>
    </g>
    <g id="xtick_16">
     <g id="line2d_16">
      <g>
       <use style="stroke:#000000;stroke-width:0.6;" x="199.180358" xlink:href="#m1b600876fa" y="248.8"/>
      </g>
     </g>
    </g>
    <g id="xtick_17">
     <g id="line2d_17">
      <g>
       <use style="stroke:#000000;stroke-width:0.6;" x="204.831661" xlink:href="#m1b600876fa" y="248.8"/>
      </g>
     </g>
    </g>
    <g id="xtick_18">
     <g id="line2d_18">
      <g>
       <use style="stroke:#000000;stroke-width:0.6;" x="209.60977" xlink:href="#m1b600876fa" y="248.8"/>
      </g>
     </g>
    </g>
    <g id="xtick_19">
     <g id="line2d_19">
      <g>
       <use style="stroke:#000000;stroke-width:0.6;" x="213.748756" xlink:href="#m1b600876fa" y="248.8"/>
      </g>
     </g>
    </g>
    <g id="xtick_20">
     <g id="line2d_20">
      <g>
       <use style="stroke:#000000;stroke-width:0.6;" x="217.3996" xlink:href="#m1b600876fa" y="248.8"/>
      </g>
     </g>
    </g>
    <g id="xtick_21">
     <g id="line2d_21">
      <g>
       <use style="stroke:#000000;stroke-width:0.6;" x="242.150425" xlink:href="#m1b600876fa" y="248.8"/>
      </g>
     </g>
    </g>
    <g id="xtick_22">
     <g id="line2d_22">
      <g>
       <use style="stroke:#000000;stroke-width:0.6;" x="254.718364" xlink:href="#m1b600876fa" y="248.8"/>
      </g>
     </g>
    </g>
    <g id="xtick_23">
     <g id="line2d_23">
      <g>
       <use style="stroke:#000000;stroke-width:0.6;" x="263.635459" xlink:href="#m1b600876fa" y="248.8"/>
      </g>
     </g>
    </g>
    <g id="xtick_24">
     <g id="line2d_24">
      <g>
       <use style="stroke:#000000;stroke-width:0.6;" x="270.552095" xlink:href="#m1b600876fa" y="248.8"/>
      </g>
     </g>
    </g>
    <g id="xtick_25">
     <g id="line2d_25">
      <g>
       <use style="stroke:#000000;stroke-width:0.6;" x="276.203398" xlink:href="#m1b600876fa" y="248.8"/>
      </g>
     </g>
    </g>
    <g id="xtick_26">
     <g id="line2d_26">
      <g>
       <use style="stroke:#000000;stroke-width:0.6;" x="280.981507" xlink:href="#m1b600876fa" y="248.8"/>
      </g>
     </g>
    </g>
    <g id="xtick_27">
     <g id="line2d_27">
      <g>
       <use style="stroke:#000000;stroke-width:0.6;" x="285.120493" xlink:href="#m1b600876fa" y="248.8"/>
      </g>
     </g>
    </g>
    <g id="xtick_28">
     <g id="line2d_28">
      <g>
       <use style="stroke:#000000;stroke-width:0.6;" x="288.771337" xlink:href="#m1b600876fa" y="248.8"/>
      </g>
     </g>
    </g>
    <g id="xtick_29">
     <g id="line2d_29">
      <g>
       <use style="stroke:#000000;stroke-width:0.6;" x="313.522163" xlink:href="#m1b600876fa" y="248.8"/>
      </g>
     </g>
    </g>
    <g id="xtick_30">
     <g id="line2d_30">
      <g>
       <use style="stroke:#000000;stroke-width:0.6;" x="326.090102" xlink:href="#m1b600876fa" y="248.8"/>
      </g>
     </g>
    </g>
    <g id="xtick_31">
     <g id="line2d_31">
      <g>
       <use style="stroke:#000000;stroke-width:0.6;" x="335.007197" xlink:href="#m1b600876fa" y="248.8"/>
      </g>
     </g>
    </g>
    <g id="xtick_32">
     <g id="line2d_32">
      <g>
       <use style="stroke:#000000;stroke-width:0.6;" x="341.923833" xlink:href="#m1b600876fa" y="248.8"/>
      </g>
     </g>
    </g>
    <g id="xtick_33">
     <g id="line2d_33">
      <g>
       <use style="stroke:#000000;stroke-width:0.6;" x="347.575136" xlink:href="#m1b600876fa" y="248.8"/>
      </g>
     </g>
    </g>
    <g id="xtick_34">
     <g id="line2d_34">
      <g>
       <use style="stroke:#000000;stroke-width:0.6;" x="352.353244" xlink:href="#m1b600876fa" y="248.8"/>
      </g>
     </g>
    </g>
    <g id="xtick_35">
     <g id="line2d_35">
      <g>
       <use style="stroke:#000000;stroke-width:0.6;" x="356.49223" xlink:href="#m1b600876fa" y="248.8"/>
      </g>
     </g>
    </g>
    <g id="xtick_36">
     <g id="line2d_36">
      <g>
       <use style="stroke:#000000;stroke-width:0.6;" x="360.143075" xlink:href="#m1b600876fa" y="248.8"/>
      </g>
     </g>
    </g>
    <g id="xtick_37">
     <g id="line2d_37">
      <g>
       <use style="stroke:#000000;stroke-width:0.6;" x="384.8939" xlink:href="#m1b600876fa" y="248.8"/>
      </g>
     </g>
    </g>
    <g id="text_5">
     <!-- $t/\tau$ -->
     <defs>
      <path d="M 6.203125 8.109375 
Q 6.203125 9.578125 6.5 10.890625 
L 13.71875 39.59375 
L 3.21875 39.59375 
Q 2.203125 39.59375 2.203125 40.921875 
Q 2.59375 43.109375 3.515625 43.109375 
L 14.59375 43.109375 
L 18.609375 59.421875 
Q 19 60.75 20.171875 61.671875 
Q 21.34375 62.59375 22.796875 62.59375 
Q 24.078125 62.59375 24.921875 61.828125 
Q 25.78125 61.078125 25.78125 59.8125 
Q 25.78125 59.515625 25.75 59.34375 
Q 25.734375 59.1875 25.6875 58.984375 
L 21.6875 43.109375 
L 31.984375 43.109375 
Q 33.015625 43.109375 33.015625 41.796875 
Q 32.953125 41.546875 32.8125 40.953125 
Q 32.671875 40.375 32.421875 39.984375 
Q 32.171875 39.59375 31.6875 39.59375 
L 20.796875 39.59375 
L 13.625 10.6875 
Q 12.890625 7.859375 12.890625 5.8125 
Q 12.890625 1.515625 15.828125 1.515625 
Q 20.21875 1.515625 23.609375 5.640625 
Q 27 9.765625 28.8125 14.703125 
Q 29.203125 15.28125 29.59375 15.28125 
L 30.8125 15.28125 
Q 31.203125 15.28125 31.4375 15.015625 
Q 31.6875 14.75 31.6875 14.40625 
Q 31.6875 14.203125 31.59375 14.109375 
Q 29.390625 8.0625 25.1875 3.46875 
Q 21 -1.125 15.578125 -1.125 
Q 11.625 -1.125 8.90625 1.453125 
Q 6.203125 4.046875 6.203125 8.109375 
z
" id="Cmmi10-74"/>
      <path d="M 5.609375 -23 
Q 5.609375 -22.703125 5.71875 -22.609375 
L 40.484375 73.78125 
Q 40.671875 74.359375 41.15625 74.671875 
Q 41.65625 75 42.28125 75 
Q 43.171875 75 43.71875 74.453125 
Q 44.28125 73.921875 44.28125 73 
L 44.28125 72.609375 
L 9.515625 -23.78125 
Q 8.9375 -25 7.625 -25 
Q 6.78125 -25 6.1875 -24.40625 
Q 5.609375 -23.828125 5.609375 -23 
z
" id="Cmmi10-3d"/>
      <path d="M 15.578125 1.515625 
Q 15.578125 2.203125 15.71875 2.59375 
L 26.21875 36.921875 
L 17.1875 36.921875 
Q 13.53125 36.921875 10.34375 34.625 
Q 7.171875 32.328125 5.078125 28.8125 
Q 4.890625 28.421875 4.5 28.421875 
L 3.328125 28.421875 
Q 2.390625 28.421875 2.390625 29.390625 
Q 2.390625 29.59375 2.59375 29.984375 
Q 5.859375 35.546875 9.59375 39.328125 
Q 13.328125 43.109375 18.015625 43.109375 
L 48.6875 43.109375 
Q 49.75 43.109375 50.484375 42.375 
Q 51.21875 41.65625 51.21875 40.578125 
Q 51.21875 39.109375 50.171875 38.015625 
Q 49.125 36.921875 47.609375 36.921875 
L 29.5 36.921875 
L 22.796875 2.390625 
Q 22.40625 0.78125 21.328125 -0.265625 
Q 20.265625 -1.3125 18.609375 -1.3125 
Q 17.328125 -1.3125 16.453125 -0.5 
Q 15.578125 0.296875 15.578125 1.515625 
z
" id="Cmmi10-bf"/>
     </defs>
     <g transform="translate(393.507709 248.8)scale(0.16 -0.16)">
      <use xlink:href="#Cmmi10-74"/>
      <use transform="translate(36.083984 0)" xlink:href="#Cmmi10-3d"/>
      <use transform="translate(86.083984 0)" xlink:href="#Cmmi10-bf"/>
     </g>
    </g>
   </g>
   <g id="matplotlib.axis_2">
    <g id="ytick_1">
     <g id="line2d_38">
      <defs>
       <path d="M 0 0 
L -3.5 0 
" id="mdb9c683100" style="stroke:#000000;stroke-width:0.8;"/>
      </defs>
      <g>
       <use style="stroke:#000000;stroke-width:0.8;" x="84.96" xlink:href="#mdb9c683100" y="234.33639"/>
      </g>
     </g>
     <g id="text_6">
      <!-- $\mathdefault{10^{-2}}$ -->
      <g transform="translate(57.86 238.135608)scale(0.1 -0.1)">
       <use transform="translate(0 0.765625)" xlink:href="#DejaVuSans-31"/>
       <use transform="translate(63.623047 0.765625)" xlink:href="#DejaVuSans-30"/>
       <use transform="translate(128.203125 39.046875)scale(0.7)" xlink:href="#DejaVuSans-2d"/>
       <use transform="translate(153.461914 39.046875)scale(0.7)" xlink:href="#DejaVuSans-32"/>
      </g>
     </g>
    </g>
    <g id="ytick_2">
     <g id="line2d_39">
      <g>
       <use style="stroke:#000000;stroke-width:0.8;" x="84.96" xlink:href="#mdb9c683100" y="136.787108"/>
      </g>
     </g>
     <g id="text_7">
      <!-- $\mathdefault{10^{-1}}$ -->
      <g transform="translate(57.86 140.586327)scale(0.1 -0.1)">
       <use transform="translate(0 0.684375)" xlink:href="#DejaVuSans-31"/>
       <use transform="translate(63.623047 0.684375)" xlink:href="#DejaVuSans-30"/>
       <use transform="translate(128.203125 38.965625)scale(0.7)" xlink:href="#DejaVuSans-2d"/>
       <use transform="translate(153.461914 38.965625)scale(0.7)" xlink:href="#DejaVuSans-31"/>
      </g>
     </g>
    </g>
    <g id="ytick_3">
     <g id="line2d_40">
      <g>
       <use style="stroke:#000000;stroke-width:0.8;" x="84.96" xlink:href="#mdb9c683100" y="39.237827"/>
      </g>
     </g>
     <g id="text_8">
      <!-- $\mathdefault{10^{0}}$ -->
      <g transform="translate(60.36 43.037045)scale(0.1 -0.1)">
       <use transform="translate(0 0.765625)" xlink:href="#DejaVuSans-31"/>
       <use transform="translate(63.623047 0.765625)" xlink:href="#DejaVuSans-30"/>
       <use transform="translate(128.203125 39.046875)scale(0.7)" xlink:href="#DejaVuSans-30"/>
      </g>
     </g>
    </g>
    <g id="ytick_4">
     <g id="line2d_41">
      <defs>
       <path d="M 0 0 
L -2 0 
" id="m36f91ef613" style="stroke:#000000;stroke-width:0.6;"/>
      </defs>
      <g>
       <use style="stroke:#000000;stroke-width:0.6;" x="84.96" xlink:href="#m36f91ef613" y="238.8"/>
      </g>
     </g>
    </g>
    <g id="ytick_5">
     <g id="line2d_42">
      <g>
       <use style="stroke:#000000;stroke-width:0.6;" x="84.96" xlink:href="#m36f91ef613" y="204.97113"/>
      </g>
     </g>
    </g>
    <g id="ytick_6">
     <g id="line2d_43">
      <g>
       <use style="stroke:#000000;stroke-width:0.6;" x="84.96" xlink:href="#m36f91ef613" y="187.793554"/>
      </g>
     </g>
    </g>
    <g id="ytick_7">
     <g id="line2d_44">
      <g>
       <use style="stroke:#000000;stroke-width:0.6;" x="84.96" xlink:href="#m36f91ef613" y="175.60587"/>
      </g>
     </g>
    </g>
    <g id="ytick_8">
     <g id="line2d_45">
      <g>
       <use style="stroke:#000000;stroke-width:0.6;" x="84.96" xlink:href="#m36f91ef613" y="166.152368"/>
      </g>
     </g>
    </g>
    <g id="ytick_9">
     <g id="line2d_46">
      <g>
       <use style="stroke:#000000;stroke-width:0.6;" x="84.96" xlink:href="#m36f91ef613" y="158.428294"/>
      </g>
     </g>
    </g>
    <g id="ytick_10">
     <g id="line2d_47">
      <g>
       <use style="stroke:#000000;stroke-width:0.6;" x="84.96" xlink:href="#m36f91ef613" y="151.897683"/>
      </g>
     </g>
    </g>
    <g id="ytick_11">
     <g id="line2d_48">
      <g>
       <use style="stroke:#000000;stroke-width:0.6;" x="84.96" xlink:href="#m36f91ef613" y="146.24061"/>
      </g>
     </g>
    </g>
    <g id="ytick_12">
     <g id="line2d_49">
      <g>
       <use style="stroke:#000000;stroke-width:0.6;" x="84.96" xlink:href="#m36f91ef613" y="141.250719"/>
      </g>
     </g>
    </g>
    <g id="ytick_13">
     <g id="line2d_50">
      <g>
       <use style="stroke:#000000;stroke-width:0.6;" x="84.96" xlink:href="#m36f91ef613" y="107.421848"/>
      </g>
     </g>
    </g>
    <g id="ytick_14">
     <g id="line2d_51">
      <g>
       <use style="stroke:#000000;stroke-width:0.6;" x="84.96" xlink:href="#m36f91ef613" y="90.244273"/>
      </g>
     </g>
    </g>
    <g id="ytick_15">
     <g id="line2d_52">
      <g>
       <use style="stroke:#000000;stroke-width:0.6;" x="84.96" xlink:href="#m36f91ef613" y="78.056589"/>
      </g>
     </g>
    </g>
    <g id="ytick_16">
     <g id="line2d_53">
      <g>
       <use style="stroke:#000000;stroke-width:0.6;" x="84.96" xlink:href="#m36f91ef613" y="68.603086"/>
      </g>
     </g>
    </g>
    <g id="ytick_17">
     <g id="line2d_54">
      <g>
       <use style="stroke:#000000;stroke-width:0.6;" x="84.96" xlink:href="#m36f91ef613" y="60.879013"/>
      </g>
     </g>
    </g>
    <g id="ytick_18">
     <g id="line2d_55">
      <g>
       <use style="stroke:#000000;stroke-width:0.6;" x="84.96" xlink:href="#m36f91ef613" y="54.348402"/>
      </g>
     </g>
    </g>
    <g id="ytick_19">
     <g id="line2d_56">
      <g>
       <use style="stroke:#000000;stroke-width:0.6;" x="84.96" xlink:href="#m36f91ef613" y="48.691329"/>
      </g>
     </g>
    </g>
    <g id="ytick_20">
     <g id="line2d_57">
      <g>
       <use style="stroke:#000000;stroke-width:0.6;" x="84.96" xlink:href="#m36f91ef613" y="43.701437"/>
      </g>
     </g>
    </g>
    <g id="text_9">
     <!-- $\langle v^{\alpha}_i(t) v^{\alpha}_i(0)\rangle$$/\langle v^{\alpha}_i(0)^2\rangle$ -->
     <defs>
      <path d="M 35.5 -114.796875 
L 10.015625 -56.78125 
Q 9.8125 -56.5 9.8125 -56 
Q 9.8125 -55.515625 10.015625 -55.328125 
L 35.5 2.78125 
Q 35.984375 4 37.3125 4 
Q 38.03125 4 38.671875 3.359375 
Q 39.3125 2.734375 39.3125 2 
Q 39.3125 1.515625 39.203125 1.3125 
L 14.015625 -56 
L 39.203125 -113.28125 
Q 39.3125 -113.484375 39.3125 -114.015625 
Q 39.3125 -114.75 38.671875 -115.375 
Q 38.03125 -116.015625 37.3125 -116.015625 
Q 36.03125 -116.015625 35.5 -114.796875 
z
" id="Cmex10-ad"/>
      <path d="M 10.6875 11.28125 
Q 10.6875 13.53125 11.21875 16.203125 
Q 11.765625 18.890625 12.296875 20.625 
Q 12.84375 22.359375 14.75 27.390625 
Q 16.65625 32.421875 16.703125 32.625 
Q 18.015625 36.28125 18.015625 38.625 
Q 18.015625 41.609375 15.828125 41.609375 
Q 11.859375 41.609375 9.296875 37.53125 
Q 6.734375 33.453125 5.515625 28.421875 
Q 5.328125 27.78125 4.6875 27.78125 
L 3.515625 27.78125 
Q 2.6875 27.78125 2.6875 28.71875 
L 2.6875 29 
Q 4.296875 34.96875 7.609375 39.578125 
Q 10.9375 44.1875 16.015625 44.1875 
Q 19.578125 44.1875 22.046875 41.84375 
Q 24.515625 39.5 24.515625 35.890625 
Q 24.515625 34.03125 23.6875 31.984375 
Q 21.734375 26.90625 20.609375 23.84375 
Q 19.484375 20.796875 18.53125 17.015625 
Q 17.578125 13.234375 17.578125 10.015625 
Q 17.578125 6.25 19.3125 3.875 
Q 21.046875 1.515625 24.703125 1.515625 
Q 31.640625 1.515625 37.203125 12.203125 
Q 38.96875 15.671875 40.53125 20.359375 
Q 42.09375 25.046875 42.09375 27.984375 
Q 42.09375 31 41.109375 32.6875 
Q 40.140625 34.375 38.578125 36.203125 
Q 37.015625 38.03125 37.015625 39.109375 
Q 37.015625 41.0625 38.625 42.671875 
Q 40.234375 44.28125 42.1875 44.28125 
Q 44.578125 44.28125 45.625 42.078125 
Q 46.6875 39.890625 46.6875 37.109375 
Q 46.6875 33.796875 45.734375 29.203125 
Q 44.78125 24.609375 43.09375 19.671875 
Q 41.40625 14.75 39.984375 11.921875 
Q 33.40625 -1.125 24.609375 -1.125 
Q 18.3125 -1.125 14.5 2.015625 
Q 10.6875 5.171875 10.6875 11.28125 
z
" id="Cmmi10-76"/>
      <path d="M 20.125 -1.125 
Q 15.375 -1.125 11.6875 1.125 
Q 8.015625 3.375 6 7.171875 
Q 4 10.984375 4 15.828125 
Q 4 22.609375 7.78125 29.25 
Q 11.578125 35.890625 17.84375 40.03125 
Q 24.125 44.1875 31 44.1875 
Q 36.078125 44.1875 39.9375 41.53125 
Q 43.796875 38.875 45.796875 34.453125 
Q 47.796875 30.03125 47.796875 25 
L 47.90625 18.3125 
Q 51.3125 23.046875 53.6875 28.140625 
Q 56.0625 33.25 57.328125 38.71875 
Q 57.515625 39.3125 58.109375 39.3125 
L 59.28125 39.3125 
Q 60.203125 39.3125 60.203125 38.375 
Q 60.203125 38.28125 60.109375 38.09375 
Q 58.9375 33.5 57.171875 29.265625 
Q 55.421875 25.046875 53.046875 21.09375 
Q 50.6875 17.140625 47.90625 13.921875 
Q 47.90625 1.515625 50.78125 1.515625 
Q 52.640625 1.515625 53.828125 2.609375 
Q 55.03125 3.71875 55.9375 5.328125 
Q 56.84375 6.9375 57.078125 6.984375 
L 58.296875 6.984375 
Q 59.078125 6.984375 59.078125 6 
Q 59.078125 3.515625 56.21875 1.1875 
Q 53.375 -1.125 50.59375 -1.125 
Q 46.96875 -1.125 44.578125 1.21875 
Q 42.1875 3.5625 41.3125 7.328125 
Q 36.625 3.328125 31.15625 1.09375 
Q 25.6875 -1.125 20.125 -1.125 
z
M 20.3125 1.515625 
Q 31 1.515625 40.828125 10.296875 
Q 40.765625 10.890625 40.671875 11.734375 
Q 40.578125 12.59375 40.578125 12.703125 
L 40.578125 23.484375 
Q 40.578125 41.609375 30.8125 41.609375 
Q 24.953125 41.609375 20.546875 36.59375 
Q 16.15625 31.59375 13.9375 24.625 
Q 11.71875 17.671875 11.71875 11.921875 
Q 11.71875 7.5625 13.9375 4.53125 
Q 16.15625 1.515625 20.3125 1.515625 
z
" id="Cmmi10-ae"/>
      <path d="M 7.8125 7.171875 
Q 7.8125 9.03125 8.59375 11.078125 
L 16.703125 32.625 
Q 18.015625 36.28125 18.015625 38.625 
Q 18.015625 41.609375 15.828125 41.609375 
Q 11.859375 41.609375 9.296875 37.53125 
Q 6.734375 33.453125 5.515625 28.421875 
Q 5.328125 27.78125 4.6875 27.78125 
L 3.515625 27.78125 
Q 2.6875 27.78125 2.6875 28.71875 
L 2.6875 29 
Q 4.296875 34.96875 7.609375 39.578125 
Q 10.9375 44.1875 16.015625 44.1875 
Q 19.578125 44.1875 22.046875 41.84375 
Q 24.515625 39.5 24.515625 35.890625 
Q 24.515625 34.03125 23.6875 31.984375 
L 15.578125 10.5 
Q 14.203125 7.171875 14.203125 4.5 
Q 14.203125 1.515625 16.5 1.515625 
Q 20.40625 1.515625 23.015625 5.6875 
Q 25.640625 9.859375 26.703125 14.703125 
Q 26.90625 15.28125 27.484375 15.28125 
L 28.71875 15.28125 
Q 29.109375 15.28125 29.34375 15.015625 
Q 29.59375 14.75 29.59375 14.40625 
Q 29.59375 14.3125 29.5 14.109375 
Q 28.125 8.453125 24.734375 3.65625 
Q 21.34375 -1.125 16.3125 -1.125 
Q 12.796875 -1.125 10.296875 1.296875 
Q 7.8125 3.71875 7.8125 7.171875 
z
M 19.09375 60.59375 
Q 19.09375 62.703125 20.84375 64.40625 
Q 22.609375 66.109375 24.703125 66.109375 
Q 26.421875 66.109375 27.515625 65.0625 
Q 28.609375 64.015625 28.609375 62.40625 
Q 28.609375 60.15625 26.828125 58.46875 
Q 25.046875 56.78125 22.90625 56.78125 
Q 21.296875 56.78125 20.1875 57.875 
Q 19.09375 58.984375 19.09375 60.59375 
z
" id="Cmmi10-69"/>
      <path d="M 31 -24.8125 
Q 25.4375 -20.40625 21.40625 -14.71875 
Q 17.390625 -9.03125 14.8125 -2.578125 
Q 12.25 3.859375 10.984375 10.890625 
Q 9.71875 17.921875 9.71875 25 
Q 9.71875 32.171875 10.984375 39.203125 
Q 12.25 46.234375 14.859375 52.734375 
Q 17.484375 59.234375 21.53125 64.890625 
Q 25.59375 70.5625 31 74.8125 
Q 31 75 31.5 75 
L 32.421875 75 
Q 32.71875 75 32.953125 74.734375 
Q 33.203125 74.46875 33.203125 74.125 
Q 33.203125 73.6875 33.015625 73.484375 
Q 28.125 68.703125 24.875 63.234375 
Q 21.625 57.765625 19.640625 51.578125 
Q 17.671875 45.40625 16.796875 38.78125 
Q 15.921875 32.171875 15.921875 25 
Q 15.921875 -6.78125 32.90625 -23.296875 
Q 33.203125 -23.578125 33.203125 -24.125 
Q 33.203125 -24.359375 32.9375 -24.671875 
Q 32.671875 -25 32.421875 -25 
L 31.5 -25 
Q 31 -25 31 -24.8125 
z
" id="Cmr10-28"/>
      <path d="M 6.5 -25 
Q 5.609375 -25 5.609375 -24.125 
Q 5.609375 -23.6875 5.8125 -23.484375 
Q 22.90625 -6.78125 22.90625 25 
Q 22.90625 56.78125 6 73.296875 
Q 5.609375 73.53125 5.609375 74.125 
Q 5.609375 74.46875 5.875 74.734375 
Q 6.15625 75 6.5 75 
L 7.421875 75 
Q 7.71875 75 7.90625 74.8125 
Q 15.09375 69.140625 19.875 61.03125 
Q 24.65625 52.9375 26.875 43.75 
Q 29.109375 34.578125 29.109375 25 
Q 29.109375 17.921875 27.90625 11.0625 
Q 26.703125 4.203125 24.09375 -2.453125 
Q 21.484375 -9.125 17.484375 -14.765625 
Q 13.484375 -20.40625 7.90625 -24.8125 
Q 7.71875 -25 7.421875 -25 
z
" id="Cmr10-29"/>
      <path d="M 25 -2.203125 
Q 12.75 -2.203125 8.328125 7.875 
Q 3.90625 17.96875 3.90625 31.890625 
Q 3.90625 40.578125 5.484375 48.234375 
Q 7.078125 55.90625 11.78125 61.25 
Q 16.5 66.609375 25 66.609375 
Q 31.59375 66.609375 35.78125 63.375 
Q 39.984375 60.15625 42.1875 55.046875 
Q 44.390625 49.953125 45.1875 44.109375 
Q 46 38.28125 46 31.890625 
Q 46 23.296875 44.40625 15.796875 
Q 42.828125 8.296875 38.1875 3.046875 
Q 33.546875 -2.203125 25 -2.203125 
z
M 25 0.390625 
Q 30.5625 0.390625 33.296875 6.09375 
Q 36.03125 11.8125 36.671875 18.75 
Q 37.3125 25.6875 37.3125 33.5 
Q 37.3125 41.015625 36.671875 47.359375 
Q 36.03125 53.71875 33.3125 58.859375 
Q 30.609375 64.015625 25 64.015625 
Q 19.34375 64.015625 16.609375 58.828125 
Q 13.875 53.65625 13.234375 47.328125 
Q 12.59375 41.015625 12.59375 33.5 
Q 12.59375 27.9375 12.859375 23 
Q 13.140625 18.0625 14.3125 12.8125 
Q 15.484375 7.5625 18.09375 3.96875 
Q 20.703125 0.390625 25 0.390625 
z
" id="Cmr10-30"/>
      <path d="M 7.8125 -114.015625 
Q 7.8125 -113.484375 8.015625 -113.28125 
L 33.109375 -56 
L 8.015625 1.3125 
Q 7.8125 1.515625 7.8125 2 
Q 7.8125 2.734375 8.390625 3.359375 
Q 8.984375 4 9.8125 4 
Q 10.984375 4 11.71875 2.78125 
L 37.203125 -55.328125 
Q 37.3125 -55.515625 37.3125 -56 
Q 37.3125 -56.5 37.203125 -56.78125 
L 11.71875 -114.796875 
Q 10.9375 -116.015625 9.8125 -116.015625 
Q 8.984375 -116.015625 8.390625 -115.375 
Q 7.8125 -114.75 7.8125 -114.015625 
z
" id="Cmex10-ae"/>
      <path d="M 4.984375 0 
L 4.984375 2.6875 
Q 4.984375 2.9375 5.171875 3.21875 
L 20.703125 20.40625 
Q 24.21875 24.21875 26.40625 26.796875 
Q 28.609375 29.390625 30.75 32.765625 
Q 32.90625 36.140625 34.15625 39.625 
Q 35.40625 43.109375 35.40625 47.015625 
Q 35.40625 51.125 33.890625 54.859375 
Q 32.375 58.59375 29.375 60.84375 
Q 26.375 63.09375 22.125 63.09375 
Q 17.78125 63.09375 14.3125 60.46875 
Q 10.84375 57.859375 9.421875 53.71875 
Q 9.8125 53.8125 10.5 53.8125 
Q 12.75 53.8125 14.328125 52.296875 
Q 15.921875 50.78125 15.921875 48.390625 
Q 15.921875 46.09375 14.328125 44.5 
Q 12.75 42.921875 10.5 42.921875 
Q 8.15625 42.921875 6.5625 44.546875 
Q 4.984375 46.1875 4.984375 48.390625 
Q 4.984375 52.15625 6.390625 55.4375 
Q 7.8125 58.734375 10.46875 61.296875 
Q 13.140625 63.875 16.484375 65.234375 
Q 19.828125 66.609375 23.578125 66.609375 
Q 29.296875 66.609375 34.21875 64.1875 
Q 39.15625 61.765625 42.03125 57.34375 
Q 44.921875 52.9375 44.921875 47.015625 
Q 44.921875 42.671875 43.015625 38.765625 
Q 41.109375 34.859375 38.125 31.65625 
Q 35.15625 28.46875 30.515625 24.40625 
Q 25.875 20.359375 24.421875 19 
L 13.09375 8.109375 
L 22.703125 8.109375 
Q 29.78125 8.109375 34.546875 8.21875 
Q 39.3125 8.34375 39.59375 8.59375 
Q 40.765625 9.859375 42 17.828125 
L 44.921875 17.828125 
L 42.09375 0 
z
" id="Cmr10-32"/>
     </defs>
     <g transform="translate(7.2 22.88)scale(0.16 -0.16)">
      <use transform="translate(0 94)" xlink:href="#Cmex10-ad"/>
      <use transform="translate(47.216797 0.658854)" xlink:href="#Cmmi10-76"/>
      <use transform="translate(101.928438 38.922917)scale(0.7)" xlink:href="#Cmmi10-ae"/>
      <use transform="translate(95.605469 -24.850521)scale(0.7)" xlink:href="#Cmmi10-69"/>
      <use transform="translate(153.046992 0.658854)" xlink:href="#Cmr10-28"/>
      <use transform="translate(191.865352 0.658854)" xlink:href="#Cmmi10-74"/>
      <use transform="translate(227.949336 0.658854)" xlink:href="#Cmr10-29"/>
      <use transform="translate(266.767695 0.658854)" xlink:href="#Cmmi10-76"/>
      <use transform="translate(321.479336 38.922917)scale(0.7)" xlink:href="#Cmmi10-ae"/>
      <use transform="translate(315.156367 -24.850521)scale(0.7)" xlink:href="#Cmmi10-69"/>
      <use transform="translate(372.597891 0.658854)" xlink:href="#Cmr10-28"/>
      <use transform="translate(411.41625 0.658854)" xlink:href="#Cmr10-30"/>
      <use transform="translate(461.41625 0.658854)" xlink:href="#Cmr10-29"/>
      <use transform="translate(500.234609 94)" xlink:href="#Cmex10-ae"/>
      <use transform="translate(547.451406 0.658854)" xlink:href="#Cmmi10-3d"/>
      <use transform="translate(597.451406 94)" xlink:href="#Cmex10-ad"/>
      <use transform="translate(644.668203 0.658854)" xlink:href="#Cmmi10-76"/>
      <use transform="translate(699.379844 38.922917)scale(0.7)" xlink:href="#Cmmi10-ae"/>
      <use transform="translate(693.056875 -24.850521)scale(0.7)" xlink:href="#Cmmi10-69"/>
      <use transform="translate(750.498398 0.658854)" xlink:href="#Cmr10-28"/>
      <use transform="translate(789.316758 0.658854)" xlink:href="#Cmr10-30"/>
      <use transform="translate(839.316758 0.658854)" xlink:href="#Cmr10-29"/>
      <use transform="translate(882.599258 38.922917)scale(0.7)" xlink:href="#Cmr10-32"/>
      <use transform="translate(923.976602 94)" xlink:href="#Cmex10-ae"/>
     </g>
    </g>
   </g>
   <g id="line2d_58">
    <path clip-path="url(#p59d2be624c)" d="M -1 40.063465 
L 190.385789 40.06569 
L 211.870823 40.87756 
L 225.923416 41.790493 
L 235.556995 42.685038 
L 242.084631 43.455855 
L 252.06341 44.961109 
L 259.210933 46.33923 
L 264.688814 47.601255 
L 270.260614 49.098814 
L 275.576509 50.758611 
L 280.970037 52.707519 
L 285.227251 54.46021 
L 289.215548 56.295711 
L 293.947625 58.746829 
L 297.406279 60.748638 
L 301.894335 63.645605 
L 306.213955 66.795178 
L 309.627065 69.56836 
L 312.497377 72.118499 
L 316.15406 75.689942 
L 319.524782 79.341946 
L 322.678966 83.114033 
L 325.564345 86.90467 
L 328.381251 90.960606 
L 331.302863 95.590557 
L 334.32359 100.902667 
L 337.319471 106.794232 
L 339.672087 111.938808 
L 341.310713 115.83877 
L 343.734421 122.171809 
L 346.001374 128.831841 
L 347.918064 135.156485 
L 349.7719 142.038071 
L 351.735403 150.390561 
L 353.356708 158.389136 
L 354.521283 164.959993 
L 356.063865 175.134 
L 357.646219 188.166262 
L 358.860155 201.104643 
L 359.51906 209.887142 
L 360.347236 223.877876 
L 360.908666 236.513208 
L 361.693987 263.60427 
L 361.862865 273.678125 
L 361.862865 273.678125 
" style="fill:none;stroke:#0000f1;stroke-linecap:square;"/>
   </g>
   <g id="line2d_59">
    <path clip-path="url(#p59d2be624c)" d="M -1 39.823519 
L 165.510404 39.824892 
L 186.995438 40.399891 
L 199.563377 40.963476 
L 208.480472 41.516262 
L 221.048411 42.591703 
L 229.965506 43.630405 
L 238.999871 44.984317 
L 245.986657 46.285492 
L 253.61584 48.010015 
L 258.540345 49.318133 
L 263.399061 50.779385 
L 269.158985 52.758337 
L 273.763793 54.556372 
L 277.975552 56.388719 
L 282.886428 58.777223 
L 287.565139 61.333985 
L 291.891194 63.970417 
L 296.746084 67.277127 
L 301.294421 70.748158 
L 305.499335 74.316714 
L 309.29175 77.865876 
L 312.062465 80.678016 
L 315.676588 84.654298 
L 319.518701 89.309831 
L 322.545636 93.330778 
L 325.808745 98.065377 
L 328.693679 102.648282 
L 330.592102 105.89629 
L 333.294902 110.88541 
L 336.501445 117.45699 
L 338.952048 123.056342 
L 341.281989 128.947999 
L 343.552454 135.342673 
L 345.189473 140.443375 
L 346.981062 146.606194 
L 348.608077 152.852599 
L 350.148331 159.487052 
L 351.877771 168.032 
L 353.44416 177.140991 
L 354.699247 185.772779 
L 356.104906 197.544422 
L 357.155551 208.595415 
L 357.719553 215.751298 
L 358.387923 225.904365 
L 359.231988 243.004505 
L 359.435539 248.296278 
L 360.137479 273.678125 
L 360.137479 273.678125 
" style="fill:none;stroke:#004cff;stroke-linecap:square;"/>
   </g>
   <g id="line2d_60">
    <path clip-path="url(#p59d2be624c)" d="M -1 39.811316 
L 144.403712 39.81249 
L 165.888746 40.370328 
L 178.456685 40.912488 
L 194.290416 41.953896 
L 204.719827 42.944154 
L 212.509658 43.889545 
L 221.426753 45.234882 
L 228.343389 46.505613 
L 235.030085 47.952345 
L 241.15805 49.491285 
L 247.805169 51.419997 
L 251.995725 52.78929 
L 256.825319 54.528302 
L 262.784836 56.93195 
L 268.417469 59.488548 
L 273.354356 61.975645 
L 277.838894 64.448365 
L 282.883314 67.489127 
L 286.992363 70.182684 
L 291.712235 73.535354 
L 296.195442 76.998669 
L 300.553847 80.65382 
L 304.986967 84.699403 
L 309.65603 89.37021 
L 313.183862 93.221364 
L 317.243845 98.053585 
L 320.634797 102.471015 
L 324.098981 107.405451 
L 327.66095 113.005276 
L 329.923904 116.888948 
L 332.477896 121.629212 
L 335.34158 127.473945 
L 337.484546 132.283616 
L 339.91614 138.287538 
L 341.816712 143.466718 
L 343.622924 148.86912 
L 345.487215 155.04439 
L 347.374882 162.073851 
L 349.291301 170.251957 
L 350.594471 176.601324 
L 352.231926 185.810597 
L 353.448364 193.866924 
L 354.131014 199.004255 
L 355.299903 209.222941 
L 356.346375 220.587056 
L 357.107106 230.928687 
L 357.83486 243.530192 
L 358.456006 257.925557 
L 358.934045 273.678125 
L 358.934045 273.678125 
" style="fill:none;stroke:#00b0ff;stroke-linecap:square;"/>
   </g>
   <g id="line2d_61">
    <path clip-path="url(#p59d2be624c)" d="M -1 39.796825 
L 127.134709 39.797834 
L 148.619743 40.338007 
L 161.187682 40.859893 
L 177.021412 41.854274 
L 187.450824 42.79067 
L 195.240655 43.677039 
L 204.157749 44.926783 
L 211.074385 46.09589 
L 216.711672 47.194655 
L 222.911333 48.570496 
L 230.366794 50.481459 
L 236.372179 52.244165 
L 242.910659 54.409728 
L 248.528336 56.488877 
L 255.041952 59.166076 
L 260.897541 61.827292 
L 266.724896 64.724641 
L 272.691445 67.961292 
L 279.019818 71.715112 
L 284.115391 75.00211 
L 288.968392 78.37901 
L 293.37616 81.681293 
L 298.03597 85.45007 
L 302.21361 89.106688 
L 306.337687 93.0132 
L 309.770239 96.522246 
L 313.476128 100.61245 
L 317.221122 105.112942 
L 320.769455 109.774307 
L 324.056216 114.496409 
L 326.873513 118.906106 
L 329.798847 123.899718 
L 332.770276 129.484041 
L 335.023103 134.12624 
L 337.112181 138.80376 
L 339.310513 144.183992 
L 342.074184 151.764532 
L 344.283217 158.64956 
L 345.954501 164.48084 
L 347.813251 171.770744 
L 349.663754 180.129352 
L 351.009917 187.133397 
L 352.468011 195.925518 
L 353.96669 206.832449 
L 355.143553 217.414968 
L 356.099839 228.074299 
L 357.281268 245.692919 
L 357.989162 260.696028 
L 358.432068 273.678125 
L 358.432068 273.678125 
" style="fill:none;stroke:#29ffce;stroke-linecap:square;"/>
   </g>
   <g id="line2d_62">
    <path clip-path="url(#p59d2be624c)" d="M -1 39.941417 
L 117.341935 39.94259 
L 138.826968 40.610355 
L 151.394907 41.245237 
L 167.228638 42.430069 
L 177.65805 43.520082 
L 185.44788 44.532519 
L 194.364975 45.933357 
L 203.28207 47.627634 
L 210.198706 49.167432 
L 218.331041 51.253777 
L 224.767104 53.129681 
L 231.821232 55.422804 
L 238.847425 57.957175 
L 244.571551 60.207318 
L 251.618442 63.208087 
L 258.519448 66.401666 
L 264.883588 69.58716 
L 270.881155 72.823992 
L 276.726803 76.227958 
L 282.334129 79.758699 
L 287.442388 83.236244 
L 292.406984 86.891343 
L 296.632502 90.247895 
L 300.964523 93.958291 
L 304.810124 97.513241 
L 309.042314 101.752821 
L 311.927161 104.867065 
L 315.987574 109.606153 
L 319.745284 114.421587 
L 322.772812 118.653573 
L 325.026048 122.038452 
L 328.007694 126.872805 
L 330.902294 132.015905 
L 333.321604 136.715747 
L 335.967518 142.354038 
L 338.480507 148.288974 
L 340.788901 154.35057 
L 343.15068 161.306419 
L 345.206212 168.146529 
L 346.980821 174.806694 
L 349.127505 184.1041 
L 350.706657 192.121037 
L 352.147135 200.655996 
L 353.165997 207.659162 
L 354.611699 219.597276 
L 355.443806 228.030865 
L 356.610317 243.037816 
L 357.380358 256.421347 
L 358.083297 273.678125 
L 358.083297 273.678125 
" style="fill:none;stroke:#7dff7a;stroke-linecap:square;"/>
   </g>
   <g id="line2d_63">
    <path clip-path="url(#p59d2be624c)" d="M -1 39.962455 
L 94.96 39.963435 
L 116.445034 40.641703 
L 129.012973 41.278947 
L 144.846704 42.450559 
L 155.276115 43.510886 
L 166.331737 44.941226 
L 174.464072 46.223803 
L 182.779277 47.759572 
L 190.771039 49.464994 
L 198.246183 51.271871 
L 206.760551 53.579925 
L 215.579535 56.242037 
L 223.643765 58.906527 
L 230.985391 61.519168 
L 239.14816 64.640609 
L 247.31784 68.01593 
L 254.837756 71.377256 
L 261.87111 74.777365 
L 268.907682 78.468051 
L 274.46783 81.621522 
L 280.713476 85.454312 
L 285.843774 88.868344 
L 290.71066 92.363465 
L 296.105127 96.575482 
L 299.562685 99.489724 
L 304.632061 104.114219 
L 307.495228 106.936294 
L 311.525036 111.204746 
L 314.879086 115.058591 
L 318.080168 119.030867 
L 321.122893 123.112388 
L 324.119332 127.467519 
L 326.993383 132.007432 
L 329.809067 136.857321 
L 332.975396 142.876682 
L 335.510352 148.213958 
L 338.211007 154.519918 
L 340.49144 160.454124 
L 343.073883 168.023178 
L 344.908198 174.090857 
L 346.554881 180.159595 
L 348.334226 187.559593 
L 349.645659 193.732071 
L 350.949107 200.654913 
L 352.406175 209.638022 
L 353.780617 219.823637 
L 354.936854 230.332975 
L 355.855623 240.646432 
L 356.551756 250.258577 
L 357.36636 264.76108 
L 357.749846 273.678125 
L 357.749846 273.678125 
" style="fill:none;stroke:#ceff29;stroke-linecap:square;"/>
   </g>
   <g id="line2d_64">
    <path clip-path="url(#p59d2be624c)" d="M -1 42.19078 
L 124.30721 42.195991 
L 145.792243 44.460457 
L 158.360182 46.328158 
L 167.277277 47.933269 
L 179.845216 50.609685 
L 188.762311 52.795558 
L 198.633215 55.470208 
L 208.246886 58.311276 
L 218.676298 61.651074 
L 227.593393 64.735824 
L 236.634594 68.110393 
L 244.589131 71.317345 
L 251.425827 74.27944 
L 258.78098 77.711591 
L 265.51014 81.109275 
L 271.543152 84.3981 
L 276.448094 87.265917 
L 282.427373 91.032372 
L 286.092667 93.507854 
L 291.848675 97.689685 
L 297.116295 101.880226 
L 301.207818 105.414802 
L 305.157582 109.094798 
L 308.981403 112.944816 
L 313.75879 118.218406 
L 316.924914 122.044114 
L 320.500279 126.736626 
L 323.021271 130.318162 
L 326.411856 135.550047 
L 329.100526 140.092289 
L 330.736245 143.05237 
L 334.139851 149.771389 
L 337.095001 156.341563 
L 339.990172 163.618283 
L 342.256634 170.049118 
L 344.286202 176.502748 
L 346.243795 183.518575 
L 348.030575 190.798102 
L 349.571375 197.955648 
L 351.482759 208.396283 
L 352.751535 216.672936 
L 353.826595 224.900281 
L 355.136378 237.167165 
L 356.089263 248.52379 
L 356.944319 261.688563 
L 357.530238 273.678125 
L 357.530238 273.678125 
" style="fill:none;stroke:#ffc400;stroke-linecap:square;"/>
   </g>
   <g id="line2d_65">
    <path clip-path="url(#p59d2be624c)" d="M -1 41.780372 
L 100.955445 41.784023 
L 122.440479 43.743325 
L 135.008418 45.360543 
L 143.925512 46.749883 
L 156.493451 49.064603 
L 165.410546 50.952316 
L 175.28145 53.255802 
L 186.89558 56.218146 
L 198.144326 59.328718 
L 208.380614 62.377145 
L 218.430987 65.599994 
L 227.871682 68.867516 
L 237.175753 72.353338 
L 244.742623 75.414339 
L 252.822211 78.94362 
L 259.33233 82.013939 
L 264.799361 84.771819 
L 271.245245 88.264642 
L 277.162142 91.734867 
L 283.184881 95.56928 
L 286.893666 98.104203 
L 291.071354 101.139699 
L 294.937944 104.139563 
L 299.979206 108.364734 
L 303.85229 111.887475 
L 308.39382 116.374634 
L 312.758703 121.110392 
L 316.091652 125.053235 
L 318.812053 128.513232 
L 322.421086 133.490259 
L 325.433071 138.035462 
L 328.74723 143.524551 
L 332.021476 149.549022 
L 334.26688 154.09489 
L 336.86317 159.857097 
L 339.229634 165.677589 
L 341.150612 170.886617 
L 343.227697 177.116982 
L 345.2633 183.973019 
L 346.887324 190.116202 
L 348.053005 194.986089 
L 349.65822 202.488763 
L 351.394307 211.980774 
L 352.867636 221.635294 
L 353.641261 227.532752 
L 354.867084 238.566294 
L 355.763444 248.550977 
L 356.622023 260.560179 
L 357.327114 273.678125 
L 357.327114 273.678125 
" style="fill:none;stroke:#ff6800;stroke-linecap:square;"/>
   </g>
   <g id="line2d_66">
    <path clip-path="url(#p59d2be624c)" d="M -1 46.139304 
L 117.352561 46.150807 
L 138.837595 49.886197 
L 151.405534 52.474672 
L 167.239265 56.064192 
L 181.807663 59.67489 
L 194.375602 63.058436 
L 205.171839 66.197479 
L 215.860636 69.552286 
L 224.77773 72.569101 
L 233.982261 75.92509 
L 243.113197 79.537349 
L 251.014279 82.929562 
L 258.777765 86.545303 
L 263.802945 89.057795 
L 270.221243 92.493038 
L 275.945137 95.801118 
L 281.528559 99.284632 
L 287.188091 103.115141 
L 292.229638 106.822114 
L 296.766127 110.432776 
L 301.704157 114.706867 
L 306.120264 118.882503 
L 310.820715 123.758629 
L 315.319229 128.919489 
L 319.184142 133.813624 
L 322.85325 138.928795 
L 326.101281 143.909229 
L 329.237883 149.198661 
L 331.818373 153.969223 
L 334.127407 158.616555 
L 336.608623 164.082254 
L 338.967474 169.821563 
L 340.792065 174.698412 
L 342.850866 180.758415 
L 344.676824 186.737663 
L 346.279063 192.565949 
L 348.269115 200.774431 
L 349.86525 208.378873 
L 351.418835 216.97871 
L 352.528125 224.105871 
L 353.606694 232.124598 
L 354.727761 242.069451 
L 355.806604 254.001422 
L 356.633911 265.69738 
L 357.087202 273.678125 
L 357.087202 273.678125 
" style="fill:none;stroke:#f10800;stroke-linecap:square;"/>
   </g>
   <g id="patch_3">
    <path d="M 84.96 238.8 
L 84.96 35.2 
" style="fill:none;stroke:#000000;stroke-linecap:square;stroke-linejoin:miter;stroke-width:0.8;"/>
   </g>
   <g id="patch_4">
    <path d="M 94.96 248.8 
L 385.507709 248.8 
" style="fill:none;stroke:#000000;stroke-linecap:square;stroke-linejoin:miter;stroke-width:0.8;"/>
   </g>
   <g id="text_10">
    <!-- $\zeta=1.0, \tau=20.0$ -->
    <defs>
     <path d="M 17.671875 -15.578125 
Q 17.921875 -14.40625 19.09375 -14.40625 
Q 19.28125 -14.40625 20.8125 -15.40625 
Q 22.359375 -16.40625 24.09375 -17.15625 
Q 25.828125 -17.921875 27.875 -17.921875 
Q 30.03125 -17.921875 31.46875 -15.921875 
Q 32.90625 -13.921875 32.90625 -11.625 
Q 32.90625 -9.328125 31.390625 -7.71875 
Q 29.890625 -6.109375 27.59375 -5.328125 
L 17.390625 -1.90625 
Q 11.140625 0.25 7.859375 4.953125 
Q 4.59375 9.671875 4.59375 16.40625 
Q 4.59375 22.125 6.65625 28.609375 
Q 8.734375 35.109375 12.390625 41.203125 
Q 16.0625 47.3125 20.84375 52.171875 
Q 25.640625 57.03125 30.8125 59.71875 
Q 29.78125 61.765625 29.78125 64.5 
Q 29.78125 69.921875 31.890625 69.921875 
Q 32.421875 69.921875 32.8125 69.53125 
Q 33.203125 69.140625 33.203125 68.609375 
Q 33.203125 67.875 32.953125 66.328125 
Q 32.71875 64.796875 32.71875 64.40625 
Q 32.71875 62.59375 33.296875 60.890625 
Q 35.890625 61.921875 38.09375 61.921875 
Q 47.3125 61.921875 47.3125 59.078125 
Q 47.3125 55.71875 37.109375 55.71875 
Q 34.078125 55.71875 32.328125 57.515625 
Q 28.03125 55.078125 24.046875 50.6875 
Q 20.0625 46.296875 16.984375 40.828125 
Q 13.921875 35.359375 12.203125 29.78125 
Q 10.5 24.21875 10.5 19.1875 
Q 10.5 8.40625 20.3125 4.984375 
L 31 1.421875 
Q 34.375 0.390625 36.5 -2.171875 
Q 38.625 -4.734375 38.625 -8.296875 
Q 38.625 -11.1875 37.15625 -14.03125 
Q 35.6875 -16.890625 33.203125 -18.703125 
Q 30.71875 -20.515625 27.6875 -20.515625 
Q 25.296875 -20.515625 21.484375 -18.921875 
Q 17.671875 -17.328125 17.671875 -15.578125 
z
M 35.109375 58.796875 
Q 35.015625 58.796875 35.984375 58.40625 
Q 36.421875 58.40625 36.6875 58.375 
Q 36.96875 58.34375 37.3125 58.296875 
Q 42.09375 58.296875 44.1875 58.890625 
Q 42.28125 59.28125 38.09375 59.28125 
Q 36.71875 59.28125 35.109375 58.796875 
z
" id="Cmmi10-b3"/>
     <path d="M 7.515625 13.28125 
Q 6.6875 13.28125 6.140625 13.90625 
Q 5.609375 14.546875 5.609375 15.28125 
Q 5.609375 16.109375 6.140625 16.6875 
Q 6.6875 17.28125 7.515625 17.28125 
L 70.3125 17.28125 
Q 71.046875 17.28125 71.578125 16.6875 
Q 72.125 16.109375 72.125 15.28125 
Q 72.125 14.546875 71.578125 13.90625 
Q 71.046875 13.28125 70.3125 13.28125 
z
M 7.515625 32.71875 
Q 6.6875 32.71875 6.140625 33.296875 
Q 5.609375 33.890625 5.609375 34.71875 
Q 5.609375 35.453125 6.140625 36.078125 
Q 6.6875 36.71875 7.515625 36.71875 
L 70.3125 36.71875 
Q 71.046875 36.71875 71.578125 36.078125 
Q 72.125 35.453125 72.125 34.71875 
Q 72.125 33.890625 71.578125 33.296875 
Q 71.046875 32.71875 70.3125 32.71875 
z
" id="Cmr10-3d"/>
     <path d="M 9.28125 0 
L 9.28125 3.515625 
Q 21.78125 3.515625 21.78125 6.6875 
L 21.78125 59.1875 
Q 16.609375 56.6875 8.6875 56.6875 
L 8.6875 60.203125 
Q 20.953125 60.203125 27.203125 66.609375 
L 28.609375 66.609375 
Q 28.953125 66.609375 29.265625 66.328125 
Q 29.59375 66.0625 29.59375 65.71875 
L 29.59375 6.6875 
Q 29.59375 3.515625 42.09375 3.515625 
L 42.09375 0 
z
" id="Cmr10-31"/>
     <path d="M 8.40625 5.515625 
Q 8.40625 7.765625 10.0625 9.375 
Q 11.71875 10.984375 13.921875 10.984375 
Q 15.28125 10.984375 16.59375 10.25 
Q 17.921875 9.515625 18.65625 8.203125 
Q 19.390625 6.890625 19.390625 5.515625 
Q 19.390625 3.328125 17.765625 1.65625 
Q 16.15625 0 13.921875 0 
Q 11.71875 0 10.0625 1.65625 
Q 8.40625 3.328125 8.40625 5.515625 
z
" id="Cmmi10-3a"/>
     <path d="M 9.90625 -18.015625 
Q 9.90625 -17.578125 10.296875 -17.1875 
Q 13.921875 -13.71875 15.921875 -9.171875 
Q 17.921875 -4.640625 17.921875 0.390625 
L 17.921875 1.609375 
Q 16.3125 0 13.921875 0 
Q 11.625 0 10.015625 1.609375 
Q 8.40625 3.21875 8.40625 5.515625 
Q 8.40625 7.859375 10.015625 9.421875 
Q 11.625 10.984375 13.921875 10.984375 
Q 17.484375 10.984375 19 7.6875 
Q 20.515625 4.390625 20.515625 0.390625 
Q 20.515625 -5.171875 18.28125 -10.171875 
Q 16.0625 -15.1875 12.015625 -19.1875 
Q 11.625 -19.390625 11.375 -19.390625 
Q 10.890625 -19.390625 10.390625 -18.9375 
Q 9.90625 -18.5 9.90625 -18.015625 
z
" id="Cmmi10-3b"/>
    </defs>
    <g transform="translate(207.033855 19.02)scale(0.1 -0.1)">
     <use transform="translate(0 0.078125)" xlink:href="#Cmmi10-b3"/>
     <use transform="translate(61.259766 0.078125)" xlink:href="#Cmr10-3d"/>
     <use transform="translate(156.503906 0.078125)" xlink:href="#Cmr10-31"/>
     <use transform="translate(206.503906 0.078125)" xlink:href="#Cmmi10-3a"/>
     <use transform="translate(234.189453 0.078125)" xlink:href="#Cmr10-30"/>
     <use transform="translate(284.189453 0.078125)" xlink:href="#Cmmi10-3b"/>
     <use transform="translate(329.433594 0.078125)" xlink:href="#Cmmi10-bf"/>
     <use transform="translate(390.693359 0.078125)" xlink:href="#Cmr10-3d"/>
     <use transform="translate(485.9375 0.078125)" xlink:href="#Cmr10-32"/>
     <use transform="translate(535.9375 0.078125)" xlink:href="#Cmr10-30"/>
     <use transform="translate(585.9375 0.078125)" xlink:href="#Cmmi10-3a"/>
     <use transform="translate(613.623047 0.078125)" xlink:href="#Cmr10-30"/>
    </g>
   </g>
   <g id="legend_1">
    <g id="patch_5">
     <path d="M 101.96 235.8 
L 154.56 235.8 
L 154.56 134.014063 
L 101.96 134.014063 
z
" style="fill:#4c4c4c;opacity:0.5;stroke:#4c4c4c;stroke-linejoin:miter;"/>
    </g>
    <g id="patch_6">
     <path d="M 99.96 233.8 
L 152.56 233.8 
L 152.56 132.014063 
L 99.96 132.014063 
z
" style="fill:#ffffff;stroke:#cccccc;stroke-linejoin:miter;"/>
    </g>
    <g id="line2d_67">
     <path d="M 108.96 142.1125 
L 103.46 142.1125 
" style="fill:none;stroke:#0000f1;stroke-linecap:square;"/>
    </g>
    <g id="line2d_68"/>
    <g id="text_11">
     <!-- $\mu=0.01$ -->
     <defs>
      <path d="M 2.78125 -18.796875 
Q 2.78125 -18.21875 2.875 -18.015625 
L 17.578125 41.015625 
Q 18.015625 42.4375 19.15625 43.3125 
Q 20.3125 44.1875 21.78125 44.1875 
Q 23.046875 44.1875 23.921875 43.421875 
Q 24.8125 42.671875 24.8125 41.40625 
Q 24.8125 41.109375 24.78125 40.9375 
Q 24.75 40.765625 24.703125 40.578125 
L 18.796875 17.1875 
Q 17.828125 13.03125 17.828125 10.015625 
Q 17.828125 6.296875 19.578125 3.90625 
Q 21.34375 1.515625 24.90625 1.515625 
Q 32.171875 1.515625 37.703125 10.59375 
Q 37.75 10.6875 37.765625 10.734375 
Q 37.796875 10.796875 37.796875 10.890625 
L 45.015625 39.890625 
Q 45.359375 41.21875 46.578125 42.15625 
Q 47.796875 43.109375 49.21875 43.109375 
Q 50.390625 43.109375 51.296875 42.328125 
Q 52.203125 41.546875 52.203125 40.28125 
Q 52.203125 39.703125 52.09375 39.5 
L 44.921875 10.6875 
Q 44.1875 7.859375 44.1875 5.8125 
Q 44.1875 1.515625 47.125 1.515625 
Q 50.25 1.515625 51.828125 5.375 
Q 53.421875 9.234375 54.59375 14.703125 
Q 54.78125 15.28125 55.421875 15.28125 
L 56.59375 15.28125 
Q 56.984375 15.28125 57.25 14.96875 
Q 57.515625 14.65625 57.515625 14.3125 
Q 55.765625 7.328125 53.6875 3.09375 
Q 51.609375 -1.125 46.921875 -1.125 
Q 43.609375 -1.125 41.046875 0.78125 
Q 38.484375 2.6875 37.703125 5.90625 
Q 35.203125 2.78125 31.859375 0.828125 
Q 28.515625 -1.125 24.8125 -1.125 
Q 18.5625 -1.125 14.984375 1.8125 
L 9.90625 -18.40625 
Q 9.625 -19.828125 8.453125 -20.703125 
Q 7.28125 -21.578125 5.8125 -21.578125 
Q 4.59375 -21.578125 3.6875 -20.8125 
Q 2.78125 -20.0625 2.78125 -18.796875 
z
" id="Cmmi10-b9"/>
     </defs>
     <g transform="translate(111.46 145.6125)scale(0.1 -0.1)">
      <use transform="translate(0 0.390625)" xlink:href="#Cmmi10-b9"/>
      <use transform="translate(77.763672 0.390625)" xlink:href="#Cmr10-3d"/>
      <use transform="translate(173.007812 0.390625)" xlink:href="#Cmr10-30"/>
      <use transform="translate(223.007812 0.390625)" xlink:href="#Cmmi10-3a"/>
      <use transform="translate(250.693359 0.390625)" xlink:href="#Cmr10-30"/>
      <use transform="translate(300.693359 0.390625)" xlink:href="#Cmr10-31"/>
     </g>
    </g>
    <g id="line2d_69">
     <path d="M 108.96 152.110938 
L 103.46 152.110938 
" style="fill:none;stroke:#004cff;stroke-linecap:square;"/>
    </g>
    <g id="line2d_70"/>
    <g id="text_12">
     <!-- $\mu=0.02$ -->
     <g transform="translate(111.46 155.610938)scale(0.1 -0.1)">
      <use transform="translate(0 0.390625)" xlink:href="#Cmmi10-b9"/>
      <use transform="translate(77.763672 0.390625)" xlink:href="#Cmr10-3d"/>
      <use transform="translate(173.007812 0.390625)" xlink:href="#Cmr10-30"/>
      <use transform="translate(223.007812 0.390625)" xlink:href="#Cmmi10-3a"/>
      <use transform="translate(250.693359 0.390625)" xlink:href="#Cmr10-30"/>
      <use transform="translate(300.693359 0.390625)" xlink:href="#Cmr10-32"/>
     </g>
    </g>
    <g id="line2d_71">
     <path d="M 108.96 162.109375 
L 103.46 162.109375 
" style="fill:none;stroke:#00b0ff;stroke-linecap:square;"/>
    </g>
    <g id="line2d_72"/>
    <g id="text_13">
     <!-- $\mu=0.05$ -->
     <defs>
      <path d="M 8.6875 11.375 
Q 9.71875 8.453125 11.84375 6.046875 
Q 13.96875 3.65625 16.875 2.3125 
Q 19.78125 0.984375 22.90625 0.984375 
Q 30.125 0.984375 32.859375 6.59375 
Q 35.59375 12.203125 35.59375 20.21875 
Q 35.59375 23.6875 35.46875 26.046875 
Q 35.359375 28.421875 34.8125 30.609375 
Q 33.890625 34.125 31.5625 36.765625 
Q 29.25 39.40625 25.875 39.40625 
Q 22.515625 39.40625 20.09375 38.375 
Q 17.671875 37.359375 16.15625 35.984375 
Q 14.65625 34.625 13.484375 33.109375 
Q 12.3125 31.59375 12.015625 31.5 
L 10.890625 31.5 
Q 10.640625 31.5 10.265625 31.8125 
Q 9.90625 32.125 9.90625 32.421875 
L 9.90625 65.828125 
Q 9.90625 66.0625 10.21875 66.328125 
Q 10.546875 66.609375 10.890625 66.609375 
L 11.1875 66.609375 
Q 17.921875 63.375 25.484375 63.375 
Q 32.90625 63.375 39.796875 66.609375 
L 40.09375 66.609375 
Q 40.4375 66.609375 40.71875 66.359375 
Q 41.015625 66.109375 41.015625 65.828125 
L 41.015625 64.890625 
Q 41.015625 64.40625 40.828125 64.40625 
Q 37.40625 59.859375 32.25 57.3125 
Q 27.09375 54.78125 21.578125 54.78125 
Q 17.578125 54.78125 13.375 55.90625 
L 13.375 37.015625 
Q 16.703125 39.703125 19.3125 40.84375 
Q 21.921875 42 25.984375 42 
Q 31.5 42 35.859375 38.8125 
Q 40.234375 35.640625 42.578125 30.53125 
Q 44.921875 25.4375 44.921875 20.125 
Q 44.921875 14.109375 41.96875 8.984375 
Q 39.015625 3.859375 33.9375 0.828125 
Q 28.859375 -2.203125 22.90625 -2.203125 
Q 17.96875 -2.203125 13.84375 0.328125 
Q 9.71875 2.875 7.34375 7.171875 
Q 4.984375 11.46875 4.984375 16.3125 
Q 4.984375 18.5625 6.4375 19.96875 
Q 7.90625 21.390625 10.109375 21.390625 
Q 12.3125 21.390625 13.796875 19.9375 
Q 15.28125 18.5 15.28125 16.3125 
Q 15.28125 14.15625 13.796875 12.671875 
Q 12.3125 11.1875 10.109375 11.1875 
Q 9.765625 11.1875 9.328125 11.25 
Q 8.890625 11.328125 8.6875 11.375 
z
" id="Cmr10-35"/>
     </defs>
     <g transform="translate(111.46 165.609375)scale(0.1 -0.1)">
      <use transform="translate(0 0.390625)" xlink:href="#Cmmi10-b9"/>
      <use transform="translate(77.763672 0.390625)" xlink:href="#Cmr10-3d"/>
      <use transform="translate(173.007812 0.390625)" xlink:href="#Cmr10-30"/>
      <use transform="translate(223.007812 0.390625)" xlink:href="#Cmmi10-3a"/>
      <use transform="translate(250.693359 0.390625)" xlink:href="#Cmr10-30"/>
      <use transform="translate(300.693359 0.390625)" xlink:href="#Cmr10-35"/>
     </g>
    </g>
    <g id="line2d_73">
     <path d="M 108.96 172.107813 
L 103.46 172.107813 
" style="fill:none;stroke:#29ffce;stroke-linecap:square;"/>
    </g>
    <g id="line2d_74"/>
    <g id="text_14">
     <!-- $\mu=0.10$ -->
     <g transform="translate(111.46 175.607813)scale(0.1 -0.1)">
      <use transform="translate(0 0.390625)" xlink:href="#Cmmi10-b9"/>
      <use transform="translate(77.763672 0.390625)" xlink:href="#Cmr10-3d"/>
      <use transform="translate(173.007812 0.390625)" xlink:href="#Cmr10-30"/>
      <use transform="translate(223.007812 0.390625)" xlink:href="#Cmmi10-3a"/>
      <use transform="translate(250.693359 0.390625)" xlink:href="#Cmr10-31"/>
      <use transform="translate(300.693359 0.390625)" xlink:href="#Cmr10-30"/>
     </g>
    </g>
    <g id="line2d_75">
     <path d="M 108.96 182.10625 
L 103.46 182.10625 
" style="fill:none;stroke:#7dff7a;stroke-linecap:square;"/>
    </g>
    <g id="line2d_76"/>
    <g id="text_15">
     <!-- $\mu=0.20$ -->
     <g transform="translate(111.46 185.60625)scale(0.1 -0.1)">
      <use transform="translate(0 0.390625)" xlink:href="#Cmmi10-b9"/>
      <use transform="translate(77.763672 0.390625)" xlink:href="#Cmr10-3d"/>
      <use transform="translate(173.007812 0.390625)" xlink:href="#Cmr10-30"/>
      <use transform="translate(223.007812 0.390625)" xlink:href="#Cmmi10-3a"/>
      <use transform="translate(250.693359 0.390625)" xlink:href="#Cmr10-32"/>
      <use transform="translate(300.693359 0.390625)" xlink:href="#Cmr10-30"/>
     </g>
    </g>
    <g id="line2d_77">
     <path d="M 108.96 192.104688 
L 103.46 192.104688 
" style="fill:none;stroke:#ceff29;stroke-linecap:square;"/>
    </g>
    <g id="line2d_78"/>
    <g id="text_16">
     <!-- $\mu=0.50$ -->
     <g transform="translate(111.46 195.604688)scale(0.1 -0.1)">
      <use transform="translate(0 0.390625)" xlink:href="#Cmmi10-b9"/>
      <use transform="translate(77.763672 0.390625)" xlink:href="#Cmr10-3d"/>
      <use transform="translate(173.007812 0.390625)" xlink:href="#Cmr10-30"/>
      <use transform="translate(223.007812 0.390625)" xlink:href="#Cmmi10-3a"/>
      <use transform="translate(250.693359 0.390625)" xlink:href="#Cmr10-35"/>
      <use transform="translate(300.693359 0.390625)" xlink:href="#Cmr10-30"/>
     </g>
    </g>
    <g id="line2d_79">
     <path d="M 108.96 202.103125 
L 103.46 202.103125 
" style="fill:none;stroke:#ffc400;stroke-linecap:square;"/>
    </g>
    <g id="line2d_80"/>
    <g id="text_17">
     <!-- $\mu=1.00$ -->
     <g transform="translate(111.46 205.603125)scale(0.1 -0.1)">
      <use transform="translate(0 0.390625)" xlink:href="#Cmmi10-b9"/>
      <use transform="translate(77.763672 0.390625)" xlink:href="#Cmr10-3d"/>
      <use transform="translate(173.007812 0.390625)" xlink:href="#Cmr10-31"/>
      <use transform="translate(223.007812 0.390625)" xlink:href="#Cmmi10-3a"/>
      <use transform="translate(250.693359 0.390625)" xlink:href="#Cmr10-30"/>
      <use transform="translate(300.693359 0.390625)" xlink:href="#Cmr10-30"/>
     </g>
    </g>
    <g id="line2d_81">
     <path d="M 108.96 212.101563 
L 103.46 212.101563 
" style="fill:none;stroke:#ff6800;stroke-linecap:square;"/>
    </g>
    <g id="line2d_82"/>
    <g id="text_18">
     <!-- $\mu=2.00$ -->
     <g transform="translate(111.46 215.601563)scale(0.1 -0.1)">
      <use transform="translate(0 0.390625)" xlink:href="#Cmmi10-b9"/>
      <use transform="translate(77.763672 0.390625)" xlink:href="#Cmr10-3d"/>
      <use transform="translate(173.007812 0.390625)" xlink:href="#Cmr10-32"/>
      <use transform="translate(223.007812 0.390625)" xlink:href="#Cmmi10-3a"/>
      <use transform="translate(250.693359 0.390625)" xlink:href="#Cmr10-30"/>
      <use transform="translate(300.693359 0.390625)" xlink:href="#Cmr10-30"/>
     </g>
    </g>
    <g id="line2d_83">
     <path d="M 108.96 222.1 
L 103.46 222.1 
" style="fill:none;stroke:#f10800;stroke-linecap:square;"/>
    </g>
    <g id="line2d_84"/>
    <g id="text_19">
     <!-- $\mu=5.00$ -->
     <g transform="translate(111.46 225.6)scale(0.1 -0.1)">
      <use transform="translate(0 0.390625)" xlink:href="#Cmmi10-b9"/>
      <use transform="translate(77.763672 0.390625)" xlink:href="#Cmr10-3d"/>
      <use transform="translate(173.007812 0.390625)" xlink:href="#Cmr10-35"/>
      <use transform="translate(223.007812 0.390625)" xlink:href="#Cmmi10-3a"/>
      <use transform="translate(250.693359 0.390625)" xlink:href="#Cmr10-30"/>
      <use transform="translate(300.693359 0.390625)" xlink:href="#Cmr10-30"/>
     </g>
    </g>
   </g>
  </g>
 </g>
 <defs>
  <clipPath id="p59d2be624c">
   <rect height="203.6" width="290.547709" x="94.96" y="35.2"/>
  </clipPath>
 </defs>
</svg>
