<?xml version="1.0" encoding="utf-8" standalone="no"?>
<!DOCTYPE svg PUBLIC "-//W3C//DTD SVG 1.1//EN"
  "http://www.w3.org/Graphics/SVG/1.1/DTD/svg11.dtd">
<!-- Created with matplotlib (http://matplotlib.org/) -->
<svg height="272.678125pt" version="1.1" viewBox="0 0 421.507709 272.678125" width="421.507709pt" xmlns="http://www.w3.org/2000/svg" xmlns:xlink="http://www.w3.org/1999/xlink">
 <defs>
  <style type="text/css">
*{stroke-linecap:butt;stroke-linejoin:round;}
  </style>
 </defs>
 <g id="figure_1">
  <g id="patch_1">
   <path d="M -0 272.678125 
L 421.507709 272.678125 
L 421.507709 0 
L -0 0 
z
" style="fill:#ffffff;"/>
  </g>
  <g id="axes_1">
   <g id="patch_2">
    <path d="M 94.96 238.8 
L 385.507709 238.8 
L 385.507709 35.2 
L 94.96 35.2 
z
" style="fill:#ffffff;"/>
   </g>
   <g id="matplotlib.axis_1">
    <g id="xtick_1">
     <g id="line2d_1">
      <defs>
       <path d="M 0 0 
L 0 3.5 
" id="m71662e5607" style="stroke:#000000;stroke-width:0.8;"/>
      </defs>
      <g>
       <use style="stroke:#000000;stroke-width:0.8;" x="149.388902" xlink:href="#m71662e5607" y="248.8"/>
      </g>
     </g>
     <g id="text_1">
      <!-- $\mathdefault{10^{-3}}$ -->
      <defs>
       <path d="M 12.40625 8.296875 
L 28.515625 8.296875 
L 28.515625 63.921875 
L 10.984375 60.40625 
L 10.984375 69.390625 
L 28.421875 72.90625 
L 38.28125 72.90625 
L 38.28125 8.296875 
L 54.390625 8.296875 
L 54.390625 0 
L 12.40625 0 
z
" id="DejaVuSans-31"/>
       <path d="M 31.78125 66.40625 
Q 24.171875 66.40625 20.328125 58.90625 
Q 16.5 51.421875 16.5 36.375 
Q 16.5 21.390625 20.328125 13.890625 
Q 24.171875 6.390625 31.78125 6.390625 
Q 39.453125 6.390625 43.28125 13.890625 
Q 47.125 21.390625 47.125 36.375 
Q 47.125 51.421875 43.28125 58.90625 
Q 39.453125 66.40625 31.78125 66.40625 
z
M 31.78125 74.21875 
Q 44.046875 74.21875 50.515625 64.515625 
Q 56.984375 54.828125 56.984375 36.375 
Q 56.984375 17.96875 50.515625 8.265625 
Q 44.046875 -1.421875 31.78125 -1.421875 
Q 19.53125 -1.421875 13.0625 8.265625 
Q 6.59375 17.96875 6.59375 36.375 
Q 6.59375 54.828125 13.0625 64.515625 
Q 19.53125 74.21875 31.78125 74.21875 
z
" id="DejaVuSans-30"/>
       <path d="M 4.890625 31.390625 
L 31.203125 31.390625 
L 31.203125 23.390625 
L 4.890625 23.390625 
z
" id="DejaVuSans-2d"/>
       <path d="M 40.578125 39.3125 
Q 47.65625 37.796875 51.625 33 
Q 55.609375 28.21875 55.609375 21.1875 
Q 55.609375 10.40625 48.1875 4.484375 
Q 40.765625 -1.421875 27.09375 -1.421875 
Q 22.515625 -1.421875 17.65625 -0.515625 
Q 12.796875 0.390625 7.625 2.203125 
L 7.625 11.71875 
Q 11.71875 9.328125 16.59375 8.109375 
Q 21.484375 6.890625 26.8125 6.890625 
Q 36.078125 6.890625 40.9375 10.546875 
Q 45.796875 14.203125 45.796875 21.1875 
Q 45.796875 27.640625 41.28125 31.265625 
Q 36.765625 34.90625 28.71875 34.90625 
L 20.21875 34.90625 
L 20.21875 43.015625 
L 29.109375 43.015625 
Q 36.375 43.015625 40.234375 45.921875 
Q 44.09375 48.828125 44.09375 54.296875 
Q 44.09375 59.90625 40.109375 62.90625 
Q 36.140625 65.921875 28.71875 65.921875 
Q 24.65625 65.921875 20.015625 65.03125 
Q 15.375 64.15625 9.8125 62.3125 
L 9.8125 71.09375 
Q 15.4375 72.65625 20.34375 73.4375 
Q 25.25 74.21875 29.59375 74.21875 
Q 40.828125 74.21875 47.359375 69.109375 
Q 53.90625 64.015625 53.90625 55.328125 
Q 53.90625 49.265625 50.4375 45.09375 
Q 46.96875 40.921875 40.578125 39.3125 
z
" id="DejaVuSans-33"/>
      </defs>
      <g transform="translate(139.338902 263.398438)scale(0.1 -0.1)">
       <use transform="translate(0 0.765625)" xlink:href="#DejaVuSans-31"/>
       <use transform="translate(63.623047 0.765625)" xlink:href="#DejaVuSans-30"/>
       <use transform="translate(128.203125 39.046875)scale(0.7)" xlink:href="#DejaVuSans-2d"/>
       <use transform="translate(153.461914 39.046875)scale(0.7)" xlink:href="#DejaVuSans-33"/>
      </g>
     </g>
    </g>
    <g id="xtick_2">
     <g id="line2d_2">
      <g>
       <use style="stroke:#000000;stroke-width:0.8;" x="220.731861" xlink:href="#m71662e5607" y="248.8"/>
      </g>
     </g>
     <g id="text_2">
      <!-- $\mathdefault{10^{-2}}$ -->
      <defs>
       <path d="M 19.1875 8.296875 
L 53.609375 8.296875 
L 53.609375 0 
L 7.328125 0 
L 7.328125 8.296875 
Q 12.9375 14.109375 22.625 23.890625 
Q 32.328125 33.6875 34.8125 36.53125 
Q 39.546875 41.84375 41.421875 45.53125 
Q 43.3125 49.21875 43.3125 52.78125 
Q 43.3125 58.59375 39.234375 62.25 
Q 35.15625 65.921875 28.609375 65.921875 
Q 23.96875 65.921875 18.8125 64.3125 
Q 13.671875 62.703125 7.8125 59.421875 
L 7.8125 69.390625 
Q 13.765625 71.78125 18.9375 73 
Q 24.125 74.21875 28.421875 74.21875 
Q 39.75 74.21875 46.484375 68.546875 
Q 53.21875 62.890625 53.21875 53.421875 
Q 53.21875 48.921875 51.53125 44.890625 
Q 49.859375 40.875 45.40625 35.40625 
Q 44.1875 33.984375 37.640625 27.21875 
Q 31.109375 20.453125 19.1875 8.296875 
z
" id="DejaVuSans-32"/>
      </defs>
      <g transform="translate(210.681861 263.398438)scale(0.1 -0.1)">
       <use transform="translate(0 0.765625)" xlink:href="#DejaVuSans-31"/>
       <use transform="translate(63.623047 0.765625)" xlink:href="#DejaVuSans-30"/>
       <use transform="translate(128.203125 39.046875)scale(0.7)" xlink:href="#DejaVuSans-2d"/>
       <use transform="translate(153.461914 39.046875)scale(0.7)" xlink:href="#DejaVuSans-32"/>
      </g>
     </g>
    </g>
    <g id="xtick_3">
     <g id="line2d_3">
      <g>
       <use style="stroke:#000000;stroke-width:0.8;" x="292.074819" xlink:href="#m71662e5607" y="248.8"/>
      </g>
     </g>
     <g id="text_3">
      <!-- $\mathdefault{10^{-1}}$ -->
      <g transform="translate(282.024819 263.398438)scale(0.1 -0.1)">
       <use transform="translate(0 0.684375)" xlink:href="#DejaVuSans-31"/>
       <use transform="translate(63.623047 0.684375)" xlink:href="#DejaVuSans-30"/>
       <use transform="translate(128.203125 38.965625)scale(0.7)" xlink:href="#DejaVuSans-2d"/>
       <use transform="translate(153.461914 38.965625)scale(0.7)" xlink:href="#DejaVuSans-31"/>
      </g>
     </g>
    </g>
    <g id="xtick_4">
     <g id="line2d_4">
      <g>
       <use style="stroke:#000000;stroke-width:0.8;" x="363.417777" xlink:href="#m71662e5607" y="248.8"/>
      </g>
     </g>
     <g id="text_4">
      <!-- $\mathdefault{10^{0}}$ -->
      <g transform="translate(354.617777 263.398438)scale(0.1 -0.1)">
       <use transform="translate(0 0.765625)" xlink:href="#DejaVuSans-31"/>
       <use transform="translate(63.623047 0.765625)" xlink:href="#DejaVuSans-30"/>
       <use transform="translate(128.203125 39.046875)scale(0.7)" xlink:href="#DejaVuSans-30"/>
      </g>
     </g>
    </g>
    <g id="xtick_5">
     <g id="line2d_5">
      <defs>
       <path d="M 0 0 
L 0 2 
" id="m37dfa2db3d" style="stroke:#000000;stroke-width:0.6;"/>
      </defs>
      <g>
       <use style="stroke:#000000;stroke-width:0.6;" x="99.522315" xlink:href="#m37dfa2db3d" y="248.8"/>
      </g>
     </g>
    </g>
    <g id="xtick_6">
     <g id="line2d_6">
      <g>
       <use style="stroke:#000000;stroke-width:0.6;" x="112.085186" xlink:href="#m37dfa2db3d" y="248.8"/>
      </g>
     </g>
    </g>
    <g id="xtick_7">
     <g id="line2d_7">
      <g>
       <use style="stroke:#000000;stroke-width:0.6;" x="120.998685" xlink:href="#m37dfa2db3d" y="248.8"/>
      </g>
     </g>
    </g>
    <g id="xtick_8">
     <g id="line2d_8">
      <g>
       <use style="stroke:#000000;stroke-width:0.6;" x="127.912532" xlink:href="#m37dfa2db3d" y="248.8"/>
      </g>
     </g>
    </g>
    <g id="xtick_9">
     <g id="line2d_9">
      <g>
       <use style="stroke:#000000;stroke-width:0.6;" x="133.561556" xlink:href="#m37dfa2db3d" y="248.8"/>
      </g>
     </g>
    </g>
    <g id="xtick_10">
     <g id="line2d_10">
      <g>
       <use style="stroke:#000000;stroke-width:0.6;" x="138.337738" xlink:href="#m37dfa2db3d" y="248.8"/>
      </g>
     </g>
    </g>
    <g id="xtick_11">
     <g id="line2d_11">
      <g>
       <use style="stroke:#000000;stroke-width:0.6;" x="142.475055" xlink:href="#m37dfa2db3d" y="248.8"/>
      </g>
     </g>
    </g>
    <g id="xtick_12">
     <g id="line2d_12">
      <g>
       <use style="stroke:#000000;stroke-width:0.6;" x="146.124428" xlink:href="#m37dfa2db3d" y="248.8"/>
      </g>
     </g>
    </g>
    <g id="xtick_13">
     <g id="line2d_13">
      <g>
       <use style="stroke:#000000;stroke-width:0.6;" x="170.865273" xlink:href="#m37dfa2db3d" y="248.8"/>
      </g>
     </g>
    </g>
    <g id="xtick_14">
     <g id="line2d_14">
      <g>
       <use style="stroke:#000000;stroke-width:0.6;" x="183.428144" xlink:href="#m37dfa2db3d" y="248.8"/>
      </g>
     </g>
    </g>
    <g id="xtick_15">
     <g id="line2d_15">
      <g>
       <use style="stroke:#000000;stroke-width:0.6;" x="192.341643" xlink:href="#m37dfa2db3d" y="248.8"/>
      </g>
     </g>
    </g>
    <g id="xtick_16">
     <g id="line2d_16">
      <g>
       <use style="stroke:#000000;stroke-width:0.6;" x="199.25549" xlink:href="#m37dfa2db3d" y="248.8"/>
      </g>
     </g>
    </g>
    <g id="xtick_17">
     <g id="line2d_17">
      <g>
       <use style="stroke:#000000;stroke-width:0.6;" x="204.904515" xlink:href="#m37dfa2db3d" y="248.8"/>
      </g>
     </g>
    </g>
    <g id="xtick_18">
     <g id="line2d_18">
      <g>
       <use style="stroke:#000000;stroke-width:0.6;" x="209.680697" xlink:href="#m37dfa2db3d" y="248.8"/>
      </g>
     </g>
    </g>
    <g id="xtick_19">
     <g id="line2d_19">
      <g>
       <use style="stroke:#000000;stroke-width:0.6;" x="213.818014" xlink:href="#m37dfa2db3d" y="248.8"/>
      </g>
     </g>
    </g>
    <g id="xtick_20">
     <g id="line2d_20">
      <g>
       <use style="stroke:#000000;stroke-width:0.6;" x="217.467386" xlink:href="#m37dfa2db3d" y="248.8"/>
      </g>
     </g>
    </g>
    <g id="xtick_21">
     <g id="line2d_21">
      <g>
       <use style="stroke:#000000;stroke-width:0.6;" x="242.208231" xlink:href="#m37dfa2db3d" y="248.8"/>
      </g>
     </g>
    </g>
    <g id="xtick_22">
     <g id="line2d_22">
      <g>
       <use style="stroke:#000000;stroke-width:0.6;" x="254.771103" xlink:href="#m37dfa2db3d" y="248.8"/>
      </g>
     </g>
    </g>
    <g id="xtick_23">
     <g id="line2d_23">
      <g>
       <use style="stroke:#000000;stroke-width:0.6;" x="263.684602" xlink:href="#m37dfa2db3d" y="248.8"/>
      </g>
     </g>
    </g>
    <g id="xtick_24">
     <g id="line2d_24">
      <g>
       <use style="stroke:#000000;stroke-width:0.6;" x="270.598449" xlink:href="#m37dfa2db3d" y="248.8"/>
      </g>
     </g>
    </g>
    <g id="xtick_25">
     <g id="line2d_25">
      <g>
       <use style="stroke:#000000;stroke-width:0.6;" x="276.247473" xlink:href="#m37dfa2db3d" y="248.8"/>
      </g>
     </g>
    </g>
    <g id="xtick_26">
     <g id="line2d_26">
      <g>
       <use style="stroke:#000000;stroke-width:0.6;" x="281.023655" xlink:href="#m37dfa2db3d" y="248.8"/>
      </g>
     </g>
    </g>
    <g id="xtick_27">
     <g id="line2d_27">
      <g>
       <use style="stroke:#000000;stroke-width:0.6;" x="285.160972" xlink:href="#m37dfa2db3d" y="248.8"/>
      </g>
     </g>
    </g>
    <g id="xtick_28">
     <g id="line2d_28">
      <g>
       <use style="stroke:#000000;stroke-width:0.6;" x="288.810344" xlink:href="#m37dfa2db3d" y="248.8"/>
      </g>
     </g>
    </g>
    <g id="xtick_29">
     <g id="line2d_29">
      <g>
       <use style="stroke:#000000;stroke-width:0.6;" x="313.551189" xlink:href="#m37dfa2db3d" y="248.8"/>
      </g>
     </g>
    </g>
    <g id="xtick_30">
     <g id="line2d_30">
      <g>
       <use style="stroke:#000000;stroke-width:0.6;" x="326.114061" xlink:href="#m37dfa2db3d" y="248.8"/>
      </g>
     </g>
    </g>
    <g id="xtick_31">
     <g id="line2d_31">
      <g>
       <use style="stroke:#000000;stroke-width:0.6;" x="335.02756" xlink:href="#m37dfa2db3d" y="248.8"/>
      </g>
     </g>
    </g>
    <g id="xtick_32">
     <g id="line2d_32">
      <g>
       <use style="stroke:#000000;stroke-width:0.6;" x="341.941407" xlink:href="#m37dfa2db3d" y="248.8"/>
      </g>
     </g>
    </g>
    <g id="xtick_33">
     <g id="line2d_33">
      <g>
       <use style="stroke:#000000;stroke-width:0.6;" x="347.590431" xlink:href="#m37dfa2db3d" y="248.8"/>
      </g>
     </g>
    </g>
    <g id="xtick_34">
     <g id="line2d_34">
      <g>
       <use style="stroke:#000000;stroke-width:0.6;" x="352.366613" xlink:href="#m37dfa2db3d" y="248.8"/>
      </g>
     </g>
    </g>
    <g id="xtick_35">
     <g id="line2d_35">
      <g>
       <use style="stroke:#000000;stroke-width:0.6;" x="356.50393" xlink:href="#m37dfa2db3d" y="248.8"/>
      </g>
     </g>
    </g>
    <g id="xtick_36">
     <g id="line2d_36">
      <g>
       <use style="stroke:#000000;stroke-width:0.6;" x="360.153303" xlink:href="#m37dfa2db3d" y="248.8"/>
      </g>
     </g>
    </g>
    <g id="xtick_37">
     <g id="line2d_37">
      <g>
       <use style="stroke:#000000;stroke-width:0.6;" x="384.894148" xlink:href="#m37dfa2db3d" y="248.8"/>
      </g>
     </g>
    </g>
    <g id="text_5">
     <!-- $t/\tau$ -->
     <defs>
      <path d="M 6.203125 8.109375 
Q 6.203125 9.578125 6.5 10.890625 
L 13.71875 39.59375 
L 3.21875 39.59375 
Q 2.203125 39.59375 2.203125 40.921875 
Q 2.59375 43.109375 3.515625 43.109375 
L 14.59375 43.109375 
L 18.609375 59.421875 
Q 19 60.75 20.171875 61.671875 
Q 21.34375 62.59375 22.796875 62.59375 
Q 24.078125 62.59375 24.921875 61.828125 
Q 25.78125 61.078125 25.78125 59.8125 
Q 25.78125 59.515625 25.75 59.34375 
Q 25.734375 59.1875 25.6875 58.984375 
L 21.6875 43.109375 
L 31.984375 43.109375 
Q 33.015625 43.109375 33.015625 41.796875 
Q 32.953125 41.546875 32.8125 40.953125 
Q 32.671875 40.375 32.421875 39.984375 
Q 32.171875 39.59375 31.6875 39.59375 
L 20.796875 39.59375 
L 13.625 10.6875 
Q 12.890625 7.859375 12.890625 5.8125 
Q 12.890625 1.515625 15.828125 1.515625 
Q 20.21875 1.515625 23.609375 5.640625 
Q 27 9.765625 28.8125 14.703125 
Q 29.203125 15.28125 29.59375 15.28125 
L 30.8125 15.28125 
Q 31.203125 15.28125 31.4375 15.015625 
Q 31.6875 14.75 31.6875 14.40625 
Q 31.6875 14.203125 31.59375 14.109375 
Q 29.390625 8.0625 25.1875 3.46875 
Q 21 -1.125 15.578125 -1.125 
Q 11.625 -1.125 8.90625 1.453125 
Q 6.203125 4.046875 6.203125 8.109375 
z
" id="Cmmi10-74"/>
      <path d="M 5.609375 -23 
Q 5.609375 -22.703125 5.71875 -22.609375 
L 40.484375 73.78125 
Q 40.671875 74.359375 41.15625 74.671875 
Q 41.65625 75 42.28125 75 
Q 43.171875 75 43.71875 74.453125 
Q 44.28125 73.921875 44.28125 73 
L 44.28125 72.609375 
L 9.515625 -23.78125 
Q 8.9375 -25 7.625 -25 
Q 6.78125 -25 6.1875 -24.40625 
Q 5.609375 -23.828125 5.609375 -23 
z
" id="Cmmi10-3d"/>
      <path d="M 15.578125 1.515625 
Q 15.578125 2.203125 15.71875 2.59375 
L 26.21875 36.921875 
L 17.1875 36.921875 
Q 13.53125 36.921875 10.34375 34.625 
Q 7.171875 32.328125 5.078125 28.8125 
Q 4.890625 28.421875 4.5 28.421875 
L 3.328125 28.421875 
Q 2.390625 28.421875 2.390625 29.390625 
Q 2.390625 29.59375 2.59375 29.984375 
Q 5.859375 35.546875 9.59375 39.328125 
Q 13.328125 43.109375 18.015625 43.109375 
L 48.6875 43.109375 
Q 49.75 43.109375 50.484375 42.375 
Q 51.21875 41.65625 51.21875 40.578125 
Q 51.21875 39.109375 50.171875 38.015625 
Q 49.125 36.921875 47.609375 36.921875 
L 29.5 36.921875 
L 22.796875 2.390625 
Q 22.40625 0.78125 21.328125 -0.265625 
Q 20.265625 -1.3125 18.609375 -1.3125 
Q 17.328125 -1.3125 16.453125 -0.5 
Q 15.578125 0.296875 15.578125 1.515625 
z
" id="Cmmi10-bf"/>
     </defs>
     <g transform="translate(393.507709 248.8)scale(0.16 -0.16)">
      <use xlink:href="#Cmmi10-74"/>
      <use transform="translate(36.083984 0)" xlink:href="#Cmmi10-3d"/>
      <use transform="translate(86.083984 0)" xlink:href="#Cmmi10-bf"/>
     </g>
    </g>
   </g>
   <g id="matplotlib.axis_2">
    <g id="ytick_1">
     <g id="line2d_38">
      <defs>
       <path d="M 0 0 
L -3.5 0 
" id="m9b6ccff4fd" style="stroke:#000000;stroke-width:0.8;"/>
      </defs>
      <g>
       <use style="stroke:#000000;stroke-width:0.8;" x="84.96" xlink:href="#m9b6ccff4fd" y="234.33639"/>
      </g>
     </g>
     <g id="text_6">
      <!-- $\mathdefault{10^{-2}}$ -->
      <g transform="translate(57.86 238.135608)scale(0.1 -0.1)">
       <use transform="translate(0 0.765625)" xlink:href="#DejaVuSans-31"/>
       <use transform="translate(63.623047 0.765625)" xlink:href="#DejaVuSans-30"/>
       <use transform="translate(128.203125 39.046875)scale(0.7)" xlink:href="#DejaVuSans-2d"/>
       <use transform="translate(153.461914 39.046875)scale(0.7)" xlink:href="#DejaVuSans-32"/>
      </g>
     </g>
    </g>
    <g id="ytick_2">
     <g id="line2d_39">
      <g>
       <use style="stroke:#000000;stroke-width:0.8;" x="84.96" xlink:href="#m9b6ccff4fd" y="136.787108"/>
      </g>
     </g>
     <g id="text_7">
      <!-- $\mathdefault{10^{-1}}$ -->
      <g transform="translate(57.86 140.586327)scale(0.1 -0.1)">
       <use transform="translate(0 0.684375)" xlink:href="#DejaVuSans-31"/>
       <use transform="translate(63.623047 0.684375)" xlink:href="#DejaVuSans-30"/>
       <use transform="translate(128.203125 38.965625)scale(0.7)" xlink:href="#DejaVuSans-2d"/>
       <use transform="translate(153.461914 38.965625)scale(0.7)" xlink:href="#DejaVuSans-31"/>
      </g>
     </g>
    </g>
    <g id="ytick_3">
     <g id="line2d_40">
      <g>
       <use style="stroke:#000000;stroke-width:0.8;" x="84.96" xlink:href="#m9b6ccff4fd" y="39.237827"/>
      </g>
     </g>
     <g id="text_8">
      <!-- $\mathdefault{10^{0}}$ -->
      <g transform="translate(60.36 43.037045)scale(0.1 -0.1)">
       <use transform="translate(0 0.765625)" xlink:href="#DejaVuSans-31"/>
       <use transform="translate(63.623047 0.765625)" xlink:href="#DejaVuSans-30"/>
       <use transform="translate(128.203125 39.046875)scale(0.7)" xlink:href="#DejaVuSans-30"/>
      </g>
     </g>
    </g>
    <g id="ytick_4">
     <g id="line2d_41">
      <defs>
       <path d="M 0 0 
L -2 0 
" id="m2632102779" style="stroke:#000000;stroke-width:0.6;"/>
      </defs>
      <g>
       <use style="stroke:#000000;stroke-width:0.6;" x="84.96" xlink:href="#m2632102779" y="238.8"/>
      </g>
     </g>
    </g>
    <g id="ytick_5">
     <g id="line2d_42">
      <g>
       <use style="stroke:#000000;stroke-width:0.6;" x="84.96" xlink:href="#m2632102779" y="204.97113"/>
      </g>
     </g>
    </g>
    <g id="ytick_6">
     <g id="line2d_43">
      <g>
       <use style="stroke:#000000;stroke-width:0.6;" x="84.96" xlink:href="#m2632102779" y="187.793554"/>
      </g>
     </g>
    </g>
    <g id="ytick_7">
     <g id="line2d_44">
      <g>
       <use style="stroke:#000000;stroke-width:0.6;" x="84.96" xlink:href="#m2632102779" y="175.60587"/>
      </g>
     </g>
    </g>
    <g id="ytick_8">
     <g id="line2d_45">
      <g>
       <use style="stroke:#000000;stroke-width:0.6;" x="84.96" xlink:href="#m2632102779" y="166.152368"/>
      </g>
     </g>
    </g>
    <g id="ytick_9">
     <g id="line2d_46">
      <g>
       <use style="stroke:#000000;stroke-width:0.6;" x="84.96" xlink:href="#m2632102779" y="158.428294"/>
      </g>
     </g>
    </g>
    <g id="ytick_10">
     <g id="line2d_47">
      <g>
       <use style="stroke:#000000;stroke-width:0.6;" x="84.96" xlink:href="#m2632102779" y="151.897683"/>
      </g>
     </g>
    </g>
    <g id="ytick_11">
     <g id="line2d_48">
      <g>
       <use style="stroke:#000000;stroke-width:0.6;" x="84.96" xlink:href="#m2632102779" y="146.24061"/>
      </g>
     </g>
    </g>
    <g id="ytick_12">
     <g id="line2d_49">
      <g>
       <use style="stroke:#000000;stroke-width:0.6;" x="84.96" xlink:href="#m2632102779" y="141.250719"/>
      </g>
     </g>
    </g>
    <g id="ytick_13">
     <g id="line2d_50">
      <g>
       <use style="stroke:#000000;stroke-width:0.6;" x="84.96" xlink:href="#m2632102779" y="107.421848"/>
      </g>
     </g>
    </g>
    <g id="ytick_14">
     <g id="line2d_51">
      <g>
       <use style="stroke:#000000;stroke-width:0.6;" x="84.96" xlink:href="#m2632102779" y="90.244273"/>
      </g>
     </g>
    </g>
    <g id="ytick_15">
     <g id="line2d_52">
      <g>
       <use style="stroke:#000000;stroke-width:0.6;" x="84.96" xlink:href="#m2632102779" y="78.056589"/>
      </g>
     </g>
    </g>
    <g id="ytick_16">
     <g id="line2d_53">
      <g>
       <use style="stroke:#000000;stroke-width:0.6;" x="84.96" xlink:href="#m2632102779" y="68.603086"/>
      </g>
     </g>
    </g>
    <g id="ytick_17">
     <g id="line2d_54">
      <g>
       <use style="stroke:#000000;stroke-width:0.6;" x="84.96" xlink:href="#m2632102779" y="60.879013"/>
      </g>
     </g>
    </g>
    <g id="ytick_18">
     <g id="line2d_55">
      <g>
       <use style="stroke:#000000;stroke-width:0.6;" x="84.96" xlink:href="#m2632102779" y="54.348402"/>
      </g>
     </g>
    </g>
    <g id="ytick_19">
     <g id="line2d_56">
      <g>
       <use style="stroke:#000000;stroke-width:0.6;" x="84.96" xlink:href="#m2632102779" y="48.691329"/>
      </g>
     </g>
    </g>
    <g id="ytick_20">
     <g id="line2d_57">
      <g>
       <use style="stroke:#000000;stroke-width:0.6;" x="84.96" xlink:href="#m2632102779" y="43.701437"/>
      </g>
     </g>
    </g>
    <g id="text_9">
     <!-- $\langle v^{\alpha}_i(t) v^{\alpha}_i(0)\rangle$$/\langle v^{\alpha}_i(0)^2\rangle$ -->
     <defs>
      <path d="M 35.5 -114.796875 
L 10.015625 -56.78125 
Q 9.8125 -56.5 9.8125 -56 
Q 9.8125 -55.515625 10.015625 -55.328125 
L 35.5 2.78125 
Q 35.984375 4 37.3125 4 
Q 38.03125 4 38.671875 3.359375 
Q 39.3125 2.734375 39.3125 2 
Q 39.3125 1.515625 39.203125 1.3125 
L 14.015625 -56 
L 39.203125 -113.28125 
Q 39.3125 -113.484375 39.3125 -114.015625 
Q 39.3125 -114.75 38.671875 -115.375 
Q 38.03125 -116.015625 37.3125 -116.015625 
Q 36.03125 -116.015625 35.5 -114.796875 
z
" id="Cmex10-ad"/>
      <path d="M 10.6875 11.28125 
Q 10.6875 13.53125 11.21875 16.203125 
Q 11.765625 18.890625 12.296875 20.625 
Q 12.84375 22.359375 14.75 27.390625 
Q 16.65625 32.421875 16.703125 32.625 
Q 18.015625 36.28125 18.015625 38.625 
Q 18.015625 41.609375 15.828125 41.609375 
Q 11.859375 41.609375 9.296875 37.53125 
Q 6.734375 33.453125 5.515625 28.421875 
Q 5.328125 27.78125 4.6875 27.78125 
L 3.515625 27.78125 
Q 2.6875 27.78125 2.6875 28.71875 
L 2.6875 29 
Q 4.296875 34.96875 7.609375 39.578125 
Q 10.9375 44.1875 16.015625 44.1875 
Q 19.578125 44.1875 22.046875 41.84375 
Q 24.515625 39.5 24.515625 35.890625 
Q 24.515625 34.03125 23.6875 31.984375 
Q 21.734375 26.90625 20.609375 23.84375 
Q 19.484375 20.796875 18.53125 17.015625 
Q 17.578125 13.234375 17.578125 10.015625 
Q 17.578125 6.25 19.3125 3.875 
Q 21.046875 1.515625 24.703125 1.515625 
Q 31.640625 1.515625 37.203125 12.203125 
Q 38.96875 15.671875 40.53125 20.359375 
Q 42.09375 25.046875 42.09375 27.984375 
Q 42.09375 31 41.109375 32.6875 
Q 40.140625 34.375 38.578125 36.203125 
Q 37.015625 38.03125 37.015625 39.109375 
Q 37.015625 41.0625 38.625 42.671875 
Q 40.234375 44.28125 42.1875 44.28125 
Q 44.578125 44.28125 45.625 42.078125 
Q 46.6875 39.890625 46.6875 37.109375 
Q 46.6875 33.796875 45.734375 29.203125 
Q 44.78125 24.609375 43.09375 19.671875 
Q 41.40625 14.75 39.984375 11.921875 
Q 33.40625 -1.125 24.609375 -1.125 
Q 18.3125 -1.125 14.5 2.015625 
Q 10.6875 5.171875 10.6875 11.28125 
z
" id="Cmmi10-76"/>
      <path d="M 20.125 -1.125 
Q 15.375 -1.125 11.6875 1.125 
Q 8.015625 3.375 6 7.171875 
Q 4 10.984375 4 15.828125 
Q 4 22.609375 7.78125 29.25 
Q 11.578125 35.890625 17.84375 40.03125 
Q 24.125 44.1875 31 44.1875 
Q 36.078125 44.1875 39.9375 41.53125 
Q 43.796875 38.875 45.796875 34.453125 
Q 47.796875 30.03125 47.796875 25 
L 47.90625 18.3125 
Q 51.3125 23.046875 53.6875 28.140625 
Q 56.0625 33.25 57.328125 38.71875 
Q 57.515625 39.3125 58.109375 39.3125 
L 59.28125 39.3125 
Q 60.203125 39.3125 60.203125 38.375 
Q 60.203125 38.28125 60.109375 38.09375 
Q 58.9375 33.5 57.171875 29.265625 
Q 55.421875 25.046875 53.046875 21.09375 
Q 50.6875 17.140625 47.90625 13.921875 
Q 47.90625 1.515625 50.78125 1.515625 
Q 52.640625 1.515625 53.828125 2.609375 
Q 55.03125 3.71875 55.9375 5.328125 
Q 56.84375 6.9375 57.078125 6.984375 
L 58.296875 6.984375 
Q 59.078125 6.984375 59.078125 6 
Q 59.078125 3.515625 56.21875 1.1875 
Q 53.375 -1.125 50.59375 -1.125 
Q 46.96875 -1.125 44.578125 1.21875 
Q 42.1875 3.5625 41.3125 7.328125 
Q 36.625 3.328125 31.15625 1.09375 
Q 25.6875 -1.125 20.125 -1.125 
z
M 20.3125 1.515625 
Q 31 1.515625 40.828125 10.296875 
Q 40.765625 10.890625 40.671875 11.734375 
Q 40.578125 12.59375 40.578125 12.703125 
L 40.578125 23.484375 
Q 40.578125 41.609375 30.8125 41.609375 
Q 24.953125 41.609375 20.546875 36.59375 
Q 16.15625 31.59375 13.9375 24.625 
Q 11.71875 17.671875 11.71875 11.921875 
Q 11.71875 7.5625 13.9375 4.53125 
Q 16.15625 1.515625 20.3125 1.515625 
z
" id="Cmmi10-ae"/>
      <path d="M 7.8125 7.171875 
Q 7.8125 9.03125 8.59375 11.078125 
L 16.703125 32.625 
Q 18.015625 36.28125 18.015625 38.625 
Q 18.015625 41.609375 15.828125 41.609375 
Q 11.859375 41.609375 9.296875 37.53125 
Q 6.734375 33.453125 5.515625 28.421875 
Q 5.328125 27.78125 4.6875 27.78125 
L 3.515625 27.78125 
Q 2.6875 27.78125 2.6875 28.71875 
L 2.6875 29 
Q 4.296875 34.96875 7.609375 39.578125 
Q 10.9375 44.1875 16.015625 44.1875 
Q 19.578125 44.1875 22.046875 41.84375 
Q 24.515625 39.5 24.515625 35.890625 
Q 24.515625 34.03125 23.6875 31.984375 
L 15.578125 10.5 
Q 14.203125 7.171875 14.203125 4.5 
Q 14.203125 1.515625 16.5 1.515625 
Q 20.40625 1.515625 23.015625 5.6875 
Q 25.640625 9.859375 26.703125 14.703125 
Q 26.90625 15.28125 27.484375 15.28125 
L 28.71875 15.28125 
Q 29.109375 15.28125 29.34375 15.015625 
Q 29.59375 14.75 29.59375 14.40625 
Q 29.59375 14.3125 29.5 14.109375 
Q 28.125 8.453125 24.734375 3.65625 
Q 21.34375 -1.125 16.3125 -1.125 
Q 12.796875 -1.125 10.296875 1.296875 
Q 7.8125 3.71875 7.8125 7.171875 
z
M 19.09375 60.59375 
Q 19.09375 62.703125 20.84375 64.40625 
Q 22.609375 66.109375 24.703125 66.109375 
Q 26.421875 66.109375 27.515625 65.0625 
Q 28.609375 64.015625 28.609375 62.40625 
Q 28.609375 60.15625 26.828125 58.46875 
Q 25.046875 56.78125 22.90625 56.78125 
Q 21.296875 56.78125 20.1875 57.875 
Q 19.09375 58.984375 19.09375 60.59375 
z
" id="Cmmi10-69"/>
      <path d="M 31 -24.8125 
Q 25.4375 -20.40625 21.40625 -14.71875 
Q 17.390625 -9.03125 14.8125 -2.578125 
Q 12.25 3.859375 10.984375 10.890625 
Q 9.71875 17.921875 9.71875 25 
Q 9.71875 32.171875 10.984375 39.203125 
Q 12.25 46.234375 14.859375 52.734375 
Q 17.484375 59.234375 21.53125 64.890625 
Q 25.59375 70.5625 31 74.8125 
Q 31 75 31.5 75 
L 32.421875 75 
Q 32.71875 75 32.953125 74.734375 
Q 33.203125 74.46875 33.203125 74.125 
Q 33.203125 73.6875 33.015625 73.484375 
Q 28.125 68.703125 24.875 63.234375 
Q 21.625 57.765625 19.640625 51.578125 
Q 17.671875 45.40625 16.796875 38.78125 
Q 15.921875 32.171875 15.921875 25 
Q 15.921875 -6.78125 32.90625 -23.296875 
Q 33.203125 -23.578125 33.203125 -24.125 
Q 33.203125 -24.359375 32.9375 -24.671875 
Q 32.671875 -25 32.421875 -25 
L 31.5 -25 
Q 31 -25 31 -24.8125 
z
" id="Cmr10-28"/>
      <path d="M 6.5 -25 
Q 5.609375 -25 5.609375 -24.125 
Q 5.609375 -23.6875 5.8125 -23.484375 
Q 22.90625 -6.78125 22.90625 25 
Q 22.90625 56.78125 6 73.296875 
Q 5.609375 73.53125 5.609375 74.125 
Q 5.609375 74.46875 5.875 74.734375 
Q 6.15625 75 6.5 75 
L 7.421875 75 
Q 7.71875 75 7.90625 74.8125 
Q 15.09375 69.140625 19.875 61.03125 
Q 24.65625 52.9375 26.875 43.75 
Q 29.109375 34.578125 29.109375 25 
Q 29.109375 17.921875 27.90625 11.0625 
Q 26.703125 4.203125 24.09375 -2.453125 
Q 21.484375 -9.125 17.484375 -14.765625 
Q 13.484375 -20.40625 7.90625 -24.8125 
Q 7.71875 -25 7.421875 -25 
z
" id="Cmr10-29"/>
      <path d="M 25 -2.203125 
Q 12.75 -2.203125 8.328125 7.875 
Q 3.90625 17.96875 3.90625 31.890625 
Q 3.90625 40.578125 5.484375 48.234375 
Q 7.078125 55.90625 11.78125 61.25 
Q 16.5 66.609375 25 66.609375 
Q 31.59375 66.609375 35.78125 63.375 
Q 39.984375 60.15625 42.1875 55.046875 
Q 44.390625 49.953125 45.1875 44.109375 
Q 46 38.28125 46 31.890625 
Q 46 23.296875 44.40625 15.796875 
Q 42.828125 8.296875 38.1875 3.046875 
Q 33.546875 -2.203125 25 -2.203125 
z
M 25 0.390625 
Q 30.5625 0.390625 33.296875 6.09375 
Q 36.03125 11.8125 36.671875 18.75 
Q 37.3125 25.6875 37.3125 33.5 
Q 37.3125 41.015625 36.671875 47.359375 
Q 36.03125 53.71875 33.3125 58.859375 
Q 30.609375 64.015625 25 64.015625 
Q 19.34375 64.015625 16.609375 58.828125 
Q 13.875 53.65625 13.234375 47.328125 
Q 12.59375 41.015625 12.59375 33.5 
Q 12.59375 27.9375 12.859375 23 
Q 13.140625 18.0625 14.3125 12.8125 
Q 15.484375 7.5625 18.09375 3.96875 
Q 20.703125 0.390625 25 0.390625 
z
" id="Cmr10-30"/>
      <path d="M 7.8125 -114.015625 
Q 7.8125 -113.484375 8.015625 -113.28125 
L 33.109375 -56 
L 8.015625 1.3125 
Q 7.8125 1.515625 7.8125 2 
Q 7.8125 2.734375 8.390625 3.359375 
Q 8.984375 4 9.8125 4 
Q 10.984375 4 11.71875 2.78125 
L 37.203125 -55.328125 
Q 37.3125 -55.515625 37.3125 -56 
Q 37.3125 -56.5 37.203125 -56.78125 
L 11.71875 -114.796875 
Q 10.9375 -116.015625 9.8125 -116.015625 
Q 8.984375 -116.015625 8.390625 -115.375 
Q 7.8125 -114.75 7.8125 -114.015625 
z
" id="Cmex10-ae"/>
      <path d="M 4.984375 0 
L 4.984375 2.6875 
Q 4.984375 2.9375 5.171875 3.21875 
L 20.703125 20.40625 
Q 24.21875 24.21875 26.40625 26.796875 
Q 28.609375 29.390625 30.75 32.765625 
Q 32.90625 36.140625 34.15625 39.625 
Q 35.40625 43.109375 35.40625 47.015625 
Q 35.40625 51.125 33.890625 54.859375 
Q 32.375 58.59375 29.375 60.84375 
Q 26.375 63.09375 22.125 63.09375 
Q 17.78125 63.09375 14.3125 60.46875 
Q 10.84375 57.859375 9.421875 53.71875 
Q 9.8125 53.8125 10.5 53.8125 
Q 12.75 53.8125 14.328125 52.296875 
Q 15.921875 50.78125 15.921875 48.390625 
Q 15.921875 46.09375 14.328125 44.5 
Q 12.75 42.921875 10.5 42.921875 
Q 8.15625 42.921875 6.5625 44.546875 
Q 4.984375 46.1875 4.984375 48.390625 
Q 4.984375 52.15625 6.390625 55.4375 
Q 7.8125 58.734375 10.46875 61.296875 
Q 13.140625 63.875 16.484375 65.234375 
Q 19.828125 66.609375 23.578125 66.609375 
Q 29.296875 66.609375 34.21875 64.1875 
Q 39.15625 61.765625 42.03125 57.34375 
Q 44.921875 52.9375 44.921875 47.015625 
Q 44.921875 42.671875 43.015625 38.765625 
Q 41.109375 34.859375 38.125 31.65625 
Q 35.15625 28.46875 30.515625 24.40625 
Q 25.875 20.359375 24.421875 19 
L 13.09375 8.109375 
L 22.703125 8.109375 
Q 29.78125 8.109375 34.546875 8.21875 
Q 39.3125 8.34375 39.59375 8.59375 
Q 40.765625 9.859375 42 17.828125 
L 44.921875 17.828125 
L 42.09375 0 
z
" id="Cmr10-32"/>
     </defs>
     <g transform="translate(7.2 22.88)scale(0.16 -0.16)">
      <use transform="translate(0 94)" xlink:href="#Cmex10-ad"/>
      <use transform="translate(47.216797 0.658854)" xlink:href="#Cmmi10-76"/>
      <use transform="translate(101.928438 38.922917)scale(0.7)" xlink:href="#Cmmi10-ae"/>
      <use transform="translate(95.605469 -24.850521)scale(0.7)" xlink:href="#Cmmi10-69"/>
      <use transform="translate(153.046992 0.658854)" xlink:href="#Cmr10-28"/>
      <use transform="translate(191.865352 0.658854)" xlink:href="#Cmmi10-74"/>
      <use transform="translate(227.949336 0.658854)" xlink:href="#Cmr10-29"/>
      <use transform="translate(266.767695 0.658854)" xlink:href="#Cmmi10-76"/>
      <use transform="translate(321.479336 38.922917)scale(0.7)" xlink:href="#Cmmi10-ae"/>
      <use transform="translate(315.156367 -24.850521)scale(0.7)" xlink:href="#Cmmi10-69"/>
      <use transform="translate(372.597891 0.658854)" xlink:href="#Cmr10-28"/>
      <use transform="translate(411.41625 0.658854)" xlink:href="#Cmr10-30"/>
      <use transform="translate(461.41625 0.658854)" xlink:href="#Cmr10-29"/>
      <use transform="translate(500.234609 94)" xlink:href="#Cmex10-ae"/>
      <use transform="translate(547.451406 0.658854)" xlink:href="#Cmmi10-3d"/>
      <use transform="translate(597.451406 94)" xlink:href="#Cmex10-ad"/>
      <use transform="translate(644.668203 0.658854)" xlink:href="#Cmmi10-76"/>
      <use transform="translate(699.379844 38.922917)scale(0.7)" xlink:href="#Cmmi10-ae"/>
      <use transform="translate(693.056875 -24.850521)scale(0.7)" xlink:href="#Cmmi10-69"/>
      <use transform="translate(750.498398 0.658854)" xlink:href="#Cmr10-28"/>
      <use transform="translate(789.316758 0.658854)" xlink:href="#Cmr10-30"/>
      <use transform="translate(839.316758 0.658854)" xlink:href="#Cmr10-29"/>
      <use transform="translate(882.599258 38.922917)scale(0.7)" xlink:href="#Cmr10-32"/>
      <use transform="translate(923.976602 94)" xlink:href="#Cmex10-ae"/>
     </g>
    </g>
   </g>
   <g id="line2d_58">
    <path clip-path="url(#pea17805e61)" d="M -1 39.983114 
L 187.26074 39.985091 
L 208.73711 40.719269 
L 222.77844 41.545923 
L 232.405528 42.357347 
L 239.739771 43.154497 
L 249.808472 44.572871 
L 256.922786 45.856791 
L 264.05732 47.433738 
L 270.194853 49.066302 
L 274.7854 50.481396 
L 279.897156 52.28071 
L 285.009091 54.347847 
L 288.975323 56.16069 
L 293.572811 58.52075 
L 297.590204 60.838866 
L 301.241962 63.179045 
L 305.777752 66.435028 
L 308.218969 68.366209 
L 311.49686 71.17879 
L 314.526103 74.024618 
L 318.179197 77.810063 
L 321.11574 81.167876 
L 324.009964 84.787274 
L 327.031228 88.936095 
L 330.105255 93.600943 
L 333.548736 99.446459 
L 335.747415 103.578974 
L 338.487055 109.243581 
L 341.235864 115.610471 
L 343.14682 120.522313 
L 345.742116 127.979348 
L 347.934797 135.161991 
L 349.559436 141.148661 
L 351.24827 148.137238 
L 352.825251 155.569832 
L 354.507859 164.804604 
L 355.965649 174.338683 
L 357.059419 182.841403 
L 358.244927 194.010552 
L 359.239272 205.818315 
L 360.311818 222.989104 
L 361.030217 239.50374 
L 361.192176 244.227045 
L 361.892979 273.678125 
L 361.892979 273.678125 
" style="fill:none;stroke:#0000f1;stroke-linecap:square;"/>
   </g>
   <g id="line2d_59">
    <path clip-path="url(#pea17805e61)" d="M -1 39.894754 
L 169.196914 39.896329 
L 190.673284 40.539713 
L 203.236156 41.168895 
L 212.149655 41.784726 
L 220.58854 42.538288 
L 227.214089 43.273594 
L 237.306494 44.694583 
L 244.446494 45.966247 
L 250.245375 47.193195 
L 257.308358 48.961126 
L 261.88846 50.290448 
L 266.545024 51.808484 
L 272.283967 53.937997 
L 276.866603 55.868291 
L 281.40542 58.005704 
L 286.002803 60.425416 
L 290.841735 63.281368 
L 294.892521 65.943401 
L 298.320948 68.409581 
L 302.217275 71.472684 
L 305.426842 74.223257 
L 309.50278 78.043094 
L 313.196852 81.855434 
L 316.582364 85.677187 
L 319.610566 89.393101 
L 323.107158 94.079032 
L 325.911251 98.184832 
L 329.634373 104.194557 
L 332.214261 108.795603 
L 334.898272 114.03265 
L 337.895354 120.529363 
L 340.593364 127.095521 
L 342.959029 133.551277 
L 344.911026 139.490369 
L 347.251599 147.540934 
L 349.004901 154.426191 
L 350.757713 162.280737 
L 352.484626 171.304028 
L 353.895923 180.001193 
L 355.202855 189.586284 
L 356.380737 200.098627 
L 357.476359 212.39044 
L 358.274902 223.848452 
L 359.20551 242.103312 
L 359.546963 251.169616 
L 360.141332 273.678125 
L 360.141332 273.678125 
" style="fill:none;stroke:#004cff;stroke-linecap:square;"/>
   </g>
   <g id="line2d_60">
    <path clip-path="url(#pea17805e61)" d="M -1 39.657315 
L 134.681305 39.658117 
L 156.157675 40.069308 
L 177.634046 40.866202 
L 190.196917 41.631854 
L 199.110416 42.369222 
L 211.673287 43.769267 
L 220.586786 45.083833 
L 228.472799 46.518811 
L 234.753391 47.873739 
L 240.314068 49.250868 
L 247.184461 51.210451 
L 253.060216 53.138671 
L 258.642086 55.209688 
L 263.754761 57.330329 
L 269.121569 59.805946 
L 274.438847 62.530331 
L 279.933928 65.651434 
L 284.259905 68.342702 
L 288.824917 71.422973 
L 293.491906 74.847752 
L 297.055534 77.667309 
L 301.104066 81.107074 
L 305.579172 85.236176 
L 309.699209 89.383442 
L 314.046644 94.176974 
L 316.922534 97.619715 
L 321.04247 102.992555 
L 323.638029 106.68495 
L 326.545428 111.150089 
L 330.027551 117.033673 
L 332.405717 121.448134 
L 335.686197 128.17644 
L 337.999325 133.456818 
L 340.194216 138.968251 
L 342.658775 145.870053 
L 344.324895 151.061696 
L 346.449184 158.457898 
L 348.172413 165.268498 
L 349.821189 172.675933 
L 351.103031 179.220462 
L 352.474468 187.236989 
L 353.923374 197.288916 
L 355.236058 208.490833 
L 356.296282 219.836237 
L 357.144015 231.316968 
L 357.669464 240.144469 
L 358.516381 259.295244 
L 358.949839 273.678125 
L 358.949839 273.678125 
" style="fill:none;stroke:#00b0ff;stroke-linecap:square;"/>
   </g>
   <g id="line2d_61">
    <path clip-path="url(#pea17805e61)" d="M -1 39.68 
L 119.851687 39.680753 
L 141.328058 40.111154 
L 162.804428 40.937444 
L 175.367299 41.722264 
L 184.280798 42.470373 
L 194.147722 43.532454 
L 201.619852 44.532343 
L 210.362939 45.954155 
L 217.920945 47.434367 
L 223.992087 48.813749 
L 231.322378 50.730593 
L 237.245954 52.499391 
L 243.711004 54.672916 
L 249.491573 56.844785 
L 255.475411 59.331797 
L 262.334199 62.493983 
L 267.492816 65.100574 
L 273.428781 68.355242 
L 279.078223 71.724722 
L 284.317233 75.11014 
L 289.066318 78.421685 
L 294.017696 82.153394 
L 298.238178 85.590948 
L 301.934899 88.823283 
L 306.432203 93.075013 
L 310.408592 97.170769 
L 313.945069 101.121089 
L 317.623284 105.585926 
L 320.15244 108.897523 
L 322.934833 112.800787 
L 326.823021 118.785275 
L 330.509252 125.1438 
L 332.776684 129.454661 
L 334.955924 133.938411 
L 337.675804 140.089052 
L 339.930662 145.750455 
L 341.999088 151.493291 
L 343.61668 156.42857 
L 345.97424 164.49478 
L 348.208345 173.386798 
L 349.857862 181.013605 
L 351.376871 189.13302 
L 352.593752 196.668793 
L 353.609476 203.916374 
L 354.949414 215.388744 
L 356.245931 229.777846 
L 357.254208 245.002351 
L 358.042917 261.77934 
L 358.428456 273.678125 
L 358.428456 273.678125 
" style="fill:none;stroke:#29ffce;stroke-linecap:square;"/>
   </g>
   <g id="line2d_62">
    <path clip-path="url(#pea17805e61)" d="M -1 40.09874 
L 123.899931 40.100255 
L 145.376301 40.908065 
L 157.939173 41.668568 
L 166.852672 42.387861 
L 179.415543 43.722374 
L 188.329042 44.943272 
L 198.195966 46.608986 
L 205.668096 48.11971 
L 213.454785 49.948265 
L 221.049623 52.002188 
L 227.144466 53.854141 
L 234.100623 56.195893 
L 241.283128 58.871529 
L 248.831809 61.967036 
L 255.32806 64.86812 
L 261.568447 67.872645 
L 267.614293 71.00537 
L 274.138976 74.662251 
L 279.801141 78.102165 
L 285.790006 82.054104 
L 290.431303 85.373258 
L 294.996662 88.890371 
L 299.963692 93.044693 
L 304.761237 97.435152 
L 308.930817 101.604063 
L 312.871338 105.896705 
L 316.719536 110.474991 
L 320.713321 115.70205 
L 323.607227 119.844957 
L 325.948576 123.450257 
L 328.851633 128.283336 
L 331.537838 133.17107 
L 334.708708 139.557041 
L 336.961382 144.581525 
L 338.956586 149.439371 
L 341.492182 156.283093 
L 343.953018 163.823536 
L 345.436597 168.909673 
L 347.6854 177.624912 
L 349.336162 185.027731 
L 350.996013 193.650391 
L 352.511048 202.960873 
L 353.877122 213.076376 
L 354.640302 219.748015 
L 355.694953 230.749253 
L 356.860279 246.787132 
L 357.316313 254.926651 
L 358.095219 273.678125 
L 358.095219 273.678125 
" style="fill:none;stroke:#7dff7a;stroke-linecap:square;"/>
   </g>
   <g id="line2d_63">
    <path clip-path="url(#pea17805e61)" d="M -1 40.122966 
L 101.522773 40.124244 
L 122.999143 40.941189 
L 135.562014 41.69975 
L 144.475513 42.408805 
L 157.038385 43.705534 
L 165.951884 44.873564 
L 175.818808 46.443247 
L 183.290937 47.845511 
L 191.077627 49.517093 
L 197.295178 51.011415 
L 204.767308 52.995699 
L 212.965322 55.4035 
L 220.773627 57.911343 
L 229.334277 60.893098 
L 237.216676 63.857146 
L 245.818218 67.352127 
L 252.543372 70.299238 
L 259.990945 73.817073 
L 266.471633 77.129228 
L 271.822175 80.066789 
L 277.133112 83.19028 
L 281.880988 86.181562 
L 286.925827 89.594632 
L 292.252723 93.500134 
L 296.994696 97.278556 
L 301.570702 101.237889 
L 305.481831 104.903421 
L 309.641467 109.131277 
L 312.73032 112.522594 
L 316.85868 117.443949 
L 320.526893 122.251402 
L 323.954483 127.180987 
L 326.726897 131.531288 
L 329.659372 136.548001 
L 332.081511 141.068164 
L 335.09046 147.249813 
L 337.623293 153.039846 
L 339.427328 157.559026 
L 342.01033 164.730511 
L 343.999829 170.949089 
L 345.390929 175.744532 
L 347.111918 182.308943 
L 348.875406 189.953971 
L 350.521966 198.210013 
L 352.144499 207.819901 
L 353.452735 217.102919 
L 354.386116 224.936995 
L 355.353816 234.610715 
L 356.212845 245.173835 
L 357.130613 259.863339 
L 357.75181 273.678125 
L 357.75181 273.678125 
" style="fill:none;stroke:#ceff29;stroke-linecap:square;"/>
   </g>
   <g id="line2d_64">
    <path clip-path="url(#pea17805e61)" d="M -1 40.493613 
L 94.96 40.49531 
L 116.43637 41.601788 
L 128.999242 42.592983 
L 137.912741 43.493921 
L 150.475612 45.091218 
L 159.389111 46.485669 
L 169.256035 48.305002 
L 178.86583 50.364702 
L 187.779329 52.523139 
L 195.908385 54.685393 
L 206.502899 57.757265 
L 216.415075 60.881145 
L 226.057008 64.165277 
L 234.992584 67.454111 
L 243.826271 70.975416 
L 251.233615 74.16907 
L 258.823979 77.707656 
L 265.072169 80.854505 
L 271.287331 84.227531 
L 277.327983 87.773938 
L 282.158666 90.828848 
L 287.445809 94.429033 
L 293.070718 98.599791 
L 296.948213 101.710898 
L 302.004476 106.104034 
L 306.564007 110.444162 
L 311.133996 115.219421 
L 313.974592 118.436476 
L 317.334384 122.525614 
L 320.742614 127.034417 
L 324.226156 132.081808 
L 327.744375 137.714527 
L 330.743887 143.025512 
L 332.768647 146.923718 
L 335.672327 153.037847 
L 338.096778 158.707856 
L 339.961419 163.492025 
L 342.139085 169.644776 
L 343.610699 174.217107 
L 345.754016 181.619876 
L 347.7485 189.518456 
L 349.372812 196.907735 
L 350.612324 203.310645 
L 352.055263 211.882529 
L 353.327565 220.81646 
L 354.286906 228.763323 
L 355.415848 240.094154 
L 356.191429 249.753731 
L 356.867587 260.145299 
L 357.539878 273.678125 
L 357.539878 273.678125 
" style="fill:none;stroke:#ffc400;stroke-linecap:square;"/>
   </g>
   <g id="line2d_65">
    <path clip-path="url(#pea17805e61)" d="M -1 42.082 
L 105.135112 42.086253 
L 126.611482 44.224874 
L 139.174354 45.968347 
L 148.087853 47.453162 
L 160.650724 49.901297 
L 173.213595 52.735511 
L 184.607126 55.593066 
L 196.365177 58.799053 
L 206.083496 61.65169 
L 216.465623 64.927863 
L 225.96916 68.165757 
L 235.317928 71.61091 
L 244.050688 75.101399 
L 252.200254 78.637093 
L 258.975353 81.81497 
L 264.531533 84.607233 
L 270.579607 87.864874 
L 275.64728 90.793687 
L 281.533144 94.457395 
L 286.339273 97.688272 
L 291.568368 101.485886 
L 296.49937 105.378511 
L 300.759836 109.023756 
L 303.916002 111.91655 
L 308.827461 116.793119 
L 312.384445 120.652978 
L 316.793963 125.889794 
L 320.340619 130.527837 
L 324.148749 136.012308 
L 327.284913 140.9948 
L 330.070378 145.839665 
L 332.986013 151.413889 
L 336.008737 157.849766 
L 338.830035 164.603844 
L 341.232257 171.068074 
L 343.066061 176.552946 
L 345.37095 184.301602 
L 347.221113 191.404162 
L 349.033441 199.375071 
L 350.722 208.024511 
L 352.158192 216.675177 
L 353.533848 226.569663 
L 354.54618 235.316128 
L 355.654777 247.080766 
L 356.465082 257.94889 
L 357.32938 273.678125 
L 357.32938 273.678125 
" style="fill:none;stroke:#ff6800;stroke-linecap:square;"/>
   </g>
   <g id="line2d_66">
    <path clip-path="url(#pea17805e61)" d="M -1 46.444078 
L 119.457747 46.456308 
L 140.934118 50.280195 
L 153.496989 52.908553 
L 169.324335 56.54134 
L 183.886858 60.195026 
L 196.44973 63.622076 
L 207.241613 66.804719 
L 217.9261 70.209833 
L 226.839599 73.275393 
L 235.530636 76.493266 
L 244.254939 79.987491 
L 251.802371 83.258797 
L 259.197108 86.72463 
L 265.956968 90.155384 
L 272.638593 93.833852 
L 277.820323 96.914216 
L 283.655802 100.659067 
L 289.244951 104.563171 
L 293.034002 107.413257 
L 297.118157 110.695315 
L 302.295616 115.214823 
L 307.367645 120.098196 
L 310.315883 123.178565 
L 313.608839 126.860914 
L 316.326243 130.115962 
L 320.169093 135.102641 
L 323.851438 140.373175 
L 326.928788 145.216557 
L 330.073022 150.657169 
L 332.402106 155.065741 
L 335.484892 161.496183 
L 338.026975 167.415855 
L 340.668165 174.303457 
L 342.688898 180.204249 
L 344.299336 185.392317 
L 346.087254 191.775213 
L 347.609421 197.851627 
L 349.190502 204.963294 
L 350.928345 214.031635 
L 352.377259 222.987367 
L 353.259304 229.303285 
L 354.592038 240.635642 
L 355.651761 251.95323 
L 356.371476 261.493392 
L 357.083338 273.678125 
L 357.083338 273.678125 
" style="fill:none;stroke:#f10800;stroke-linecap:square;"/>
   </g>
   <g id="patch_3">
    <path d="M 84.96 238.8 
L 84.96 35.2 
" style="fill:none;stroke:#000000;stroke-linecap:square;stroke-linejoin:miter;stroke-width:0.8;"/>
   </g>
   <g id="patch_4">
    <path d="M 94.96 248.8 
L 385.507709 248.8 
" style="fill:none;stroke:#000000;stroke-linecap:square;stroke-linejoin:miter;stroke-width:0.8;"/>
   </g>
   <g id="text_10">
    <!-- $\zeta=1.0, \tau=20.0$ -->
    <defs>
     <path d="M 17.671875 -15.578125 
Q 17.921875 -14.40625 19.09375 -14.40625 
Q 19.28125 -14.40625 20.8125 -15.40625 
Q 22.359375 -16.40625 24.09375 -17.15625 
Q 25.828125 -17.921875 27.875 -17.921875 
Q 30.03125 -17.921875 31.46875 -15.921875 
Q 32.90625 -13.921875 32.90625 -11.625 
Q 32.90625 -9.328125 31.390625 -7.71875 
Q 29.890625 -6.109375 27.59375 -5.328125 
L 17.390625 -1.90625 
Q 11.140625 0.25 7.859375 4.953125 
Q 4.59375 9.671875 4.59375 16.40625 
Q 4.59375 22.125 6.65625 28.609375 
Q 8.734375 35.109375 12.390625 41.203125 
Q 16.0625 47.3125 20.84375 52.171875 
Q 25.640625 57.03125 30.8125 59.71875 
Q 29.78125 61.765625 29.78125 64.5 
Q 29.78125 69.921875 31.890625 69.921875 
Q 32.421875 69.921875 32.8125 69.53125 
Q 33.203125 69.140625 33.203125 68.609375 
Q 33.203125 67.875 32.953125 66.328125 
Q 32.71875 64.796875 32.71875 64.40625 
Q 32.71875 62.59375 33.296875 60.890625 
Q 35.890625 61.921875 38.09375 61.921875 
Q 47.3125 61.921875 47.3125 59.078125 
Q 47.3125 55.71875 37.109375 55.71875 
Q 34.078125 55.71875 32.328125 57.515625 
Q 28.03125 55.078125 24.046875 50.6875 
Q 20.0625 46.296875 16.984375 40.828125 
Q 13.921875 35.359375 12.203125 29.78125 
Q 10.5 24.21875 10.5 19.1875 
Q 10.5 8.40625 20.3125 4.984375 
L 31 1.421875 
Q 34.375 0.390625 36.5 -2.171875 
Q 38.625 -4.734375 38.625 -8.296875 
Q 38.625 -11.1875 37.15625 -14.03125 
Q 35.6875 -16.890625 33.203125 -18.703125 
Q 30.71875 -20.515625 27.6875 -20.515625 
Q 25.296875 -20.515625 21.484375 -18.921875 
Q 17.671875 -17.328125 17.671875 -15.578125 
z
M 35.109375 58.796875 
Q 35.015625 58.796875 35.984375 58.40625 
Q 36.421875 58.40625 36.6875 58.375 
Q 36.96875 58.34375 37.3125 58.296875 
Q 42.09375 58.296875 44.1875 58.890625 
Q 42.28125 59.28125 38.09375 59.28125 
Q 36.71875 59.28125 35.109375 58.796875 
z
" id="Cmmi10-b3"/>
     <path d="M 7.515625 13.28125 
Q 6.6875 13.28125 6.140625 13.90625 
Q 5.609375 14.546875 5.609375 15.28125 
Q 5.609375 16.109375 6.140625 16.6875 
Q 6.6875 17.28125 7.515625 17.28125 
L 70.3125 17.28125 
Q 71.046875 17.28125 71.578125 16.6875 
Q 72.125 16.109375 72.125 15.28125 
Q 72.125 14.546875 71.578125 13.90625 
Q 71.046875 13.28125 70.3125 13.28125 
z
M 7.515625 32.71875 
Q 6.6875 32.71875 6.140625 33.296875 
Q 5.609375 33.890625 5.609375 34.71875 
Q 5.609375 35.453125 6.140625 36.078125 
Q 6.6875 36.71875 7.515625 36.71875 
L 70.3125 36.71875 
Q 71.046875 36.71875 71.578125 36.078125 
Q 72.125 35.453125 72.125 34.71875 
Q 72.125 33.890625 71.578125 33.296875 
Q 71.046875 32.71875 70.3125 32.71875 
z
" id="Cmr10-3d"/>
     <path d="M 9.28125 0 
L 9.28125 3.515625 
Q 21.78125 3.515625 21.78125 6.6875 
L 21.78125 59.1875 
Q 16.609375 56.6875 8.6875 56.6875 
L 8.6875 60.203125 
Q 20.953125 60.203125 27.203125 66.609375 
L 28.609375 66.609375 
Q 28.953125 66.609375 29.265625 66.328125 
Q 29.59375 66.0625 29.59375 65.71875 
L 29.59375 6.6875 
Q 29.59375 3.515625 42.09375 3.515625 
L 42.09375 0 
z
" id="Cmr10-31"/>
     <path d="M 8.40625 5.515625 
Q 8.40625 7.765625 10.0625 9.375 
Q 11.71875 10.984375 13.921875 10.984375 
Q 15.28125 10.984375 16.59375 10.25 
Q 17.921875 9.515625 18.65625 8.203125 
Q 19.390625 6.890625 19.390625 5.515625 
Q 19.390625 3.328125 17.765625 1.65625 
Q 16.15625 0 13.921875 0 
Q 11.71875 0 10.0625 1.65625 
Q 8.40625 3.328125 8.40625 5.515625 
z
" id="Cmmi10-3a"/>
     <path d="M 9.90625 -18.015625 
Q 9.90625 -17.578125 10.296875 -17.1875 
Q 13.921875 -13.71875 15.921875 -9.171875 
Q 17.921875 -4.640625 17.921875 0.390625 
L 17.921875 1.609375 
Q 16.3125 0 13.921875 0 
Q 11.625 0 10.015625 1.609375 
Q 8.40625 3.21875 8.40625 5.515625 
Q 8.40625 7.859375 10.015625 9.421875 
Q 11.625 10.984375 13.921875 10.984375 
Q 17.484375 10.984375 19 7.6875 
Q 20.515625 4.390625 20.515625 0.390625 
Q 20.515625 -5.171875 18.28125 -10.171875 
Q 16.0625 -15.1875 12.015625 -19.1875 
Q 11.625 -19.390625 11.375 -19.390625 
Q 10.890625 -19.390625 10.390625 -18.9375 
Q 9.90625 -18.5 9.90625 -18.015625 
z
" id="Cmmi10-3b"/>
    </defs>
    <g transform="translate(207.033855 19.02)scale(0.1 -0.1)">
     <use transform="translate(0 0.078125)" xlink:href="#Cmmi10-b3"/>
     <use transform="translate(61.259766 0.078125)" xlink:href="#Cmr10-3d"/>
     <use transform="translate(156.503906 0.078125)" xlink:href="#Cmr10-31"/>
     <use transform="translate(206.503906 0.078125)" xlink:href="#Cmmi10-3a"/>
     <use transform="translate(234.189453 0.078125)" xlink:href="#Cmr10-30"/>
     <use transform="translate(284.189453 0.078125)" xlink:href="#Cmmi10-3b"/>
     <use transform="translate(329.433594 0.078125)" xlink:href="#Cmmi10-bf"/>
     <use transform="translate(390.693359 0.078125)" xlink:href="#Cmr10-3d"/>
     <use transform="translate(485.9375 0.078125)" xlink:href="#Cmr10-32"/>
     <use transform="translate(535.9375 0.078125)" xlink:href="#Cmr10-30"/>
     <use transform="translate(585.9375 0.078125)" xlink:href="#Cmmi10-3a"/>
     <use transform="translate(613.623047 0.078125)" xlink:href="#Cmr10-30"/>
    </g>
   </g>
   <g id="legend_1">
    <g id="patch_5">
     <path d="M 101.96 235.8 
L 154.56 235.8 
L 154.56 134.014063 
L 101.96 134.014063 
z
" style="fill:#4c4c4c;opacity:0.5;stroke:#4c4c4c;stroke-linejoin:miter;"/>
    </g>
    <g id="patch_6">
     <path d="M 99.96 233.8 
L 152.56 233.8 
L 152.56 132.014063 
L 99.96 132.014063 
z
" style="fill:#ffffff;stroke:#cccccc;stroke-linejoin:miter;"/>
    </g>
    <g id="line2d_67">
     <path d="M 108.96 142.1125 
L 103.46 142.1125 
" style="fill:none;stroke:#0000f1;stroke-linecap:square;"/>
    </g>
    <g id="line2d_68"/>
    <g id="text_11">
     <!-- $\mu=0.01$ -->
     <defs>
      <path d="M 2.78125 -18.796875 
Q 2.78125 -18.21875 2.875 -18.015625 
L 17.578125 41.015625 
Q 18.015625 42.4375 19.15625 43.3125 
Q 20.3125 44.1875 21.78125 44.1875 
Q 23.046875 44.1875 23.921875 43.421875 
Q 24.8125 42.671875 24.8125 41.40625 
Q 24.8125 41.109375 24.78125 40.9375 
Q 24.75 40.765625 24.703125 40.578125 
L 18.796875 17.1875 
Q 17.828125 13.03125 17.828125 10.015625 
Q 17.828125 6.296875 19.578125 3.90625 
Q 21.34375 1.515625 24.90625 1.515625 
Q 32.171875 1.515625 37.703125 10.59375 
Q 37.75 10.6875 37.765625 10.734375 
Q 37.796875 10.796875 37.796875 10.890625 
L 45.015625 39.890625 
Q 45.359375 41.21875 46.578125 42.15625 
Q 47.796875 43.109375 49.21875 43.109375 
Q 50.390625 43.109375 51.296875 42.328125 
Q 52.203125 41.546875 52.203125 40.28125 
Q 52.203125 39.703125 52.09375 39.5 
L 44.921875 10.6875 
Q 44.1875 7.859375 44.1875 5.8125 
Q 44.1875 1.515625 47.125 1.515625 
Q 50.25 1.515625 51.828125 5.375 
Q 53.421875 9.234375 54.59375 14.703125 
Q 54.78125 15.28125 55.421875 15.28125 
L 56.59375 15.28125 
Q 56.984375 15.28125 57.25 14.96875 
Q 57.515625 14.65625 57.515625 14.3125 
Q 55.765625 7.328125 53.6875 3.09375 
Q 51.609375 -1.125 46.921875 -1.125 
Q 43.609375 -1.125 41.046875 0.78125 
Q 38.484375 2.6875 37.703125 5.90625 
Q 35.203125 2.78125 31.859375 0.828125 
Q 28.515625 -1.125 24.8125 -1.125 
Q 18.5625 -1.125 14.984375 1.8125 
L 9.90625 -18.40625 
Q 9.625 -19.828125 8.453125 -20.703125 
Q 7.28125 -21.578125 5.8125 -21.578125 
Q 4.59375 -21.578125 3.6875 -20.8125 
Q 2.78125 -20.0625 2.78125 -18.796875 
z
" id="Cmmi10-b9"/>
     </defs>
     <g transform="translate(111.46 145.6125)scale(0.1 -0.1)">
      <use transform="translate(0 0.390625)" xlink:href="#Cmmi10-b9"/>
      <use transform="translate(77.763672 0.390625)" xlink:href="#Cmr10-3d"/>
      <use transform="translate(173.007812 0.390625)" xlink:href="#Cmr10-30"/>
      <use transform="translate(223.007812 0.390625)" xlink:href="#Cmmi10-3a"/>
      <use transform="translate(250.693359 0.390625)" xlink:href="#Cmr10-30"/>
      <use transform="translate(300.693359 0.390625)" xlink:href="#Cmr10-31"/>
     </g>
    </g>
    <g id="line2d_69">
     <path d="M 108.96 152.110938 
L 103.46 152.110938 
" style="fill:none;stroke:#004cff;stroke-linecap:square;"/>
    </g>
    <g id="line2d_70"/>
    <g id="text_12">
     <!-- $\mu=0.02$ -->
     <g transform="translate(111.46 155.610938)scale(0.1 -0.1)">
      <use transform="translate(0 0.390625)" xlink:href="#Cmmi10-b9"/>
      <use transform="translate(77.763672 0.390625)" xlink:href="#Cmr10-3d"/>
      <use transform="translate(173.007812 0.390625)" xlink:href="#Cmr10-30"/>
      <use transform="translate(223.007812 0.390625)" xlink:href="#Cmmi10-3a"/>
      <use transform="translate(250.693359 0.390625)" xlink:href="#Cmr10-30"/>
      <use transform="translate(300.693359 0.390625)" xlink:href="#Cmr10-32"/>
     </g>
    </g>
    <g id="line2d_71">
     <path d="M 108.96 162.109375 
L 103.46 162.109375 
" style="fill:none;stroke:#00b0ff;stroke-linecap:square;"/>
    </g>
    <g id="line2d_72"/>
    <g id="text_13">
     <!-- $\mu=0.05$ -->
     <defs>
      <path d="M 8.6875 11.375 
Q 9.71875 8.453125 11.84375 6.046875 
Q 13.96875 3.65625 16.875 2.3125 
Q 19.78125 0.984375 22.90625 0.984375 
Q 30.125 0.984375 32.859375 6.59375 
Q 35.59375 12.203125 35.59375 20.21875 
Q 35.59375 23.6875 35.46875 26.046875 
Q 35.359375 28.421875 34.8125 30.609375 
Q 33.890625 34.125 31.5625 36.765625 
Q 29.25 39.40625 25.875 39.40625 
Q 22.515625 39.40625 20.09375 38.375 
Q 17.671875 37.359375 16.15625 35.984375 
Q 14.65625 34.625 13.484375 33.109375 
Q 12.3125 31.59375 12.015625 31.5 
L 10.890625 31.5 
Q 10.640625 31.5 10.265625 31.8125 
Q 9.90625 32.125 9.90625 32.421875 
L 9.90625 65.828125 
Q 9.90625 66.0625 10.21875 66.328125 
Q 10.546875 66.609375 10.890625 66.609375 
L 11.1875 66.609375 
Q 17.921875 63.375 25.484375 63.375 
Q 32.90625 63.375 39.796875 66.609375 
L 40.09375 66.609375 
Q 40.4375 66.609375 40.71875 66.359375 
Q 41.015625 66.109375 41.015625 65.828125 
L 41.015625 64.890625 
Q 41.015625 64.40625 40.828125 64.40625 
Q 37.40625 59.859375 32.25 57.3125 
Q 27.09375 54.78125 21.578125 54.78125 
Q 17.578125 54.78125 13.375 55.90625 
L 13.375 37.015625 
Q 16.703125 39.703125 19.3125 40.84375 
Q 21.921875 42 25.984375 42 
Q 31.5 42 35.859375 38.8125 
Q 40.234375 35.640625 42.578125 30.53125 
Q 44.921875 25.4375 44.921875 20.125 
Q 44.921875 14.109375 41.96875 8.984375 
Q 39.015625 3.859375 33.9375 0.828125 
Q 28.859375 -2.203125 22.90625 -2.203125 
Q 17.96875 -2.203125 13.84375 0.328125 
Q 9.71875 2.875 7.34375 7.171875 
Q 4.984375 11.46875 4.984375 16.3125 
Q 4.984375 18.5625 6.4375 19.96875 
Q 7.90625 21.390625 10.109375 21.390625 
Q 12.3125 21.390625 13.796875 19.9375 
Q 15.28125 18.5 15.28125 16.3125 
Q 15.28125 14.15625 13.796875 12.671875 
Q 12.3125 11.1875 10.109375 11.1875 
Q 9.765625 11.1875 9.328125 11.25 
Q 8.890625 11.328125 8.6875 11.375 
z
" id="Cmr10-35"/>
     </defs>
     <g transform="translate(111.46 165.609375)scale(0.1 -0.1)">
      <use transform="translate(0 0.390625)" xlink:href="#Cmmi10-b9"/>
      <use transform="translate(77.763672 0.390625)" xlink:href="#Cmr10-3d"/>
      <use transform="translate(173.007812 0.390625)" xlink:href="#Cmr10-30"/>
      <use transform="translate(223.007812 0.390625)" xlink:href="#Cmmi10-3a"/>
      <use transform="translate(250.693359 0.390625)" xlink:href="#Cmr10-30"/>
      <use transform="translate(300.693359 0.390625)" xlink:href="#Cmr10-35"/>
     </g>
    </g>
    <g id="line2d_73">
     <path d="M 108.96 172.107813 
L 103.46 172.107813 
" style="fill:none;stroke:#29ffce;stroke-linecap:square;"/>
    </g>
    <g id="line2d_74"/>
    <g id="text_14">
     <!-- $\mu=0.10$ -->
     <g transform="translate(111.46 175.607813)scale(0.1 -0.1)">
      <use transform="translate(0 0.390625)" xlink:href="#Cmmi10-b9"/>
      <use transform="translate(77.763672 0.390625)" xlink:href="#Cmr10-3d"/>
      <use transform="translate(173.007812 0.390625)" xlink:href="#Cmr10-30"/>
      <use transform="translate(223.007812 0.390625)" xlink:href="#Cmmi10-3a"/>
      <use transform="translate(250.693359 0.390625)" xlink:href="#Cmr10-31"/>
      <use transform="translate(300.693359 0.390625)" xlink:href="#Cmr10-30"/>
     </g>
    </g>
    <g id="line2d_75">
     <path d="M 108.96 182.10625 
L 103.46 182.10625 
" style="fill:none;stroke:#7dff7a;stroke-linecap:square;"/>
    </g>
    <g id="line2d_76"/>
    <g id="text_15">
     <!-- $\mu=0.20$ -->
     <g transform="translate(111.46 185.60625)scale(0.1 -0.1)">
      <use transform="translate(0 0.390625)" xlink:href="#Cmmi10-b9"/>
      <use transform="translate(77.763672 0.390625)" xlink:href="#Cmr10-3d"/>
      <use transform="translate(173.007812 0.390625)" xlink:href="#Cmr10-30"/>
      <use transform="translate(223.007812 0.390625)" xlink:href="#Cmmi10-3a"/>
      <use transform="translate(250.693359 0.390625)" xlink:href="#Cmr10-32"/>
      <use transform="translate(300.693359 0.390625)" xlink:href="#Cmr10-30"/>
     </g>
    </g>
    <g id="line2d_77">
     <path d="M 108.96 192.104688 
L 103.46 192.104688 
" style="fill:none;stroke:#ceff29;stroke-linecap:square;"/>
    </g>
    <g id="line2d_78"/>
    <g id="text_16">
     <!-- $\mu=0.50$ -->
     <g transform="translate(111.46 195.604688)scale(0.1 -0.1)">
      <use transform="translate(0 0.390625)" xlink:href="#Cmmi10-b9"/>
      <use transform="translate(77.763672 0.390625)" xlink:href="#Cmr10-3d"/>
      <use transform="translate(173.007812 0.390625)" xlink:href="#Cmr10-30"/>
      <use transform="translate(223.007812 0.390625)" xlink:href="#Cmmi10-3a"/>
      <use transform="translate(250.693359 0.390625)" xlink:href="#Cmr10-35"/>
      <use transform="translate(300.693359 0.390625)" xlink:href="#Cmr10-30"/>
     </g>
    </g>
    <g id="line2d_79">
     <path d="M 108.96 202.103125 
L 103.46 202.103125 
" style="fill:none;stroke:#ffc400;stroke-linecap:square;"/>
    </g>
    <g id="line2d_80"/>
    <g id="text_17">
     <!-- $\mu=1.00$ -->
     <g transform="translate(111.46 205.603125)scale(0.1 -0.1)">
      <use transform="translate(0 0.390625)" xlink:href="#Cmmi10-b9"/>
      <use transform="translate(77.763672 0.390625)" xlink:href="#Cmr10-3d"/>
      <use transform="translate(173.007812 0.390625)" xlink:href="#Cmr10-31"/>
      <use transform="translate(223.007812 0.390625)" xlink:href="#Cmmi10-3a"/>
      <use transform="translate(250.693359 0.390625)" xlink:href="#Cmr10-30"/>
      <use transform="translate(300.693359 0.390625)" xlink:href="#Cmr10-30"/>
     </g>
    </g>
    <g id="line2d_81">
     <path d="M 108.96 212.101563 
L 103.46 212.101563 
" style="fill:none;stroke:#ff6800;stroke-linecap:square;"/>
    </g>
    <g id="line2d_82"/>
    <g id="text_18">
     <!-- $\mu=2.00$ -->
     <g transform="translate(111.46 215.601563)scale(0.1 -0.1)">
      <use transform="translate(0 0.390625)" xlink:href="#Cmmi10-b9"/>
      <use transform="translate(77.763672 0.390625)" xlink:href="#Cmr10-3d"/>
      <use transform="translate(173.007812 0.390625)" xlink:href="#Cmr10-32"/>
      <use transform="translate(223.007812 0.390625)" xlink:href="#Cmmi10-3a"/>
      <use transform="translate(250.693359 0.390625)" xlink:href="#Cmr10-30"/>
      <use transform="translate(300.693359 0.390625)" xlink:href="#Cmr10-30"/>
     </g>
    </g>
    <g id="line2d_83">
     <path d="M 108.96 222.1 
L 103.46 222.1 
" style="fill:none;stroke:#f10800;stroke-linecap:square;"/>
    </g>
    <g id="line2d_84"/>
    <g id="text_19">
     <!-- $\mu=5.00$ -->
     <g transform="translate(111.46 225.6)scale(0.1 -0.1)">
      <use transform="translate(0 0.390625)" xlink:href="#Cmmi10-b9"/>
      <use transform="translate(77.763672 0.390625)" xlink:href="#Cmr10-3d"/>
      <use transform="translate(173.007812 0.390625)" xlink:href="#Cmr10-35"/>
      <use transform="translate(223.007812 0.390625)" xlink:href="#Cmmi10-3a"/>
      <use transform="translate(250.693359 0.390625)" xlink:href="#Cmr10-30"/>
      <use transform="translate(300.693359 0.390625)" xlink:href="#Cmr10-30"/>
     </g>
    </g>
   </g>
  </g>
 </g>
 <defs>
  <clipPath id="pea17805e61">
   <rect height="203.6" width="290.547709" x="94.96" y="35.2"/>
  </clipPath>
 </defs>
</svg>
