<?xml version="1.0" encoding="utf-8" standalone="no"?>
<!DOCTYPE svg PUBLIC "-//W3C//DTD SVG 1.1//EN"
  "http://www.w3.org/Graphics/SVG/1.1/DTD/svg11.dtd">
<!-- Created with matplotlib (http://matplotlib.org/) -->
<svg height="275.833625pt" version="1.1" viewBox="0 0 422.756149 275.833625" width="422.756149pt" xmlns="http://www.w3.org/2000/svg" xmlns:xlink="http://www.w3.org/1999/xlink">
 <defs>
  <style type="text/css">
*{stroke-linecap:butt;stroke-linejoin:round;}
  </style>
 </defs>
 <g id="figure_1">
  <g id="patch_1">
   <path d="M 0 275.833625 
L 422.756149 275.833625 
L 422.756149 0 
L 0 0 
z
" style="fill:#ffffff;"/>
  </g>
  <g id="axes_1">
   <g id="patch_2">
    <path d="M 109.04 241.9555 
L 369.796149 241.9555 
L 369.796149 32.8 
L 109.04 32.8 
z
" style="fill:#ffffff;"/>
   </g>
   <g id="matplotlib.axis_1">
    <g id="xtick_1">
     <g id="line2d_1">
      <defs>
       <path d="M 0 0 
L 0 3.5 
" id="m4bc056c78c" style="stroke:#000000;stroke-width:0.8;"/>
      </defs>
      <g>
       <use style="stroke:#000000;stroke-width:0.8;" x="166.839187" xlink:href="#m4bc056c78c" y="251.9555"/>
      </g>
     </g>
     <g id="text_1">
      <!-- 5 -->
      <defs>
       <path d="M 10.796875 72.90625 
L 49.515625 72.90625 
L 49.515625 64.59375 
L 19.828125 64.59375 
L 19.828125 46.734375 
Q 21.96875 47.46875 24.109375 47.828125 
Q 26.265625 48.1875 28.421875 48.1875 
Q 40.625 48.1875 47.75 41.5 
Q 54.890625 34.8125 54.890625 23.390625 
Q 54.890625 11.625 47.5625 5.09375 
Q 40.234375 -1.421875 26.90625 -1.421875 
Q 22.3125 -1.421875 17.546875 -0.640625 
Q 12.796875 0.140625 7.71875 1.703125 
L 7.71875 11.625 
Q 12.109375 9.234375 16.796875 8.0625 
Q 21.484375 6.890625 26.703125 6.890625 
Q 35.15625 6.890625 40.078125 11.328125 
Q 45.015625 15.765625 45.015625 23.390625 
Q 45.015625 31 40.078125 35.4375 
Q 35.15625 39.890625 26.703125 39.890625 
Q 22.75 39.890625 18.8125 39.015625 
Q 14.890625 38.140625 10.796875 36.28125 
z
" id="DejaVuSans-35"/>
      </defs>
      <g transform="translate(163.657937 266.553938)scale(0.1 -0.1)">
       <use xlink:href="#DejaVuSans-35"/>
      </g>
     </g>
    </g>
    <g id="xtick_2">
     <g id="line2d_2">
      <g>
       <use style="stroke:#000000;stroke-width:0.8;" x="232.819994" xlink:href="#m4bc056c78c" y="251.9555"/>
      </g>
     </g>
     <g id="text_2">
      <!-- 10 -->
      <defs>
       <path d="M 12.40625 8.296875 
L 28.515625 8.296875 
L 28.515625 63.921875 
L 10.984375 60.40625 
L 10.984375 69.390625 
L 28.421875 72.90625 
L 38.28125 72.90625 
L 38.28125 8.296875 
L 54.390625 8.296875 
L 54.390625 0 
L 12.40625 0 
z
" id="DejaVuSans-31"/>
       <path d="M 31.78125 66.40625 
Q 24.171875 66.40625 20.328125 58.90625 
Q 16.5 51.421875 16.5 36.375 
Q 16.5 21.390625 20.328125 13.890625 
Q 24.171875 6.390625 31.78125 6.390625 
Q 39.453125 6.390625 43.28125 13.890625 
Q 47.125 21.390625 47.125 36.375 
Q 47.125 51.421875 43.28125 58.90625 
Q 39.453125 66.40625 31.78125 66.40625 
z
M 31.78125 74.21875 
Q 44.046875 74.21875 50.515625 64.515625 
Q 56.984375 54.828125 56.984375 36.375 
Q 56.984375 17.96875 50.515625 8.265625 
Q 44.046875 -1.421875 31.78125 -1.421875 
Q 19.53125 -1.421875 13.0625 8.265625 
Q 6.59375 17.96875 6.59375 36.375 
Q 6.59375 54.828125 13.0625 64.515625 
Q 19.53125 74.21875 31.78125 74.21875 
z
" id="DejaVuSans-30"/>
      </defs>
      <g transform="translate(226.457494 266.553938)scale(0.1 -0.1)">
       <use xlink:href="#DejaVuSans-31"/>
       <use x="63.623047" xlink:href="#DejaVuSans-30"/>
      </g>
     </g>
    </g>
    <g id="xtick_3">
     <g id="line2d_3">
      <g>
       <use style="stroke:#000000;stroke-width:0.8;" x="298.800801" xlink:href="#m4bc056c78c" y="251.9555"/>
      </g>
     </g>
     <g id="text_3">
      <!-- 15 -->
      <g transform="translate(292.438301 266.553938)scale(0.1 -0.1)">
       <use xlink:href="#DejaVuSans-31"/>
       <use x="63.623047" xlink:href="#DejaVuSans-35"/>
      </g>
     </g>
    </g>
    <g id="xtick_4">
     <g id="line2d_4">
      <g>
       <use style="stroke:#000000;stroke-width:0.8;" x="364.781608" xlink:href="#m4bc056c78c" y="251.9555"/>
      </g>
     </g>
     <g id="text_4">
      <!-- 20 -->
      <defs>
       <path d="M 19.1875 8.296875 
L 53.609375 8.296875 
L 53.609375 0 
L 7.328125 0 
L 7.328125 8.296875 
Q 12.9375 14.109375 22.625 23.890625 
Q 32.328125 33.6875 34.8125 36.53125 
Q 39.546875 41.84375 41.421875 45.53125 
Q 43.3125 49.21875 43.3125 52.78125 
Q 43.3125 58.59375 39.234375 62.25 
Q 35.15625 65.921875 28.609375 65.921875 
Q 23.96875 65.921875 18.8125 64.3125 
Q 13.671875 62.703125 7.8125 59.421875 
L 7.8125 69.390625 
Q 13.765625 71.78125 18.9375 73 
Q 24.125 74.21875 28.421875 74.21875 
Q 39.75 74.21875 46.484375 68.546875 
Q 53.21875 62.890625 53.21875 53.421875 
Q 53.21875 48.921875 51.53125 44.890625 
Q 49.859375 40.875 45.40625 35.40625 
Q 44.1875 33.984375 37.640625 27.21875 
Q 31.109375 20.453125 19.1875 8.296875 
z
" id="DejaVuSans-32"/>
      </defs>
      <g transform="translate(358.419108 266.553938)scale(0.1 -0.1)">
       <use xlink:href="#DejaVuSans-32"/>
       <use x="63.623047" xlink:href="#DejaVuSans-30"/>
      </g>
     </g>
    </g>
    <g id="xtick_5">
     <g id="line2d_5">
      <defs>
       <path d="M 0 0 
L 0 2 
" id="mc3ea4698fa" style="stroke:#000000;stroke-width:0.6;"/>
      </defs>
      <g>
       <use style="stroke:#000000;stroke-width:0.6;" x="114.054541" xlink:href="#mc3ea4698fa" y="251.9555"/>
      </g>
     </g>
    </g>
    <g id="xtick_6">
     <g id="line2d_6">
      <g>
       <use style="stroke:#000000;stroke-width:0.6;" x="127.250703" xlink:href="#mc3ea4698fa" y="251.9555"/>
      </g>
     </g>
    </g>
    <g id="xtick_7">
     <g id="line2d_7">
      <g>
       <use style="stroke:#000000;stroke-width:0.6;" x="140.446864" xlink:href="#mc3ea4698fa" y="251.9555"/>
      </g>
     </g>
    </g>
    <g id="xtick_8">
     <g id="line2d_8">
      <g>
       <use style="stroke:#000000;stroke-width:0.6;" x="153.643026" xlink:href="#mc3ea4698fa" y="251.9555"/>
      </g>
     </g>
    </g>
    <g id="xtick_9">
     <g id="line2d_9">
      <g>
       <use style="stroke:#000000;stroke-width:0.6;" x="180.035348" xlink:href="#mc3ea4698fa" y="251.9555"/>
      </g>
     </g>
    </g>
    <g id="xtick_10">
     <g id="line2d_10">
      <g>
       <use style="stroke:#000000;stroke-width:0.6;" x="193.23151" xlink:href="#mc3ea4698fa" y="251.9555"/>
      </g>
     </g>
    </g>
    <g id="xtick_11">
     <g id="line2d_11">
      <g>
       <use style="stroke:#000000;stroke-width:0.6;" x="206.427671" xlink:href="#mc3ea4698fa" y="251.9555"/>
      </g>
     </g>
    </g>
    <g id="xtick_12">
     <g id="line2d_12">
      <g>
       <use style="stroke:#000000;stroke-width:0.6;" x="219.623833" xlink:href="#mc3ea4698fa" y="251.9555"/>
      </g>
     </g>
    </g>
    <g id="xtick_13">
     <g id="line2d_13">
      <g>
       <use style="stroke:#000000;stroke-width:0.6;" x="246.016155" xlink:href="#mc3ea4698fa" y="251.9555"/>
      </g>
     </g>
    </g>
    <g id="xtick_14">
     <g id="line2d_14">
      <g>
       <use style="stroke:#000000;stroke-width:0.6;" x="259.212317" xlink:href="#mc3ea4698fa" y="251.9555"/>
      </g>
     </g>
    </g>
    <g id="xtick_15">
     <g id="line2d_15">
      <g>
       <use style="stroke:#000000;stroke-width:0.6;" x="272.408478" xlink:href="#mc3ea4698fa" y="251.9555"/>
      </g>
     </g>
    </g>
    <g id="xtick_16">
     <g id="line2d_16">
      <g>
       <use style="stroke:#000000;stroke-width:0.6;" x="285.60464" xlink:href="#mc3ea4698fa" y="251.9555"/>
      </g>
     </g>
    </g>
    <g id="xtick_17">
     <g id="line2d_17">
      <g>
       <use style="stroke:#000000;stroke-width:0.6;" x="311.996962" xlink:href="#mc3ea4698fa" y="251.9555"/>
      </g>
     </g>
    </g>
    <g id="xtick_18">
     <g id="line2d_18">
      <g>
       <use style="stroke:#000000;stroke-width:0.6;" x="325.193124" xlink:href="#mc3ea4698fa" y="251.9555"/>
      </g>
     </g>
    </g>
    <g id="xtick_19">
     <g id="line2d_19">
      <g>
       <use style="stroke:#000000;stroke-width:0.6;" x="338.389285" xlink:href="#mc3ea4698fa" y="251.9555"/>
      </g>
     </g>
    </g>
    <g id="xtick_20">
     <g id="line2d_20">
      <g>
       <use style="stroke:#000000;stroke-width:0.6;" x="351.585447" xlink:href="#mc3ea4698fa" y="251.9555"/>
      </g>
     </g>
    </g>
    <g id="text_5">
     <!-- $\Delta r/\bar{\sigma}$ -->
     <defs>
      <path d="M 5.421875 0 
Q 4.59375 0 4.59375 0.78125 
Q 4.640625 0.875 4.65625 0.921875 
Q 4.6875 0.984375 4.6875 1.125 
L 39.109375 70.515625 
Q 39.546875 71.578125 40.921875 71.578125 
L 42.28125 71.578125 
Q 43.65625 71.578125 44.09375 70.515625 
L 78.515625 1.125 
Q 78.5625 1.03125 78.578125 0.953125 
Q 78.609375 0.875 78.609375 0.78125 
Q 78.609375 0 77.78125 0 
z
M 12.015625 8.015625 
L 64.703125 8.015625 
L 38.375 61.078125 
z
" id="Cmr10-a2"/>
      <path d="M 7.71875 1.703125 
Q 7.71875 2.296875 7.8125 2.59375 
L 15.28125 32.421875 
Q 16.015625 35.203125 16.015625 37.3125 
Q 16.015625 41.609375 13.09375 41.609375 
Q 9.96875 41.609375 8.453125 37.859375 
Q 6.9375 34.125 5.515625 28.421875 
Q 5.515625 28.125 5.21875 27.953125 
Q 4.9375 27.78125 4.6875 27.78125 
L 3.515625 27.78125 
Q 3.171875 27.78125 2.921875 28.140625 
Q 2.6875 28.515625 2.6875 28.8125 
Q 3.765625 33.15625 4.765625 36.171875 
Q 5.765625 39.203125 7.890625 41.6875 
Q 10.015625 44.1875 13.1875 44.1875 
Q 16.65625 44.1875 19.265625 42.1875 
Q 21.875 40.1875 22.515625 36.921875 
Q 25.046875 40.234375 28.296875 42.203125 
Q 31.546875 44.1875 35.40625 44.1875 
Q 38.578125 44.1875 40.984375 42.328125 
Q 43.40625 40.484375 43.40625 37.3125 
Q 43.40625 34.765625 41.8125 32.875 
Q 40.234375 31 37.59375 31 
Q 35.984375 31 34.890625 32 
Q 33.796875 33.015625 33.796875 34.625 
Q 33.796875 36.8125 35.40625 38.546875 
Q 37.015625 40.28125 39.109375 40.28125 
Q 37.5 41.609375 35.203125 41.609375 
Q 30.90625 41.609375 27.734375 38.546875 
Q 24.5625 35.5 22.015625 30.8125 
L 14.890625 2.203125 
Q 14.546875 0.828125 13.34375 -0.140625 
Q 12.15625 -1.125 10.6875 -1.125 
Q 9.46875 -1.125 8.59375 -0.34375 
Q 7.71875 0.4375 7.71875 1.703125 
z
" id="Cmmi10-72"/>
      <path d="M 5.609375 -23 
Q 5.609375 -22.703125 5.71875 -22.609375 
L 40.484375 73.78125 
Q 40.671875 74.359375 41.15625 74.671875 
Q 41.65625 75 42.28125 75 
Q 43.171875 75 43.71875 74.453125 
Q 44.28125 73.921875 44.28125 73 
L 44.28125 72.609375 
L 9.515625 -23.78125 
Q 8.9375 -25 7.625 -25 
Q 6.78125 -25 6.1875 -24.40625 
Q 5.609375 -23.828125 5.609375 -23 
z
" id="Cmmi10-3d"/>
      <path d="M 6.890625 55.515625 
L 6.890625 58.984375 
L 43.015625 58.984375 
L 43.015625 55.515625 
z
" id="Cmr10-b9"/>
      <path d="M 18.703125 -1.125 
Q 14.265625 -1.125 10.8125 1 
Q 7.375 3.125 5.484375 6.734375 
Q 3.609375 10.359375 3.609375 14.703125 
Q 3.609375 19.34375 5.703125 24.46875 
Q 7.8125 29.59375 11.453125 33.84375 
Q 15.09375 38.09375 19.671875 40.59375 
Q 24.265625 43.109375 29.109375 43.109375 
L 54.296875 43.109375 
Q 55.328125 43.109375 56.046875 42.421875 
Q 56.78125 41.75 56.78125 40.578125 
Q 56.78125 39.109375 55.734375 38.015625 
Q 54.6875 36.921875 53.21875 36.921875 
L 41.015625 36.921875 
Q 43.890625 32.625 43.890625 26.515625 
Q 43.890625 21.484375 41.9375 16.59375 
Q 39.984375 11.71875 36.515625 7.6875 
Q 33.0625 3.65625 28.4375 1.265625 
Q 23.828125 -1.125 18.703125 -1.125 
z
M 18.796875 1.515625 
Q 24.265625 1.515625 28.484375 5.78125 
Q 32.71875 10.0625 34.953125 16.234375 
Q 37.203125 22.40625 37.203125 27.6875 
Q 37.203125 31.984375 34.828125 34.453125 
Q 32.46875 36.921875 28.21875 36.921875 
Q 22.40625 36.921875 18.328125 33.015625 
Q 14.265625 29.109375 12.234375 23.1875 
Q 10.203125 17.28125 10.203125 11.8125 
Q 10.203125 7.515625 12.46875 4.515625 
Q 14.75 1.515625 18.796875 1.515625 
z
" id="Cmmi10-be"/>
     </defs>
     <g transform="translate(377.796149 251.9555)scale(0.16 -0.16)">
      <use xlink:href="#Cmr10-a2"/>
      <use transform="translate(83.300781 0)" xlink:href="#Cmmi10-72"/>
      <use transform="translate(128.417969 0)" xlink:href="#Cmmi10-3d"/>
      <use transform="translate(188.797363 0.09375)" xlink:href="#Cmr10-b9"/>
      <use transform="translate(178.417969 0)" xlink:href="#Cmmi10-be"/>
     </g>
    </g>
   </g>
   <g id="matplotlib.axis_2">
    <g id="ytick_1">
     <g id="line2d_21">
      <defs>
       <path d="M 0 0 
L -3.5 0 
" id="md57bb0420a" style="stroke:#000000;stroke-width:0.8;"/>
      </defs>
      <g>
       <use style="stroke:#000000;stroke-width:0.8;" x="99.04" xlink:href="#md57bb0420a" y="238.855414"/>
      </g>
     </g>
     <g id="text_6">
      <!-- $\mathdefault{10^{-3}}$ -->
      <defs>
       <path d="M 4.890625 31.390625 
L 31.203125 31.390625 
L 31.203125 23.390625 
L 4.890625 23.390625 
z
" id="DejaVuSans-2d"/>
       <path d="M 40.578125 39.3125 
Q 47.65625 37.796875 51.625 33 
Q 55.609375 28.21875 55.609375 21.1875 
Q 55.609375 10.40625 48.1875 4.484375 
Q 40.765625 -1.421875 27.09375 -1.421875 
Q 22.515625 -1.421875 17.65625 -0.515625 
Q 12.796875 0.390625 7.625 2.203125 
L 7.625 11.71875 
Q 11.71875 9.328125 16.59375 8.109375 
Q 21.484375 6.890625 26.8125 6.890625 
Q 36.078125 6.890625 40.9375 10.546875 
Q 45.796875 14.203125 45.796875 21.1875 
Q 45.796875 27.640625 41.28125 31.265625 
Q 36.765625 34.90625 28.71875 34.90625 
L 20.21875 34.90625 
L 20.21875 43.015625 
L 29.109375 43.015625 
Q 36.375 43.015625 40.234375 45.921875 
Q 44.09375 48.828125 44.09375 54.296875 
Q 44.09375 59.90625 40.109375 62.90625 
Q 36.140625 65.921875 28.71875 65.921875 
Q 24.65625 65.921875 20.015625 65.03125 
Q 15.375 64.15625 9.8125 62.3125 
L 9.8125 71.09375 
Q 15.4375 72.65625 20.34375 73.4375 
Q 25.25 74.21875 29.59375 74.21875 
Q 40.828125 74.21875 47.359375 69.109375 
Q 53.90625 64.015625 53.90625 55.328125 
Q 53.90625 49.265625 50.4375 45.09375 
Q 46.96875 40.921875 40.578125 39.3125 
z
" id="DejaVuSans-33"/>
      </defs>
      <g transform="translate(71.94 242.654633)scale(0.1 -0.1)">
       <use transform="translate(0 0.765625)" xlink:href="#DejaVuSans-31"/>
       <use transform="translate(63.623047 0.765625)" xlink:href="#DejaVuSans-30"/>
       <use transform="translate(128.203125 39.046875)scale(0.7)" xlink:href="#DejaVuSans-2d"/>
       <use transform="translate(153.461914 39.046875)scale(0.7)" xlink:href="#DejaVuSans-33"/>
      </g>
     </g>
    </g>
    <g id="ytick_2">
     <g id="line2d_22">
      <g>
       <use style="stroke:#000000;stroke-width:0.8;" x="99.04" xlink:href="#md57bb0420a" y="171.105066"/>
      </g>
     </g>
     <g id="text_7">
      <!-- $\mathdefault{10^{-2}}$ -->
      <g transform="translate(71.94 174.904284)scale(0.1 -0.1)">
       <use transform="translate(0 0.765625)" xlink:href="#DejaVuSans-31"/>
       <use transform="translate(63.623047 0.765625)" xlink:href="#DejaVuSans-30"/>
       <use transform="translate(128.203125 39.046875)scale(0.7)" xlink:href="#DejaVuSans-2d"/>
       <use transform="translate(153.461914 39.046875)scale(0.7)" xlink:href="#DejaVuSans-32"/>
      </g>
     </g>
    </g>
    <g id="ytick_3">
     <g id="line2d_23">
      <g>
       <use style="stroke:#000000;stroke-width:0.8;" x="99.04" xlink:href="#md57bb0420a" y="103.354717"/>
      </g>
     </g>
     <g id="text_8">
      <!-- $\mathdefault{10^{-1}}$ -->
      <g transform="translate(71.94 107.153936)scale(0.1 -0.1)">
       <use transform="translate(0 0.684375)" xlink:href="#DejaVuSans-31"/>
       <use transform="translate(63.623047 0.684375)" xlink:href="#DejaVuSans-30"/>
       <use transform="translate(128.203125 38.965625)scale(0.7)" xlink:href="#DejaVuSans-2d"/>
       <use transform="translate(153.461914 38.965625)scale(0.7)" xlink:href="#DejaVuSans-31"/>
      </g>
     </g>
    </g>
    <g id="ytick_4">
     <g id="line2d_24">
      <g>
       <use style="stroke:#000000;stroke-width:0.8;" x="99.04" xlink:href="#md57bb0420a" y="35.604369"/>
      </g>
     </g>
     <g id="text_9">
      <!-- $\mathdefault{10^{0}}$ -->
      <g transform="translate(74.44 39.403588)scale(0.1 -0.1)">
       <use transform="translate(0 0.765625)" xlink:href="#DejaVuSans-31"/>
       <use transform="translate(63.623047 0.765625)" xlink:href="#DejaVuSans-30"/>
       <use transform="translate(128.203125 39.046875)scale(0.7)" xlink:href="#DejaVuSans-30"/>
      </g>
     </g>
    </g>
    <g id="ytick_5">
     <g id="line2d_25">
      <defs>
       <path d="M 0 0 
L -2 0 
" id="m8b36fbdd83" style="stroke:#000000;stroke-width:0.6;"/>
      </defs>
      <g>
       <use style="stroke:#000000;stroke-width:0.6;" x="99.04" xlink:href="#m8b36fbdd83" y="241.9555"/>
      </g>
     </g>
    </g>
    <g id="ytick_6">
     <g id="line2d_26">
      <g>
       <use style="stroke:#000000;stroke-width:0.6;" x="99.04" xlink:href="#m8b36fbdd83" y="218.460527"/>
      </g>
     </g>
    </g>
    <g id="ytick_7">
     <g id="line2d_27">
      <g>
       <use style="stroke:#000000;stroke-width:0.6;" x="99.04" xlink:href="#m8b36fbdd83" y="206.530283"/>
      </g>
     </g>
    </g>
    <g id="ytick_8">
     <g id="line2d_28">
      <g>
       <use style="stroke:#000000;stroke-width:0.6;" x="99.04" xlink:href="#m8b36fbdd83" y="198.06564"/>
      </g>
     </g>
    </g>
    <g id="ytick_9">
     <g id="line2d_29">
      <g>
       <use style="stroke:#000000;stroke-width:0.6;" x="99.04" xlink:href="#m8b36fbdd83" y="191.499953"/>
      </g>
     </g>
    </g>
    <g id="ytick_10">
     <g id="line2d_30">
      <g>
       <use style="stroke:#000000;stroke-width:0.6;" x="99.04" xlink:href="#m8b36fbdd83" y="186.135396"/>
      </g>
     </g>
    </g>
    <g id="ytick_11">
     <g id="line2d_31">
      <g>
       <use style="stroke:#000000;stroke-width:0.6;" x="99.04" xlink:href="#m8b36fbdd83" y="181.599727"/>
      </g>
     </g>
    </g>
    <g id="ytick_12">
     <g id="line2d_32">
      <g>
       <use style="stroke:#000000;stroke-width:0.6;" x="99.04" xlink:href="#m8b36fbdd83" y="177.670753"/>
      </g>
     </g>
    </g>
    <g id="ytick_13">
     <g id="line2d_33">
      <g>
       <use style="stroke:#000000;stroke-width:0.6;" x="99.04" xlink:href="#m8b36fbdd83" y="174.205152"/>
      </g>
     </g>
    </g>
    <g id="ytick_14">
     <g id="line2d_34">
      <g>
       <use style="stroke:#000000;stroke-width:0.6;" x="99.04" xlink:href="#m8b36fbdd83" y="150.710179"/>
      </g>
     </g>
    </g>
    <g id="ytick_15">
     <g id="line2d_35">
      <g>
       <use style="stroke:#000000;stroke-width:0.6;" x="99.04" xlink:href="#m8b36fbdd83" y="138.779934"/>
      </g>
     </g>
    </g>
    <g id="ytick_16">
     <g id="line2d_36">
      <g>
       <use style="stroke:#000000;stroke-width:0.6;" x="99.04" xlink:href="#m8b36fbdd83" y="130.315291"/>
      </g>
     </g>
    </g>
    <g id="ytick_17">
     <g id="line2d_37">
      <g>
       <use style="stroke:#000000;stroke-width:0.6;" x="99.04" xlink:href="#m8b36fbdd83" y="123.749604"/>
      </g>
     </g>
    </g>
    <g id="ytick_18">
     <g id="line2d_38">
      <g>
       <use style="stroke:#000000;stroke-width:0.6;" x="99.04" xlink:href="#m8b36fbdd83" y="118.385047"/>
      </g>
     </g>
    </g>
    <g id="ytick_19">
     <g id="line2d_39">
      <g>
       <use style="stroke:#000000;stroke-width:0.6;" x="99.04" xlink:href="#m8b36fbdd83" y="113.849379"/>
      </g>
     </g>
    </g>
    <g id="ytick_20">
     <g id="line2d_40">
      <g>
       <use style="stroke:#000000;stroke-width:0.6;" x="99.04" xlink:href="#m8b36fbdd83" y="109.920404"/>
      </g>
     </g>
    </g>
    <g id="ytick_21">
     <g id="line2d_41">
      <g>
       <use style="stroke:#000000;stroke-width:0.6;" x="99.04" xlink:href="#m8b36fbdd83" y="106.454803"/>
      </g>
     </g>
    </g>
    <g id="ytick_22">
     <g id="line2d_42">
      <g>
       <use style="stroke:#000000;stroke-width:0.6;" x="99.04" xlink:href="#m8b36fbdd83" y="82.95983"/>
      </g>
     </g>
    </g>
    <g id="ytick_23">
     <g id="line2d_43">
      <g>
       <use style="stroke:#000000;stroke-width:0.6;" x="99.04" xlink:href="#m8b36fbdd83" y="71.029586"/>
      </g>
     </g>
    </g>
    <g id="ytick_24">
     <g id="line2d_44">
      <g>
       <use style="stroke:#000000;stroke-width:0.6;" x="99.04" xlink:href="#m8b36fbdd83" y="62.564943"/>
      </g>
     </g>
    </g>
    <g id="ytick_25">
     <g id="line2d_45">
      <g>
       <use style="stroke:#000000;stroke-width:0.6;" x="99.04" xlink:href="#m8b36fbdd83" y="55.999256"/>
      </g>
     </g>
    </g>
    <g id="ytick_26">
     <g id="line2d_46">
      <g>
       <use style="stroke:#000000;stroke-width:0.6;" x="99.04" xlink:href="#m8b36fbdd83" y="50.634699"/>
      </g>
     </g>
    </g>
    <g id="ytick_27">
     <g id="line2d_47">
      <g>
       <use style="stroke:#000000;stroke-width:0.6;" x="99.04" xlink:href="#m8b36fbdd83" y="46.099031"/>
      </g>
     </g>
    </g>
    <g id="ytick_28">
     <g id="line2d_48">
      <g>
       <use style="stroke:#000000;stroke-width:0.6;" x="99.04" xlink:href="#m8b36fbdd83" y="42.170056"/>
      </g>
     </g>
    </g>
    <g id="ytick_29">
     <g id="line2d_49">
      <g>
       <use style="stroke:#000000;stroke-width:0.6;" x="99.04" xlink:href="#m8b36fbdd83" y="38.704455"/>
      </g>
     </g>
    </g>
    <g id="text_10">
     <!-- $\left&lt;\dot{r}(r) \cdot \dot{r}(r + \Delta r)\right&gt;$$/\left&lt;|\dot{r}_i(t)|^2\right&gt;$ -->
     <defs>
      <path d="M 29.390625 -23.78125 
L 11.1875 24.3125 
Q 10.984375 24.703125 10.984375 25 
Q 10.984375 25.203125 11.1875 25.78125 
L 29.390625 73.78125 
Q 29.734375 75 31.203125 75 
Q 32.078125 75 32.640625 74.453125 
Q 33.203125 73.921875 33.203125 73 
Q 33.203125 72.75 33.171875 72.609375 
Q 33.15625 72.46875 33.109375 72.3125 
L 15.09375 25 
L 33.109375 -22.3125 
Q 33.15625 -22.46875 33.171875 -22.578125 
Q 33.203125 -22.703125 33.203125 -23 
Q 33.203125 -23.875 32.609375 -24.4375 
Q 32.03125 -25 31.203125 -25 
Q 29.734375 -25 29.390625 -23.78125 
z
" id="Cmsy10-68"/>
      <path d="M 8.40625 61.375 
Q 8.40625 63.578125 10.0625 65.234375 
Q 11.71875 66.890625 13.921875 66.890625 
Q 15.28125 66.890625 16.59375 66.15625 
Q 17.921875 65.4375 18.65625 64.109375 
Q 19.390625 62.796875 19.390625 61.375 
Q 19.390625 59.234375 17.765625 57.5625 
Q 16.15625 55.90625 13.921875 55.90625 
Q 11.71875 55.90625 10.0625 57.5625 
Q 8.40625 59.234375 8.40625 61.375 
z
" id="Cmr10-5f"/>
      <path d="M 31 -24.8125 
Q 25.4375 -20.40625 21.40625 -14.71875 
Q 17.390625 -9.03125 14.8125 -2.578125 
Q 12.25 3.859375 10.984375 10.890625 
Q 9.71875 17.921875 9.71875 25 
Q 9.71875 32.171875 10.984375 39.203125 
Q 12.25 46.234375 14.859375 52.734375 
Q 17.484375 59.234375 21.53125 64.890625 
Q 25.59375 70.5625 31 74.8125 
Q 31 75 31.5 75 
L 32.421875 75 
Q 32.71875 75 32.953125 74.734375 
Q 33.203125 74.46875 33.203125 74.125 
Q 33.203125 73.6875 33.015625 73.484375 
Q 28.125 68.703125 24.875 63.234375 
Q 21.625 57.765625 19.640625 51.578125 
Q 17.671875 45.40625 16.796875 38.78125 
Q 15.921875 32.171875 15.921875 25 
Q 15.921875 -6.78125 32.90625 -23.296875 
Q 33.203125 -23.578125 33.203125 -24.125 
Q 33.203125 -24.359375 32.9375 -24.671875 
Q 32.671875 -25 32.421875 -25 
L 31.5 -25 
Q 31 -25 31 -24.8125 
z
" id="Cmr10-28"/>
      <path d="M 6.5 -25 
Q 5.609375 -25 5.609375 -24.125 
Q 5.609375 -23.6875 5.8125 -23.484375 
Q 22.90625 -6.78125 22.90625 25 
Q 22.90625 56.78125 6 73.296875 
Q 5.609375 73.53125 5.609375 74.125 
Q 5.609375 74.46875 5.875 74.734375 
Q 6.15625 75 6.5 75 
L 7.421875 75 
Q 7.71875 75 7.90625 74.8125 
Q 15.09375 69.140625 19.875 61.03125 
Q 24.65625 52.9375 26.875 43.75 
Q 29.109375 34.578125 29.109375 25 
Q 29.109375 17.921875 27.90625 11.0625 
Q 26.703125 4.203125 24.09375 -2.453125 
Q 21.484375 -9.125 17.484375 -14.765625 
Q 13.484375 -20.40625 7.90625 -24.8125 
Q 7.71875 -25 7.421875 -25 
z
" id="Cmr10-29"/>
      <path d="M 8.40625 25 
Q 8.40625 26.421875 9.125 27.6875 
Q 9.859375 28.953125 11.15625 29.734375 
Q 12.453125 30.515625 13.921875 30.515625 
Q 15.328125 30.515625 16.625 29.734375 
Q 17.921875 28.953125 18.65625 27.6875 
Q 19.390625 26.421875 19.390625 25 
Q 19.390625 22.75 17.796875 21.109375 
Q 16.21875 19.484375 13.921875 19.484375 
Q 11.671875 19.484375 10.03125 21.109375 
Q 8.40625 22.75 8.40625 25 
z
" id="Cmsy10-a2"/>
      <path d="M 7.515625 23 
Q 6.6875 23 6.140625 23.625 
Q 5.609375 24.265625 5.609375 25 
Q 5.609375 25.734375 6.140625 26.359375 
Q 6.6875 27 7.515625 27 
L 36.921875 27 
L 36.921875 56.5 
Q 36.921875 57.28125 37.5 57.78125 
Q 38.09375 58.296875 38.921875 58.296875 
Q 39.65625 58.296875 40.28125 57.78125 
Q 40.921875 57.28125 40.921875 56.5 
L 40.921875 27 
L 70.3125 27 
Q 71.046875 27 71.578125 26.359375 
Q 72.125 25.734375 72.125 25 
Q 72.125 24.265625 71.578125 23.625 
Q 71.046875 23 70.3125 23 
L 40.921875 23 
L 40.921875 -6.5 
Q 40.921875 -7.28125 40.28125 -7.78125 
Q 39.65625 -8.296875 38.921875 -8.296875 
Q 38.09375 -8.296875 37.5 -7.78125 
Q 36.921875 -7.28125 36.921875 -6.5 
L 36.921875 23 
z
" id="Cmr10-2b"/>
      <path d="M 5.609375 -23 
Q 5.609375 -22.703125 5.8125 -22.3125 
L 23.6875 25 
L 5.8125 72.3125 
Q 5.609375 72.703125 5.609375 73 
Q 5.609375 73.828125 6.140625 74.40625 
Q 6.6875 75 7.625 75 
Q 8.9375 75 9.515625 73.78125 
L 27.6875 25.78125 
Q 27.734375 25.59375 27.75 25.4375 
Q 27.78125 25.296875 27.78125 25 
Q 27.78125 24.75 27.75 24.609375 
Q 27.734375 24.46875 27.6875 24.3125 
L 9.515625 -23.78125 
Q 8.9375 -25 7.625 -25 
Q 6.78125 -25 6.1875 -24.40625 
Q 5.609375 -23.828125 5.609375 -23 
z
" id="Cmsy10-69"/>
      <path d="M 11.921875 -23.1875 
L 11.921875 73.1875 
Q 11.921875 73.96875 12.5 74.484375 
Q 13.09375 75 13.921875 75 
Q 14.65625 75 15.28125 74.484375 
Q 15.921875 73.96875 15.921875 73.1875 
L 15.921875 -23.1875 
Q 15.921875 -23.96875 15.28125 -24.484375 
Q 14.65625 -25 13.921875 -25 
Q 13.09375 -25 12.5 -24.484375 
Q 11.921875 -23.96875 11.921875 -23.1875 
z
" id="Cmsy10-6a"/>
      <path d="M 7.8125 7.171875 
Q 7.8125 9.03125 8.59375 11.078125 
L 16.703125 32.625 
Q 18.015625 36.28125 18.015625 38.625 
Q 18.015625 41.609375 15.828125 41.609375 
Q 11.859375 41.609375 9.296875 37.53125 
Q 6.734375 33.453125 5.515625 28.421875 
Q 5.328125 27.78125 4.6875 27.78125 
L 3.515625 27.78125 
Q 2.6875 27.78125 2.6875 28.71875 
L 2.6875 29 
Q 4.296875 34.96875 7.609375 39.578125 
Q 10.9375 44.1875 16.015625 44.1875 
Q 19.578125 44.1875 22.046875 41.84375 
Q 24.515625 39.5 24.515625 35.890625 
Q 24.515625 34.03125 23.6875 31.984375 
L 15.578125 10.5 
Q 14.203125 7.171875 14.203125 4.5 
Q 14.203125 1.515625 16.5 1.515625 
Q 20.40625 1.515625 23.015625 5.6875 
Q 25.640625 9.859375 26.703125 14.703125 
Q 26.90625 15.28125 27.484375 15.28125 
L 28.71875 15.28125 
Q 29.109375 15.28125 29.34375 15.015625 
Q 29.59375 14.75 29.59375 14.40625 
Q 29.59375 14.3125 29.5 14.109375 
Q 28.125 8.453125 24.734375 3.65625 
Q 21.34375 -1.125 16.3125 -1.125 
Q 12.796875 -1.125 10.296875 1.296875 
Q 7.8125 3.71875 7.8125 7.171875 
z
M 19.09375 60.59375 
Q 19.09375 62.703125 20.84375 64.40625 
Q 22.609375 66.109375 24.703125 66.109375 
Q 26.421875 66.109375 27.515625 65.0625 
Q 28.609375 64.015625 28.609375 62.40625 
Q 28.609375 60.15625 26.828125 58.46875 
Q 25.046875 56.78125 22.90625 56.78125 
Q 21.296875 56.78125 20.1875 57.875 
Q 19.09375 58.984375 19.09375 60.59375 
z
" id="Cmmi10-69"/>
      <path d="M 6.203125 8.109375 
Q 6.203125 9.578125 6.5 10.890625 
L 13.71875 39.59375 
L 3.21875 39.59375 
Q 2.203125 39.59375 2.203125 40.921875 
Q 2.59375 43.109375 3.515625 43.109375 
L 14.59375 43.109375 
L 18.609375 59.421875 
Q 19 60.75 20.171875 61.671875 
Q 21.34375 62.59375 22.796875 62.59375 
Q 24.078125 62.59375 24.921875 61.828125 
Q 25.78125 61.078125 25.78125 59.8125 
Q 25.78125 59.515625 25.75 59.34375 
Q 25.734375 59.1875 25.6875 58.984375 
L 21.6875 43.109375 
L 31.984375 43.109375 
Q 33.015625 43.109375 33.015625 41.796875 
Q 32.953125 41.546875 32.8125 40.953125 
Q 32.671875 40.375 32.421875 39.984375 
Q 32.171875 39.59375 31.6875 39.59375 
L 20.796875 39.59375 
L 13.625 10.6875 
Q 12.890625 7.859375 12.890625 5.8125 
Q 12.890625 1.515625 15.828125 1.515625 
Q 20.21875 1.515625 23.609375 5.640625 
Q 27 9.765625 28.8125 14.703125 
Q 29.203125 15.28125 29.59375 15.28125 
L 30.8125 15.28125 
Q 31.203125 15.28125 31.4375 15.015625 
Q 31.6875 14.75 31.6875 14.40625 
Q 31.6875 14.203125 31.59375 14.109375 
Q 29.390625 8.0625 25.1875 3.46875 
Q 21 -1.125 15.578125 -1.125 
Q 11.625 -1.125 8.90625 1.453125 
Q 6.203125 4.046875 6.203125 8.109375 
z
" id="Cmmi10-74"/>
      <path d="M 4.984375 0 
L 4.984375 2.6875 
Q 4.984375 2.9375 5.171875 3.21875 
L 20.703125 20.40625 
Q 24.21875 24.21875 26.40625 26.796875 
Q 28.609375 29.390625 30.75 32.765625 
Q 32.90625 36.140625 34.15625 39.625 
Q 35.40625 43.109375 35.40625 47.015625 
Q 35.40625 51.125 33.890625 54.859375 
Q 32.375 58.59375 29.375 60.84375 
Q 26.375 63.09375 22.125 63.09375 
Q 17.78125 63.09375 14.3125 60.46875 
Q 10.84375 57.859375 9.421875 53.71875 
Q 9.8125 53.8125 10.5 53.8125 
Q 12.75 53.8125 14.328125 52.296875 
Q 15.921875 50.78125 15.921875 48.390625 
Q 15.921875 46.09375 14.328125 44.5 
Q 12.75 42.921875 10.5 42.921875 
Q 8.15625 42.921875 6.5625 44.546875 
Q 4.984375 46.1875 4.984375 48.390625 
Q 4.984375 52.15625 6.390625 55.4375 
Q 7.8125 58.734375 10.46875 61.296875 
Q 13.140625 63.875 16.484375 65.234375 
Q 19.828125 66.609375 23.578125 66.609375 
Q 29.296875 66.609375 34.21875 64.1875 
Q 39.15625 61.765625 42.03125 57.34375 
Q 44.921875 52.9375 44.921875 47.015625 
Q 44.921875 42.671875 43.015625 38.765625 
Q 41.109375 34.859375 38.125 31.65625 
Q 35.15625 28.46875 30.515625 24.40625 
Q 25.875 20.359375 24.421875 19 
L 13.09375 8.109375 
L 22.703125 8.109375 
Q 29.78125 8.109375 34.546875 8.21875 
Q 39.3125 8.34375 39.59375 8.59375 
Q 40.765625 9.859375 42 17.828125 
L 44.921875 17.828125 
L 42.09375 0 
z
" id="Cmr10-32"/>
     </defs>
     <g transform="translate(7.2 20.8)scale(0.16 -0.16)">
      <use transform="translate(0 0.109375)" xlink:href="#Cmsy10-68"/>
      <use transform="translate(52.691406 0.890625)" xlink:href="#Cmr10-5f"/>
      <use transform="translate(38.818359 0.109375)" xlink:href="#Cmmi10-72"/>
      <use transform="translate(83.935547 0.109375)" xlink:href="#Cmr10-28"/>
      <use transform="translate(122.753906 0.109375)" xlink:href="#Cmmi10-72"/>
      <use transform="translate(167.871094 0.109375)" xlink:href="#Cmr10-29"/>
      <use transform="translate(224.248047 0.109375)" xlink:href="#Cmsy10-a2"/>
      <use transform="translate(283.365234 0.890625)" xlink:href="#Cmr10-5f"/>
      <use transform="translate(269.492188 0.109375)" xlink:href="#Cmmi10-72"/>
      <use transform="translate(314.609375 0.109375)" xlink:href="#Cmr10-28"/>
      <use transform="translate(353.427734 0.109375)" xlink:href="#Cmmi10-72"/>
      <use transform="translate(416.103516 0.109375)" xlink:href="#Cmr10-2b"/>
      <use transform="translate(511.347656 0.109375)" xlink:href="#Cmr10-a2"/>
      <use transform="translate(594.648438 0.109375)" xlink:href="#Cmmi10-72"/>
      <use transform="translate(639.765625 0.109375)" xlink:href="#Cmr10-29"/>
      <use transform="translate(678.583984 0.109375)" xlink:href="#Cmsy10-69"/>
      <use transform="translate(717.402344 0.109375)" xlink:href="#Cmmi10-3d"/>
      <use transform="translate(767.402344 2.578125)scale(1.098906)" xlink:href="#Cmsy10-68"/>
      <use transform="translate(810.060074 0.109375)" xlink:href="#Cmsy10-6a"/>
      <use transform="translate(851.618668 0.890625)" xlink:href="#Cmr10-5f"/>
      <use transform="translate(837.745621 0.109375)" xlink:href="#Cmmi10-72"/>
      <use transform="translate(887.326949 -16.896875)scale(0.7)" xlink:href="#Cmmi10-69"/>
      <use transform="translate(917.800972 0.109375)" xlink:href="#Cmr10-28"/>
      <use transform="translate(956.619332 0.109375)" xlink:href="#Cmmi10-74"/>
      <use transform="translate(992.703316 0.109375)" xlink:href="#Cmr10-29"/>
      <use transform="translate(1031.521675 0.109375)" xlink:href="#Cmsy10-6a"/>
      <use transform="translate(1063.671363 38.373438)scale(0.7)" xlink:href="#Cmr10-32"/>
      <use transform="translate(1105.048707 2.578125)scale(1.098906)" xlink:href="#Cmsy10-69"/>
     </g>
    </g>
   </g>
   <g id="line2d_50">
    <path clip-path="url(#pdd318c3125)" d="M 114.054541 99.257556 
L 116.656714 111.010916 
L 119.315447 122.270148 
L 122.967581 136.699779 
L 126.068391 148.157026 
L 130.446918 163.319683 
L 134.370521 176.092849 
L 138.953962 190.262366 
L 144.682391 207.12742 
L 151.597535 226.624365 
L 160.158274 249.930111 
L 170.302621 276.833625 
L 170.302621 276.833625 
" style="fill:none;stroke:#0000f1;stroke-linecap:square;"/>
   </g>
   <g id="line2d_51">
    <path clip-path="url(#pdd318c3125)" d="M 114.054541 86.988941 
L 117.056873 97.788727 
L 120.87078 110.540016 
L 124.287838 121.216639 
L 127.559418 130.878668 
L 132.372939 144.241943 
L 137.007365 156.291844 
L 141.40793 167.113157 
L 145.910877 177.663939 
L 151.362269 189.858718 
L 156.998635 201.937253 
L 163.872618 216.112359 
L 172.144138 232.580823 
L 181.841943 251.327311 
L 193.484146 273.31019 
L 195.371048 276.833625 
L 195.371048 276.833625 
" style="fill:none;stroke:#004cff;stroke-linecap:square;"/>
   </g>
   <g id="line2d_52">
    <path clip-path="url(#pdd318c3125)" d="M 114.054541 74.941064 
L 117.0423 82.894526 
L 120.360282 91.154209 
L 124.335404 100.442348 
L 129.199818 111.097491 
L 134.296275 121.577189 
L 139.510059 131.689401 
L 145.068961 141.886759 
L 151.075258 152.315919 
L 156.894718 161.913177 
L 162.580731 170.871617 
L 169.160231 180.793526 
L 176.027713 190.719297 
L 183.814965 201.535851 
L 191.936827 212.416557 
L 201.302016 224.565232 
L 212.008277 238.057112 
L 223.762276 252.511239 
L 237.749961 269.364478 
L 244.025849 276.833625 
L 244.025849 276.833625 
" style="fill:none;stroke:#00b0ff;stroke-linecap:square;"/>
   </g>
   <g id="line2d_53">
    <path clip-path="url(#pdd318c3125)" d="M 114.054541 68.270203 
L 117.717837 76.022268 
L 121.556966 83.510042 
L 125.672873 91.015647 
L 130.231561 98.84709 
L 135.325822 107.122276 
L 141.493769 116.592192 
L 146.209156 123.486971 
L 151.281397 130.611293 
L 157.925471 139.534903 
L 164.228869 147.618367 
L 171.513586 156.547827 
L 178.708593 164.981363 
L 186.318668 173.533365 
L 193.328763 181.116469 
L 202.009067 190.166328 
L 211.724154 199.914843 
L 221.224678 209.124515 
L 231.360099 218.660331 
L 242.392035 228.764664 
L 255.485097 240.463242 
L 269.864116 253.028799 
L 287.900761 268.48232 
L 297.777133 276.833625 
L 297.777133 276.833625 
" style="fill:none;stroke:#29ffce;stroke-linecap:square;"/>
   </g>
   <g id="line2d_54">
    <path clip-path="url(#pdd318c3125)" d="M 114.054541 63.156777 
L 116.976355 68.21676 
L 120.282432 73.511713 
L 123.981194 79.040119 
L 128.408501 85.247649 
L 133.673211 92.188023 
L 139.742482 99.729687 
L 145.585841 106.619303 
L 152.539041 114.426844 
L 158.978416 121.33448 
L 165.942162 128.500076 
L 173.194028 135.662876 
L 181.571107 143.596814 
L 189.459689 150.76748 
L 198.621849 158.76626 
L 207.711701 166.386693 
L 217.342197 174.154052 
L 227.030589 181.684985 
L 237.464197 189.515093 
L 248.325617 197.396788 
L 261.099869 206.36505 
L 274.014643 215.152704 
L 287.676168 224.195458 
L 303.890234 234.653648 
L 322.308407 246.248308 
L 342.300367 258.570107 
L 364.781608 272.18002 
L 364.781608 272.18002 
" style="fill:none;stroke:#7dff7a;stroke-linecap:square;"/>
   </g>
   <g id="line2d_55">
    <path clip-path="url(#pdd318c3125)" d="M 114.054541 58.134412 
L 117.59368 62.848119 
L 121.291279 67.302619 
L 125.495305 71.960827 
L 128.771564 75.367248 
L 133.992227 80.487221 
L 139.663672 85.716146 
L 145.229112 90.584493 
L 152.876075 96.937774 
L 160.085014 102.638459 
L 168.855925 109.264867 
L 177.735906 115.682027 
L 187.82779 122.670326 
L 198.049911 129.460275 
L 208.351077 136.04203 
L 219.577056 142.946709 
L 231.630409 150.078607 
L 244.268704 157.272499 
L 256.146845 163.792478 
L 269.875177 171.063679 
L 282.958048 177.753865 
L 298.035669 185.204302 
L 313.100831 192.400866 
L 330.012587 200.220315 
L 347.131496 207.892666 
L 364.781608 215.583239 
L 364.781608 215.583239 
" style="fill:none;stroke:#ceff29;stroke-linecap:square;"/>
   </g>
   <g id="line2d_56">
    <path clip-path="url(#pdd318c3125)" d="M 114.054541 55.281367 
L 116.856657 58.458307 
L 120.289716 61.982459 
L 124.252232 65.690867 
L 127.92582 68.876134 
L 133.639401 73.474248 
L 140.168221 78.335843 
L 147.229895 83.246915 
L 154.721731 88.157613 
L 162.52495 93.015278 
L 171.363889 98.263067 
L 180.855052 103.65109 
L 192.119966 109.770688 
L 203.226265 115.556628 
L 215.482906 121.696665 
L 229.668232 128.522496 
L 243.681064 135.004105 
L 258.11621 141.437968 
L 272.682216 147.703288 
L 289.192002 154.553546 
L 306.398186 161.43357 
L 322.996496 167.841732 
L 341.850631 174.872703 
L 360.626862 181.63668 
L 364.781608 183.103675 
L 364.781608 183.103675 
" style="fill:none;stroke:#ffc400;stroke-linecap:square;"/>
   </g>
   <g id="line2d_57">
    <path clip-path="url(#pdd318c3125)" d="M 114.054541 53.01449 
L 116.406124 55.31459 
L 119.811883 58.322436 
L 123.527601 61.288065 
L 129.355748 65.47676 
L 133.988408 68.516115 
L 140.493409 72.47105 
L 147.421122 76.381389 
L 154.011405 79.881261 
L 161.364812 83.587326 
L 171.070477 88.223715 
L 182.071704 93.200893 
L 193.342908 98.055706 
L 205.707527 103.149763 
L 219.608648 108.636652 
L 235.052917 114.48204 
L 250.60438 120.140091 
L 267.872401 126.189851 
L 287.045097 132.654023 
L 306.517749 138.976652 
L 327.299487 145.48157 
L 348.849847 151.986703 
L 364.781608 156.651038 
L 364.781608 156.651038 
" style="fill:none;stroke:#ff6800;stroke-linecap:square;"/>
   </g>
   <g id="line2d_58">
    <path clip-path="url(#pdd318c3125)" d="M 114.054541 50.67358 
L 117.291594 53.26388 
L 120.065574 55.243584 
L 123.818726 57.668643 
L 127.370243 59.761688 
L 133.116298 62.843322 
L 139.23503 65.82007 
L 145.19434 68.496206 
L 152.979551 71.742485 
L 161.823008 75.168617 
L 170.75172 78.41142 
L 182.260589 82.343548 
L 194.277818 86.216115 
L 209.089734 90.732989 
L 223.625254 94.946229 
L 241.642459 99.926691 
L 260.364293 104.869964 
L 281.307554 110.168546 
L 303.687884 115.603769 
L 327.828531 121.24214 
L 354.760304 127.29454 
L 364.781608 129.488931 
L 364.781608 129.488931 
" style="fill:none;stroke:#f10800;stroke-linecap:square;"/>
   </g>
   <g id="patch_3">
    <path d="M 99.04 241.9555 
L 99.04 32.8 
" style="fill:none;stroke:#000000;stroke-linecap:square;stroke-linejoin:miter;stroke-width:0.8;"/>
   </g>
   <g id="patch_4">
    <path d="M 109.04 251.9555 
L 369.796149 251.9555 
" style="fill:none;stroke:#000000;stroke-linecap:square;stroke-linejoin:miter;stroke-width:0.8;"/>
   </g>
   <g id="text_11">
    <!-- $D=1e+00, D_r=5e-02$ -->
    <defs>
     <path d="M 4.890625 0 
Q 3.90625 0 3.90625 1.3125 
Q 3.953125 1.5625 4.09375 2.171875 
Q 4.25 2.78125 4.515625 3.140625 
Q 4.78125 3.515625 5.171875 3.515625 
Q 11.28125 3.515625 13.71875 4.203125 
Q 14.984375 4.640625 15.578125 6.890625 
L 29.296875 61.8125 
Q 29.5 62.796875 29.5 63.1875 
Q 29.5 64.265625 28.328125 64.40625 
Q 26.421875 64.796875 21.09375 64.796875 
Q 20.125 64.796875 20.125 66.109375 
Q 20.171875 66.359375 20.3125 66.96875 
Q 20.453125 67.578125 20.71875 67.9375 
Q 21 68.3125 21.390625 68.3125 
L 57.328125 68.3125 
Q 64.3125 68.3125 69.53125 64.921875 
Q 74.75 61.53125 77.53125 55.78125 
Q 80.328125 50.046875 80.328125 43.109375 
Q 80.328125 35.453125 77.140625 27.78125 
Q 73.96875 20.125 68.25 13.765625 
Q 62.546875 7.421875 55.21875 3.703125 
Q 47.90625 0 40.1875 0 
z
M 23.578125 4.296875 
Q 23.578125 3.515625 27 3.515625 
L 38.625 3.515625 
Q 44.1875 3.515625 49.359375 5.8125 
Q 54.546875 8.109375 58.59375 12.109375 
Q 62.359375 15.875 65.234375 21.96875 
Q 68.109375 28.078125 69.703125 34.71875 
Q 71.296875 41.359375 71.296875 46.921875 
Q 71.296875 50.984375 70.09375 54.25 
Q 68.890625 57.515625 66.71875 59.859375 
Q 64.546875 62.203125 61.28125 63.5 
Q 58.015625 64.796875 53.90625 64.796875 
L 42.921875 64.796875 
Q 40.1875 64.796875 39.296875 64.328125 
Q 38.421875 63.875 37.703125 61.375 
L 24.03125 6.5 
Q 23.578125 5.28125 23.578125 4.296875 
z
" id="Cmmi10-44"/>
     <path d="M 7.515625 13.28125 
Q 6.6875 13.28125 6.140625 13.90625 
Q 5.609375 14.546875 5.609375 15.28125 
Q 5.609375 16.109375 6.140625 16.6875 
Q 6.6875 17.28125 7.515625 17.28125 
L 70.3125 17.28125 
Q 71.046875 17.28125 71.578125 16.6875 
Q 72.125 16.109375 72.125 15.28125 
Q 72.125 14.546875 71.578125 13.90625 
Q 71.046875 13.28125 70.3125 13.28125 
z
M 7.515625 32.71875 
Q 6.6875 32.71875 6.140625 33.296875 
Q 5.609375 33.890625 5.609375 34.71875 
Q 5.609375 35.453125 6.140625 36.078125 
Q 6.6875 36.71875 7.515625 36.71875 
L 70.3125 36.71875 
Q 71.046875 36.71875 71.578125 36.078125 
Q 72.125 35.453125 72.125 34.71875 
Q 72.125 33.890625 71.578125 33.296875 
Q 71.046875 32.71875 70.3125 32.71875 
z
" id="Cmr10-3d"/>
     <path d="M 9.28125 0 
L 9.28125 3.515625 
Q 21.78125 3.515625 21.78125 6.6875 
L 21.78125 59.1875 
Q 16.609375 56.6875 8.6875 56.6875 
L 8.6875 60.203125 
Q 20.953125 60.203125 27.203125 66.609375 
L 28.609375 66.609375 
Q 28.953125 66.609375 29.265625 66.328125 
Q 29.59375 66.0625 29.59375 65.71875 
L 29.59375 6.6875 
Q 29.59375 3.515625 42.09375 3.515625 
L 42.09375 0 
z
" id="Cmr10-31"/>
     <path d="M 20.125 -1.125 
Q 15.328125 -1.125 11.734375 1.359375 
Q 8.15625 3.859375 6.265625 8.078125 
Q 4.390625 12.3125 4.390625 17 
Q 4.390625 24.125 7.984375 30.390625 
Q 11.578125 36.671875 17.71875 40.421875 
Q 23.875 44.1875 30.90625 44.1875 
Q 35.203125 44.1875 38.40625 41.96875 
Q 41.609375 39.75 41.609375 35.59375 
Q 41.609375 29.828125 37.015625 27.015625 
Q 32.421875 24.21875 26.65625 23.5625 
Q 20.90625 22.90625 13.921875 22.90625 
L 13.625 22.90625 
Q 12.015625 16.9375 12.015625 12.703125 
Q 12.015625 8.25 14.0625 4.875 
Q 16.109375 1.515625 20.3125 1.515625 
Q 26.265625 1.515625 31.75 4.25 
Q 37.25 6.984375 40.71875 11.8125 
Q 41.015625 12.109375 41.5 12.109375 
Q 42 12.109375 42.5 11.546875 
Q 43.015625 10.984375 43.015625 10.5 
Q 43.015625 10.109375 42.828125 9.90625 
Q 39.15625 4.78125 32.953125 1.828125 
Q 26.765625 -1.125 20.125 -1.125 
z
M 14.203125 25.484375 
Q 20.015625 25.484375 24.953125 26.015625 
Q 29.890625 26.5625 33.890625 28.734375 
Q 37.890625 30.90625 37.890625 35.5 
Q 37.890625 37.359375 36.859375 38.75 
Q 35.84375 40.140625 34.203125 40.875 
Q 32.5625 41.609375 30.8125 41.609375 
Q 26.5625 41.609375 23.171875 39.3125 
Q 19.78125 37.015625 17.578125 33.328125 
Q 15.375 29.640625 14.203125 25.484375 
z
" id="Cmmi10-65"/>
     <path d="M 25 -2.203125 
Q 12.75 -2.203125 8.328125 7.875 
Q 3.90625 17.96875 3.90625 31.890625 
Q 3.90625 40.578125 5.484375 48.234375 
Q 7.078125 55.90625 11.78125 61.25 
Q 16.5 66.609375 25 66.609375 
Q 31.59375 66.609375 35.78125 63.375 
Q 39.984375 60.15625 42.1875 55.046875 
Q 44.390625 49.953125 45.1875 44.109375 
Q 46 38.28125 46 31.890625 
Q 46 23.296875 44.40625 15.796875 
Q 42.828125 8.296875 38.1875 3.046875 
Q 33.546875 -2.203125 25 -2.203125 
z
M 25 0.390625 
Q 30.5625 0.390625 33.296875 6.09375 
Q 36.03125 11.8125 36.671875 18.75 
Q 37.3125 25.6875 37.3125 33.5 
Q 37.3125 41.015625 36.671875 47.359375 
Q 36.03125 53.71875 33.3125 58.859375 
Q 30.609375 64.015625 25 64.015625 
Q 19.34375 64.015625 16.609375 58.828125 
Q 13.875 53.65625 13.234375 47.328125 
Q 12.59375 41.015625 12.59375 33.5 
Q 12.59375 27.9375 12.859375 23 
Q 13.140625 18.0625 14.3125 12.8125 
Q 15.484375 7.5625 18.09375 3.96875 
Q 20.703125 0.390625 25 0.390625 
z
" id="Cmr10-30"/>
     <path d="M 9.90625 -18.015625 
Q 9.90625 -17.578125 10.296875 -17.1875 
Q 13.921875 -13.71875 15.921875 -9.171875 
Q 17.921875 -4.640625 17.921875 0.390625 
L 17.921875 1.609375 
Q 16.3125 0 13.921875 0 
Q 11.625 0 10.015625 1.609375 
Q 8.40625 3.21875 8.40625 5.515625 
Q 8.40625 7.859375 10.015625 9.421875 
Q 11.625 10.984375 13.921875 10.984375 
Q 17.484375 10.984375 19 7.6875 
Q 20.515625 4.390625 20.515625 0.390625 
Q 20.515625 -5.171875 18.28125 -10.171875 
Q 16.0625 -15.1875 12.015625 -19.1875 
Q 11.625 -19.390625 11.375 -19.390625 
Q 10.890625 -19.390625 10.390625 -18.9375 
Q 9.90625 -18.5 9.90625 -18.015625 
z
" id="Cmmi10-3b"/>
     <path d="M 8.6875 11.375 
Q 9.71875 8.453125 11.84375 6.046875 
Q 13.96875 3.65625 16.875 2.3125 
Q 19.78125 0.984375 22.90625 0.984375 
Q 30.125 0.984375 32.859375 6.59375 
Q 35.59375 12.203125 35.59375 20.21875 
Q 35.59375 23.6875 35.46875 26.046875 
Q 35.359375 28.421875 34.8125 30.609375 
Q 33.890625 34.125 31.5625 36.765625 
Q 29.25 39.40625 25.875 39.40625 
Q 22.515625 39.40625 20.09375 38.375 
Q 17.671875 37.359375 16.15625 35.984375 
Q 14.65625 34.625 13.484375 33.109375 
Q 12.3125 31.59375 12.015625 31.5 
L 10.890625 31.5 
Q 10.640625 31.5 10.265625 31.8125 
Q 9.90625 32.125 9.90625 32.421875 
L 9.90625 65.828125 
Q 9.90625 66.0625 10.21875 66.328125 
Q 10.546875 66.609375 10.890625 66.609375 
L 11.1875 66.609375 
Q 17.921875 63.375 25.484375 63.375 
Q 32.90625 63.375 39.796875 66.609375 
L 40.09375 66.609375 
Q 40.4375 66.609375 40.71875 66.359375 
Q 41.015625 66.109375 41.015625 65.828125 
L 41.015625 64.890625 
Q 41.015625 64.40625 40.828125 64.40625 
Q 37.40625 59.859375 32.25 57.3125 
Q 27.09375 54.78125 21.578125 54.78125 
Q 17.578125 54.78125 13.375 55.90625 
L 13.375 37.015625 
Q 16.703125 39.703125 19.3125 40.84375 
Q 21.921875 42 25.984375 42 
Q 31.5 42 35.859375 38.8125 
Q 40.234375 35.640625 42.578125 30.53125 
Q 44.921875 25.4375 44.921875 20.125 
Q 44.921875 14.109375 41.96875 8.984375 
Q 39.015625 3.859375 33.9375 0.828125 
Q 28.859375 -2.203125 22.90625 -2.203125 
Q 17.96875 -2.203125 13.84375 0.328125 
Q 9.71875 2.875 7.34375 7.171875 
Q 4.984375 11.46875 4.984375 16.3125 
Q 4.984375 18.5625 6.4375 19.96875 
Q 7.90625 21.390625 10.109375 21.390625 
Q 12.3125 21.390625 13.796875 19.9375 
Q 15.28125 18.5 15.28125 16.3125 
Q 15.28125 14.15625 13.796875 12.671875 
Q 12.3125 11.1875 10.109375 11.1875 
Q 9.765625 11.1875 9.328125 11.25 
Q 8.890625 11.328125 8.6875 11.375 
z
" id="Cmr10-35"/>
     <path d="M 10.203125 23 
Q 9.375 23 8.828125 23.625 
Q 8.296875 24.265625 8.296875 25 
Q 8.296875 25.734375 8.828125 26.359375 
Q 9.375 27 10.203125 27 
L 67.578125 27 
Q 68.359375 27 68.875 26.359375 
Q 69.390625 25.734375 69.390625 25 
Q 69.390625 24.265625 68.875 23.625 
Q 68.359375 23 67.578125 23 
z
" id="Cmsy10-a1"/>
    </defs>
    <g transform="translate(262.994919 26.8)scale(0.1 -0.1)">
     <use transform="translate(0 0.6875)" xlink:href="#Cmmi10-44"/>
     <use transform="translate(100.273438 0.6875)" xlink:href="#Cmr10-3d"/>
     <use transform="translate(195.517578 0.6875)" xlink:href="#Cmr10-31"/>
     <use transform="translate(245.517578 0.6875)" xlink:href="#Cmmi10-65"/>
     <use transform="translate(309.560547 0.6875)" xlink:href="#Cmr10-2b"/>
     <use transform="translate(404.804688 0.6875)" xlink:href="#Cmr10-30"/>
     <use transform="translate(454.804688 0.6875)" xlink:href="#Cmr10-30"/>
     <use transform="translate(504.804688 0.6875)" xlink:href="#Cmmi10-3b"/>
     <use transform="translate(550.048828 0.6875)" xlink:href="#Cmmi10-44"/>
     <use transform="translate(632.763672 -16.31875)scale(0.7)" xlink:href="#Cmmi10-72"/>
     <use transform="translate(688.281641 0.6875)" xlink:href="#Cmr10-3d"/>
     <use transform="translate(783.525781 0.6875)" xlink:href="#Cmr10-35"/>
     <use transform="translate(833.525781 0.6875)" xlink:href="#Cmmi10-65"/>
     <use transform="translate(897.56875 0.6875)" xlink:href="#Cmsy10-a1"/>
     <use transform="translate(992.812891 0.6875)" xlink:href="#Cmr10-30"/>
     <use transform="translate(1042.812891 0.6875)" xlink:href="#Cmr10-32"/>
    </g>
   </g>
   <g id="legend_1">
    <g id="patch_5">
     <path d="M 314.196149 141.585938 
L 366.796149 141.585938 
L 366.796149 39.8 
L 314.196149 39.8 
z
" style="fill:#4c4c4c;opacity:0.5;stroke:#4c4c4c;stroke-linejoin:miter;"/>
    </g>
    <g id="patch_6">
     <path d="M 312.196149 139.585938 
L 364.796149 139.585938 
L 364.796149 37.8 
L 312.196149 37.8 
z
" style="fill:#ffffff;stroke:#cccccc;stroke-linejoin:miter;"/>
    </g>
    <g id="line2d_59">
     <path d="M 321.196149 47.898438 
L 315.696149 47.898438 
" style="fill:none;stroke:#0000f1;stroke-linecap:square;"/>
    </g>
    <g id="line2d_60"/>
    <g id="text_12">
     <!-- $\mu=0.01$ -->
     <defs>
      <path d="M 2.78125 -18.796875 
Q 2.78125 -18.21875 2.875 -18.015625 
L 17.578125 41.015625 
Q 18.015625 42.4375 19.15625 43.3125 
Q 20.3125 44.1875 21.78125 44.1875 
Q 23.046875 44.1875 23.921875 43.421875 
Q 24.8125 42.671875 24.8125 41.40625 
Q 24.8125 41.109375 24.78125 40.9375 
Q 24.75 40.765625 24.703125 40.578125 
L 18.796875 17.1875 
Q 17.828125 13.03125 17.828125 10.015625 
Q 17.828125 6.296875 19.578125 3.90625 
Q 21.34375 1.515625 24.90625 1.515625 
Q 32.171875 1.515625 37.703125 10.59375 
Q 37.75 10.6875 37.765625 10.734375 
Q 37.796875 10.796875 37.796875 10.890625 
L 45.015625 39.890625 
Q 45.359375 41.21875 46.578125 42.15625 
Q 47.796875 43.109375 49.21875 43.109375 
Q 50.390625 43.109375 51.296875 42.328125 
Q 52.203125 41.546875 52.203125 40.28125 
Q 52.203125 39.703125 52.09375 39.5 
L 44.921875 10.6875 
Q 44.1875 7.859375 44.1875 5.8125 
Q 44.1875 1.515625 47.125 1.515625 
Q 50.25 1.515625 51.828125 5.375 
Q 53.421875 9.234375 54.59375 14.703125 
Q 54.78125 15.28125 55.421875 15.28125 
L 56.59375 15.28125 
Q 56.984375 15.28125 57.25 14.96875 
Q 57.515625 14.65625 57.515625 14.3125 
Q 55.765625 7.328125 53.6875 3.09375 
Q 51.609375 -1.125 46.921875 -1.125 
Q 43.609375 -1.125 41.046875 0.78125 
Q 38.484375 2.6875 37.703125 5.90625 
Q 35.203125 2.78125 31.859375 0.828125 
Q 28.515625 -1.125 24.8125 -1.125 
Q 18.5625 -1.125 14.984375 1.8125 
L 9.90625 -18.40625 
Q 9.625 -19.828125 8.453125 -20.703125 
Q 7.28125 -21.578125 5.8125 -21.578125 
Q 4.59375 -21.578125 3.6875 -20.8125 
Q 2.78125 -20.0625 2.78125 -18.796875 
z
" id="Cmmi10-b9"/>
      <path d="M 8.40625 5.515625 
Q 8.40625 7.765625 10.0625 9.375 
Q 11.71875 10.984375 13.921875 10.984375 
Q 15.28125 10.984375 16.59375 10.25 
Q 17.921875 9.515625 18.65625 8.203125 
Q 19.390625 6.890625 19.390625 5.515625 
Q 19.390625 3.328125 17.765625 1.65625 
Q 16.15625 0 13.921875 0 
Q 11.71875 0 10.0625 1.65625 
Q 8.40625 3.328125 8.40625 5.515625 
z
" id="Cmmi10-3a"/>
     </defs>
     <g transform="translate(323.696149 51.398438)scale(0.1 -0.1)">
      <use transform="translate(0 0.390625)" xlink:href="#Cmmi10-b9"/>
      <use transform="translate(77.763672 0.390625)" xlink:href="#Cmr10-3d"/>
      <use transform="translate(173.007812 0.390625)" xlink:href="#Cmr10-30"/>
      <use transform="translate(223.007812 0.390625)" xlink:href="#Cmmi10-3a"/>
      <use transform="translate(250.693359 0.390625)" xlink:href="#Cmr10-30"/>
      <use transform="translate(300.693359 0.390625)" xlink:href="#Cmr10-31"/>
     </g>
    </g>
    <g id="line2d_61">
     <path d="M 321.196149 57.896875 
L 315.696149 57.896875 
" style="fill:none;stroke:#004cff;stroke-linecap:square;"/>
    </g>
    <g id="line2d_62"/>
    <g id="text_13">
     <!-- $\mu=0.02$ -->
     <g transform="translate(323.696149 61.396875)scale(0.1 -0.1)">
      <use transform="translate(0 0.390625)" xlink:href="#Cmmi10-b9"/>
      <use transform="translate(77.763672 0.390625)" xlink:href="#Cmr10-3d"/>
      <use transform="translate(173.007812 0.390625)" xlink:href="#Cmr10-30"/>
      <use transform="translate(223.007812 0.390625)" xlink:href="#Cmmi10-3a"/>
      <use transform="translate(250.693359 0.390625)" xlink:href="#Cmr10-30"/>
      <use transform="translate(300.693359 0.390625)" xlink:href="#Cmr10-32"/>
     </g>
    </g>
    <g id="line2d_63">
     <path d="M 321.196149 67.895313 
L 315.696149 67.895313 
" style="fill:none;stroke:#00b0ff;stroke-linecap:square;"/>
    </g>
    <g id="line2d_64"/>
    <g id="text_14">
     <!-- $\mu=0.05$ -->
     <g transform="translate(323.696149 71.395313)scale(0.1 -0.1)">
      <use transform="translate(0 0.390625)" xlink:href="#Cmmi10-b9"/>
      <use transform="translate(77.763672 0.390625)" xlink:href="#Cmr10-3d"/>
      <use transform="translate(173.007812 0.390625)" xlink:href="#Cmr10-30"/>
      <use transform="translate(223.007812 0.390625)" xlink:href="#Cmmi10-3a"/>
      <use transform="translate(250.693359 0.390625)" xlink:href="#Cmr10-30"/>
      <use transform="translate(300.693359 0.390625)" xlink:href="#Cmr10-35"/>
     </g>
    </g>
    <g id="line2d_65">
     <path d="M 321.196149 77.89375 
L 315.696149 77.89375 
" style="fill:none;stroke:#29ffce;stroke-linecap:square;"/>
    </g>
    <g id="line2d_66"/>
    <g id="text_15">
     <!-- $\mu=0.10$ -->
     <g transform="translate(323.696149 81.39375)scale(0.1 -0.1)">
      <use transform="translate(0 0.390625)" xlink:href="#Cmmi10-b9"/>
      <use transform="translate(77.763672 0.390625)" xlink:href="#Cmr10-3d"/>
      <use transform="translate(173.007812 0.390625)" xlink:href="#Cmr10-30"/>
      <use transform="translate(223.007812 0.390625)" xlink:href="#Cmmi10-3a"/>
      <use transform="translate(250.693359 0.390625)" xlink:href="#Cmr10-31"/>
      <use transform="translate(300.693359 0.390625)" xlink:href="#Cmr10-30"/>
     </g>
    </g>
    <g id="line2d_67">
     <path d="M 321.196149 87.892188 
L 315.696149 87.892188 
" style="fill:none;stroke:#7dff7a;stroke-linecap:square;"/>
    </g>
    <g id="line2d_68"/>
    <g id="text_16">
     <!-- $\mu=0.20$ -->
     <g transform="translate(323.696149 91.392188)scale(0.1 -0.1)">
      <use transform="translate(0 0.390625)" xlink:href="#Cmmi10-b9"/>
      <use transform="translate(77.763672 0.390625)" xlink:href="#Cmr10-3d"/>
      <use transform="translate(173.007812 0.390625)" xlink:href="#Cmr10-30"/>
      <use transform="translate(223.007812 0.390625)" xlink:href="#Cmmi10-3a"/>
      <use transform="translate(250.693359 0.390625)" xlink:href="#Cmr10-32"/>
      <use transform="translate(300.693359 0.390625)" xlink:href="#Cmr10-30"/>
     </g>
    </g>
    <g id="line2d_69">
     <path d="M 321.196149 97.890625 
L 315.696149 97.890625 
" style="fill:none;stroke:#ceff29;stroke-linecap:square;"/>
    </g>
    <g id="line2d_70"/>
    <g id="text_17">
     <!-- $\mu=0.50$ -->
     <g transform="translate(323.696149 101.390625)scale(0.1 -0.1)">
      <use transform="translate(0 0.390625)" xlink:href="#Cmmi10-b9"/>
      <use transform="translate(77.763672 0.390625)" xlink:href="#Cmr10-3d"/>
      <use transform="translate(173.007812 0.390625)" xlink:href="#Cmr10-30"/>
      <use transform="translate(223.007812 0.390625)" xlink:href="#Cmmi10-3a"/>
      <use transform="translate(250.693359 0.390625)" xlink:href="#Cmr10-35"/>
      <use transform="translate(300.693359 0.390625)" xlink:href="#Cmr10-30"/>
     </g>
    </g>
    <g id="line2d_71">
     <path d="M 321.196149 107.889063 
L 315.696149 107.889063 
" style="fill:none;stroke:#ffc400;stroke-linecap:square;"/>
    </g>
    <g id="line2d_72"/>
    <g id="text_18">
     <!-- $\mu=1.00$ -->
     <g transform="translate(323.696149 111.389063)scale(0.1 -0.1)">
      <use transform="translate(0 0.390625)" xlink:href="#Cmmi10-b9"/>
      <use transform="translate(77.763672 0.390625)" xlink:href="#Cmr10-3d"/>
      <use transform="translate(173.007812 0.390625)" xlink:href="#Cmr10-31"/>
      <use transform="translate(223.007812 0.390625)" xlink:href="#Cmmi10-3a"/>
      <use transform="translate(250.693359 0.390625)" xlink:href="#Cmr10-30"/>
      <use transform="translate(300.693359 0.390625)" xlink:href="#Cmr10-30"/>
     </g>
    </g>
    <g id="line2d_73">
     <path d="M 321.196149 117.8875 
L 315.696149 117.8875 
" style="fill:none;stroke:#ff6800;stroke-linecap:square;"/>
    </g>
    <g id="line2d_74"/>
    <g id="text_19">
     <!-- $\mu=2.00$ -->
     <g transform="translate(323.696149 121.3875)scale(0.1 -0.1)">
      <use transform="translate(0 0.390625)" xlink:href="#Cmmi10-b9"/>
      <use transform="translate(77.763672 0.390625)" xlink:href="#Cmr10-3d"/>
      <use transform="translate(173.007812 0.390625)" xlink:href="#Cmr10-32"/>
      <use transform="translate(223.007812 0.390625)" xlink:href="#Cmmi10-3a"/>
      <use transform="translate(250.693359 0.390625)" xlink:href="#Cmr10-30"/>
      <use transform="translate(300.693359 0.390625)" xlink:href="#Cmr10-30"/>
     </g>
    </g>
    <g id="line2d_75">
     <path d="M 321.196149 127.885938 
L 315.696149 127.885938 
" style="fill:none;stroke:#f10800;stroke-linecap:square;"/>
    </g>
    <g id="line2d_76"/>
    <g id="text_20">
     <!-- $\mu=5.00$ -->
     <g transform="translate(323.696149 131.385938)scale(0.1 -0.1)">
      <use transform="translate(0 0.390625)" xlink:href="#Cmmi10-b9"/>
      <use transform="translate(77.763672 0.390625)" xlink:href="#Cmr10-3d"/>
      <use transform="translate(173.007812 0.390625)" xlink:href="#Cmr10-35"/>
      <use transform="translate(223.007812 0.390625)" xlink:href="#Cmmi10-3a"/>
      <use transform="translate(250.693359 0.390625)" xlink:href="#Cmr10-30"/>
      <use transform="translate(300.693359 0.390625)" xlink:href="#Cmr10-30"/>
     </g>
    </g>
   </g>
  </g>
 </g>
 <defs>
  <clipPath id="pdd318c3125">
   <rect height="209.1555" width="260.756149" x="109.04" y="32.8"/>
  </clipPath>
 </defs>
</svg>
