<?xml version="1.0" encoding="utf-8" standalone="no"?>
<!DOCTYPE svg PUBLIC "-//W3C//DTD SVG 1.1//EN"
  "http://www.w3.org/Graphics/SVG/1.1/DTD/svg11.dtd">
<!-- Created with matplotlib (http://matplotlib.org/) -->
<svg height="276.158125pt" version="1.1" viewBox="0 0 423.166616 276.158125" width="423.166616pt" xmlns="http://www.w3.org/2000/svg" xmlns:xlink="http://www.w3.org/1999/xlink">
 <defs>
  <style type="text/css">
*{stroke-linecap:butt;stroke-linejoin:round;}
  </style>
 </defs>
 <g id="figure_1">
  <g id="patch_1">
   <path d="M 0 276.158125 
L 423.166616 276.158125 
L 423.166616 0 
L 0 0 
z
" style="fill:#ffffff;"/>
  </g>
  <g id="axes_1">
   <g id="patch_2">
    <path d="M 95.68 242.28 
L 400.606616 242.28 
L 400.606616 34.88 
L 95.68 34.88 
z
" style="fill:#ffffff;"/>
   </g>
   <g id="matplotlib.axis_1">
    <g id="xtick_1">
     <g id="line2d_1">
      <defs>
       <path d="M 0 0 
L 0 3.5 
" id="md57c63f374" style="stroke:#000000;stroke-width:0.8;"/>
      </defs>
      <g>
       <use style="stroke:#000000;stroke-width:0.8;" x="163.270009" xlink:href="#md57c63f374" y="252.28"/>
      </g>
     </g>
     <g id="text_1">
      <!-- 5 -->
      <defs>
       <path d="M 10.796875 72.90625 
L 49.515625 72.90625 
L 49.515625 64.59375 
L 19.828125 64.59375 
L 19.828125 46.734375 
Q 21.96875 47.46875 24.109375 47.828125 
Q 26.265625 48.1875 28.421875 48.1875 
Q 40.625 48.1875 47.75 41.5 
Q 54.890625 34.8125 54.890625 23.390625 
Q 54.890625 11.625 47.5625 5.09375 
Q 40.234375 -1.421875 26.90625 -1.421875 
Q 22.3125 -1.421875 17.546875 -0.640625 
Q 12.796875 0.140625 7.71875 1.703125 
L 7.71875 11.625 
Q 12.109375 9.234375 16.796875 8.0625 
Q 21.484375 6.890625 26.703125 6.890625 
Q 35.15625 6.890625 40.078125 11.328125 
Q 45.015625 15.765625 45.015625 23.390625 
Q 45.015625 31 40.078125 35.4375 
Q 35.15625 39.890625 26.703125 39.890625 
Q 22.75 39.890625 18.8125 39.015625 
Q 14.890625 38.140625 10.796875 36.28125 
z
" id="DejaVuSans-35"/>
      </defs>
      <g transform="translate(160.088759 266.878437)scale(0.1 -0.1)">
       <use xlink:href="#DejaVuSans-35"/>
      </g>
     </g>
    </g>
    <g id="xtick_2">
     <g id="line2d_2">
      <g>
       <use style="stroke:#000000;stroke-width:0.8;" x="240.427553" xlink:href="#md57c63f374" y="252.28"/>
      </g>
     </g>
     <g id="text_2">
      <!-- 10 -->
      <defs>
       <path d="M 12.40625 8.296875 
L 28.515625 8.296875 
L 28.515625 63.921875 
L 10.984375 60.40625 
L 10.984375 69.390625 
L 28.421875 72.90625 
L 38.28125 72.90625 
L 38.28125 8.296875 
L 54.390625 8.296875 
L 54.390625 0 
L 12.40625 0 
z
" id="DejaVuSans-31"/>
       <path d="M 31.78125 66.40625 
Q 24.171875 66.40625 20.328125 58.90625 
Q 16.5 51.421875 16.5 36.375 
Q 16.5 21.390625 20.328125 13.890625 
Q 24.171875 6.390625 31.78125 6.390625 
Q 39.453125 6.390625 43.28125 13.890625 
Q 47.125 21.390625 47.125 36.375 
Q 47.125 51.421875 43.28125 58.90625 
Q 39.453125 66.40625 31.78125 66.40625 
z
M 31.78125 74.21875 
Q 44.046875 74.21875 50.515625 64.515625 
Q 56.984375 54.828125 56.984375 36.375 
Q 56.984375 17.96875 50.515625 8.265625 
Q 44.046875 -1.421875 31.78125 -1.421875 
Q 19.53125 -1.421875 13.0625 8.265625 
Q 6.59375 17.96875 6.59375 36.375 
Q 6.59375 54.828125 13.0625 64.515625 
Q 19.53125 74.21875 31.78125 74.21875 
z
" id="DejaVuSans-30"/>
      </defs>
      <g transform="translate(234.065053 266.878437)scale(0.1 -0.1)">
       <use xlink:href="#DejaVuSans-31"/>
       <use x="63.623047" xlink:href="#DejaVuSans-30"/>
      </g>
     </g>
    </g>
    <g id="xtick_3">
     <g id="line2d_3">
      <g>
       <use style="stroke:#000000;stroke-width:0.8;" x="317.585098" xlink:href="#md57c63f374" y="252.28"/>
      </g>
     </g>
     <g id="text_3">
      <!-- 15 -->
      <g transform="translate(311.222598 266.878437)scale(0.1 -0.1)">
       <use xlink:href="#DejaVuSans-31"/>
       <use x="63.623047" xlink:href="#DejaVuSans-35"/>
      </g>
     </g>
    </g>
    <g id="xtick_4">
     <g id="line2d_4">
      <g>
       <use style="stroke:#000000;stroke-width:0.8;" x="394.742642" xlink:href="#md57c63f374" y="252.28"/>
      </g>
     </g>
     <g id="text_4">
      <!-- 20 -->
      <defs>
       <path d="M 19.1875 8.296875 
L 53.609375 8.296875 
L 53.609375 0 
L 7.328125 0 
L 7.328125 8.296875 
Q 12.9375 14.109375 22.625 23.890625 
Q 32.328125 33.6875 34.8125 36.53125 
Q 39.546875 41.84375 41.421875 45.53125 
Q 43.3125 49.21875 43.3125 52.78125 
Q 43.3125 58.59375 39.234375 62.25 
Q 35.15625 65.921875 28.609375 65.921875 
Q 23.96875 65.921875 18.8125 64.3125 
Q 13.671875 62.703125 7.8125 59.421875 
L 7.8125 69.390625 
Q 13.765625 71.78125 18.9375 73 
Q 24.125 74.21875 28.421875 74.21875 
Q 39.75 74.21875 46.484375 68.546875 
Q 53.21875 62.890625 53.21875 53.421875 
Q 53.21875 48.921875 51.53125 44.890625 
Q 49.859375 40.875 45.40625 35.40625 
Q 44.1875 33.984375 37.640625 27.21875 
Q 31.109375 20.453125 19.1875 8.296875 
z
" id="DejaVuSans-32"/>
      </defs>
      <g transform="translate(388.380142 266.878437)scale(0.1 -0.1)">
       <use xlink:href="#DejaVuSans-32"/>
       <use x="63.623047" xlink:href="#DejaVuSans-30"/>
      </g>
     </g>
    </g>
    <g id="xtick_5">
     <g id="line2d_5">
      <defs>
       <path d="M 0 0 
L 0 2 
" id="mc20c47c2cf" style="stroke:#000000;stroke-width:0.6;"/>
      </defs>
      <g>
       <use style="stroke:#000000;stroke-width:0.6;" x="101.543973" xlink:href="#mc20c47c2cf" y="252.28"/>
      </g>
     </g>
    </g>
    <g id="xtick_6">
     <g id="line2d_6">
      <g>
       <use style="stroke:#000000;stroke-width:0.6;" x="116.975482" xlink:href="#mc20c47c2cf" y="252.28"/>
      </g>
     </g>
    </g>
    <g id="xtick_7">
     <g id="line2d_7">
      <g>
       <use style="stroke:#000000;stroke-width:0.6;" x="132.406991" xlink:href="#mc20c47c2cf" y="252.28"/>
      </g>
     </g>
    </g>
    <g id="xtick_8">
     <g id="line2d_8">
      <g>
       <use style="stroke:#000000;stroke-width:0.6;" x="147.8385" xlink:href="#mc20c47c2cf" y="252.28"/>
      </g>
     </g>
    </g>
    <g id="xtick_9">
     <g id="line2d_9">
      <g>
       <use style="stroke:#000000;stroke-width:0.6;" x="178.701518" xlink:href="#mc20c47c2cf" y="252.28"/>
      </g>
     </g>
    </g>
    <g id="xtick_10">
     <g id="line2d_10">
      <g>
       <use style="stroke:#000000;stroke-width:0.6;" x="194.133027" xlink:href="#mc20c47c2cf" y="252.28"/>
      </g>
     </g>
    </g>
    <g id="xtick_11">
     <g id="line2d_11">
      <g>
       <use style="stroke:#000000;stroke-width:0.6;" x="209.564536" xlink:href="#mc20c47c2cf" y="252.28"/>
      </g>
     </g>
    </g>
    <g id="xtick_12">
     <g id="line2d_12">
      <g>
       <use style="stroke:#000000;stroke-width:0.6;" x="224.996044" xlink:href="#mc20c47c2cf" y="252.28"/>
      </g>
     </g>
    </g>
    <g id="xtick_13">
     <g id="line2d_13">
      <g>
       <use style="stroke:#000000;stroke-width:0.6;" x="255.859062" xlink:href="#mc20c47c2cf" y="252.28"/>
      </g>
     </g>
    </g>
    <g id="xtick_14">
     <g id="line2d_14">
      <g>
       <use style="stroke:#000000;stroke-width:0.6;" x="271.290571" xlink:href="#mc20c47c2cf" y="252.28"/>
      </g>
     </g>
    </g>
    <g id="xtick_15">
     <g id="line2d_15">
      <g>
       <use style="stroke:#000000;stroke-width:0.6;" x="286.72208" xlink:href="#mc20c47c2cf" y="252.28"/>
      </g>
     </g>
    </g>
    <g id="xtick_16">
     <g id="line2d_16">
      <g>
       <use style="stroke:#000000;stroke-width:0.6;" x="302.153589" xlink:href="#mc20c47c2cf" y="252.28"/>
      </g>
     </g>
    </g>
    <g id="xtick_17">
     <g id="line2d_17">
      <g>
       <use style="stroke:#000000;stroke-width:0.6;" x="333.016607" xlink:href="#mc20c47c2cf" y="252.28"/>
      </g>
     </g>
    </g>
    <g id="xtick_18">
     <g id="line2d_18">
      <g>
       <use style="stroke:#000000;stroke-width:0.6;" x="348.448116" xlink:href="#mc20c47c2cf" y="252.28"/>
      </g>
     </g>
    </g>
    <g id="xtick_19">
     <g id="line2d_19">
      <g>
       <use style="stroke:#000000;stroke-width:0.6;" x="363.879624" xlink:href="#mc20c47c2cf" y="252.28"/>
      </g>
     </g>
    </g>
    <g id="xtick_20">
     <g id="line2d_20">
      <g>
       <use style="stroke:#000000;stroke-width:0.6;" x="379.311133" xlink:href="#mc20c47c2cf" y="252.28"/>
      </g>
     </g>
    </g>
    <g id="text_5">
     <!-- $r$ -->
     <defs>
      <path d="M 7.71875 1.703125 
Q 7.71875 2.296875 7.8125 2.59375 
L 15.28125 32.421875 
Q 16.015625 35.203125 16.015625 37.3125 
Q 16.015625 41.609375 13.09375 41.609375 
Q 9.96875 41.609375 8.453125 37.859375 
Q 6.9375 34.125 5.515625 28.421875 
Q 5.515625 28.125 5.21875 27.953125 
Q 4.9375 27.78125 4.6875 27.78125 
L 3.515625 27.78125 
Q 3.171875 27.78125 2.921875 28.140625 
Q 2.6875 28.515625 2.6875 28.8125 
Q 3.765625 33.15625 4.765625 36.171875 
Q 5.765625 39.203125 7.890625 41.6875 
Q 10.015625 44.1875 13.1875 44.1875 
Q 16.65625 44.1875 19.265625 42.1875 
Q 21.875 40.1875 22.515625 36.921875 
Q 25.046875 40.234375 28.296875 42.203125 
Q 31.546875 44.1875 35.40625 44.1875 
Q 38.578125 44.1875 40.984375 42.328125 
Q 43.40625 40.484375 43.40625 37.3125 
Q 43.40625 34.765625 41.8125 32.875 
Q 40.234375 31 37.59375 31 
Q 35.984375 31 34.890625 32 
Q 33.796875 33.015625 33.796875 34.625 
Q 33.796875 36.8125 35.40625 38.546875 
Q 37.015625 40.28125 39.109375 40.28125 
Q 37.5 41.609375 35.203125 41.609375 
Q 30.90625 41.609375 27.734375 38.546875 
Q 24.5625 35.5 22.015625 30.8125 
L 14.890625 2.203125 
Q 14.546875 0.828125 13.34375 -0.140625 
Q 12.15625 -1.125 10.6875 -1.125 
Q 9.46875 -1.125 8.59375 -0.34375 
Q 7.71875 0.4375 7.71875 1.703125 
z
" id="Cmmi10-72"/>
     </defs>
     <g transform="translate(408.606616 252.28)scale(0.16 -0.16)">
      <use transform="translate(0 0.8125)" xlink:href="#Cmmi10-72"/>
     </g>
    </g>
   </g>
   <g id="matplotlib.axis_2">
    <g id="ytick_1">
     <g id="line2d_21">
      <defs>
       <path d="M 0 0 
L -3.5 0 
" id="m585ba84f1c" style="stroke:#000000;stroke-width:0.8;"/>
      </defs>
      <g>
       <use style="stroke:#000000;stroke-width:0.8;" x="85.68" xlink:href="#m585ba84f1c" y="239.205934"/>
      </g>
     </g>
     <g id="text_6">
      <!-- $\mathdefault{10^{-3}}$ -->
      <defs>
       <path d="M 4.890625 31.390625 
L 31.203125 31.390625 
L 31.203125 23.390625 
L 4.890625 23.390625 
z
" id="DejaVuSans-2d"/>
       <path d="M 40.578125 39.3125 
Q 47.65625 37.796875 51.625 33 
Q 55.609375 28.21875 55.609375 21.1875 
Q 55.609375 10.40625 48.1875 4.484375 
Q 40.765625 -1.421875 27.09375 -1.421875 
Q 22.515625 -1.421875 17.65625 -0.515625 
Q 12.796875 0.390625 7.625 2.203125 
L 7.625 11.71875 
Q 11.71875 9.328125 16.59375 8.109375 
Q 21.484375 6.890625 26.8125 6.890625 
Q 36.078125 6.890625 40.9375 10.546875 
Q 45.796875 14.203125 45.796875 21.1875 
Q 45.796875 27.640625 41.28125 31.265625 
Q 36.765625 34.90625 28.71875 34.90625 
L 20.21875 34.90625 
L 20.21875 43.015625 
L 29.109375 43.015625 
Q 36.375 43.015625 40.234375 45.921875 
Q 44.09375 48.828125 44.09375 54.296875 
Q 44.09375 59.90625 40.109375 62.90625 
Q 36.140625 65.921875 28.71875 65.921875 
Q 24.65625 65.921875 20.015625 65.03125 
Q 15.375 64.15625 9.8125 62.3125 
L 9.8125 71.09375 
Q 15.4375 72.65625 20.34375 73.4375 
Q 25.25 74.21875 29.59375 74.21875 
Q 40.828125 74.21875 47.359375 69.109375 
Q 53.90625 64.015625 53.90625 55.328125 
Q 53.90625 49.265625 50.4375 45.09375 
Q 46.96875 40.921875 40.578125 39.3125 
z
" id="DejaVuSans-33"/>
      </defs>
      <g transform="translate(58.58 243.005153)scale(0.1 -0.1)">
       <use transform="translate(0 0.765625)" xlink:href="#DejaVuSans-31"/>
       <use transform="translate(63.623047 0.765625)" xlink:href="#DejaVuSans-30"/>
       <use transform="translate(128.203125 39.046875)scale(0.7)" xlink:href="#DejaVuSans-2d"/>
       <use transform="translate(153.461914 39.046875)scale(0.7)" xlink:href="#DejaVuSans-33"/>
      </g>
     </g>
    </g>
    <g id="ytick_2">
     <g id="line2d_22">
      <g>
       <use style="stroke:#000000;stroke-width:0.8;" x="85.68" xlink:href="#m585ba84f1c" y="172.024233"/>
      </g>
     </g>
     <g id="text_7">
      <!-- $\mathdefault{10^{-2}}$ -->
      <g transform="translate(58.58 175.823452)scale(0.1 -0.1)">
       <use transform="translate(0 0.765625)" xlink:href="#DejaVuSans-31"/>
       <use transform="translate(63.623047 0.765625)" xlink:href="#DejaVuSans-30"/>
       <use transform="translate(128.203125 39.046875)scale(0.7)" xlink:href="#DejaVuSans-2d"/>
       <use transform="translate(153.461914 39.046875)scale(0.7)" xlink:href="#DejaVuSans-32"/>
      </g>
     </g>
    </g>
    <g id="ytick_3">
     <g id="line2d_23">
      <g>
       <use style="stroke:#000000;stroke-width:0.8;" x="85.68" xlink:href="#m585ba84f1c" y="104.842532"/>
      </g>
     </g>
     <g id="text_8">
      <!-- $\mathdefault{10^{-1}}$ -->
      <g transform="translate(58.58 108.641751)scale(0.1 -0.1)">
       <use transform="translate(0 0.684375)" xlink:href="#DejaVuSans-31"/>
       <use transform="translate(63.623047 0.684375)" xlink:href="#DejaVuSans-30"/>
       <use transform="translate(128.203125 38.965625)scale(0.7)" xlink:href="#DejaVuSans-2d"/>
       <use transform="translate(153.461914 38.965625)scale(0.7)" xlink:href="#DejaVuSans-31"/>
      </g>
     </g>
    </g>
    <g id="ytick_4">
     <g id="line2d_24">
      <g>
       <use style="stroke:#000000;stroke-width:0.8;" x="85.68" xlink:href="#m585ba84f1c" y="37.660831"/>
      </g>
     </g>
     <g id="text_9">
      <!-- $\mathdefault{10^{0}}$ -->
      <g transform="translate(61.08 41.46005)scale(0.1 -0.1)">
       <use transform="translate(0 0.765625)" xlink:href="#DejaVuSans-31"/>
       <use transform="translate(63.623047 0.765625)" xlink:href="#DejaVuSans-30"/>
       <use transform="translate(128.203125 39.046875)scale(0.7)" xlink:href="#DejaVuSans-30"/>
      </g>
     </g>
    </g>
    <g id="ytick_5">
     <g id="line2d_25">
      <defs>
       <path d="M 0 0 
L -2 0 
" id="m52224e43c4" style="stroke:#000000;stroke-width:0.6;"/>
      </defs>
      <g>
       <use style="stroke:#000000;stroke-width:0.6;" x="85.68" xlink:href="#m52224e43c4" y="242.28"/>
      </g>
     </g>
    </g>
    <g id="ytick_6">
     <g id="line2d_26">
      <g>
       <use style="stroke:#000000;stroke-width:0.6;" x="85.68" xlink:href="#m52224e43c4" y="218.982227"/>
      </g>
     </g>
    </g>
    <g id="ytick_7">
     <g id="line2d_27">
      <g>
       <use style="stroke:#000000;stroke-width:0.6;" x="85.68" xlink:href="#m52224e43c4" y="207.152116"/>
      </g>
     </g>
    </g>
    <g id="ytick_8">
     <g id="line2d_28">
      <g>
       <use style="stroke:#000000;stroke-width:0.6;" x="85.68" xlink:href="#m52224e43c4" y="198.75852"/>
      </g>
     </g>
    </g>
    <g id="ytick_9">
     <g id="line2d_29">
      <g>
       <use style="stroke:#000000;stroke-width:0.6;" x="85.68" xlink:href="#m52224e43c4" y="192.24794"/>
      </g>
     </g>
    </g>
    <g id="ytick_10">
     <g id="line2d_30">
      <g>
       <use style="stroke:#000000;stroke-width:0.6;" x="85.68" xlink:href="#m52224e43c4" y="186.928409"/>
      </g>
     </g>
    </g>
    <g id="ytick_11">
     <g id="line2d_31">
      <g>
       <use style="stroke:#000000;stroke-width:0.6;" x="85.68" xlink:href="#m52224e43c4" y="182.43081"/>
      </g>
     </g>
    </g>
    <g id="ytick_12">
     <g id="line2d_32">
      <g>
       <use style="stroke:#000000;stroke-width:0.6;" x="85.68" xlink:href="#m52224e43c4" y="178.534812"/>
      </g>
     </g>
    </g>
    <g id="ytick_13">
     <g id="line2d_33">
      <g>
       <use style="stroke:#000000;stroke-width:0.6;" x="85.68" xlink:href="#m52224e43c4" y="175.098299"/>
      </g>
     </g>
    </g>
    <g id="ytick_14">
     <g id="line2d_34">
      <g>
       <use style="stroke:#000000;stroke-width:0.6;" x="85.68" xlink:href="#m52224e43c4" y="151.800526"/>
      </g>
     </g>
    </g>
    <g id="ytick_15">
     <g id="line2d_35">
      <g>
       <use style="stroke:#000000;stroke-width:0.6;" x="85.68" xlink:href="#m52224e43c4" y="139.970415"/>
      </g>
     </g>
    </g>
    <g id="ytick_16">
     <g id="line2d_36">
      <g>
       <use style="stroke:#000000;stroke-width:0.6;" x="85.68" xlink:href="#m52224e43c4" y="131.576819"/>
      </g>
     </g>
    </g>
    <g id="ytick_17">
     <g id="line2d_37">
      <g>
       <use style="stroke:#000000;stroke-width:0.6;" x="85.68" xlink:href="#m52224e43c4" y="125.066239"/>
      </g>
     </g>
    </g>
    <g id="ytick_18">
     <g id="line2d_38">
      <g>
       <use style="stroke:#000000;stroke-width:0.6;" x="85.68" xlink:href="#m52224e43c4" y="119.746708"/>
      </g>
     </g>
    </g>
    <g id="ytick_19">
     <g id="line2d_39">
      <g>
       <use style="stroke:#000000;stroke-width:0.6;" x="85.68" xlink:href="#m52224e43c4" y="115.249109"/>
      </g>
     </g>
    </g>
    <g id="ytick_20">
     <g id="line2d_40">
      <g>
       <use style="stroke:#000000;stroke-width:0.6;" x="85.68" xlink:href="#m52224e43c4" y="111.353111"/>
      </g>
     </g>
    </g>
    <g id="ytick_21">
     <g id="line2d_41">
      <g>
       <use style="stroke:#000000;stroke-width:0.6;" x="85.68" xlink:href="#m52224e43c4" y="107.916598"/>
      </g>
     </g>
    </g>
    <g id="ytick_22">
     <g id="line2d_42">
      <g>
       <use style="stroke:#000000;stroke-width:0.6;" x="85.68" xlink:href="#m52224e43c4" y="84.618825"/>
      </g>
     </g>
    </g>
    <g id="ytick_23">
     <g id="line2d_43">
      <g>
       <use style="stroke:#000000;stroke-width:0.6;" x="85.68" xlink:href="#m52224e43c4" y="72.788715"/>
      </g>
     </g>
    </g>
    <g id="ytick_24">
     <g id="line2d_44">
      <g>
       <use style="stroke:#000000;stroke-width:0.6;" x="85.68" xlink:href="#m52224e43c4" y="64.395118"/>
      </g>
     </g>
    </g>
    <g id="ytick_25">
     <g id="line2d_45">
      <g>
       <use style="stroke:#000000;stroke-width:0.6;" x="85.68" xlink:href="#m52224e43c4" y="57.884538"/>
      </g>
     </g>
    </g>
    <g id="ytick_26">
     <g id="line2d_46">
      <g>
       <use style="stroke:#000000;stroke-width:0.6;" x="85.68" xlink:href="#m52224e43c4" y="52.565007"/>
      </g>
     </g>
    </g>
    <g id="ytick_27">
     <g id="line2d_47">
      <g>
       <use style="stroke:#000000;stroke-width:0.6;" x="85.68" xlink:href="#m52224e43c4" y="48.067408"/>
      </g>
     </g>
    </g>
    <g id="ytick_28">
     <g id="line2d_48">
      <g>
       <use style="stroke:#000000;stroke-width:0.6;" x="85.68" xlink:href="#m52224e43c4" y="44.171411"/>
      </g>
     </g>
    </g>
    <g id="ytick_29">
     <g id="line2d_49">
      <g>
       <use style="stroke:#000000;stroke-width:0.6;" x="85.68" xlink:href="#m52224e43c4" y="40.734897"/>
      </g>
     </g>
    </g>
    <g id="text_10">
     <!-- $\langle v^{\alpha}(r) v^{\alpha}(0)\rangle$$/\langle v^{\alpha}(1)^2\rangle$ -->
     <defs>
      <path d="M 35.5 -114.796875 
L 10.015625 -56.78125 
Q 9.8125 -56.5 9.8125 -56 
Q 9.8125 -55.515625 10.015625 -55.328125 
L 35.5 2.78125 
Q 35.984375 4 37.3125 4 
Q 38.03125 4 38.671875 3.359375 
Q 39.3125 2.734375 39.3125 2 
Q 39.3125 1.515625 39.203125 1.3125 
L 14.015625 -56 
L 39.203125 -113.28125 
Q 39.3125 -113.484375 39.3125 -114.015625 
Q 39.3125 -114.75 38.671875 -115.375 
Q 38.03125 -116.015625 37.3125 -116.015625 
Q 36.03125 -116.015625 35.5 -114.796875 
z
" id="Cmex10-ad"/>
      <path d="M 10.6875 11.28125 
Q 10.6875 13.53125 11.21875 16.203125 
Q 11.765625 18.890625 12.296875 20.625 
Q 12.84375 22.359375 14.75 27.390625 
Q 16.65625 32.421875 16.703125 32.625 
Q 18.015625 36.28125 18.015625 38.625 
Q 18.015625 41.609375 15.828125 41.609375 
Q 11.859375 41.609375 9.296875 37.53125 
Q 6.734375 33.453125 5.515625 28.421875 
Q 5.328125 27.78125 4.6875 27.78125 
L 3.515625 27.78125 
Q 2.6875 27.78125 2.6875 28.71875 
L 2.6875 29 
Q 4.296875 34.96875 7.609375 39.578125 
Q 10.9375 44.1875 16.015625 44.1875 
Q 19.578125 44.1875 22.046875 41.84375 
Q 24.515625 39.5 24.515625 35.890625 
Q 24.515625 34.03125 23.6875 31.984375 
Q 21.734375 26.90625 20.609375 23.84375 
Q 19.484375 20.796875 18.53125 17.015625 
Q 17.578125 13.234375 17.578125 10.015625 
Q 17.578125 6.25 19.3125 3.875 
Q 21.046875 1.515625 24.703125 1.515625 
Q 31.640625 1.515625 37.203125 12.203125 
Q 38.96875 15.671875 40.53125 20.359375 
Q 42.09375 25.046875 42.09375 27.984375 
Q 42.09375 31 41.109375 32.6875 
Q 40.140625 34.375 38.578125 36.203125 
Q 37.015625 38.03125 37.015625 39.109375 
Q 37.015625 41.0625 38.625 42.671875 
Q 40.234375 44.28125 42.1875 44.28125 
Q 44.578125 44.28125 45.625 42.078125 
Q 46.6875 39.890625 46.6875 37.109375 
Q 46.6875 33.796875 45.734375 29.203125 
Q 44.78125 24.609375 43.09375 19.671875 
Q 41.40625 14.75 39.984375 11.921875 
Q 33.40625 -1.125 24.609375 -1.125 
Q 18.3125 -1.125 14.5 2.015625 
Q 10.6875 5.171875 10.6875 11.28125 
z
" id="Cmmi10-76"/>
      <path d="M 20.125 -1.125 
Q 15.375 -1.125 11.6875 1.125 
Q 8.015625 3.375 6 7.171875 
Q 4 10.984375 4 15.828125 
Q 4 22.609375 7.78125 29.25 
Q 11.578125 35.890625 17.84375 40.03125 
Q 24.125 44.1875 31 44.1875 
Q 36.078125 44.1875 39.9375 41.53125 
Q 43.796875 38.875 45.796875 34.453125 
Q 47.796875 30.03125 47.796875 25 
L 47.90625 18.3125 
Q 51.3125 23.046875 53.6875 28.140625 
Q 56.0625 33.25 57.328125 38.71875 
Q 57.515625 39.3125 58.109375 39.3125 
L 59.28125 39.3125 
Q 60.203125 39.3125 60.203125 38.375 
Q 60.203125 38.28125 60.109375 38.09375 
Q 58.9375 33.5 57.171875 29.265625 
Q 55.421875 25.046875 53.046875 21.09375 
Q 50.6875 17.140625 47.90625 13.921875 
Q 47.90625 1.515625 50.78125 1.515625 
Q 52.640625 1.515625 53.828125 2.609375 
Q 55.03125 3.71875 55.9375 5.328125 
Q 56.84375 6.9375 57.078125 6.984375 
L 58.296875 6.984375 
Q 59.078125 6.984375 59.078125 6 
Q 59.078125 3.515625 56.21875 1.1875 
Q 53.375 -1.125 50.59375 -1.125 
Q 46.96875 -1.125 44.578125 1.21875 
Q 42.1875 3.5625 41.3125 7.328125 
Q 36.625 3.328125 31.15625 1.09375 
Q 25.6875 -1.125 20.125 -1.125 
z
M 20.3125 1.515625 
Q 31 1.515625 40.828125 10.296875 
Q 40.765625 10.890625 40.671875 11.734375 
Q 40.578125 12.59375 40.578125 12.703125 
L 40.578125 23.484375 
Q 40.578125 41.609375 30.8125 41.609375 
Q 24.953125 41.609375 20.546875 36.59375 
Q 16.15625 31.59375 13.9375 24.625 
Q 11.71875 17.671875 11.71875 11.921875 
Q 11.71875 7.5625 13.9375 4.53125 
Q 16.15625 1.515625 20.3125 1.515625 
z
" id="Cmmi10-ae"/>
      <path d="M 31 -24.8125 
Q 25.4375 -20.40625 21.40625 -14.71875 
Q 17.390625 -9.03125 14.8125 -2.578125 
Q 12.25 3.859375 10.984375 10.890625 
Q 9.71875 17.921875 9.71875 25 
Q 9.71875 32.171875 10.984375 39.203125 
Q 12.25 46.234375 14.859375 52.734375 
Q 17.484375 59.234375 21.53125 64.890625 
Q 25.59375 70.5625 31 74.8125 
Q 31 75 31.5 75 
L 32.421875 75 
Q 32.71875 75 32.953125 74.734375 
Q 33.203125 74.46875 33.203125 74.125 
Q 33.203125 73.6875 33.015625 73.484375 
Q 28.125 68.703125 24.875 63.234375 
Q 21.625 57.765625 19.640625 51.578125 
Q 17.671875 45.40625 16.796875 38.78125 
Q 15.921875 32.171875 15.921875 25 
Q 15.921875 -6.78125 32.90625 -23.296875 
Q 33.203125 -23.578125 33.203125 -24.125 
Q 33.203125 -24.359375 32.9375 -24.671875 
Q 32.671875 -25 32.421875 -25 
L 31.5 -25 
Q 31 -25 31 -24.8125 
z
" id="Cmr10-28"/>
      <path d="M 6.5 -25 
Q 5.609375 -25 5.609375 -24.125 
Q 5.609375 -23.6875 5.8125 -23.484375 
Q 22.90625 -6.78125 22.90625 25 
Q 22.90625 56.78125 6 73.296875 
Q 5.609375 73.53125 5.609375 74.125 
Q 5.609375 74.46875 5.875 74.734375 
Q 6.15625 75 6.5 75 
L 7.421875 75 
Q 7.71875 75 7.90625 74.8125 
Q 15.09375 69.140625 19.875 61.03125 
Q 24.65625 52.9375 26.875 43.75 
Q 29.109375 34.578125 29.109375 25 
Q 29.109375 17.921875 27.90625 11.0625 
Q 26.703125 4.203125 24.09375 -2.453125 
Q 21.484375 -9.125 17.484375 -14.765625 
Q 13.484375 -20.40625 7.90625 -24.8125 
Q 7.71875 -25 7.421875 -25 
z
" id="Cmr10-29"/>
      <path d="M 25 -2.203125 
Q 12.75 -2.203125 8.328125 7.875 
Q 3.90625 17.96875 3.90625 31.890625 
Q 3.90625 40.578125 5.484375 48.234375 
Q 7.078125 55.90625 11.78125 61.25 
Q 16.5 66.609375 25 66.609375 
Q 31.59375 66.609375 35.78125 63.375 
Q 39.984375 60.15625 42.1875 55.046875 
Q 44.390625 49.953125 45.1875 44.109375 
Q 46 38.28125 46 31.890625 
Q 46 23.296875 44.40625 15.796875 
Q 42.828125 8.296875 38.1875 3.046875 
Q 33.546875 -2.203125 25 -2.203125 
z
M 25 0.390625 
Q 30.5625 0.390625 33.296875 6.09375 
Q 36.03125 11.8125 36.671875 18.75 
Q 37.3125 25.6875 37.3125 33.5 
Q 37.3125 41.015625 36.671875 47.359375 
Q 36.03125 53.71875 33.3125 58.859375 
Q 30.609375 64.015625 25 64.015625 
Q 19.34375 64.015625 16.609375 58.828125 
Q 13.875 53.65625 13.234375 47.328125 
Q 12.59375 41.015625 12.59375 33.5 
Q 12.59375 27.9375 12.859375 23 
Q 13.140625 18.0625 14.3125 12.8125 
Q 15.484375 7.5625 18.09375 3.96875 
Q 20.703125 0.390625 25 0.390625 
z
" id="Cmr10-30"/>
      <path d="M 7.8125 -114.015625 
Q 7.8125 -113.484375 8.015625 -113.28125 
L 33.109375 -56 
L 8.015625 1.3125 
Q 7.8125 1.515625 7.8125 2 
Q 7.8125 2.734375 8.390625 3.359375 
Q 8.984375 4 9.8125 4 
Q 10.984375 4 11.71875 2.78125 
L 37.203125 -55.328125 
Q 37.3125 -55.515625 37.3125 -56 
Q 37.3125 -56.5 37.203125 -56.78125 
L 11.71875 -114.796875 
Q 10.9375 -116.015625 9.8125 -116.015625 
Q 8.984375 -116.015625 8.390625 -115.375 
Q 7.8125 -114.75 7.8125 -114.015625 
z
" id="Cmex10-ae"/>
      <path d="M 5.609375 -23 
Q 5.609375 -22.703125 5.71875 -22.609375 
L 40.484375 73.78125 
Q 40.671875 74.359375 41.15625 74.671875 
Q 41.65625 75 42.28125 75 
Q 43.171875 75 43.71875 74.453125 
Q 44.28125 73.921875 44.28125 73 
L 44.28125 72.609375 
L 9.515625 -23.78125 
Q 8.9375 -25 7.625 -25 
Q 6.78125 -25 6.1875 -24.40625 
Q 5.609375 -23.828125 5.609375 -23 
z
" id="Cmmi10-3d"/>
      <path d="M 9.28125 0 
L 9.28125 3.515625 
Q 21.78125 3.515625 21.78125 6.6875 
L 21.78125 59.1875 
Q 16.609375 56.6875 8.6875 56.6875 
L 8.6875 60.203125 
Q 20.953125 60.203125 27.203125 66.609375 
L 28.609375 66.609375 
Q 28.953125 66.609375 29.265625 66.328125 
Q 29.59375 66.0625 29.59375 65.71875 
L 29.59375 6.6875 
Q 29.59375 3.515625 42.09375 3.515625 
L 42.09375 0 
z
" id="Cmr10-31"/>
      <path d="M 4.984375 0 
L 4.984375 2.6875 
Q 4.984375 2.9375 5.171875 3.21875 
L 20.703125 20.40625 
Q 24.21875 24.21875 26.40625 26.796875 
Q 28.609375 29.390625 30.75 32.765625 
Q 32.90625 36.140625 34.15625 39.625 
Q 35.40625 43.109375 35.40625 47.015625 
Q 35.40625 51.125 33.890625 54.859375 
Q 32.375 58.59375 29.375 60.84375 
Q 26.375 63.09375 22.125 63.09375 
Q 17.78125 63.09375 14.3125 60.46875 
Q 10.84375 57.859375 9.421875 53.71875 
Q 9.8125 53.8125 10.5 53.8125 
Q 12.75 53.8125 14.328125 52.296875 
Q 15.921875 50.78125 15.921875 48.390625 
Q 15.921875 46.09375 14.328125 44.5 
Q 12.75 42.921875 10.5 42.921875 
Q 8.15625 42.921875 6.5625 44.546875 
Q 4.984375 46.1875 4.984375 48.390625 
Q 4.984375 52.15625 6.390625 55.4375 
Q 7.8125 58.734375 10.46875 61.296875 
Q 13.140625 63.875 16.484375 65.234375 
Q 19.828125 66.609375 23.578125 66.609375 
Q 29.296875 66.609375 34.21875 64.1875 
Q 39.15625 61.765625 42.03125 57.34375 
Q 44.921875 52.9375 44.921875 47.015625 
Q 44.921875 42.671875 43.015625 38.765625 
Q 41.109375 34.859375 38.125 31.65625 
Q 35.15625 28.46875 30.515625 24.40625 
Q 25.875 20.359375 24.421875 19 
L 13.09375 8.109375 
L 22.703125 8.109375 
Q 29.78125 8.109375 34.546875 8.21875 
Q 39.3125 8.34375 39.59375 8.59375 
Q 40.765625 9.859375 42 17.828125 
L 44.921875 17.828125 
L 42.09375 0 
z
" id="Cmr10-32"/>
     </defs>
     <g transform="translate(7.2 22.88)scale(0.16 -0.16)">
      <use transform="translate(0 94)" xlink:href="#Cmex10-ad"/>
      <use transform="translate(47.216797 0.658854)" xlink:href="#Cmmi10-76"/>
      <use transform="translate(101.928438 38.922917)scale(0.7)" xlink:href="#Cmmi10-ae"/>
      <use transform="translate(153.046992 0.658854)" xlink:href="#Cmr10-28"/>
      <use transform="translate(191.865352 0.658854)" xlink:href="#Cmmi10-72"/>
      <use transform="translate(236.982539 0.658854)" xlink:href="#Cmr10-29"/>
      <use transform="translate(275.800898 0.658854)" xlink:href="#Cmmi10-76"/>
      <use transform="translate(330.512539 38.922917)scale(0.7)" xlink:href="#Cmmi10-ae"/>
      <use transform="translate(381.631094 0.658854)" xlink:href="#Cmr10-28"/>
      <use transform="translate(420.449453 0.658854)" xlink:href="#Cmr10-30"/>
      <use transform="translate(470.449453 0.658854)" xlink:href="#Cmr10-29"/>
      <use transform="translate(509.267812 94)" xlink:href="#Cmex10-ae"/>
      <use transform="translate(556.484609 0.658854)" xlink:href="#Cmmi10-3d"/>
      <use transform="translate(606.484609 94)" xlink:href="#Cmex10-ad"/>
      <use transform="translate(653.701406 0.658854)" xlink:href="#Cmmi10-76"/>
      <use transform="translate(708.413047 38.922917)scale(0.7)" xlink:href="#Cmmi10-ae"/>
      <use transform="translate(759.531602 0.658854)" xlink:href="#Cmr10-28"/>
      <use transform="translate(798.349961 0.658854)" xlink:href="#Cmr10-31"/>
      <use transform="translate(848.349961 0.658854)" xlink:href="#Cmr10-29"/>
      <use transform="translate(891.632461 38.922917)scale(0.7)" xlink:href="#Cmr10-32"/>
      <use transform="translate(933.009805 94)" xlink:href="#Cmex10-ae"/>
     </g>
    </g>
   </g>
   <g id="line2d_50">
    <path clip-path="url(#p5c3dfc51e6)" d="M 101.543973 37.660831 
L 104.917286 50.535312 
L 108.520577 63.329652 
L 112.244593 75.682888 
L 116.657219 89.365175 
L 120.666602 101.053287 
L 126.337007 116.622563 
L 132.115524 131.601756 
L 137.676805 145.398045 
L 145.921747 165.073106 
L 154.823399 185.624725 
L 166.522748 211.971375 
L 180.442516 242.73355 
L 196.229304 277.158125 
L 196.229304 277.158125 
" style="fill:none;stroke:#0000f1;stroke-linecap:square;"/>
   </g>
   <g id="line2d_51">
    <path clip-path="url(#p5c3dfc51e6)" d="M 101.543973 37.660831 
L 104.575054 46.949607 
L 108.102083 57.111368 
L 111.344753 65.941747 
L 115.697673 77.139703 
L 118.593145 84.222901 
L 123.45709 95.547973 
L 129.248856 108.222624 
L 134.231136 118.532043 
L 140.269574 130.420119 
L 145.314769 139.932933 
L 152.47339 152.909444 
L 160.458531 166.828594 
L 169.425391 181.950598 
L 179.120751 197.87368 
L 192.167941 218.828492 
L 206.937722 242.12172 
L 226.459863 272.469884 
L 229.496757 277.158125 
L 229.496757 277.158125 
" style="fill:none;stroke:#004cff;stroke-linecap:square;"/>
   </g>
   <g id="line2d_52">
    <path clip-path="url(#p5c3dfc51e6)" d="M 101.543973 37.660831 
L 104.51798 44.408294 
L 108.226977 52.316529 
L 112.006583 59.92178 
L 117.307408 69.974308 
L 122.402201 79.080368 
L 128.120415 88.755181 
L 132.029679 95.077907 
L 138.818797 105.562278 
L 145.635443 115.528866 
L 151.373798 123.537787 
L 158.479204 133.033283 
L 166.22005 142.919708 
L 173.499977 151.847695 
L 181.541871 161.361859 
L 189.366005 170.327112 
L 200.155935 182.312152 
L 211.953698 195.026535 
L 224.874763 208.603524 
L 239.807587 223.965751 
L 257.967748 242.314166 
L 279.307504 263.554631 
L 293.107131 277.158125 
L 293.107131 277.158125 
" style="fill:none;stroke:#00b0ff;stroke-linecap:square;"/>
   </g>
   <g id="line2d_53">
    <path clip-path="url(#p5c3dfc51e6)" d="M 101.543973 37.660831 
L 104.686873 43.367153 
L 109.080652 50.780176 
L 113.297007 57.43449 
L 119.084986 66.018033 
L 124.881183 74.111637 
L 129.55715 80.340286 
L 135.023941 87.330205 
L 140.93003 94.569851 
L 148.406348 103.32404 
L 156.251329 112.073382 
L 162.969727 119.249317 
L 170.302365 126.781572 
L 177.639102 134.035643 
L 186.156913 142.141034 
L 194.452029 149.744954 
L 203.087379 157.394778 
L 213.121162 165.98862 
L 223.86318 174.89081 
L 236.510631 185.045606 
L 250.572554 196.003088 
L 264.969105 206.936491 
L 281.860525 219.483164 
L 302.258021 234.332554 
L 323.400101 249.470916 
L 351.418978 269.25327 
L 362.711651 277.158125 
L 362.711651 277.158125 
" style="fill:none;stroke:#29ffce;stroke-linecap:square;"/>
   </g>
   <g id="line2d_54">
    <path clip-path="url(#p5c3dfc51e6)" d="M 101.543973 37.660831 
L 104.932908 42.639094 
L 108.228788 47.140951 
L 113.047872 53.282726 
L 118.291397 59.522446 
L 123.614708 65.49908 
L 128.91178 71.162069 
L 135.514339 77.896622 
L 142.792328 84.973004 
L 151.270687 92.830136 
L 159.803628 100.376977 
L 169.107868 108.245388 
L 178.262916 115.661063 
L 187.1219 122.559404 
L 197.023702 129.977383 
L 206.594155 136.881063 
L 215.839649 143.325189 
L 227.660806 151.274614 
L 238.466254 158.286755 
L 250.943088 166.117926 
L 263.180233 173.556994 
L 276.710825 181.542562 
L 292.520271 190.603224 
L 310.348161 200.533343 
L 329.481389 210.918644 
L 351.623377 222.662493 
L 376.163427 235.415604 
L 394.742642 244.929684 
L 394.742642 244.929684 
" style="fill:none;stroke:#7dff7a;stroke-linecap:square;"/>
   </g>
   <g id="line2d_55">
    <path clip-path="url(#p5c3dfc51e6)" d="M 101.543973 37.660831 
L 103.877451 40.360503 
L 107.274455 44.007488 
L 112.264934 48.91925 
L 117.150422 53.355704 
L 121.83081 57.349482 
L 127.665808 62.057355 
L 134.894407 67.564068 
L 143.343598 73.644995 
L 149.493594 77.876449 
L 159.197768 84.278804 
L 168.843072 90.360989 
L 179.330658 96.704362 
L 190.826223 103.377463 
L 203.144904 110.242791 
L 215.667981 116.952264 
L 228.146095 123.393629 
L 240.851335 129.724285 
L 255.614537 136.81674 
L 269.950856 143.456696 
L 285.576902 150.441896 
L 302.525783 157.749923 
L 319.444639 164.795298 
L 337.015658 171.877445 
L 356.603627 179.524341 
L 377.160252 187.304968 
L 394.742642 193.788146 
L 394.742642 193.788146 
" style="fill:none;stroke:#ceff29;stroke-linecap:square;"/>
   </g>
   <g id="line2d_56">
    <path clip-path="url(#p5c3dfc51e6)" d="M 101.543973 37.660831 
L 102.701997 38.811213 
L 104.638599 40.643959 
L 106.211579 42.060882 
L 107.274363 42.986705 
L 108.827631 44.29927 
L 110.444959 45.620287 
L 111.410181 46.388676 
L 112.627653 47.338412 
L 114.36221 48.657172 
L 116.583311 50.293014 
L 117.910743 51.245192 
L 119.242341 52.182902 
L 120.450666 53.019686 
L 122.100453 54.142002 
L 123.094188 54.807465 
L 125.242248 56.220786 
L 126.583221 57.086787 
L 127.619985 57.748292 
L 129.617861 59.004422 
L 131.553203 60.199363 
L 132.107199 60.537678 
L 134.641298 62.065249 
L 135.752514 62.725269 
L 136.22959 63.006881 
L 138.228616 64.175879 
L 140.095311 65.25218 
L 141.270284 65.922454 
L 142.478835 66.60633 
L 144.871995 67.944666 
L 145.727003 68.417915 
L 147.588646 69.439821 
L 148.028021 69.679351 
L 149.602797 70.532833 
L 152.090738 71.865816 
L 153.846812 72.795846 
L 154.501277 73.14025 
L 155.488516 73.657564 
L 157.459869 74.682821 
L 158.671436 75.307972 
L 160.212633 76.097933 
L 161.456911 76.731514 
L 162.812287 77.417523 
L 164.940057 78.486028 
L 165.716152 78.873263 
L 167.701735 79.85808 
L 169.194416 80.592988 
L 170.667083 81.313601 
L 172.826723 82.362625 
L 173.902358 82.881759 
L 175.484373 83.641351 
L 176.086042 83.929029 
L 178.673446 85.158752 
L 179.66143 85.625213 
L 180.4023 85.973902 
L 183.131015 87.250209 
L 184.73882 87.996511 
L 186.0996 88.624923 
L 187.009321 89.043413 
L 189.03429 89.970365 
L 190.560573 90.664945 
L 191.636417 91.152467 
L 192.15745 91.387966 
L 194.420976 92.406515 
L 195.797669 93.022458 
L 196.756382 93.449839 
L 198.115755 94.053672 
L 200.471655 95.094273 
L 201.86689 95.707095 
L 203.801098 96.552483 
L 204.559352 96.882594 
L 205.497549 97.290042 
L 207.143661 98.002285 
L 209.673811 99.090573 
L 210.932297 99.62902 
L 211.446144 99.848332 
L 212.987037 100.504134 
L 214.500719 101.145675 
L 215.925969 101.747342 
L 217.716307 102.499886 
L 218.850596 102.974823 
L 221.060436 103.896052 
L 222.961756 104.684446 
L 223.944952 105.090624 
L 225.087609 105.5614 
L 226.356329 106.082518 
L 227.82579 106.684011 
L 229.686046 107.442308 
L 231.784866 108.29367 
L 233.139637 108.840895 
L 234.152797 109.248957 
L 234.968138 109.57662 
L 236.611618 110.235135 
L 238.454777 110.970587 
L 239.735735 111.479819 
L 242.076107 112.406255 
L 242.419859 112.541902 
L 244.715884 113.445161 
L 245.555725 113.774359 
L 248.003675 114.730293 
" style="fill:none;stroke:#ffc400;stroke-linecap:square;"/>
   </g>
   <g id="line2d_57">
    <path clip-path="url(#p5c3dfc51e6)" d="M 251.683938 116.157486 
L 252.73638 116.563453 
L 254.305129 117.166813 
L 256.183045 117.886328 
L 257.27349 118.302762 
L 259.081757 118.99114 
L 260.205589 119.417599 
L 262.411631 120.25171 
L 263.091055 120.507804 
L 265.369695 121.363972 
L 266.784296 121.8934 
L 268.169699 122.410365 
L 270.180958 123.158187 
L 270.965158 123.448913 
L 272.691417 124.087214 
L 273.606945 124.424811 
L 275.670603 125.183435 
L 276.439698 125.465339 
L 277.703762 125.927704 
L 280.172137 126.827145 
L 281.428018 127.283044 
L 282.548948 127.688978 
L 283.789927 128.13732 
L 285.131066 128.620594 
L 286.765155 129.207687 
L 288.100803 129.686142 
L 289.828662 130.303222 
L 292.008124 131.078598 
L 293.647799 131.659762 
L 294.875266 132.09361 
L 295.689048 132.380672 
L 297.402816 132.98373 
L 298.902025 133.509657 
L 300.112741 133.933277 
L 302.499236 134.765434 
L 303.740972 135.196931 
L 304.811095 135.567981 
L 305.89093 135.941641 
L 308.458 136.826901 
L 309.816079 137.293525 
L 310.658934 137.582531 
L 312.866828 138.337458 
L 314.347298 138.841945 
L 315.290675 139.162697 
L 317.339772 139.857497 
L 318.328464 140.191813 
L 319.436039 140.565616 
L 321.702826 141.328323 
L 322.629664 141.639281 
L 324.078928 142.124483 
L 325.922049 142.739735 
L 327.101318 143.132331 
L 328.479579 143.590137 
L 330.634124 144.303573 
L 330.935873 144.403276 
L 332.15481 144.805499 
L 334.717479 145.648343 
L 335.292451 145.836933 
L 337.833757 146.66824 
L 338.258381 146.806788 
L 340.733734 147.612456 
L 342.0946 148.053939 
L 343.84587 148.620579 
L 344.316003 148.772409 
L 346.418471 149.449939 
L 347.130407 149.678822 
L 349.16151 150.330318 
L 351.024688 150.926019 
L 351.660132 151.128766 
L 353.441579 151.696029 
L 354.707432 152.098106 
L 355.891825 152.473555 
L 357.480593 152.976055 
L 358.871668 153.414966 
L 361.07838 154.109208 
L 362.627282 154.595034 
L 364.304869 155.11987 
L 365.880939 155.611673 
L 366.183389 155.705911 
L 368.195803 156.331797 
L 369.861994 156.848509 
L 370.4832 157.040811 
L 372.156314 157.557818 
L 373.52384 157.979401 
L 375.532099 158.596901 
L 377.572478 159.222331 
L 379.073859 159.681303 
L 379.387219 159.776965 
L 381.693369 160.47959 
L 383.155271 160.923732 
L 384.452349 161.316986 
L 386.576309 161.959298 
L 387.709425 162.30114 
L 388.364795 162.498593 
L 389.611236 162.873603 
L 392.129387 163.629139 
L 392.540174 163.752127 
L 394.742642 164.410291 
" style="fill:none;stroke:#ffc400;stroke-linecap:square;"/>
   </g>
   <g id="line2d_58">
    <path clip-path="url(#p5c3dfc51e6)" d="M 101.543973 37.660831 
L 104.895505 40.413882 
L 109.07163 43.483685 
L 114.174024 46.854082 
L 118.994205 49.762127 
L 123.440755 52.266031 
L 130.831249 56.139419 
L 137.764892 59.52214 
L 145.371223 63.018777 
L 154.023935 66.781853 
L 165.116721 71.343368 
L 177.396103 76.121767 
L 189.552423 80.628448 
L 204.299879 85.853223 
L 220.82572 91.447924 
L 236.616188 96.578607 
L 255.699016 102.540429 
L 276.322364 108.729585 
L 298.205231 115.044678 
L 319.459176 120.957438 
L 342.443404 127.130966 
L 367.6223 133.654986 
L 394.742642 140.427528 
L 394.742642 140.427528 
" style="fill:none;stroke:#ff6800;stroke-linecap:square;"/>
   </g>
   <g id="line2d_59">
    <path clip-path="url(#p5c3dfc51e6)" d="M 101.543973 37.660831 
L 104.197394 39.497148 
L 108.009878 41.864398 
L 112.755922 44.489528 
L 118.675987 47.412209 
L 124.469532 50.001483 
L 131.283646 52.796031 
L 137.993791 55.346785 
L 147.021052 58.538729 
L 156.998462 61.821348 
L 167.974997 65.204657 
L 180.690496 68.892455 
L 195.893599 73.047818 
L 211.364383 77.05291 
L 229.690616 81.565572 
L 250.115672 86.356514 
L 272.700758 91.416154 
L 295.703056 96.356532 
L 323.024076 101.990306 
L 350.706438 107.476963 
L 381.5772 113.368018 
L 394.742642 115.814663 
L 394.742642 115.814663 
" style="fill:none;stroke:#f10800;stroke-linecap:square;"/>
   </g>
   <g id="patch_3">
    <path d="M 85.68 242.28 
L 85.68 34.88 
" style="fill:none;stroke:#000000;stroke-linecap:square;stroke-linejoin:miter;stroke-width:0.8;"/>
   </g>
   <g id="patch_4">
    <path d="M 95.68 252.28 
L 400.606616 252.28 
" style="fill:none;stroke:#000000;stroke-linecap:square;stroke-linejoin:miter;stroke-width:0.8;"/>
   </g>
   <g id="text_11">
    <!-- $\zeta=1.0, \tau=20.0$ -->
    <defs>
     <path d="M 17.671875 -15.578125 
Q 17.921875 -14.40625 19.09375 -14.40625 
Q 19.28125 -14.40625 20.8125 -15.40625 
Q 22.359375 -16.40625 24.09375 -17.15625 
Q 25.828125 -17.921875 27.875 -17.921875 
Q 30.03125 -17.921875 31.46875 -15.921875 
Q 32.90625 -13.921875 32.90625 -11.625 
Q 32.90625 -9.328125 31.390625 -7.71875 
Q 29.890625 -6.109375 27.59375 -5.328125 
L 17.390625 -1.90625 
Q 11.140625 0.25 7.859375 4.953125 
Q 4.59375 9.671875 4.59375 16.40625 
Q 4.59375 22.125 6.65625 28.609375 
Q 8.734375 35.109375 12.390625 41.203125 
Q 16.0625 47.3125 20.84375 52.171875 
Q 25.640625 57.03125 30.8125 59.71875 
Q 29.78125 61.765625 29.78125 64.5 
Q 29.78125 69.921875 31.890625 69.921875 
Q 32.421875 69.921875 32.8125 69.53125 
Q 33.203125 69.140625 33.203125 68.609375 
Q 33.203125 67.875 32.953125 66.328125 
Q 32.71875 64.796875 32.71875 64.40625 
Q 32.71875 62.59375 33.296875 60.890625 
Q 35.890625 61.921875 38.09375 61.921875 
Q 47.3125 61.921875 47.3125 59.078125 
Q 47.3125 55.71875 37.109375 55.71875 
Q 34.078125 55.71875 32.328125 57.515625 
Q 28.03125 55.078125 24.046875 50.6875 
Q 20.0625 46.296875 16.984375 40.828125 
Q 13.921875 35.359375 12.203125 29.78125 
Q 10.5 24.21875 10.5 19.1875 
Q 10.5 8.40625 20.3125 4.984375 
L 31 1.421875 
Q 34.375 0.390625 36.5 -2.171875 
Q 38.625 -4.734375 38.625 -8.296875 
Q 38.625 -11.1875 37.15625 -14.03125 
Q 35.6875 -16.890625 33.203125 -18.703125 
Q 30.71875 -20.515625 27.6875 -20.515625 
Q 25.296875 -20.515625 21.484375 -18.921875 
Q 17.671875 -17.328125 17.671875 -15.578125 
z
M 35.109375 58.796875 
Q 35.015625 58.796875 35.984375 58.40625 
Q 36.421875 58.40625 36.6875 58.375 
Q 36.96875 58.34375 37.3125 58.296875 
Q 42.09375 58.296875 44.1875 58.890625 
Q 42.28125 59.28125 38.09375 59.28125 
Q 36.71875 59.28125 35.109375 58.796875 
z
" id="Cmmi10-b3"/>
     <path d="M 7.515625 13.28125 
Q 6.6875 13.28125 6.140625 13.90625 
Q 5.609375 14.546875 5.609375 15.28125 
Q 5.609375 16.109375 6.140625 16.6875 
Q 6.6875 17.28125 7.515625 17.28125 
L 70.3125 17.28125 
Q 71.046875 17.28125 71.578125 16.6875 
Q 72.125 16.109375 72.125 15.28125 
Q 72.125 14.546875 71.578125 13.90625 
Q 71.046875 13.28125 70.3125 13.28125 
z
M 7.515625 32.71875 
Q 6.6875 32.71875 6.140625 33.296875 
Q 5.609375 33.890625 5.609375 34.71875 
Q 5.609375 35.453125 6.140625 36.078125 
Q 6.6875 36.71875 7.515625 36.71875 
L 70.3125 36.71875 
Q 71.046875 36.71875 71.578125 36.078125 
Q 72.125 35.453125 72.125 34.71875 
Q 72.125 33.890625 71.578125 33.296875 
Q 71.046875 32.71875 70.3125 32.71875 
z
" id="Cmr10-3d"/>
     <path d="M 8.40625 5.515625 
Q 8.40625 7.765625 10.0625 9.375 
Q 11.71875 10.984375 13.921875 10.984375 
Q 15.28125 10.984375 16.59375 10.25 
Q 17.921875 9.515625 18.65625 8.203125 
Q 19.390625 6.890625 19.390625 5.515625 
Q 19.390625 3.328125 17.765625 1.65625 
Q 16.15625 0 13.921875 0 
Q 11.71875 0 10.0625 1.65625 
Q 8.40625 3.328125 8.40625 5.515625 
z
" id="Cmmi10-3a"/>
     <path d="M 9.90625 -18.015625 
Q 9.90625 -17.578125 10.296875 -17.1875 
Q 13.921875 -13.71875 15.921875 -9.171875 
Q 17.921875 -4.640625 17.921875 0.390625 
L 17.921875 1.609375 
Q 16.3125 0 13.921875 0 
Q 11.625 0 10.015625 1.609375 
Q 8.40625 3.21875 8.40625 5.515625 
Q 8.40625 7.859375 10.015625 9.421875 
Q 11.625 10.984375 13.921875 10.984375 
Q 17.484375 10.984375 19 7.6875 
Q 20.515625 4.390625 20.515625 0.390625 
Q 20.515625 -5.171875 18.28125 -10.171875 
Q 16.0625 -15.1875 12.015625 -19.1875 
Q 11.625 -19.390625 11.375 -19.390625 
Q 10.890625 -19.390625 10.390625 -18.9375 
Q 9.90625 -18.5 9.90625 -18.015625 
z
" id="Cmmi10-3b"/>
     <path d="M 15.578125 1.515625 
Q 15.578125 2.203125 15.71875 2.59375 
L 26.21875 36.921875 
L 17.1875 36.921875 
Q 13.53125 36.921875 10.34375 34.625 
Q 7.171875 32.328125 5.078125 28.8125 
Q 4.890625 28.421875 4.5 28.421875 
L 3.328125 28.421875 
Q 2.390625 28.421875 2.390625 29.390625 
Q 2.390625 29.59375 2.59375 29.984375 
Q 5.859375 35.546875 9.59375 39.328125 
Q 13.328125 43.109375 18.015625 43.109375 
L 48.6875 43.109375 
Q 49.75 43.109375 50.484375 42.375 
Q 51.21875 41.65625 51.21875 40.578125 
Q 51.21875 39.109375 50.171875 38.015625 
Q 49.125 36.921875 47.609375 36.921875 
L 29.5 36.921875 
L 22.796875 2.390625 
Q 22.40625 0.78125 21.328125 -0.265625 
Q 20.265625 -1.3125 18.609375 -1.3125 
Q 17.328125 -1.3125 16.453125 -0.5 
Q 15.578125 0.296875 15.578125 1.515625 
z
" id="Cmmi10-bf"/>
    </defs>
    <g transform="translate(214.943308 18.51)scale(0.1 -0.1)">
     <use transform="translate(0 0.078125)" xlink:href="#Cmmi10-b3"/>
     <use transform="translate(61.259766 0.078125)" xlink:href="#Cmr10-3d"/>
     <use transform="translate(156.503906 0.078125)" xlink:href="#Cmr10-31"/>
     <use transform="translate(206.503906 0.078125)" xlink:href="#Cmmi10-3a"/>
     <use transform="translate(234.189453 0.078125)" xlink:href="#Cmr10-30"/>
     <use transform="translate(284.189453 0.078125)" xlink:href="#Cmmi10-3b"/>
     <use transform="translate(329.433594 0.078125)" xlink:href="#Cmmi10-bf"/>
     <use transform="translate(390.693359 0.078125)" xlink:href="#Cmr10-3d"/>
     <use transform="translate(485.9375 0.078125)" xlink:href="#Cmr10-32"/>
     <use transform="translate(535.9375 0.078125)" xlink:href="#Cmr10-30"/>
     <use transform="translate(585.9375 0.078125)" xlink:href="#Cmmi10-3a"/>
     <use transform="translate(613.623047 0.078125)" xlink:href="#Cmr10-30"/>
    </g>
   </g>
   <g id="legend_1">
    <g id="patch_5">
     <path d="M 102.68 239.28 
L 155.28 239.28 
L 155.28 137.494062 
L 102.68 137.494062 
z
" style="fill:#4c4c4c;opacity:0.5;stroke:#4c4c4c;stroke-linejoin:miter;"/>
    </g>
    <g id="patch_6">
     <path d="M 100.68 237.28 
L 153.28 237.28 
L 153.28 135.494062 
L 100.68 135.494062 
z
" style="fill:#ffffff;stroke:#cccccc;stroke-linejoin:miter;"/>
    </g>
    <g id="line2d_60">
     <path d="M 109.68 145.5925 
L 104.18 145.5925 
" style="fill:none;stroke:#0000f1;stroke-linecap:square;"/>
    </g>
    <g id="line2d_61"/>
    <g id="text_12">
     <!-- $\mu=0.01$ -->
     <defs>
      <path d="M 2.78125 -18.796875 
Q 2.78125 -18.21875 2.875 -18.015625 
L 17.578125 41.015625 
Q 18.015625 42.4375 19.15625 43.3125 
Q 20.3125 44.1875 21.78125 44.1875 
Q 23.046875 44.1875 23.921875 43.421875 
Q 24.8125 42.671875 24.8125 41.40625 
Q 24.8125 41.109375 24.78125 40.9375 
Q 24.75 40.765625 24.703125 40.578125 
L 18.796875 17.1875 
Q 17.828125 13.03125 17.828125 10.015625 
Q 17.828125 6.296875 19.578125 3.90625 
Q 21.34375 1.515625 24.90625 1.515625 
Q 32.171875 1.515625 37.703125 10.59375 
Q 37.75 10.6875 37.765625 10.734375 
Q 37.796875 10.796875 37.796875 10.890625 
L 45.015625 39.890625 
Q 45.359375 41.21875 46.578125 42.15625 
Q 47.796875 43.109375 49.21875 43.109375 
Q 50.390625 43.109375 51.296875 42.328125 
Q 52.203125 41.546875 52.203125 40.28125 
Q 52.203125 39.703125 52.09375 39.5 
L 44.921875 10.6875 
Q 44.1875 7.859375 44.1875 5.8125 
Q 44.1875 1.515625 47.125 1.515625 
Q 50.25 1.515625 51.828125 5.375 
Q 53.421875 9.234375 54.59375 14.703125 
Q 54.78125 15.28125 55.421875 15.28125 
L 56.59375 15.28125 
Q 56.984375 15.28125 57.25 14.96875 
Q 57.515625 14.65625 57.515625 14.3125 
Q 55.765625 7.328125 53.6875 3.09375 
Q 51.609375 -1.125 46.921875 -1.125 
Q 43.609375 -1.125 41.046875 0.78125 
Q 38.484375 2.6875 37.703125 5.90625 
Q 35.203125 2.78125 31.859375 0.828125 
Q 28.515625 -1.125 24.8125 -1.125 
Q 18.5625 -1.125 14.984375 1.8125 
L 9.90625 -18.40625 
Q 9.625 -19.828125 8.453125 -20.703125 
Q 7.28125 -21.578125 5.8125 -21.578125 
Q 4.59375 -21.578125 3.6875 -20.8125 
Q 2.78125 -20.0625 2.78125 -18.796875 
z
" id="Cmmi10-b9"/>
     </defs>
     <g transform="translate(112.18 149.0925)scale(0.1 -0.1)">
      <use transform="translate(0 0.390625)" xlink:href="#Cmmi10-b9"/>
      <use transform="translate(77.763672 0.390625)" xlink:href="#Cmr10-3d"/>
      <use transform="translate(173.007812 0.390625)" xlink:href="#Cmr10-30"/>
      <use transform="translate(223.007812 0.390625)" xlink:href="#Cmmi10-3a"/>
      <use transform="translate(250.693359 0.390625)" xlink:href="#Cmr10-30"/>
      <use transform="translate(300.693359 0.390625)" xlink:href="#Cmr10-31"/>
     </g>
    </g>
    <g id="line2d_62">
     <path d="M 109.68 155.590937 
L 104.18 155.590937 
" style="fill:none;stroke:#004cff;stroke-linecap:square;"/>
    </g>
    <g id="line2d_63"/>
    <g id="text_13">
     <!-- $\mu=0.02$ -->
     <g transform="translate(112.18 159.090937)scale(0.1 -0.1)">
      <use transform="translate(0 0.390625)" xlink:href="#Cmmi10-b9"/>
      <use transform="translate(77.763672 0.390625)" xlink:href="#Cmr10-3d"/>
      <use transform="translate(173.007812 0.390625)" xlink:href="#Cmr10-30"/>
      <use transform="translate(223.007812 0.390625)" xlink:href="#Cmmi10-3a"/>
      <use transform="translate(250.693359 0.390625)" xlink:href="#Cmr10-30"/>
      <use transform="translate(300.693359 0.390625)" xlink:href="#Cmr10-32"/>
     </g>
    </g>
    <g id="line2d_64">
     <path d="M 109.68 165.589375 
L 104.18 165.589375 
" style="fill:none;stroke:#00b0ff;stroke-linecap:square;"/>
    </g>
    <g id="line2d_65"/>
    <g id="text_14">
     <!-- $\mu=0.05$ -->
     <defs>
      <path d="M 8.6875 11.375 
Q 9.71875 8.453125 11.84375 6.046875 
Q 13.96875 3.65625 16.875 2.3125 
Q 19.78125 0.984375 22.90625 0.984375 
Q 30.125 0.984375 32.859375 6.59375 
Q 35.59375 12.203125 35.59375 20.21875 
Q 35.59375 23.6875 35.46875 26.046875 
Q 35.359375 28.421875 34.8125 30.609375 
Q 33.890625 34.125 31.5625 36.765625 
Q 29.25 39.40625 25.875 39.40625 
Q 22.515625 39.40625 20.09375 38.375 
Q 17.671875 37.359375 16.15625 35.984375 
Q 14.65625 34.625 13.484375 33.109375 
Q 12.3125 31.59375 12.015625 31.5 
L 10.890625 31.5 
Q 10.640625 31.5 10.265625 31.8125 
Q 9.90625 32.125 9.90625 32.421875 
L 9.90625 65.828125 
Q 9.90625 66.0625 10.21875 66.328125 
Q 10.546875 66.609375 10.890625 66.609375 
L 11.1875 66.609375 
Q 17.921875 63.375 25.484375 63.375 
Q 32.90625 63.375 39.796875 66.609375 
L 40.09375 66.609375 
Q 40.4375 66.609375 40.71875 66.359375 
Q 41.015625 66.109375 41.015625 65.828125 
L 41.015625 64.890625 
Q 41.015625 64.40625 40.828125 64.40625 
Q 37.40625 59.859375 32.25 57.3125 
Q 27.09375 54.78125 21.578125 54.78125 
Q 17.578125 54.78125 13.375 55.90625 
L 13.375 37.015625 
Q 16.703125 39.703125 19.3125 40.84375 
Q 21.921875 42 25.984375 42 
Q 31.5 42 35.859375 38.8125 
Q 40.234375 35.640625 42.578125 30.53125 
Q 44.921875 25.4375 44.921875 20.125 
Q 44.921875 14.109375 41.96875 8.984375 
Q 39.015625 3.859375 33.9375 0.828125 
Q 28.859375 -2.203125 22.90625 -2.203125 
Q 17.96875 -2.203125 13.84375 0.328125 
Q 9.71875 2.875 7.34375 7.171875 
Q 4.984375 11.46875 4.984375 16.3125 
Q 4.984375 18.5625 6.4375 19.96875 
Q 7.90625 21.390625 10.109375 21.390625 
Q 12.3125 21.390625 13.796875 19.9375 
Q 15.28125 18.5 15.28125 16.3125 
Q 15.28125 14.15625 13.796875 12.671875 
Q 12.3125 11.1875 10.109375 11.1875 
Q 9.765625 11.1875 9.328125 11.25 
Q 8.890625 11.328125 8.6875 11.375 
z
" id="Cmr10-35"/>
     </defs>
     <g transform="translate(112.18 169.089375)scale(0.1 -0.1)">
      <use transform="translate(0 0.390625)" xlink:href="#Cmmi10-b9"/>
      <use transform="translate(77.763672 0.390625)" xlink:href="#Cmr10-3d"/>
      <use transform="translate(173.007812 0.390625)" xlink:href="#Cmr10-30"/>
      <use transform="translate(223.007812 0.390625)" xlink:href="#Cmmi10-3a"/>
      <use transform="translate(250.693359 0.390625)" xlink:href="#Cmr10-30"/>
      <use transform="translate(300.693359 0.390625)" xlink:href="#Cmr10-35"/>
     </g>
    </g>
    <g id="line2d_66">
     <path d="M 109.68 175.587812 
L 104.18 175.587812 
" style="fill:none;stroke:#29ffce;stroke-linecap:square;"/>
    </g>
    <g id="line2d_67"/>
    <g id="text_15">
     <!-- $\mu=0.10$ -->
     <g transform="translate(112.18 179.087812)scale(0.1 -0.1)">
      <use transform="translate(0 0.390625)" xlink:href="#Cmmi10-b9"/>
      <use transform="translate(77.763672 0.390625)" xlink:href="#Cmr10-3d"/>
      <use transform="translate(173.007812 0.390625)" xlink:href="#Cmr10-30"/>
      <use transform="translate(223.007812 0.390625)" xlink:href="#Cmmi10-3a"/>
      <use transform="translate(250.693359 0.390625)" xlink:href="#Cmr10-31"/>
      <use transform="translate(300.693359 0.390625)" xlink:href="#Cmr10-30"/>
     </g>
    </g>
    <g id="line2d_68">
     <path d="M 109.68 185.58625 
L 104.18 185.58625 
" style="fill:none;stroke:#7dff7a;stroke-linecap:square;"/>
    </g>
    <g id="line2d_69"/>
    <g id="text_16">
     <!-- $\mu=0.20$ -->
     <g transform="translate(112.18 189.08625)scale(0.1 -0.1)">
      <use transform="translate(0 0.390625)" xlink:href="#Cmmi10-b9"/>
      <use transform="translate(77.763672 0.390625)" xlink:href="#Cmr10-3d"/>
      <use transform="translate(173.007812 0.390625)" xlink:href="#Cmr10-30"/>
      <use transform="translate(223.007812 0.390625)" xlink:href="#Cmmi10-3a"/>
      <use transform="translate(250.693359 0.390625)" xlink:href="#Cmr10-32"/>
      <use transform="translate(300.693359 0.390625)" xlink:href="#Cmr10-30"/>
     </g>
    </g>
    <g id="line2d_70">
     <path d="M 109.68 195.584687 
L 104.18 195.584687 
" style="fill:none;stroke:#ceff29;stroke-linecap:square;"/>
    </g>
    <g id="line2d_71"/>
    <g id="text_17">
     <!-- $\mu=0.50$ -->
     <g transform="translate(112.18 199.084687)scale(0.1 -0.1)">
      <use transform="translate(0 0.390625)" xlink:href="#Cmmi10-b9"/>
      <use transform="translate(77.763672 0.390625)" xlink:href="#Cmr10-3d"/>
      <use transform="translate(173.007812 0.390625)" xlink:href="#Cmr10-30"/>
      <use transform="translate(223.007812 0.390625)" xlink:href="#Cmmi10-3a"/>
      <use transform="translate(250.693359 0.390625)" xlink:href="#Cmr10-35"/>
      <use transform="translate(300.693359 0.390625)" xlink:href="#Cmr10-30"/>
     </g>
    </g>
    <g id="line2d_72">
     <path d="M 109.68 205.583125 
L 104.18 205.583125 
" style="fill:none;stroke:#ffc400;stroke-linecap:square;"/>
    </g>
    <g id="line2d_73"/>
    <g id="text_18">
     <!-- $\mu=1.00$ -->
     <g transform="translate(112.18 209.083125)scale(0.1 -0.1)">
      <use transform="translate(0 0.390625)" xlink:href="#Cmmi10-b9"/>
      <use transform="translate(77.763672 0.390625)" xlink:href="#Cmr10-3d"/>
      <use transform="translate(173.007812 0.390625)" xlink:href="#Cmr10-31"/>
      <use transform="translate(223.007812 0.390625)" xlink:href="#Cmmi10-3a"/>
      <use transform="translate(250.693359 0.390625)" xlink:href="#Cmr10-30"/>
      <use transform="translate(300.693359 0.390625)" xlink:href="#Cmr10-30"/>
     </g>
    </g>
    <g id="line2d_74">
     <path d="M 109.68 215.581562 
L 104.18 215.581562 
" style="fill:none;stroke:#ff6800;stroke-linecap:square;"/>
    </g>
    <g id="line2d_75"/>
    <g id="text_19">
     <!-- $\mu=2.00$ -->
     <g transform="translate(112.18 219.081562)scale(0.1 -0.1)">
      <use transform="translate(0 0.390625)" xlink:href="#Cmmi10-b9"/>
      <use transform="translate(77.763672 0.390625)" xlink:href="#Cmr10-3d"/>
      <use transform="translate(173.007812 0.390625)" xlink:href="#Cmr10-32"/>
      <use transform="translate(223.007812 0.390625)" xlink:href="#Cmmi10-3a"/>
      <use transform="translate(250.693359 0.390625)" xlink:href="#Cmr10-30"/>
      <use transform="translate(300.693359 0.390625)" xlink:href="#Cmr10-30"/>
     </g>
    </g>
    <g id="line2d_76">
     <path d="M 109.68 225.58 
L 104.18 225.58 
" style="fill:none;stroke:#f10800;stroke-linecap:square;"/>
    </g>
    <g id="line2d_77"/>
    <g id="text_20">
     <!-- $\mu=5.00$ -->
     <g transform="translate(112.18 229.08)scale(0.1 -0.1)">
      <use transform="translate(0 0.390625)" xlink:href="#Cmmi10-b9"/>
      <use transform="translate(77.763672 0.390625)" xlink:href="#Cmr10-3d"/>
      <use transform="translate(173.007812 0.390625)" xlink:href="#Cmr10-35"/>
      <use transform="translate(223.007812 0.390625)" xlink:href="#Cmmi10-3a"/>
      <use transform="translate(250.693359 0.390625)" xlink:href="#Cmr10-30"/>
      <use transform="translate(300.693359 0.390625)" xlink:href="#Cmr10-30"/>
     </g>
    </g>
   </g>
  </g>
 </g>
 <defs>
  <clipPath id="p5c3dfc51e6">
   <rect height="207.4" width="304.926616" x="95.68" y="34.88"/>
  </clipPath>
 </defs>
</svg>
